<?xml version="1.0" encoding="UTF-8"?>
<svg id="Layer_2" data-name="Layer 2" xmlns="http://www.w3.org/2000/svg" viewBox="0 0 1513.2 172.1">
  <path d="M21.74,139.01c20.29-34.3,40.58-68.61,60.88-102.91-6.68-3.91-13.36-7.81-20.04-11.72-13.25,30.54-15.41,64.83-4.34,96.45,3.16,9.01,16.09,11.99,21.21,2.77,13.14-23.63,25.29-47.79,36.42-72.43-7.21-1.95-14.42-3.91-21.63-5.86-.94,12.78-1.91,25.56-2.83,38.35-.85,11.74,1.51,23.37,12.65,29.48,8.91,4.88,20.25,4.38,29.13-.28,9.74-5.13,16.11-14.54,21.8-23.61-7.21-1.95-14.42-3.91-21.63-5.86-.25,7.63-.51,15.26-.76,22.9-.27,8.08,10.37,15.43,17.47,10.02,1.39-1.06,3.32-2.07,4.44-2.77.04-.03.97-.53.87-.27-.25.05-.48.01-.71-.1-2.21-.58-3.79-2.17-4.76-4.76,3.21,7.61,12.71,12.07,19.4,5.12,10.31-10.72,20.63-21.45,30.94-32.17-6.47-3.76-12.93-7.53-19.4-11.29-2.55,14.44-2.29,29.8,3.05,43.65,2.79,7.24,7.78,13.35,15.9,14.44,7.65,1.03,14.54-3.13,19.54-8.63,9.91-10.92,18.68-23.16,27.92-34.66,9.86-12.26,19.71-24.51,29.57-36.77-6.47-3.76-12.93-7.53-19.4-11.29-4.01,16.29-6.93,32.78-8.93,49.43-1.68,14-5.37,33.62,9.7,41.88,14.64,8.03,28.83-4.82,36.22-16.51,9.16-14.5,17.69-29.44,26.52-44.15-7.07-2.98-14.14-5.96-21.21-8.94-7.09,19.13-9.48,39.94-6.77,60.16,1.58,11.77,14.31,15.35,21.63,5.86,14.22-18.43,26.73-38.06,37.43-58.74-7.21-1.95-14.42-3.91-21.63-5.86-.1,10.57-.21,21.14-.31,31.71s12.35,14.06,19.81,8.21c11.59-9.1,21.43-19.76,30.1-31.65h-20.04c2.06,3.23,1.07,7.27.58,10.94-.75,5.68-1.19,10.7-.12,16.38,2.2,11.72,12.08,21.12,24.48,19.31,12.76-1.86,19.34-14.07,25.57-23.96,7.31-11.6,14.61-23.19,21.92-34.79-7.21-1.95-14.42-3.91-21.63-5.86-2.25,24.48,2.5,48.69,12.76,70.94,3.67,7.97,16.14,7.17,20.04,0,13.3-24.42,24.33-50.06,32.96-76.49-7.46-2.06-14.92-4.11-22.38-6.17-3.75,16.47-3.72,33.14.11,49.6,2.44,10.49,15.82,10.4,21.21,2.77,13.58-19.2,27.16-38.41,40.73-57.61-7.07-2.98-14.14-5.96-21.21-8.94-7.95,26.89-7.9,55.75.19,82.61,2.09,6.94,10.55,11.05,17.05,6.94,14.56-9.21,26.58-21.77,34.81-36.94-7.21-1.95-14.42-3.91-21.63-5.86-1.32,17.77-2.64,35.54-3.97,53.31-.72,9.67,13.47,15.82,19.81,8.21,14.03-16.82,28.07-33.64,42.1-50.47l-19.81-8.21c1.4,13.22,1.49,26.46.28,39.7-.87,9.54,13.69,15.99,19.81,8.21,7.76-9.86,15.53-19.72,23.29-29.57-6.47-3.76-12.93-7.53-19.4-11.29-6,20.12,14.52,37.26,33.58,35.88,21.46-1.56,33.52-21.72,41.67-39.22-7.07-.92-14.14-1.85-21.21-2.77,3.39,12.22,6.03,25.03,10.42,36.94,3.94,10.7,12.29,21.05,24.95,19.05,13.04-2.06,17.92-15.65,22.05-26.45,4.66-12.2,7.36-24.76,9.07-37.67.74-5.64-4.99-10.8-10.06-11.4-5.66-.67-11.17,2.64-12.74,8.31-6.92,25.12-10.65,51.09-11.17,77.14-.19,9.73,13.05,15.75,19.81,8.21,19.8-22.08,36.48-46.75,49.23-73.53-7.07-2.98-14.14-5.96-21.21-8.94-6.89,31.16-10.38,71.51,15.62,95.36,7.53,6.9,18.23,12.18,27.95,6.06,9.06-5.71,11.94-17.62,15.07-27.15,6.8-20.71,10.96-42.13,13.07-63.82.55-5.67-4.84-10.78-10.06-11.4-5.81-.69-10.96,2.68-12.74,8.31-8.36,26.59-12.08,54.61-10.95,82.46.46,11.2,15.73,16.19,21.63,5.86,17-29.75,34-59.49,51-89.24-7.07-.92-14.14-1.85-21.21-2.77,1.89,4.75,3.79,9.49,5.68,14.24,3.42,8.57,12.18,10.91,19.4,5.12,10.01-8.02,19.17-16.92,27.49-26.68-6.08-.78-12.15-1.57-18.23-2.35,5.54,12.63,11.46,25.08,17.8,37.32,5.82,11.24,12.19,23.06,25.06,27.2,24.43,7.86,41.44-18.58,49.14-37.54h-22.38c2.83,17.52,7.52,34.59,14.04,51.1,2.73,6.93,9.97,10.95,17.05,6.94,26.16-14.83,42.74-41.45,46.06-71.1-7.21,1.95-14.42,3.91-21.63,5.86,1.39,2.2,1.04,1.51,1.5,4.02-.27-1.49.07.92.1,1.4.06,1.11.09,2.21.1,3.32.03,4.1-.24,8.21.12,12.3.98,10.94,6.67,20.82,18.28,22.81,13.7,2.35,24-8.3,30.85-18.76,7.54-11.52,13.51-23.91,18.53-36.71-7.46-2.06-14.92-4.11-22.38-6.17-1.08,5.73-2.17,11.46-3.25,17.19s1.09,11.43,6.72,13.69c4.79,1.93,12.21.64,14.49-4.75,10.07-23.79,17.35-48.33,21.12-73.91,2.2-14.91-16.57-19.98-22.38-6.17-16.96,40.28-14.24,87.15,5.69,125.82,3.58,6.95,12.99,7.11,18.23,2.35,21.65-19.68,37.15-45.68,44.32-74.04,1.53-6.07-1.97-12.59-8.11-14.28-6.54-1.8-12.03,2.23-14.28,8.11-5.57,14.53-8.07,30.15-7.53,45.7.33,9.3,12.94,16.28,19.81,8.21,9.42-11.05,18.83-22.1,28.25-33.15-6.6-2.74-13.21-5.47-19.81-8.21.34,12.57-.85,24.82-3.79,37.05-3.49,14.52,18.89,20.71,22.38,6.17,3.4-14.14,5.01-28.68,4.62-43.22-.25-9.34-12.97-16.24-19.81-8.21-9.42,11.05-18.83,22.1-28.25,33.15,6.6,2.74,13.21,5.47,19.81,8.21-.48-13.7,1.79-26.73,6.7-39.53-7.46-2.06-14.92-4.11-22.38-6.17-6.25,24.75-19.46,46.63-38.35,63.79,6.08.78,12.15,1.57,18.23,2.35-17.29-33.54-17.92-73.34-3.35-107.93-7.46-2.06-14.92-4.11-22.38-6.17-3.44,23.4-9.54,46.56-18.78,68.36,7.07,2.98,14.14,5.96,21.21,8.94,1.08-5.73,2.17-11.46,3.25-17.19,2.81-14.84-16.96-20.02-22.38-6.17-3.55,9.05-7.95,17.75-12.98,26.06-2.29,3.78-4.53,8.06-7.92,10.99-1.02.88-1.91,1.27-2.99,2.06,1.15-.83,2.6.96.8-.43,1.23.95,1.51,2.77,1.32,1.01,0-.08-.54-3.56-.34-1.45-.33-3.43-.08-6.92-.07-10.37.03-7.54-.75-15.27-4.86-21.8-6.54-10.38-20.39-5.23-21.63,5.86-2.4,21.38-16.05,40.56-34.56,51.05,5.68,2.31,11.37,4.62,17.05,6.94-6.52-16.51-11.21-33.58-14.04-51.1-.8-4.95-6.5-8.52-11.19-8.52-5.51,0-9.24,3.72-11.19,8.52-2.7,6.65-6.67,13.61-12.08,18.45-3.86,3.45-6.2,4.73-10.13,1.75-3.09-2.34-4.91-6.62-6.68-9.92-2.28-4.25-4.48-8.55-6.64-12.86-4.95-9.86-9.61-19.85-14.04-29.96-2.89-6.59-13.74-7.62-18.23-2.35-8.32,9.76-17.48,18.66-27.49,26.68,6.47,1.71,12.93,3.41,19.4,5.12-1.89-4.75-3.79-9.49-5.68-14.24-3.51-8.79-15.85-12.16-21.21-2.77-17,29.75-34,59.49-51,89.24,7.21,1.95,14.42,3.91,21.63,5.86-1.06-25.97,2.32-51.49,10.12-76.29-7.6-1.03-15.2-2.06-22.8-3.09-1.61,16.51-4.84,32.82-9.48,48.74-2.17,7.45-5.32,14.64-7.59,21.98l-.78,1.29c-.55-1.52.9-1.96,4.36-1.32-.07-.36-1.42-.71-1.83-1.18-1.61-1.85-3.78-3.43-5.25-5.25-14.7-18.27-10.25-47.21-5.53-68.53,1.24-5.62-1.22-11.48-6.72-13.69-4.97-2-11.97-.55-14.49,4.75-11.9,25.01-27.1,48.21-45.6,68.83,6.6,2.74,13.21,5.47,19.81,8.21.47-24.08,3.94-47.74,10.34-70.97-7.6-1.03-15.2-2.06-22.8-3.09-1.07,8.13-3.09,16.22-5.6,24.01-1.32,4.08-2.77,8.13-4.5,12.06-.46,1.05-1.91,3.25-2.14,4.42-.7,3.6-1.25-.22.52.98.56-.23,1.13-.27,1.71-.14,2.26,1.52,2.62,1.61,1.08.26.32,1.27-1.39-2.45-1.27-2.19-1.23-2.51-1.95-5.95-2.81-9.06-2.62-9.46-5.25-18.92-7.87-28.38-2.48-8.96-16.85-12.14-21.21-2.77-4.55,9.78-9.93,23.26-20.84,27.5-2.38.92-6.25.15-9.16-1.65-1.2-.74-2.36-1.93-2.68-2.42-.11-.17-.48-.8-.46-.7-.06-.36-.05-.22.33-1.49,3.12-10.46-12.01-20.68-19.4-11.29-7.76,9.86-15.53,19.72-23.29,29.57,6.6,2.74,13.21,5.47,19.81,8.21,1.21-13.24,1.11-26.48-.28-39.7-.5-4.68-2.5-8.74-7.14-10.61-4-1.61-9.69-1.18-12.68,2.4-14.03,16.82-28.07,33.64-42.1,50.47,6.6,2.74,13.21,5.47,19.81,8.21,1.32-17.77,2.64-35.54,3.97-53.31.86-11.6-16.31-15.65-21.63-5.86-6.36,11.72-15.2,21.46-26.49,28.61,5.68,2.31,11.37,4.62,17.05,6.94-6.95-23.08-7.03-47.14-.19-70.26,1.62-5.49-1.5-11.59-6.72-13.69-5.65-2.27-11.06-.1-14.49,4.75-13.58,19.2-27.16,38.41-40.73,57.61,7.07.92,14.14,1.85,21.21,2.77-2.86-12.31-2.91-24.93-.11-37.26,3.32-14.6-17.75-20.38-22.38-6.17-8.02,24.58-18.25,48.23-30.62,70.94h20.04c-8.55-18.56-11.45-38.97-9.59-59.23,1.12-12.13-15.95-14.87-21.63-5.86-5.77,9.16-11.54,18.31-17.3,27.47-2.69,4.27-5.37,8.55-8.08,12.82-.3.48-5.37,7.12-5.35,7.19-.06-.18,5.41,2.3,2.48,1.22.05.02-.47-.48-.84-1.64-.59-1.9-.47-4.33-.22-6.94.96-9.86,2.67-19.03-3.04-27.99-5-7.84-14.9-7.05-20.04,0-7.45,10.22-16.54,19.16-26.47,26.96,6.6,2.74,13.21,5.47,19.81,8.21.1-10.57.21-21.14.31-31.71.11-11.18-16.26-16.24-21.63-5.86-10.7,20.68-23.21,40.3-37.43,58.74,7.21,1.95,14.42,3.91,21.63,5.86-2.48-18.49-.55-36.49,5.94-53.99,4.68-12.61-14.62-19.91-21.21-8.94-6.63,11.04-13.26,22.07-19.89,33.11-2.77,4.62-5.24,9.75-8.6,13.97-.96,1.2-3.76,2.85-4.3,4.09-1.01,2.36-.73-.3-.32.41.03.06,3.6.45,2.08.82.33-.08.44-8.08.55-9.4.51-5.92,1.14-11.84,1.96-17.73,1.79-12.8,4.33-25.49,7.42-38.04,2.55-10.36-11.7-20.87-19.4-11.29-14.67,18.24-29.34,36.48-44.01,54.73-3.67,4.56-7.31,9.14-11,13.68-1.1,1.35-4.4,3.98-4.96,5.51-2.57.78-.55,1.42,6.08,1.94-.52-.41-.78-.9-.76-1.46-.03-2.35-1.65-5.46-2.16-7.81s-.84-4.59-1.01-6.95c-.35-5.04-.22-10.11.66-15.09s-.6-10.34-5.33-13.11c-4.38-2.56-10.51-1.88-14.07,1.81-10.31,10.72-20.63,21.45-30.94,32.17,6.47,1.71,12.93,3.41,19.4,5.12-3.07-7.27-8.34-12.13-16.63-12.16-6.13-.02-12.49,2.5-17.32,6.19,5.82,3.34,11.64,6.68,17.47,10.02.25-7.63.51-15.26.76-22.9.4-11.91-15.74-15.25-21.63-5.86-3.27,5.22-6.63,11.16-12.03,14.48-1.65,1.01-3,1.37-4.7,1.39-1.29.02-3.42-.42-3.87-1.18.5.85.3.24.14-.52-.35-1.66-.15-3.39-.07-5.1.2-4.26.62-8.53.93-12.79.7-9.5,1.4-18.99,2.1-28.49.82-11.14-16.91-16.31-21.63-5.86-11.14,24.64-23.28,48.8-36.42,72.43,7.07.92,14.14,1.85,21.21,2.77-8.88-25.36-8.78-53.72,2-78.56,2.49-5.75,1.7-12.45-4.16-15.88-5.45-3.19-12.68-1.25-15.88,4.16C42.28,58.68,21.99,92.99,1.7,127.29c-7.62,12.89,12.44,24.58,20.04,11.72h0Z"/>
  <path d="M1206.35,78.84c-.03,11.48-.06,22.95-.08,34.43-.01,5.58-.03,11.16-.04,16.73,0,3.07-.04,6.17.75,9.17,1.11,4.19,4.06,7.94,7.84,10.04,7.14,3.95,14.8,1.16,20.63-3.6,4.26-3.48,6.84-8.5,9.58-13.16,5.75-9.8,11.5-19.6,17.25-29.41,6.56-11.18,13.12-22.36,19.68-33.55-7.21-1.95-14.42-3.91-21.63-5.86-1.22,22.02-2.44,44.05-3.66,66.07-.27,4.86,3.78,10.11,8.52,11.19,5.12,1.17,10.32-.8,13.11-5.33,16.59-26.95,32.66-54.23,48.19-81.81-7.21-1.95-14.42-3.91-21.63-5.86.41,13.12.82,26.24,1.24,39.36.35,11.17-.25,22.96,2.53,33.88,2.99,11.75,11.2,21.8,23.99,22.56,12.61.75,22.06-9.38,27.81-19.42,3.43-5.99,6.38-12.28,9.53-18.42,3.37-6.57,6.74-13.14,10.11-19.71-7.21-1.95-14.42-3.91-21.63-5.86-.05,17.99-.11,35.98-.16,53.97-.02,5.79,4.43,10.64,10.06,11.4,5.93.8,10.79-2.79,12.74-8.31,2.12-6.03,4.38-12,6.81-17.91.28-.69.54-1.39.85-2.06-1.24,2.68.04-.1.22-.51.59-1.36,1.18-2.73,1.78-4.08,1.33-2.99,2.69-5.96,4.1-8.91,5.49-11.53,11.61-22.77,18.27-33.66-7.21-1.95-14.42-3.91-21.63-5.86-.3,13.07-.61,26.14-.89,39.22-.14,6.69.94,13.52,5.99,18.38,7.37,7.08,18.34,5.09,25.12-1.62,4.37-4.32,7.06-10.14,9.78-15.55s5.04-10.47,7.3-15.82c4.93-11.64,9.18-23.51,12.45-35.73,3.65-13.65,6.07-27.56,7.59-41.6.66-6.06-5.81-11.87-11.61-11.61-6.86.31-10.89,5.12-11.61,11.61-3.8,34.24-5.35,68.71-4.58,103.15.19,8.61.53,17.21,1.01,25.81.43,7.73,1.2,15.69,5.82,22.22,2.8,3.95,6.33,7.31,11.12,8.67,4.7,1.33,10.18.51,14.18-2.33,8.08-5.74,9.7-16.12,12.35-25.04,5.59-18.8,11.17-37.61,16.76-56.41l-22.38-6.17c-1.97,9.72-3.94,19.44-5.91,29.16-1.16,5.72,1.18,11.35,6.72,13.69,5.2,2.19,11.65.32,14.49-4.75,3.23-5.75,6.68-11.37,10.37-16.83,1.8-2.67,3.66-5.3,5.58-7.9.43-.59.87-1.18,1.31-1.76.27-.36,2.01-2.82.32-.44,1.02-1.43,2.18-2.77,3.28-4.13-6.08-.78-12.15-1.57-18.23-2.35.29.44.58.88.84,1.34.13.22,1.09,2.44.47.73-.59-1.61.03.13.13.45.21.62.39,1.26.54,1.9.11.45.1,1.14.31,1.55-.29-.57-.13-2.33-.16-.73-.02,1.33,0,2.61-.16,3.94-.32,2.76,1.52,6.33,3.4,8.21,2.01,2.01,5.32,3.53,8.21,3.4,6.88-.31,10.86-5.12,11.61-11.61.82-7.15-1.22-14.9-5.15-20.9-2.03-3.11-4.79-5.05-8.48-5.54-3.33-.45-7.49.41-9.75,3.19-9.12,11.26-17.39,23.12-24.49,35.76,7.07,2.98,14.14,5.96,21.21,8.94,1.97-9.72,3.94-19.44,5.91-29.16,1.2-5.93-1.71-12.82-8.11-14.28s-12.43,1.88-14.28,8.11c-4.58,15.41-9.16,30.83-13.74,46.24-2.23,7.51-4.26,15.12-6.72,22.57l-.22.65c-.43,1.16-.3.87.4-.87l-.31.6c-.64,1.04-.4.8.71-.71-1.62,1.67,2.42-1.28.33-.19l1.75-.75c-1.19.29-.66.24,1.61-.16-2.01.09,3.14.67,1.23.11l1.9.78c-.97-.6-.6-.28,1.11.96-.26-.32-.8-.9-1.14-1.13,1.21,1.63,1.47,1.96.78.99-.22-.33-.43-.67-.63-1.02-.29-.51-.5-1.19-.84-1.65,1.55,2.08.68,1.72.24.41-.39-1.18-.48-2.55-.93-3.69.97,2.47.24,2.13.13.69-.08-.95-.12-1.91-.17-2.87-.13-2.23-.25-4.46-.36-6.69-.38-7.64-.65-15.3-.8-22.95-.32-15.94-.15-31.9.52-47.83.75-17.85,2.12-35.66,4.1-53.41h-23.21c-.14,1.3-.29,2.6-.45,3.9-.09.72-.16,1.45-.27,2.16.06-.34.38-2.64.06-.5-.38,2.59-.78,5.17-1.22,7.75-.9,5.15-1.95,10.28-3.17,15.36-2.43,10.17-5.48,20.2-9.13,30-.91,2.45-1.87,4.89-2.85,7.31-.17.41-.4,1.32-.66,1.61,1.06-1.16.6-1.39.15-.36-.58,1.33-1.16,2.66-1.75,3.99-2.14,4.77-4.43,9.47-6.87,14.1-1.15,2.18-2.3,4.37-3.62,6.45-.68,1.07-.77.15.46-.56-.22.13-.79.83-1,1.09-1.24,1.54.32-.52.72-.42-.37.26-.75.5-1.16.7l1.58-.69c1.26-.34,2.47-.17,3.7.13-1.93-.47,1.26.63,1.72.98s2.4,3.12,1.53,1.47c.14.26.78,2.77.52,1.08-.05-.3-.16-1.02-.27-1.23.82,1.61.24,2.44.2,1.16-.04-1.17-.04-2.34-.02-3.51.28-13.07.59-26.14.89-39.22.11-4.89-3.66-10.09-8.52-11.19-5.11-1.16-10.33.8-13.11,5.33-14.01,22.91-25.47,47.35-34.37,72.68,7.6,1.03,15.2,2.06,22.8,3.09.05-17.99.11-35.98.16-53.97.01-4.9-3.6-10.07-8.52-11.19-4.83-1.1-10.71.65-13.11,5.33-5.42,10.57-10.84,21.14-16.26,31.71-2.09,4.07-4.34,7.85-6.8,11.69,1.8-2.81.09-.19-.61.54-.66.7-1.57,1.31-2.17,2.05.15-.19,2.35-1.55.81-.66-.36.21-.71.45-1.07.66-.32.18-2.19,1.2-.29.21,1.86-.96-.24-.14-.66.05-1.23.56,2.58.09,1.24-.17-.3-.06-1.33-.12-1.59-.02.23-.09,2.9.67,1.3.13-.33-.11-.73-.22-1.07-.3-1.8-.45,1.43.44,1.28.54-.13.09-.98-.6-1.14-.67-1.23-.52,2.26,2.1.89.68-.37-.38-.75-.76-1.12-1.14-1.23-1.26,1.66,2.51.19.14-.45-.73-.78-1.53-1.21-2.27-.75-1.27,1.05,2.93.37.86-.13-.38-.27-.76-.4-1.14-.32-.97-.59-1.96-.83-2.96-.19-.81-.36-1.63-.51-2.44-.09-.51-.15-1.03-.25-1.55-.3-1.55.33,3.19.14.92-.16-1.94-.3-3.86-.36-5.8-.19-5.92-.37-11.84-.56-17.76-.42-13.28-.83-26.56-1.25-39.84-.15-4.92-3.48-10.04-8.52-11.19-4.98-1.13-10.51.72-13.11,5.33-15.53,27.58-31.6,54.86-48.19,81.81,7.21,1.95,14.42,3.91,21.63,5.86,1.22-22.02,2.44-44.05,3.66-66.07.27-4.86-3.78-10.11-8.52-11.19-5.04-1.15-10.42.76-13.11,5.33-10.29,17.53-20.57,35.07-30.86,52.6-2.59,4.42-5.18,8.84-7.78,13.25-.57.97-1.11,1.95-1.7,2.9-.07.12-.66.86-.69,1.08.15-1.2,1.56-1.77.58-.76-.54.56-1.53,1.27-1.92,1.92.16-.26,2.33-1.45.77-.63-.28.15-.88.39-1.08.62.92-1.05,2.43-.87,1.15-.57,1.41-.33,2.71-.3,4.09.06,2.38.6,4.04,2.57,4.88,4.76-.62-1.64.86.49.1.89.03-.02-.03-1.59-.03-1.49,0-1.27,0-2.55,0-3.83.01-5.1.02-10.2.04-15.3.03-11.48.06-22.95.08-34.43.01-6.07-5.35-11.89-11.61-11.61s-11.59,5.1-11.61,11.61h0Z"/>
</svg>