<?xml version="1.0" encoding="UTF-8"?>
<svg id="Layer_1" data-name="Layer 1" xmlns="http://www.w3.org/2000/svg" viewBox="0 0 1438.65 156.82">
  <path d="M20.04,127.71c18.7-31.62,37.4-63.23,56.11-94.85-6.16-3.6-12.32-7.2-18.47-10.8-12.21,28.15-14.21,59.75-4,88.89,2.91,8.3,14.83,11.05,19.55,2.56,12.11-21.78,23.3-44.05,33.57-66.76-6.64-1.8-13.29-3.6-19.93-5.4-.87,11.78-1.76,23.56-2.61,35.34-.78,10.82,1.39,21.54,11.66,27.17,8.21,4.5,18.67,4.04,26.84-.26,8.98-4.72,14.85-13.4,20.1-21.76-6.64-1.8-13.29-3.6-19.93-5.4-.23,7.03-.47,14.07-.7,21.1-.25,7.45,9.56,14.23,16.1,9.24,1.29-.98,3.06-1.91,4.1-2.55.04-.02.9-.49.81-.25-.23.04-.44.01-.65-.1-2.03-.54-3.5-2-4.39-4.38,2.96,7.02,11.72,11.13,17.88,4.72,9.51-9.88,19.01-19.77,28.52-29.65l-17.88-10.41c-2.35,13.31-2.11,27.46,2.81,40.23,2.57,6.67,7.17,12.31,14.66,13.31,7.05.95,13.41-2.88,18.01-7.95,9.13-10.07,17.21-21.35,25.73-31.94,9.08-11.3,18.17-22.59,27.25-33.89-5.96-3.47-11.92-6.94-17.88-10.41-3.69,15.01-6.39,30.21-8.23,45.56-1.55,12.9-4.95,30.98,8.94,38.6,13.5,7.4,26.57-4.44,33.38-15.22,8.45-13.36,16.3-27.14,24.44-40.69-6.52-2.75-13.03-5.5-19.55-8.24-6.54,17.63-8.74,36.81-6.24,55.44,1.46,10.85,13.19,14.14,19.93,5.4,13.11-16.99,24.64-35.08,34.5-54.13-6.64-1.8-13.29-3.6-19.93-5.4-.1,9.74-.19,19.48-.29,29.22-.1,10.14,11.39,12.96,18.26,7.56,10.69-8.38,19.75-18.21,27.74-29.17h-18.47c1.9,2.98.99,6.7.54,10.08-.69,5.24-1.09,9.86-.11,15.1,2.03,10.81,11.14,19.46,22.56,17.8,11.76-1.72,17.83-12.97,23.57-22.08,6.73-10.69,13.47-21.38,20.2-32.06-6.64-1.8-13.29-3.6-19.93-5.4-2.08,22.56,2.31,44.88,11.76,65.39,3.38,7.34,14.87,6.61,18.47,0,12.26-22.51,22.42-46.13,30.37-70.5-6.88-1.9-13.75-3.79-20.63-5.69-3.45,15.18-3.43,30.55.1,45.71,2.25,9.67,14.58,9.58,19.55,2.56,12.51-17.7,25.03-35.4,37.54-53.1-6.52-2.75-13.03-5.5-19.55-8.24-7.33,24.79-7.28,51.38.18,76.13,1.93,6.39,9.73,10.18,15.71,6.39,13.42-8.49,24.5-20.06,32.09-34.04-6.64-1.8-13.29-3.6-19.93-5.4-1.22,16.38-2.44,32.75-3.65,49.13-.66,8.92,12.41,14.58,18.26,7.56,12.93-15.5,25.87-31.01,38.8-46.51-6.09-2.52-12.17-5.04-18.26-7.56,1.29,12.19,1.38,24.39.26,36.59-.8,8.79,12.61,14.74,18.26,7.56,7.16-9.09,14.31-18.17,21.47-27.26-5.96-3.47-11.92-6.94-17.88-10.41-5.53,18.54,13.38,34.34,30.94,33.07,19.78-1.44,30.89-20.02,38.4-36.15-6.52-.85-13.03-1.7-19.55-2.56,3.13,11.27,5.56,23.07,9.6,34.04,3.64,9.86,11.32,19.4,22.99,17.56,12.01-1.9,16.52-14.43,20.32-24.38,4.3-11.24,6.79-22.82,8.36-34.72.69-5.2-4.6-9.95-9.28-10.51-5.22-.62-10.3,2.43-11.74,7.66-6.37,23.15-9.82,47.09-10.29,71.1-.18,8.97,12.03,14.52,18.26,7.56,18.25-20.35,33.62-43.08,45.37-67.77-6.52-2.75-13.03-5.5-19.55-8.24-6.35,28.72-9.57,65.91,14.39,87.89,6.94,6.36,16.8,11.23,25.76,5.58,8.35-5.27,11-16.24,13.89-25.02,6.27-19.09,10.1-38.83,12.04-58.82.51-5.22-4.46-9.93-9.28-10.51-5.36-.64-10.1,2.47-11.74,7.66-7.7,24.51-11.14,50.33-10.09,76,.42,10.32,14.49,14.92,19.93,5.4,15.67-27.41,31.33-54.83,47-82.24-6.52-.85-13.03-1.7-19.55-2.56,1.75,4.37,3.49,8.75,5.24,13.12,3.15,7.9,11.23,10.05,17.88,4.72,9.22-7.39,17.67-15.59,25.33-24.59-5.6-.72-11.2-1.44-16.8-2.17,5.11,11.64,10.56,23.12,16.41,34.4,5.37,10.36,11.23,21.25,23.1,25.07,22.52,7.25,38.19-17.13,45.29-34.6h-20.63c2.61,16.15,6.93,31.88,12.94,47.1,2.52,6.38,9.19,10.09,15.71,6.39,24.11-13.66,39.39-38.2,42.45-65.53-6.64,1.8-13.29,3.6-19.93,5.4,1.28,2.03.96,1.39,1.38,3.71-.25-1.37.07.85.09,1.29.05,1.02.08,2.04.09,3.06.03,3.78-.22,7.57.12,11.34.9,10.09,6.14,19.19,16.84,21.02,12.63,2.17,22.12-7.65,28.43-17.29,6.95-10.62,12.45-22.04,17.08-33.84-6.88-1.9-13.75-3.79-20.63-5.69-1,5.28-2,10.56-3,15.85s1.01,10.53,6.19,12.62c4.42,1.78,11.26.59,13.36-4.38,9.28-21.92,15.99-44.54,19.46-68.12,2.02-13.74-15.27-18.41-20.63-5.69-15.63,37.12-13.12,80.32,5.25,115.96,3.3,6.4,11.97,6.56,16.8,2.17,19.96-18.14,34.24-42.1,40.84-68.24,1.41-5.6-1.82-11.61-7.47-13.16-6.03-1.66-11.08,2.06-13.16,7.47-5.13,13.39-7.44,27.79-6.94,42.12.3,8.57,11.92,15,18.26,7.56,8.68-10.18,17.36-20.37,26.04-30.55l-18.26-7.56c.31,11.59-.78,22.88-3.49,34.15-3.21,13.38,17.41,19.09,20.63,5.69s4.62-26.43,4.26-39.84c-.23-8.61-11.96-14.96-18.26-7.56-8.68,10.18-17.36,20.37-26.04,30.55l18.26,7.56c-.44-12.63,1.65-24.63,6.17-36.43-6.88-1.9-13.75-3.79-20.63-5.69-5.76,22.81-17.94,42.98-35.34,58.8,5.6.72,11.2,1.44,16.8,2.17-15.93-30.91-16.52-67.59-3.09-99.48-6.88-1.9-13.75-3.79-20.63-5.69-3.18,21.56-8.8,42.91-17.3,63.01,6.52,2.75,13.03,5.5,19.55,8.24,1-5.28,2-10.56,3-15.85,2.59-13.68-15.63-18.45-20.63-5.69-3.27,8.34-7.33,16.36-11.97,24.02-2.11,3.48-4.17,7.43-7.3,10.13-.94.81-1.76,1.17-2.76,1.9,1.06-.77,2.4.89.74-.4,1.13.88,1.39,2.55,1.22.93,0-.07-.5-3.28-.31-1.34-.31-3.17-.07-6.38-.06-9.55.02-6.95-.69-14.08-4.48-20.09-6.03-9.57-18.79-4.82-19.93,5.4-2.21,19.7-14.79,37.38-31.85,47.05,5.24,2.13,10.48,4.26,15.71,6.39-6.01-15.21-10.33-30.95-12.94-47.1-.74-4.56-5.99-7.85-10.32-7.85-5.08,0-8.52,3.43-10.32,7.85-2.49,6.13-6.15,12.55-11.13,17-3.55,3.18-5.72,4.36-9.34,1.62-2.84-2.15-4.52-6.1-6.15-9.14-2.1-3.92-4.13-7.88-6.12-11.86-4.56-9.09-8.86-18.3-12.94-27.61-2.66-6.07-12.67-7.02-16.8-2.17-7.66,9-16.11,17.2-25.33,24.59,5.96,1.57,11.92,3.15,17.88,4.72-1.75-4.37-3.49-8.75-5.24-13.12-3.23-8.1-14.61-11.2-19.55-2.56-15.67,27.41-31.33,54.83-47,82.24,6.64,1.8,13.29,3.6,19.93,5.4-.98-23.94,2.14-47.45,9.32-70.31-7-.95-14.01-1.9-21.01-2.84-1.48,15.21-4.46,30.25-8.74,44.92-2,6.86-4.9,13.49-6.99,20.26l-.72,1.18c-.51-1.4.83-1.8,4.02-1.22-.07-.33-1.31-.65-1.69-1.08-1.49-1.7-3.48-3.16-4.84-4.84-13.55-16.84-9.44-43.51-5.1-63.16,1.15-5.18-1.12-10.58-6.19-12.62-4.58-1.84-11.04-.5-13.36,4.38-10.97,23.05-24.98,44.43-42.03,63.44l18.26,7.56c.44-22.2,3.63-44,9.53-65.41-7-.95-14.01-1.9-21.01-2.84-.99,7.49-2.84,14.95-5.16,22.13-1.21,3.76-2.55,7.5-4.15,11.11-.43.97-1.76,3-1.97,4.08-.65,3.32-1.15-.2.48.91.52-.21,1.04-.25,1.57-.13,2.08,1.4,2.42,1.48,1,.24.3,1.17-1.29-2.26-1.17-2.02-1.14-2.31-1.79-5.48-2.59-8.35-2.42-8.72-4.84-17.44-7.26-26.16-2.29-8.25-15.53-11.19-19.55-2.56-4.2,9.01-9.15,21.44-19.21,25.34-2.19.85-5.76.14-8.44-1.52-1.1-.68-2.17-1.78-2.47-2.23-.1-.15-.44-.74-.43-.65-.05-.33-.05-.2.3-1.37,2.88-9.64-11.07-19.06-17.88-10.41-7.16,9.09-14.31,18.17-21.47,27.26l18.26,7.56c1.11-12.2,1.03-24.4-.26-36.59-.46-4.32-2.31-8.06-6.58-9.78-3.69-1.48-8.93-1.09-11.69,2.21-12.93,15.5-25.87,31.01-38.8,46.51l18.26,7.56c1.22-16.38,2.44-32.75,3.65-49.13.8-10.69-15.04-14.43-19.93-5.4-5.86,10.8-14,19.78-24.41,26.37,5.24,2.13,10.48,4.26,15.71,6.39-6.41-21.28-6.48-43.45-.18-64.76,1.5-5.06-1.39-10.69-6.19-12.62-5.21-2.09-10.2-.09-13.36,4.38-12.51,17.7-25.03,35.4-37.54,53.1,6.52.85,13.03,1.7,19.55,2.56-2.64-11.35-2.68-22.98-.1-34.34,3.06-13.45-16.35-18.78-20.63-5.69-7.4,22.66-16.82,44.45-28.22,65.38h18.47c-7.88-17.1-10.55-35.91-8.83-54.59,1.03-11.17-14.7-13.71-19.93-5.4s-10.63,16.88-15.95,25.31c-2.48,3.94-4.95,7.88-7.44,11.81-.28.44-4.95,6.56-4.93,6.62-.05-.17,4.99,2.12,2.29,1.13.05.02-.44-.44-.77-1.52-.55-1.75-.43-3.99-.2-6.39.89-9.09,2.46-17.53-2.8-25.8-4.6-7.23-13.73-6.5-18.47,0-6.86,9.42-15.24,17.66-24.39,24.84l18.26,7.56c.1-9.74.19-19.48.29-29.22.1-10.31-14.98-14.97-19.93-5.4-9.86,19.06-21.39,37.15-34.5,54.13,6.64,1.8,13.29,3.6,19.93,5.4-2.29-17.04-.5-33.63,5.48-49.75,4.31-11.62-13.48-18.35-19.55-8.24-6.11,10.17-12.22,20.34-18.33,30.51-2.56,4.26-4.83,8.99-7.92,12.88-.88,1.1-3.47,2.62-3.96,3.77-.93,2.17-.67-.28-.3.38.03.06,3.32.42,1.92.75.3-.07.4-7.45.51-8.66.47-5.46,1.05-10.92,1.81-16.34,1.65-11.8,3.99-23.49,6.84-35.05,2.35-9.55-10.78-19.23-17.88-10.41-13.52,16.81-27.04,33.63-40.56,50.44-3.38,4.2-6.74,8.42-10.14,12.61-1.01,1.25-4.06,3.66-4.58,5.08-2.37.72-.51,1.31,5.6,1.79-.48-.38-.72-.83-.7-1.34-.03-2.17-1.53-5.03-1.99-7.2s-.78-4.23-.93-6.4c-.32-4.64-.2-9.32.61-13.91s-.55-9.53-4.92-12.08c-4.04-2.36-9.68-1.74-12.96,1.67-9.51,9.88-19.01,19.77-28.52,29.65l17.88,4.72c-2.83-6.7-7.69-11.18-15.33-11.21-5.65-.02-11.51,2.3-15.96,5.7,5.37,3.08,10.73,6.16,16.1,9.24.23-7.03.47-14.07.7-21.1.36-10.98-14.51-14.05-19.93-5.4-3.02,4.81-6.11,10.29-11.09,13.34-1.52.93-2.77,1.26-4.33,1.28-1.19.02-3.15-.39-3.56-1.09.46.78.27.22.13-.48-.32-1.53-.14-3.13-.06-4.7.19-3.93.57-7.86.86-11.79.65-8.75,1.29-17.5,1.94-26.25.76-10.27-15.58-15.03-19.93-5.4-10.26,22.71-21.46,44.98-33.57,66.76,6.52.85,13.03,1.7,19.55,2.56-8.19-23.37-8.09-49.51,1.84-72.4,2.3-5.3,1.56-11.48-3.84-14.64-5.03-2.94-11.69-1.15-14.64,3.84C38.97,53.68,20.27,85.29,1.57,116.91c-7.03,11.88,11.46,22.65,18.47,10.8h0Z"/>
  <path d="M1113.34,130.82c10.91-24.08,23-47.61,36.22-70.5-6.52-2.75-13.03-5.5-19.55-8.24-9.72,24.07-13.99,50.51-12.49,76.42.25,4.33,2.49,8.05,6.58,9.78,3.86,1.63,8.7.89,11.69-2.21,24.25-25.18,45.91-52.96,64.4-82.64,5.17-8.3,10.08-16.75,14.74-25.34-6.52-2.75-13.03-5.5-19.55-8.24-5.46,16.32-10.88,32.71-14.34,49.59-3.72,18.15-4.97,36.27-2.42,54.65.49,3.55,4.24,6.58,7.47,7.47,3.69,1.02,7.7-.06,10.41-2.75,15.84-15.78,29.57-33.81,40.56-53.28-6.64-1.8-13.29-3.6-19.93-5.4-.43,13.41-.86,26.81-1.29,40.22-.34,10.6,14.84,14.57,19.93,5.4,5.91-10.64,11.83-21.27,17.74-31.91-6.52-2.75-13.03-5.5-19.55-8.24-2.53,10.08-4.7,21.6-1.26,31.75,4.13,12.21,15.13,20.25,28.13,19.98,11.83-.24,22.57-6.34,29.92-15.43,7.38-9.13,12.17-19.84,17.4-30.27,6.46-12.89,12.91-25.78,19.37-38.67-6.64-1.8-13.29-3.6-19.93-5.4-2.15,30.88-4.3,61.77-6.46,92.65-.29,4.2,2.93,8.24,6.58,9.78,3.57,1.51,9.07,1.1,11.69-2.21,17.97-22.77,33.33-47.34,45.39-73.73-6.52-2.75-13.03-5.5-19.55-8.24-5.38,16.28-3.34,34.51,4.92,49.45,3.07,5.54,12.47,7.54,16.8,2.17,6.19-7.68,12.39-15.36,18.58-23.03-5.96-3.47-11.92-6.94-17.88-10.41-4.19,10.87-7.24,23.41-.71,34.08,6.31,10.31,20.12,15.91,30.88,8.55,9.18-6.27,13.21-17.24,17.34-27.1,3.9-9.29,7.19-18.83,9.78-28.57,3.11-11.72,5.15-23.69,6.41-35.75h-21.39c-.99,25.12-1.99,50.24-2.98,75.36-.32,8.04,9.35,13.42,16.1,9.24,3.42-2.12,6.84-4.24,10.26-6.37-5.37-3.08-10.73-6.16-16.1-9.24-.1,1.38-.22,2.76-.36,4.14-.06.55-.12,1.1-.18,1.65-.22,2.1.21-1.32,0,.04-.39,2.6-.82,5.2-1.35,7.78-1.07,5.16-2.47,10.24-4.16,15.23-1.8,5.3,2.06,11.93,7.47,13.16,5.93,1.35,11.23-1.79,13.16-7.47,3.78-11.16,5.95-22.78,6.81-34.53.6-8.11-9.53-13.31-16.1-9.24-3.42,2.12-6.84,4.24-10.26,6.37,5.37,3.08,10.73,6.16,16.1,9.24.99-25.12,1.99-50.24,2.98-75.36.22-5.6-5.08-10.95-10.7-10.7-6.3.28-10.07,4.72-10.7,10.7-.11,1.08-.23,2.17-.36,3.25-.09.73-.41,4.03-.14,1.21-.2,2.16-.63,4.32-.99,6.46-.73,4.29-1.59,8.57-2.58,12.81-2.01,8.62-4.55,17.11-7.6,25.42-.7,1.92-1.44,3.82-2.2,5.72-.39.98-.73,2.09-1.24,3.02.16-.29.92-2.11.12-.3-.27.62-.54,1.25-.82,1.87-1.61,3.62-3.21,7.3-5.24,10.71-.39.65-.81,1.27-1.22,1.91-.95,1.48.35-.49.52-.63-.29.24-.56.66-.82.95s-.6.58-.88.88c-1.12,1.25.45-.46.75-.51-.18.03-.92.6-1.01.66-1.5,1,1.83-.5.63-.2-.39.1-.8.21-1.19.33-1.29.4,2.33-.02,1-.17-2.35-.27,1.92.69.16.05-1.65-.6.76.39.86.46-.3-.22-.75-.37-1.08-.56-.1-.06-.84-.66-1.03-.68.62.07,1.86,1.6.5.25-.3-.3-.57-.63-.86-.93-.87-.9,1.26,1.98.34.36-.21-.36-.42-.76-.65-1.11-1.01-1.55.52,1.69.16.5-.09-.29-.98-2.58-.74-2.76.14-.11.08,2.79.13.38.02-.68-.02-1.37,0-2.05.02-.38.07-2.16,0-.63-.08,1.63.13-.67.2-1.03.25-1.23.57-2.44.93-3.64.76-2.55,1.71-5.04,2.66-7.53,1.62-4.2-1.04-10.04-4.92-12.08-3.9-2.06-9.94-2.08-12.96,1.67-6.19,7.68-12.39,15.36-18.58,23.03,5.6.72,11.2,1.44,16.8,2.17-.48-.87-.95-1.75-1.39-2.65-.3-.62-1.52-2.59-.14-.17-.82-1.44-1.27-3.35-1.74-4.93-.42-1.43-.78-2.89-1.08-4.35-.16-.8-.66-2.14-.51-2.95l.19,1.36c-.06-.5-.11-.99-.15-1.49-.28-3.24-.2-6.46.07-9.7.19-2.24-.41,2.34.07-.49.15-.86.31-1.72.5-2.57.38-1.7.86-3.38,1.41-5.03,1.67-5.06-1.53-10.65-6.19-12.62-4.49-1.89-11.14-.48-13.36,4.38-5.77,12.62-12.26,24.91-19.48,36.76-3.57,5.87-7.32,11.63-11.24,17.28-2,2.88-4.04,5.73-6.12,8.54-.96,1.3-1.93,2.59-2.91,3.88-.66.86-1.37,1.83-.3.4-.64.86-1.33,1.7-1.99,2.55l18.26,7.56c2.15-30.88,4.3-61.77,6.46-92.65.31-4.47-3.53-9.33-7.85-10.32s-9.91.59-12.08,4.92c-5.14,10.26-10.28,20.52-15.42,30.78-4.73,9.45-9.13,19.19-14.48,28.32-1.09,1.85-2.24,3.67-3.48,5.41-.12.17-.59,1-.84,1.15l.8-1.04c-.29.37-.59.73-.9,1.09-.76.9-1.56,1.76-2.4,2.59-.3.3-2.21,2.44-2.63,2.37,0,0,2.07-1.46.54-.42-.35.24-.69.48-1.04.71-.9.57-1.83,1.06-2.77,1.55-1.56.82.59-.28.81-.3-.64.04-1.47.55-2.1.75-.91.29-1.84.52-2.77.71-.31.06-2.4.51-.45.1s-.06-.04-.45-.02c-.83.04-1.66-.02-2.48-.02-2.24.01,2.58.59.41.09-.59-.14-1.19-.24-1.78-.41-.39-.11-.77-.24-1.15-.37-2.02-.64,1.83.97.61.25-.77-.46-1.55-.99-2.34-1.42,2.15,1.17,1.22.97.5.28-.38-.36-.72-.75-1.08-1.13-.65-.66-.37-1.19.54.72-.25-.52-.68-1.03-.96-1.53-.25-.44-.45-.89-.68-1.34-.48-.94.94,2.57.21.31-.35-1.07-.58-2.16-.8-3.26-.35-1.76.16.84.13.99.14-.61-.13-1.57-.15-2.21-.04-1.18-.03-2.37.03-3.55.05-1.1.17-2.19.28-3.28.22-2.3-.34,2.07-.07.54.13-.76.25-1.53.39-2.3.43-2.36.98-4.7,1.56-7.02,1.31-5.2-1.26-10.54-6.19-12.62-4.77-2.01-10.75-.31-13.36,4.38-5.91,10.64-11.83,21.27-17.74,31.91,6.64,1.8,13.29,3.6,19.93,5.4.43-13.41.86-26.81,1.29-40.22.14-4.5-3.41-9.3-7.85-10.32s-9.69.67-12.08,4.92c-5.21,9.24-11.02,18.14-17.43,26.59-.33.44-1.5,2.05,0,.02-.39.53-.81,1.03-1.21,1.55-.81,1.03-1.63,2.05-2.46,3.06-1.66,2.03-3.35,4.03-5.08,6-3.54,4.04-7.22,7.95-11.03,11.74,5.96,1.57,11.92,3.15,17.88,4.72.4,2.91-.08-.85-.14-1.39-.12-1.13-.22-2.26-.3-3.39-.15-1.97-.24-3.95-.29-5.93-.1-3.95,0-7.9.25-11.84.13-1.97.3-3.94.5-5.91.12-1.13.26-2.25.39-3.37.16-1.23.14-1.12-.04.32.08-.56.16-1.12.25-1.68.6-3.94,1.32-7.86,2.15-11.76,3.47-16.29,8.71-32.14,13.99-47.91,1.69-5.06-1.55-10.66-6.19-12.62-4.74-2-10.8-.33-13.36,4.38-8.13,14.97-17.03,29.52-26.67,43.57-4.79,6.97-9.75,13.81-14.89,20.52-.22.28-1.26,1.65-.37.49.84-1.09.01-.02-.13.17-.65.83-1.3,1.67-1.95,2.5-1.39,1.76-2.79,3.52-4.21,5.26-2.66,3.28-5.37,6.53-8.11,9.74-6.27,7.33-12.76,14.46-19.44,21.4,6.09,2.52,12.17,5.04,18.26,7.56-.36-6.26-.4-12.53-.07-18.79.16-2.99.39-5.98.71-8.96.09-.81.18-1.62.28-2.44.08-.65.25-3.19.04-.4.11-1.48.44-2.98.68-4.44,2.04-12.24,5.45-24.21,10.09-35.71.93-2.3.23-6.21-1.08-8.24s-2.93-3.45-5.12-4.38c-4.83-2.04-10.67-.27-13.36,4.38-13.22,22.89-25.31,46.42-36.22,70.5-1.22,2.7-1.89,5.28-1.08,8.24.68,2.48,2.6,5.17,4.92,6.39,4.69,2.48,12.17,1.6,14.64-3.84h0Z"/>
</svg>