<?xml version="1.0" encoding="UTF-8"?>
<svg id="Layer_1" data-name="Layer 1" xmlns="http://www.w3.org/2000/svg" viewBox="0 0 757.32 141.77">
  <path d="M22.23,120.61c16.93-30.28,33.87-60.55,50.8-90.83-7.3-3.08-14.6-6.16-21.9-9.23-10.6,25.45-15.71,53.16-15.23,80.72.1,5.99,4.48,10.97,10.39,11.77,6.39.86,10.79-2.99,13.15-8.58,12.54-29.78,25.08-59.56,37.62-89.35-7.7-2.12-15.41-4.25-23.11-6.37-9.13,39.63-12.72,80.53-10.31,121.14.29,4.86,2.78,9.01,7.37,10.95,4.02,1.7,10.14,1.22,13.09-2.48,18.54-23.23,34.45-48.27,47.06-75.21-7.44-2.02-14.89-4.03-22.33-6.05,1.85,22.26,5.61,44.34,11.49,65.9,1.26,4.6,5.31,7.96,9.96,8.58,5.14.69,8.93-1.76,11.94-5.72,11.07-14.59,20.72-30.17,28.85-46.58-7.44-2.02-14.89-4.03-22.33-6.05-.04,16.59,3.98,32.68,11.47,47.46,4.24,8.38,16.15,7.16,20.69,0,11.19-17.64,22.38-35.28,33.57-52.93-7.44-2.02-14.89-4.03-22.33-6.05.6,20.66,1.2,41.33,1.8,61.99.14,4.83,2.9,9.07,7.37,10.95,4.15,1.75,9.97,1.13,13.09-2.48,20.15-23.3,34.79-50.93,42.12-80.9l-23.54-3.19c.12,16.24.24,32.47.36,48.71.04,4.8,2.98,9.1,7.37,10.95,4.02,1.7,10.13,1.22,13.09-2.48,9.35-11.7,16.46-24.42,21.16-38.68-7.85-1.06-15.69-2.12-23.54-3.19-.37,14.65-.88,29.31-1.11,43.97-.09,6.15.61,12.49,3.8,17.88,4.37,7.37,13.35,11.09,21.65,9.11,7.52-1.79,13.18-7.38,17.69-13.33,4.2-5.55,8.11-11.34,12.13-17.02,8.29-11.7,16.59-23.41,24.88-35.11-7.3-3.08-14.6-6.16-21.9-9.23-4.62,14.19-6.69,29.32-6.08,44.23.36,8.85,9.97,15.22,18.03,10.35,17.77-10.75,32.76-24.95,44.82-41.81-7.44-2.02-14.89-4.03-22.33-6.05.31,17.72,4.41,34.66,11.7,50.77,3.4,7.52,13.59,6.99,18.82,2.43,18.41-16.08,35.55-33.54,51.29-52.25-6.82-2.82-13.64-5.65-20.46-8.47.33,15.04.66,30.08.99,45.12.16,7.43-.01,14.89,3.13,21.79s10.33,11.56,18.19,11.32,14.59-5.75,19.65-11.52c4.78-5.45,9.24-11.25,13.27-17.27,7.53-11.25,13.37-23.56,17.82-36.32h-23.11c5.05,19.89,10.1,39.78,15.16,59.68,2.09,8.24,14.16,12.26,20.03,5.29,7.48-8.89,12.96-19.17,15.14-30.66-7.85-1.06-15.69-2.12-23.54-3.19.45,10.76,9.96,18.82,20.73,17.77,11.49-1.12,18.45-10.25,20.87-20.98,2.21-9.78,3.49-19.85,5.18-29.73,1.81-10.57,3.63-21.13,5.44-31.7l-23.11-6.37c-4.51,33.24-3.62,66.5,3.09,99.4,1.8,8.83,14.1,11.57,20.03,5.29,21.5-22.77,37.93-49.49,48.9-78.79-7.85-1.06-15.69-2.12-23.54-3.19.62,13.67,1.23,27.34,1.85,41.02.56,12.44,3.17,27.49,17.4,31.1,15.42,3.91,25.56-9.86,32.51-21.29,6.83-11.23,12.41-23.15,17.09-35.42-7.7-2.12-15.41-4.25-23.11-6.37-3.46,10.64-4.66,22.14-3.23,33.25,1.45,11.23,7.27,24.59,20.61,24.81,13.35.21,18.91-12.11,24.43-22.08s11.1-20.01,16.65-30.02c-6.9-4.03-13.8-8.06-20.69-12.1-4.97,9.46-7.65,19.64-7.78,30.33-.1,8.95,10.3,15.11,18.03,10.35,7.89-4.86,14.47-11.55,18.93-19.7,3.01-5.5,1.53-13.31-4.3-16.39-5.86-3.1-12.87-1.4-16.39,4.3-12.28,19.89-12.08,46.72.89,66.25,3.91,5.89,13.57,8.7,18.82,2.43,23.66-28.3,40.79-61.59,49.33-97.53l-23.54-3.19c-.19,29.15,4.39,58.39,13.63,86.04,3.23,9.65,16.42,12.01,21.9,2.86,7.47-12.46,14.94-24.93,22.41-37.39-7.44-2.02-14.89-4.03-22.33-6.05.52,11.88,1.04,23.75,1.56,35.63.27,6.25,5.32,12.28,11.98,11.98,6.26-.28,12.28-5.28,11.98-11.98-.52-11.88-1.04-23.75-1.56-35.63-.51-11.71-16.06-16.51-22.33-6.05-7.47,12.46-14.94,24.93-22.41,37.39,7.3.95,14.6,1.91,21.9,2.86-8.9-26.62-12.96-51.92-12.78-79.67.09-13.32-20.37-16.52-23.54-3.19-3.97,16.72-9.39,31.77-16.51,45.97-3.75,7.48-7.92,14.74-12.48,21.75-4.89,7.52-9.08,13.13-14.18,19.23,6.27.81,12.55,1.62,18.82,2.43-1.25-1.88-2.34-3.81-3.37-5.82-1.59-3.1.62,2.02-.56-1.25-.38-1.06-.75-2.11-1.07-3.19-.59-1.98-.93-4-1.4-6.01-.14-.87-.13-.74.03.41-.07-.56-.12-1.12-.16-1.68-.09-1.12-.15-2.24-.16-3.37-.03-2.07.14-4.11.26-6.17-.15,2.49.16-.93.23-1.25.21-1.1.46-2.2.75-3.28s.61-2.16.97-3.22c.15-.46,1.35-3.44.42-1.31.9-2.06,2-4.02,3.18-5.93-6.9-4.03-13.8-8.06-20.69-12.1-.73,1.33-1.51,2.61-2.34,3.87-.44.66-.96,1.26-.17.29-.6.73-1.23,1.43-1.88,2.12-1.04,1.1-2.15,2.12-3.3,3.1-1.44,1.23,1.3-.87-.27.19-.78.53-1.57,1.04-2.37,1.54,6.01,3.45,12.02,6.9,18.03,10.35.07-6.11,1.65-12.81,4.5-18.24,2.91-5.55,1.6-13.28-4.3-16.39-5.64-2.98-13.15-1.56-16.39,4.3-4.16,7.5-8.33,15.01-12.49,22.51-2.08,3.75-4.16,7.5-6.24,11.26-1.09,1.97-2.14,3.96-3.29,5.9-.36.61-.73,1.21-1.11,1.79l.61-.75c-.87.83-.95.98-.26.44.68-.1,1.4-.69,2.17-.8,1.28-.18,2.29.1,3.5.54l1.08.78-.61-.66c.7,0,1.2,1.66.08-.36-.75-1.36.35,1.67.09.13-.13-.77-.42-1.59-.63-2.35-.13-.47-.26-1.38-.11-.37-.16-1.09-.23-2.2-.3-3.3-.27-3.95-.22-7.97.27-11.9.27-2.15-.26,1.39.14-.75.2-1.09.4-2.17.65-3.25.49-2.16,1.11-4.27,1.79-6.37,1.94-5.96-2.26-13.35-8.37-14.74-6.84-1.56-12.34,2.09-14.74,8.37-1.91,5-2.91,7.37-5.26,12.3-2.18,4.56-4.53,9.04-7.06,13.42-2.32,4.02-4.65,8.28-7.52,11.93,1.34-1.71-1.04,1.01-1.11,1.07-.38.38-2.4,2.75-1.03.94l-.92.53c1.12-.42,1.28-.52.46-.28-.88.22-.65.17.68-.15.62-.08,1.19.02,1.72.32.8.32,2.26,1.86,1,.52,1.82,1.93.37.25-.1-.51,1.31,2.13.18.21-.06-.69-.21-.79-.32-1.6-.5-2.4-.15-.9-.11-.65.1.75-.05-.48-.09-.96-.12-1.45-.04-.96-.1-1.92-.15-2.89-.14-2.93-.26-5.86-.4-8.79-.51-11.23-1.01-22.46-1.52-33.69-.27-5.99-4.35-10.96-10.39-11.77-6.21-.83-11.03,2.92-13.15,8.58-.58,1.56-1.17,3.11-1.79,4.65-.38.96-.77,1.93-1.17,2.89-.8,1.91.58-1.32-.25.58-1.42,3.23-2.9,6.44-4.46,9.6-3.13,6.33-6.57,12.5-10.31,18.49-3.36,5.4-7.86,11.9-11.13,16.18-3.55,4.66-8.96,10.89-13.62,15.83,6.68,1.76,13.35,3.53,20.03,5.29-3.01-14.76-4.58-27.84-5.09-43.2-.25-7.55-.19-15.12.18-22.67.19-3.77.45-7.55.79-11.31.17-1.88.36-3.76.57-5.64.11-.94.21-1.88.33-2.82.2-1.53.24-1.87.12-1.03.84-6.18-1.48-13.17-8.37-14.74-5.81-1.32-13.61,1.76-14.74,8.37-2.68,15.61-5.36,31.22-8.03,46.83-.65,3.78-1.28,7.57-1.95,11.35-.26,1.45-.53,2.91-.89,4.34-.18.7-.49,1.42-.61,2.13-.26,1.5.78-1.1-.02.15-.12.19-1.26,2.04-.49,1.02.53-.7-1.16.25.03,0,.15-.03,2.63-1.08,1.55-.82-1.5.36,2.42-.03.86-.08s2.44.46.85.19c-.61-.1-1.74-.86-.35-.04,2.3,1.37,3.81,3.06,3.93,5.95-.25-5.99-4.37-10.96-10.39-11.77-5.48-.74-12.03,2.71-13.15,8.58-.39,2.03-.84,4.03-1.44,6.01-.36,1.18-.77,2.35-1.2,3.51l-.45,1.15c.31-.78.3-.79-.04-.04-.92,1.85-1.87,3.66-2.97,5.42-.55.87-1.13,1.72-1.71,2.57-1.29,1.87.42-.43-1.17,1.47,6.68,1.76,13.35,3.53,20.03,5.29-5.05-19.89-10.1-39.78-15.16-59.68-1.24-4.9-6.41-9.03-11.55-8.8-5.54.25-9.75,3.61-11.55,8.8-2.01,5.76-3,8.22-5.47,13.29-2.28,4.68-4.8,9.24-7.57,13.65-1.44,2.29-2.94,4.55-4.5,6.75-1.48,2.09-2.57,3.56-3.39,4.55-1.72,2.09-3.44,4.18-5.26,6.18-.93,1.03-1.87,2.07-2.93,2.96,1.54-1.29-1.2,1.03-1.44.8.39-.32.82-.49,1.31-.52,1.23-.29,2.43-.04,3.6.76,1.2,1.09,1.33,1.19.4.27l.87,1.01c-1.13-2.07.12,1.73-.12-.56-.16-.62-.28-1.25-.38-1.89.18,1.42.23,1.67.15.77.38-2.5-.19-5.65-.24-8.19-.06-2.91-.13-5.82-.19-8.73-.28-12.62-.55-25.23-.83-37.85-.11-4.82-2.93-9.08-7.37-10.95-4.1-1.73-10.03-1.16-13.09,2.48-15.74,18.71-32.88,36.17-51.29,52.25,6.27.81,12.55,1.62,18.82,2.43-5.19-11.47-8.19-25.71-8.42-38.67-.09-5.07-3.64-10.38-8.8-11.55-5.54-1.26-10.3.99-13.53,5.51-3.94,5.5-10.22,12.67-16.44,18.43-1.51,1.4-3.06,2.76-4.63,4.09-.79.66-1.58,1.32-2.38,1.97-3.09,2.52,1.72-1.22-1.48,1.16-3.64,2.7-7.41,5.22-11.29,7.57,6.01,3.45,12.02,6.9,18.03,10.35-.56-13.73.97-24.79,5.22-37.86,1.85-5.68-1.7-11.93-6.94-14.14-5.79-2.44-11.47-.03-14.96,4.9-6.91,9.75-13.82,19.51-20.73,29.26-3.46,4.88-6.91,9.75-10.37,14.63-1.72,2.43-3.35,5.01-5.22,7.34,1.27-1.58-.88.87-1.12,1.12-.33.34-2.82,2.4-1.05,1.15-.91.65-2.81,1.03-.92.72,1.39-.05,1.64-.07.73-.05-.9,0-.66.01.72.04,1.41.46,2.1,1.03,2.99,2.15-1.37-1.73.13,1.7-.19-.44-.16-.61-.3-1.22-.4-1.84.18,1.44.23,1.7.15.79.14-.88-.09-1.98-.1-2.89-.02-2.91.13-5.83.2-8.74.31-12.21.61-24.43.92-36.64.15-5.97-4.68-11-10.39-11.77-6.04-.81-11.26,2.85-13.15,8.58-2.01,6.12-3.18,8.93-6.29,14.67-1.41,2.61-2.94,5.16-4.57,7.65-.7,1.06-1.42,2.11-2.16,3.15-.49.69-.99,1.38-1.5,2.06.58-.74.43-.54-.47.59,6.82,2.82,13.64,5.65,20.46,8.47-.12-16.24-.24-32.47-.36-48.71-.04-5.98-4.53-10.98-10.39-11.77s-11.72,2.76-13.15,8.58c-1.63,6.65-3.6,13.22-5.96,19.65-.64,1.75-1.32,3.49-2.01,5.23-.18.44-.72,1.76-.23.59-.32.76-.66,1.52-1,2.28-1.43,3.22-2.96,6.41-4.58,9.54-3.14,6.08-6.63,11.99-10.44,17.68-1.85,2.76-3.78,5.46-5.77,8.11l-.75.99c.48-.62.46-.61-.04.03-.52.65-1.04,1.3-1.56,1.94-1.18,1.45-2.39,2.87-3.61,4.28,6.82,2.82,13.64,5.65,20.46,8.47-.6-20.66-1.2-41.33-1.8-61.99-.35-12.02-15.94-16.13-22.33-6.05-11.19,17.64-22.38,35.28-33.57,52.93h20.69c-1.8-3.56-2.23-4.45-3.45-7.88-1.09-3.07-2.02-6.19-2.77-9.36-.35-1.48-.67-2.97-.94-4.46-.16-.85-.3-1.71-.43-2.57.12,1.04.09.81-.08-.69-.35-3.46-.52-6.92-.52-10.4.01-5.06-3.71-10.4-8.8-11.55-4.94-1.12-11.13.65-13.53,5.51-8.12,16.42-17.77,32-28.85,46.58,7.3.95,14.6,1.91,21.9,2.86-2.74-10.03-5.05-20.16-6.88-30.4-1.83-10.24-2.87-18.52-3.76-29.13-.42-5.11-3.4-10.33-8.8-11.55-4.86-1.11-11.24.61-13.53,5.51-5.98,12.77-12.65,25.19-20.07,37.18-3.71,5.99-7.59,11.88-11.64,17.64-4.08,5.8-7.74,10.69-11.61,15.53,6.82,2.82,13.64,5.65,20.46,8.47-2.33-39.21.78-77.14,9.45-114.77,1.4-6.1-1.88-13.26-8.37-14.74-7.02-1.6-12.13,2.16-14.74,8.37-12.54,29.78-25.08,59.56-37.62,89.35,7.85,1.06,15.69,2.12,23.54,3.19-.45-25.89,4.16-49.81,14.38-74.35,2.29-5.49-2.04-12.07-6.94-14.14-5.36-2.26-12.03-.34-14.96,4.9C35.4,47.96,18.47,78.24,1.53,108.52c-3.06,5.47-1.5,13.33,4.3,16.39,5.65,2.99,13.13,1.54,16.39-4.3h0Z"/>
</svg>