<?xml version="1.0" encoding="UTF-8"?>
<svg id="Layer_1" data-name="Layer 1" xmlns="http://www.w3.org/2000/svg" viewBox="0 0 1529.89 171.12">
  <path d="M19.31,143.07c18.02-30.46,36.04-60.92,54.06-91.39-5.93-3.47-11.87-6.94-17.8-10.4-11.77,27.12-13.69,57.57-3.85,85.64,2.8,8,14.29,10.65,18.84,2.46,11.67-20.99,22.45-42.44,32.34-64.32-6.4-1.73-12.8-3.47-19.21-5.2-.84,11.35-1.69,22.7-2.51,34.05-.75,10.42,1.34,20.76,11.24,26.17,7.91,4.33,17.99,3.89,25.86-.25,8.65-4.55,14.31-12.91,19.36-20.97-6.4-1.73-12.8-3.47-19.21-5.2-.23,6.78-.45,13.55-.68,20.33-.24,7.18,9.21,13.71,15.51,8.9,1.24-.94,2.95-1.84,3.95-2.46.04-.02.86-.47.78-.24-.22.04-.43.01-.63-.09-1.96-.52-3.37-1.93-4.23-4.22,2.85,6.76,11.29,10.72,17.23,4.55,9.16-9.52,18.32-19.05,27.48-28.57l-17.23-10.03c-2.26,12.82-2.03,26.46,2.7,38.76,2.47,6.43,6.91,11.86,14.12,12.83,6.8.91,12.92-2.78,17.35-7.66,8.8-9.7,16.58-20.57,24.79-30.77,8.75-10.88,17.51-21.77,26.26-32.65l-17.23-10.03c-3.56,14.46-6.15,29.11-7.93,43.89-1.49,12.43-4.77,29.85,8.62,37.19,13,7.13,25.6-4.28,32.17-14.66,8.14-12.87,15.7-26.15,23.55-39.2-6.28-2.65-12.56-5.29-18.84-7.94-6.3,16.98-8.42,35.46-6.01,53.42,1.4,10.45,12.7,13.63,19.21,5.2,12.63-16.37,23.74-33.8,33.24-52.16-6.4-1.73-12.8-3.47-19.21-5.2-.09,9.39-.19,18.77-.28,28.16s10.97,12.49,17.59,7.29c10.3-8.08,19.03-17.55,26.73-28.11h-17.8c1.83,2.87.95,6.46.52,9.71-.67,5.05-1.05,9.5-.1,14.54,1.96,10.41,10.73,18.75,21.73,17.15s17.18-12.49,22.71-21.27c6.49-10.3,12.98-20.6,19.46-30.89-6.4-1.73-12.8-3.47-19.21-5.2-2,21.74,2.22,43.24,11.33,63,3.26,7.08,14.33,6.37,17.8,0,11.81-21.68,21.6-44.45,29.26-67.92-6.63-1.83-13.25-3.65-19.88-5.48-3.33,14.63-3.31,29.43.09,44.05,2.17,9.32,14.05,9.23,18.84,2.46,12.06-17.05,24.11-34.1,36.17-51.16-6.28-2.65-12.56-5.29-18.84-7.94-7.06,23.88-7.01,49.5.17,73.35,1.86,6.16,9.37,9.81,15.14,6.16,12.93-8.18,23.61-19.33,30.91-32.8-6.4-1.73-12.8-3.47-19.21-5.2-1.17,15.78-2.35,31.56-3.52,47.34-.64,8.59,11.96,14.04,17.59,7.29,12.46-14.94,24.92-29.88,37.39-44.81-5.86-2.43-11.73-4.86-17.59-7.29,1.24,11.74,1.33,23.49.25,35.25-.77,8.47,12.15,14.2,17.59,7.29,6.89-8.75,13.79-17.51,20.68-26.26l-17.23-10.03c-5.33,17.86,12.9,33.09,29.82,31.86,19.06-1.38,29.76-19.29,37-34.83-6.28-.82-12.56-1.64-18.84-2.46,3.01,10.85,5.35,22.23,9.25,32.8,3.5,9.5,10.91,18.7,22.16,16.92,11.57-1.83,15.91-13.9,19.58-23.49,4.14-10.83,6.54-21.98,8.05-33.45.66-5.01-4.43-9.59-8.94-10.12-5.02-.6-9.92,2.34-11.31,7.38-6.14,22.31-9.46,45.37-9.92,68.5-.17,8.64,11.59,13.99,17.59,7.29,17.58-19.6,32.4-41.51,43.72-65.29-6.28-2.65-12.56-5.29-18.84-7.94-6.12,27.67-9.22,63.5,13.87,84.68,6.68,6.13,16.19,10.82,24.82,5.38,8.05-5.07,10.6-15.64,13.38-24.11,6.04-18.39,9.73-37.42,11.6-56.67.49-5.03-4.29-9.57-8.94-10.12-5.16-.61-9.74,2.38-11.31,7.38-7.42,23.61-10.73,48.49-9.72,73.22.41,9.94,13.96,14.38,19.21,5.2,15.09-26.41,30.19-52.83,45.28-79.24-6.28-.82-12.56-1.64-18.84-2.46,1.68,4.22,3.36,8.43,5.04,12.65,3.04,7.61,10.82,9.68,17.23,4.55,8.88-7.12,17.03-15.02,24.41-23.69-5.4-.7-10.79-1.39-16.19-2.09,4.92,11.21,10.17,22.27,15.81,33.14,5.17,9.98,10.82,20.48,22.25,24.16,21.7,6.98,36.79-16.5,43.63-33.33h-19.88c2.51,15.56,6.68,30.72,12.46,45.38,2.43,6.15,8.85,9.72,15.14,6.16,23.23-13.17,37.95-36.81,40.9-63.13-6.4,1.73-12.8,3.47-19.21,5.2,1.23,1.96.92,1.34,1.33,3.57-.24-1.32.07.82.09,1.25.05.98.08,1.96.09,2.95.03,3.64-.21,7.29.11,10.92.87,9.72,5.92,18.49,16.23,20.25,12.17,2.09,21.31-7.37,27.39-16.66,6.7-10.23,12-21.23,16.46-32.6l-19.88-5.48c-.96,5.09-1.93,10.18-2.89,15.27s.97,10.15,5.97,12.16c4.26,1.71,10.84.57,12.87-4.22,8.94-21.12,15.41-42.91,18.75-65.63,1.95-13.24-14.71-17.74-19.88-5.48-15.06,35.77-12.65,77.39,5.05,111.73,3.18,6.17,11.53,6.32,16.19,2.09,19.23-17.48,32.99-40.56,39.35-65.74,1.36-5.39-1.75-11.18-7.2-12.68-5.81-1.6-10.68,1.98-12.68,7.2-4.94,12.9-7.17,26.78-6.68,40.58.29,8.26,11.49,14.45,17.59,7.29,8.36-9.81,16.72-19.63,25.08-29.44l-17.59-7.29c.3,11.16-.76,22.04-3.36,32.9-3.1,12.89,16.78,18.39,19.88,5.48,3.02-12.56,4.45-25.47,4.1-38.38-.22-8.3-11.52-14.42-17.59-7.29-8.36,9.81-16.72,19.63-25.08,29.44,5.86,2.43,11.73,4.86,17.59,7.29-.43-12.17,1.59-23.73,5.95-35.1-6.63-1.83-13.25-3.65-19.88-5.48-5.55,21.98-17.28,41.41-34.05,56.65,5.4.7,10.79,1.39,16.19,2.09-15.35-29.78-15.91-65.12-2.98-95.84-6.63-1.83-13.25-3.65-19.88-5.48-3.06,20.78-8.47,41.34-16.67,60.71,6.28,2.65,12.56,5.29,18.84,7.94.96-5.09,1.93-10.18,2.89-15.27,2.49-13.18-15.06-17.77-19.88-5.48-3.15,8.03-7.06,15.76-11.53,23.14-2.03,3.36-4.02,7.16-7.04,9.76-.9.78-1.69,1.13-2.66,1.83,1.02-.74,2.31.85.71-.38,1.09.85,1.34,2.46,1.17.9,0-.07-.48-3.16-.3-1.29-.3-3.05-.07-6.15-.06-9.21.02-6.7-.67-13.56-4.32-19.35-5.81-9.22-18.1-4.64-19.21,5.2-2.13,18.98-14.25,36.02-30.69,45.33,5.05,2.05,10.09,4.11,15.14,6.16-5.79-14.66-9.95-29.82-12.46-45.38-.71-4.4-5.77-7.57-9.94-7.57-4.89,0-8.21,3.31-9.94,7.57-2.4,5.91-5.93,12.09-10.73,16.38-3.42,3.07-5.51,4.2-9,1.56-2.74-2.08-4.36-5.88-5.93-8.81-2.02-3.78-3.98-7.59-5.9-11.42-4.39-8.76-8.53-17.63-12.47-26.6-2.57-5.85-12.2-6.76-16.19-2.09-7.38,8.67-15.52,16.57-24.41,23.69,5.74,1.52,11.48,3.03,17.23,4.55-1.68-4.22-3.36-8.43-5.04-12.65-3.11-7.8-14.08-10.79-18.84-2.46-15.09,26.41-30.19,52.83-45.28,79.24,6.4,1.73,12.8,3.47,19.21,5.2-.94-23.07,2.06-45.72,8.98-67.74-6.75-.91-13.5-1.83-20.25-2.74-1.43,14.66-4.29,29.14-8.42,43.28-1.93,6.61-4.72,13-6.74,19.52l-.69,1.14c-.49-1.35.8-1.74,3.87-1.18-.06-.32-1.26-.63-1.63-1.04-1.43-1.64-3.35-3.04-4.66-4.67-13.05-16.22-9.1-41.92-4.91-60.85,1.1-4.99-1.08-10.19-5.97-12.16-4.41-1.77-10.63-.49-12.87,4.22-10.57,22.21-24.06,42.81-40.49,61.12l17.59,7.29c.42-21.39,3.5-42.4,9.18-63.02-6.75-.91-13.5-1.83-20.25-2.74-.95,7.22-2.74,14.4-4.97,21.32-1.17,3.62-2.46,7.22-4,10.71-.41.93-1.7,2.89-1.9,3.93-.62,3.2-1.11-.2.46.87.5-.2,1-.24,1.52-.12,2.01,1.35,2.33,1.43.96.23.29,1.13-1.24-2.18-1.12-1.94-1.09-2.23-1.73-5.28-2.49-8.04-2.33-8.4-4.66-16.8-6.99-25.2-2.21-7.95-14.96-10.78-18.84-2.46-4.04,8.69-8.82,20.65-18.5,24.42-2.11.82-5.55.13-8.13-1.46-1.06-.66-2.09-1.71-2.38-2.15-.1-.15-.42-.71-.41-.63-.05-.32-.05-.19.29-1.32,2.77-9.29-10.66-18.36-17.23-10.03-6.89,8.75-13.79,17.51-20.68,26.26,5.86,2.43,11.73,4.86,17.59,7.29,1.07-11.76.99-23.51-.25-35.25-.44-4.16-2.22-7.77-6.34-9.42-3.55-1.43-8.61-1.05-11.26,2.13-12.46,14.94-24.92,29.88-37.39,44.81,5.86,2.43,11.73,4.86,17.59,7.29,1.17-15.78,2.35-31.56,3.52-47.34.77-10.3-14.49-13.9-19.21-5.2-5.65,10.41-13.49,19.06-23.52,25.4,5.05,2.05,10.09,4.11,15.14,6.16-6.18-20.5-6.24-41.86-.17-62.39,1.44-4.88-1.33-10.3-5.97-12.16-5.02-2.02-9.82-.09-12.87,4.22-12.06,17.05-24.11,34.1-36.17,51.16,6.28.82,12.56,1.64,18.84,2.46-2.54-10.93-2.58-22.14-.09-33.09,2.95-12.96-15.76-18.1-19.88-5.48-7.13,21.83-16.21,42.83-27.19,63h17.8c-7.59-16.48-10.17-34.6-8.51-52.59.99-10.77-14.16-13.21-19.21-5.2s-10.24,16.26-15.37,24.39c-2.39,3.79-4.77,7.59-7.17,11.38-.27.42-4.77,6.32-4.75,6.38-.05-.16,4.8,2.05,2.21,1.09.05.02-.42-.42-.75-1.46-.53-1.68-.42-3.85-.19-6.16.85-8.76,2.37-16.89-2.7-24.85-4.44-6.97-13.23-6.26-17.8,0-6.61,9.07-14.68,17.02-23.5,23.94,5.86,2.43,11.73,4.86,17.59,7.29.09-9.39.19-18.77.28-28.16.1-9.93-14.43-14.42-19.21-5.2-9.5,18.36-20.61,35.79-33.24,52.16,6.4,1.73,12.8,3.47,19.21,5.2-2.2-16.42-.48-32.41,5.28-47.94,4.15-11.2-12.99-17.68-18.84-7.94s-11.77,19.6-17.66,29.4c-2.46,4.1-4.65,8.66-7.63,12.4-.85,1.06-3.34,2.53-3.81,3.63-.9,2.09-.65-.27-.29.37.03.05,3.2.4,1.85.73.29-.07.39-7.18.49-8.35.45-5.26,1.01-10.52,1.74-15.75,1.59-11.37,3.85-22.63,6.59-33.77,2.26-9.2-10.39-18.53-17.23-10.03-13.03,16.2-26.05,32.4-39.08,48.6-3.26,4.05-6.49,8.12-9.77,12.15-.98,1.2-3.91,3.53-4.41,4.89-2.29.69-.49,1.26,5.4,1.72-.47-.37-.69-.8-.68-1.29-.03-2.09-1.47-4.84-1.92-6.94s-.75-4.08-.89-6.17c-.31-4.47-.19-8.98.59-13.4s-.53-9.18-4.74-11.64c-3.89-2.28-9.33-1.67-12.49,1.61-9.16,9.52-18.32,19.05-27.48,28.57,5.74,1.52,11.48,3.03,17.23,4.55-2.72-6.46-7.41-10.78-14.77-10.8-5.45-.02-11.09,2.22-15.38,5.49,5.17,2.97,10.34,5.93,15.51,8.9.23-6.78.45-13.55.68-20.33.35-10.58-13.98-13.54-19.21-5.2-2.91,4.64-5.89,9.91-10.68,12.85-1.47.9-2.67,1.21-4.18,1.23-1.15.02-3.04-.37-3.43-1.05.44.75.26.21.12-.47-.31-1.47-.13-3.01-.06-4.52.18-3.79.55-7.58.83-11.36.62-8.43,1.24-16.86,1.87-25.29.73-9.89-15.01-14.48-19.21-5.2-9.89,21.88-20.68,43.33-32.34,64.32,6.28.82,12.56,1.64,18.84,2.46-7.89-22.52-7.79-47.7,1.78-69.76,2.21-5.1,1.51-11.06-3.7-14.1-4.84-2.83-11.26-1.11-14.1,3.7C37.55,71.75,19.53,102.21,1.51,132.67c-6.77,11.44,11.04,21.83,17.8,10.4h0Z"/>
  <path d="M1080.59,123.83c6.4-19.24,12.79-38.47,19.19-57.71-6.75-.91-13.5-1.83-20.25-2.74.08,24,.17,48.01.25,72.01.01,3.15-.1,6.47.83,9.52,1.17,3.84,3.74,7.25,7.26,9.21,5.78,3.23,12.96,1.81,18.09-2.01,4.73-3.52,8.06-7.82,10.67-13.09s5.27-10.65,7.9-15.98c6.06-12.25,12.11-24.5,18.17-36.74-6.4-1.73-12.8-3.47-19.21-5.2-.16,9.84-.33,19.69-.49,29.53-.08,4.82-.49,9.99,1.12,14.62,1.97,5.67,6.22,10.29,12.09,11.98,9.06,2.6,18.46-2.87,24.53-9.22,6.19-6.48,10.35-15.13,14.46-23.01,5.06-9.69,9.52-19.69,13.53-29.87,1.98-5.03-2.17-11.53-7.2-12.68-5.98-1.36-10.5,1.83-12.68,7.2-6.91,17.06-12.04,34.78-15.29,52.89-.6,3.35-.28,6.24,1.84,8.98,1.94,2.51,4.84,4.12,8.09,4.06,8.12-.14,16.58-4.79,19.89-12.46-6.28-.82-12.56-1.64-18.84-2.46,2.97,10,14.07,14.83,23.78,11.91,9.19-2.76,14.07-11.13,17.99-19.22,8.16-16.84,16.33-33.67,24.49-50.51,4.64-9.56,9.27-19.12,13.91-28.69-6.28-2.65-12.56-5.29-18.84-7.94-4.93,24.36-7.9,49.16-8.71,73.99-.37,11.52.89,25.35,13.65,29.74,6.72,2.31,13.52-.07,18.71-4.49,4.68-3.99,7.35-9.48,9.65-15.04,5.26-12.67,8.15-26.1,9.07-39.77.29-4.31-3.39-8.99-7.57-9.94-4.7-1.07-8.95.81-11.64,4.74-4.68,6.83-8.24,14.55-10.53,22.51-2.19,7.59-3.56,16.08-2.98,24,.38,5.18,1.79,10.07,5.68,13.74,4.37,4.11,11.08,5.25,16.65,3.11,8.06-3.1,14.26-9.96,19.87-16.31,6.25-7.07,11.88-14.74,16.66-22.87-6.4-1.73-12.8-3.47-19.21-5.2-.52,10.25-1.05,20.5-1.57,30.74-.22,4.32,3.34,8.98,7.57,9.94s9.73-.51,11.64-4.74c10.51-23.24,21.02-46.48,31.53-69.71,2.22-4.9,1.57-11.32-3.7-14.1-4.68-2.47-11.52-1.45-14.1,3.7-15.57,31.05-20.17,66.57-12.96,100.56,1.69,7.95,11.86,9.48,17.23,4.55,20.7-19.03,35.93-43.8,43.86-70.75,1.45-4.94-1.36-10.21-5.97-12.16s-10.13-.18-12.87,4.22c-10.85,17.37-14.29,38.32-10.49,58.34.98,5.19,7.75,8.97,12.68,7.2,16.99-6.11,29.97-19.07,36.16-36.02-6.75-.91-13.5-1.83-20.25-2.74-.01,3.96-.03,7.91-.04,11.87s2.6,7.84,6.34,9.42c3.43,1.45,8.76,1.07,11.26-2.13,8.24-10.54,16.49-21.08,24.73-31.62-5.86-2.43-11.73-4.86-17.59-7.29.17,1.77.23,3.53.17,5.3-.03.95-.1,1.9-.19,2.85-.04.41-.1.81-.13,1.22-.12,1.52.29-1.81.05-.3-.59,3.67-1.3,7.32-1.9,10.99-1.26,7.69-2.09,15.44.25,23.03s6.4,13.66,12.63,18c6.42,4.48,14.71,5.04,21.83,2.03s12.09-9.17,16.09-15.61c3.77-6.07,7.23-12.35,10.48-18.71,6.9-13.52,12.79-27.62,17.56-42.03,5.12-15.49,8.87-31.42,11.24-47.56.42-2.85.48-5.35-1.04-7.94-1.25-2.14-3.7-4.18-6.16-4.74-4.96-1.13-11.75,1.51-12.68,7.2-4.42,27.18-6.85,54.66-6.92,82.2-.02,6.72.1,13.45.35,20.17.26,6.84.27,13.91,1.54,20.65,1.54,8.19,8.15,14.87,16.67,15.23,6.9.29,13.37-3.92,17.61-9.08,5.02-6.12,8.11-13.66,10.79-21.05,2.41-6.64,4.09-13.52,5.09-20.51.63-4.43-.38-9.34-4.74-11.64-4.08-2.16-9.13-1.7-12.49,1.61-5.41,5.34-10.42,11-13.02,18.27-2.43,6.79-1.67,15.18,2.3,21.25,4.7,7.18,13.47,10.89,21.76,7.92s14.78-11.74,12.05-21.03c-1.45-4.94-6.23-8.07-11.31-7.38s-8.87,4.95-8.94,10.12c-.1,7.47,1.6,15.45,6.71,21.15,6.55,7.3,18.46,6.99,25-.12,5.94-6.46,6.69-15.02,7.8-23.3,1.2-9,2.4-18.01,3.61-27.01,1.34-10.04,2.68-20.08,4.02-30.11.57-4.24-3.59-9.03-7.57-9.94-4.26-.97-9.55.56-11.64,4.74-8.04,16.1-14.3,33.13-18.2,50.71-1.83,8.23-3.81,16.6-1.77,24.98.95,3.89,2.88,7.69,5.77,10.5,4.08,3.96,9.49,4.92,14.89,3.83,3.15-.64,6.7-3.94,7.2-7.2,5.74-37.21,11.14-74.47,16.21-111.77.39-2.88.49-5.32-1.04-7.94-1.25-2.14-3.7-4.18-6.16-4.74-5.15-1.17-11.52,1.55-12.68,7.2-7.33,35.58-9.35,72.17-5.52,108.3.3,2.81.95,5.22,3.02,7.29,1.79,1.79,4.72,3.13,7.29,3.02,5.1-.23,10.91-4.56,10.31-10.31-1.85-17.45-2.38-35.02-1.55-52.54.41-8.69,1.16-17.36,2.23-25.99.06-.51.47-3.7.14-1.14.15-1.15.32-2.3.49-3.44.32-2.15.65-4.3,1.01-6.44.74-4.43,1.57-8.85,2.47-13.25l-19.88-5.48c-5.07,37.31-10.48,74.57-16.21,111.77,2.4-2.4,4.8-4.8,7.2-7.2,1.94-.19,2.38-.25,1.33-.19-1.08-.06-.59.01,1.46.21-1.57-.35,2.4,1.25.96.36,1.49,1.23,1.86,1.5,1.1.8-.49-.54-.41-.42.23.37,1.22,1.63.02-.17-.2-.54-.92-1.52.73,2.38.26.6-.18-.69-.41-1.36-.56-2.06-.21-.99.13-2.3.02.57.02-.54-.1-1.11-.12-1.66-.03-.73-.02-1.46.02-2.18.01-.27.04-.53.06-.79.08-.84.02-.35-.2,1.46.36-.3.4-2.32.49-2.83.17-.94.35-1.88.53-2.83.71-3.63,1.51-7.24,2.41-10.82,1.8-7.17,3.98-14.24,6.54-21.18.61-1.67,1.25-3.33,1.91-4.99.4-1.01.78-2.06,1.24-3.04l-.4.95c.21-.5.43-1.01.65-1.51,1.53-3.52,3.16-6.99,4.87-10.41-6.4-1.73-12.8-3.47-19.21-5.2-2.01,15.06-4.02,30.11-6.03,45.17-.49,3.69-.99,7.38-1.48,11.07-.14,1.03-.28,2.07-.41,3.1-.06.44-.12.89-.18,1.33-.18,1.36.09-.82.11-.87-.47,1.01-.45,2.54-.73,3.64-.15.56-.33,1.11-.49,1.67-.06.22-.29.59-.29.81,0,0,1-2.02.49-1.15-.27.47-.52.98-.77,1.46-.1.19-.39.47-.43.68.06-.31,1.64-1.75.65-.87-.17.15-.39.35-.54.53-.76.93,1.95-1.28.9-.73-.88.46,1.47-.5,1.35-.51-.22,0-.5.18-.72.21-1.11.16,1.67-.19,1.44-.19-.46,0-1.26-.14.36.14,1.8.31.76.14.42.03-1.32-.42,1.09.46,1.17.55-.12-.14-.44-.24-.59-.35-.99-.66,1.98,1.47,1.01.75-.18-.13-.3-.41-.49-.51.24.14,1.36,2.1.74.91-.22-.43-1.1-2.28-.43-.59s-.1-.36-.23-.8c-.22-.72-.4-1.44-.54-2.18-.06-.27-.08-.57-.15-.84-.33-1.21.19,2.29.13,1.05-.06-1.38-.2-2.74-.18-4.13-6.75.91-13.5,1.83-20.25,2.74.49,1.68-.02-2.16-.07-.95s.44-2.47.16-1.27,1.18-2.31.34-.86c-.7,1.21.46-.8.67-.86-.21.05-1.71,1.52-.15.24,1.27-1.04.29-.25-.09-.07-1.06.54,2.38-.64.71-.29-.29.06-.81.12-1.05.27,1.67-.95,2.15-.08.86-.23s2.42.42,1.15.13c-1.11-.26,2.16,1.26.69.29-1.23-.82.64.41.7.62-.03-.11-.83-.88-.99-.99-.63-.46,1.11,1.99.46.49-.1-.24-.33-.84-.53-1.01.51.46.72,2.29.34.57-.08-.35-.14-.8-.28-1.14-.37-.94.08,2.59.1.69,0-.4-.03-.79-.03-1.19,0-.44.23-2.21-.05-.4s-.04.27.06-.09c.13-.47.26-.94.39-1.41.37-1.42-.28.06-.25.46-.03-.43.61-1.24.8-1.59.52-.94,1.12-1.83,1.72-2.72.84-1.25.08.27-.3.37.25-.06.95-1.13,1.17-1.38,1.52-1.73,3.16-3.36,4.8-4.97-5.74-3.34-11.48-6.69-17.23-10.03-.81,5.65-2.05,11.22-3.78,16.66-.8,2.53-1.57,5.29-2.78,7.65.99-1.93.29-.66.09-.21-.34.74-.66,1.49-1.01,2.23-.63,1.35-1.29,2.69-1.99,4.01-.52.99-1.15,1.91-1.72,2.86-.74,1.23,1.7-1.86.17-.21-.38.41-.74.85-1.14,1.25s-.81.76-1.21,1.15c-1.56,1.51,1.48-.87.29-.24-.23.12-1.26.59-1.34.78,1.47-.57,1.84-.72,1.1-.47-.27.1-.55.18-.83.24l1.63-.19c-.37.03-.73.03-1.1,0,.11-.04,2.76.43,1.11.01l1.4.54c1.21,1.04,1.41,1.2.61.47.15.19,1.27,2.08.5.62-.99-1.87.48,1.84.15.46-.12-.52-.31-1.03-.43-1.55-.06-.25-.49-2.41-.14-.57.35,1.84-.04-.86-.06-1.23-1.69-23.89-1.42-47.99.44-71.86.52-6.7,1.18-13.4,1.97-20.08.21-1.74.42-3.48.65-5.22.05-.38.4-3.3.09-.74.1-.87.24-1.74.36-2.61.49-3.47,1.03-6.94,1.59-10.4l-19.88-5.48c-1.94,13.23-4.8,26.32-8.6,39.14-1.9,6.41-4.02,12.75-6.37,19.01-1.13,3-2.32,5.98-3.54,8.95-1.03,2.52.88-2-.21.49-.32.74-.63,1.47-.96,2.21-.75,1.71-1.52,3.42-2.31,5.12-2.81,6.07-5.83,12.03-9.06,17.88-1.55,2.81-3.15,5.59-4.8,8.34-.73,1.22-1.47,2.44-2.25,3.64-.37.57-.75,1.13-1.14,1.68-.26.37-.53.73-.8,1.1.93-1.19,1.05-1.36.35-.5-.91.98-1.81,1.92-2.77,2.85-1.59,1.54,1.96-1.1.03-.05-.16.09-1.65.83-1.66.94l1.29-.53c-.4.15-.81.28-1.22.4l-.63.15c-1.17.21-.86.18.95-.11-.25-.08-1.42-.07-1.68,0,1.83.29,2.2.34,1.12.15-.35-.07-.7-.16-1.04-.27-1.93-.4,2.18,1.22.46.24-.47-.27-.94-.55-1.42-.81-1.76-.97,1.79,1.69.32.28-.41-.39-.84-.76-1.23-1.17-.37-.39-.72-.98-1.14-1.3l.9,1.15c-.23-.32-.45-.65-.67-.98-.33-.5-.63-1.02-.92-1.55-.19-.35-.38-.71-.56-1.08-.46-.99-.36-.73.29.79-.26-1.36-.98-2.71-1.31-4.08-.12-.51-.13-1.33-.36-1.79.21,1.74.26,2.06.13.95-.04-.4-.07-.79-.09-1.19-.08-1.76.01-3.53.17-5.28.07-.81.13-1.65.27-2.45-.46,2.79.16-.83.25-1.34,1.38-8.15,3.39-16.41,2.6-24.72-.4-4.2-2.27-7.7-6.34-9.42-3.43-1.45-8.76-1.07-11.26,2.13-8.24,10.54-16.49,21.08-24.73,31.62,5.86,2.43,11.73,4.86,17.59,7.29.01-3.96.03-7.91.04-11.87.02-5.14-3.94-9.45-8.94-10.12-5.31-.71-9.52,2.5-11.31,7.38-.15.42-.31.84-.47,1.26-.42,1.03-.33.83.27-.61.06.03-1.06,2.23-1.15,2.42-.72,1.39-1.5,2.74-2.35,4.06-.49.75-1.01,1.47-1.52,2.21-1.14,1.66,1.4-1.62-.03.04-1.1,1.27-2.18,2.54-3.38,3.72s-2.45,2.28-3.74,3.36c-1.79,1.5,1.89-1.29-.04.02-.74.5-1.46,1.02-2.22,1.51-1.32.84-2.67,1.62-4.07,2.33-.19.1-2.38,1.22-2.42,1.14,1.44-.6,1.64-.69.6-.28-.42.16-.84.31-1.26.46,4.23,2.4,8.45,4.8,12.68,7.2-.15-.81-.11-2.25-.51-2.96.26.47.23,1.97.07.51-.07-.62-.13-1.24-.19-1.86-.17-1.99-.26-3.99-.26-5.99,0-2.12.09-4.25.28-6.37.05-.5.1-.99.15-1.49.14-1.4.14-.06-.08.51.38-.95.37-2.32.56-3.33.78-4.05,1.91-8.03,3.39-11.89.09-.24.63-1.17.55-1.39.11.34-.81,1.81-.16.39.42-.91.84-1.82,1.28-2.71,1.01-2.01,2.12-3.97,3.31-5.88-6.28-2.65-12.56-5.29-18.84-7.94-.9,3.07-1.89,6.11-2.99,9.11-.59,1.62-1.23,3.22-1.86,4.82-.94,2.37.92-2.07-.1.26-.3.68-.59,1.35-.89,2.03-2.67,5.94-5.75,11.71-9.19,17.24-1.69,2.71-3.47,5.37-5.33,7.97-.5.7-1.01,1.39-1.52,2.09-.39.52-1.93,2.12-.18.26-1.09,1.15-1.99,2.52-3,3.74-4.17,5.02-8.68,9.73-13.48,14.14,5.74,1.52,11.48,3.03,17.23,4.55-.43-2.05-.83-4.11-1.18-6.18-.13-.78-.25-1.55-.37-2.33-.08-.52-.15-1.04-.22-1.56.19,1.44.21,1.57.07.4-.42-3.92-.77-7.82-.91-11.76-.27-7.61.13-15.2,1.03-22.76.15-1.17.13-1.04-.05.4.07-.52.15-1.04.23-1.56.12-.78.25-1.55.38-2.33.35-2.07.75-4.13,1.2-6.18.78-3.59,1.69-7.14,2.75-10.66,1.13-3.77,2.42-7.49,3.86-11.14.1-.26,1.26-3.09.67-1.68s.62-1.4.73-1.65c.86-1.91,1.77-3.81,2.71-5.68-5.93-3.47-11.87-6.94-17.8-10.4-10.51,23.24-21.02,46.48-31.53,69.71,6.4,1.73,12.8,3.47,19.21,5.2.52-10.25,1.05-20.5,1.57-30.74.22-4.32-3.34-8.98-7.57-9.94-4.48-1.02-9.25.68-11.64,4.74-1.65,2.8-3.38,5.54-5.22,8.22-.88,1.28-1.79,2.55-2.72,3.8-.22.3-1.64,2.18-.84,1.13s-.01.01-.15.18c-.33.4-.65.81-.98,1.21-4.09,5.02-8.53,9.82-13.36,14.15-.25.23-.53.44-.77.67-.79.75.62-.53.7-.53-.37,0-1.44.93-1.79,1.15-.28.18-1.34.57-.01.09,1.67-.6.01,0-.03-.03.04.03-2,.31.11.08,1.83-.2-.96-.44.88.01,1.01.25,1.73.53,2.59,1.12,1.11.77.39.34.12.04-.07-.08,1.38,1.83.78.9-.54-.85.46,1.07.45,1.11.05-.36-.29-1.43-.42-1.78,0,0,.17,2.28.2,1.2,0-.4-.05-.82-.06-1.23-.04-1.51,0-3.02.07-4.53.04-.77.09-1.53.16-2.3.06-.71.47-2,.28-2.67.02.06-.32,2.01-.1.84.07-.38.12-.76.18-1.14.13-.76.27-1.51.43-2.27.33-1.63.73-3.25,1.18-4.85.49-1.73,1.04-3.43,1.66-5.12.12-.32.69-2.44.98-2.51.03,0-.81,1.8-.28.7.22-.46.42-.93.64-1.4,1.59-3.36,3.46-6.57,5.56-9.64-6.4-1.73-12.8-3.47-19.21-5.2-.17,2.46-.28,5.01-.72,7.44.46-2.52-.13.69-.24,1.37-.25,1.5-.53,3-.84,4.49-1.02,4.88-2.35,9.69-3.99,14.4-.41,1.18-.84,2.35-1.29,3.51-.2.52-.41,1.03-.61,1.55-.7,1.8-.04.17.08-.16-.79,2.11-1.99,4.02-3.21,5.9-.59.9-.79.25.4-.52-.28.18-.62.7-.87.97-.3.31-.62.58-.91.88-1.38,1.42,1.48-.62.38-.31-.26.07-1.14.53-1.29.72.15-.18,2.41-.83.84-.47.17-.04,2.71-.12,1.05-.16-2.02-.05,2.43.65.4,0,2.61.83,1.61.8.99.39-1.34-.9.82.66.84.71-.05-.12-1.48-1.77-.23-.09,1.13,1.51.13.03-.06-.26-.49-.72-.08-1.29.35,1-.06-.33-.27-.73-.37-1.05-.28-.88-.29-1.96-.65-2.78.83,1.91.2,1.94.11.71-.03-.39-.06-.78-.09-1.17-.05-.86-.07-1.72-.06-2.59.02-2.67.13-5.34.24-8,.42-10.65,1.24-21.28,2.46-31.87.17-1.45.34-2.9.52-4.35.07-.58.15-1.16.22-1.74.37-2.92-.31,2.18.1-.73s.83-5.78,1.29-8.66c.96-6.06,2.06-12.09,3.28-18.1,1.03-5.08-1.04-10.08-5.97-12.16-4.4-1.86-10.63-.41-12.87,4.22-7.25,14.95-14.5,29.9-21.75,44.85-6.93,14.3-13.36,29.03-21.24,42.82-.53.93.55-.69.61-.73-.33.24-.59.71-.87,1.01-.3.33-.64.62-.94.94-1.14,1.22.48-.47.54-.36.02.04-1.23.77-1.14.71-1.16.77.67-.44.99-.38-.08-.02-.74.3-.78.23-.26.07-.53.13-.8.17l1.65-.24c-.15-.06-.66,0-.82.02-1.26.12-.93-.8.85.19-.32-.18-2.62-.83-.79-.11,1.56.61.46.2.09-.07-.99-.71,1.75,1.52.9.67-.73-.74.89,1.25.81,1.13-.96-1.62.77,2.46.21.59-1.17-3.96-4.49-6.83-8.57-7.38-3.67-.49-8.66,1.21-10.27,4.92-.17.39-.34.78-.54,1.15-.11.21-1.28,1.91-.26.54.92-1.23,0-.1-.25.15-.15.15-.3.3-.47.43-.58.51-.31.29.82-.64-.31.05-.82.49-1.1.65-1.39.83.56-.44.71-.28-.06-.06-1.42.37-1.54.41-1.16.33,2.65-.2.52-.16,3.31,4.35,6.63,8.7,9.94,13.05,3.25-18.11,8.38-35.84,15.29-52.89-6.63-1.83-13.25-3.65-19.88-5.48-.72,1.82-1.45,3.63-2.2,5.43-.09.21-.73,1.38-.13.31.65-1.16-.17.38-.3.69-.44,1.02-.89,2.05-1.35,3.06-1.59,3.57-3.26,7.1-5,10.6-3.54,7.11-7.32,14.14-11.53,20.88-.37.6-.78,1.17-1.17,1.75-.73,1.09,1.36-1.6.47-.61-.21.23-.41.49-.62.72-1.07,1.22-2.25,2.26-3.44,3.35-.99.9,1.7-1.17.59-.45-.26.17-.51.36-.76.53-.59.39-1.22.71-1.82,1.08-.21.13-.62.22-.78.4.99-1.06,1.98-.69.89-.4-.26.07-.53.15-.78.24-1.64.58.31-.13.94-.02-.42-.07-2.7-.13-.6.14,1.7.22.83.09.42,0-.75-.16-1.4-.9,1.11.49-1.43-.79,1.69,1.57.45.37-1.11-1.06.36.5.47.66-.91-1.27.35.2.16.58-.05.11-.36-1.35-.36-1.36.06-.02.16,2.18.12.97-.03-.84-.1-1.68-.11-2.53-.01-2.12.06-4.24.09-6.36.16-9.7.32-19.39.48-29.09.07-4.34-3.24-8.95-7.57-9.94-4.25-.97-9.57.56-11.64,4.74-4.87,9.85-9.74,19.7-14.61,29.55-2.37,4.79-4.74,9.59-7.11,14.38-2.23,4.51-4.29,9.15-6.88,13.46-.67,1.12,1.38-1.59.49-.61-.35.39-.68.79-1.04,1.17-.45.48-1.59,1.11-1.81,1.69.4-1.04,1.71-1.15.65-.54-.36.21-.9.45-1.22.72-.92.8,2.51-.75.76-.32s2.62.18.86-.06c-.03,0,2.87.63,1.42.18,1.13.35,2.13.92,2.98,1.77-1.07-1.07.58.83.62.9l.46,1.23c-.21-.89-.24-.88-.1.03l.08.69c-.04-.46-.06-.93-.06-1.4-.01-.53,0-1.06,0-1.58,0-1.48-.01-2.96-.02-4.45-.04-10.82-.07-21.63-.11-32.45-.04-12.3-.08-24.6-.13-36.89-.02-5.14-3.91-9.45-8.94-10.12s-9.67,2.46-11.31,7.38c-6.4,19.24-12.79,38.47-19.19,57.71-1.7,5.12,1.97,11.49,7.2,12.68,5.69,1.29,10.86-1.72,12.68-7.2h0Z"/>
</svg>