<?xml version="1.0" encoding="UTF-8"?>
<svg id="Layer_1" data-name="Layer 1" xmlns="http://www.w3.org/2000/svg" viewBox="0 0 392 1067">
  <defs>
    <style>
      .cls-1 {
        fill: #ffc966;
      }

      .cls-2 {
        fill: #ffe0a1;
      }

      .cls-3 {
        fill: #f5b03e;
      }
    </style>
  </defs>
  <g>
    <path class="cls-2" d="M284.08,157.66c-16.09,1.22-104.98,778.16-107.54,783.19-.03.05-.31.54-.14,1.01.67,1.84,8,2.35,11.38-.82,2.33-2.19,1.92-5.32,2.13-10.8.22-6.01,1.87-11.88,2.5-17.86,4.86-46.21,11.88-92.17,17.07-138.35,3.16-28.09,9.92-77.34,23.44-175.84,11.78-85.79,10.49-73.15,19.81-141.89,12.67-93.45,19.01-140.18,24.02-178.78,5.03-38.77,6.87-54.96,10-71.43.87-4.58,2.48-12.57,3.66-23.75,1.16-11.03,1.89-25.11,1.89-25.12,0,0-7.98.4-8.24.42Z"/>
    <path d="M180.89,944.34c-.97,0-1.89-.1-2.71-.3-1.47-.35-2.41-.99-2.72-1.84-.2-.55-.13-1.2.19-1.81.72-2.28,7.33-56.62,16.47-131.84,13.27-109.13,33.32-274.05,51.18-408.82,32.13-242.43,37.92-242.87,40.7-243.08h0c.27-.02,7.45-.38,8.27-.42l1.99-.1-.95,1.42c-.16,3.01-.85,15.09-1.88,24.89-1.09,10.33-2.57,18.05-3.45,22.67l-.22,1.16c-2.52,13.27-4.16,25.99-7.41,51.33-.76,5.95-1.62,12.58-2.59,20.05-5.01,38.61-11.37,85.46-24.02,178.79-4.69,34.55-6.7,48.57-9.02,64.81-2.31,16.13-4.93,34.41-10.79,77.08-13.5,98.37-20.28,147.74-23.44,175.81-2.38,21.13-5.18,42.57-7.9,63.31-3.22,24.57-6.54,49.98-9.17,75.04-.27,2.53-.72,5.07-1.15,7.52-.6,3.36-1.22,6.84-1.34,10.27-.03.93-.05,1.78-.07,2.58-.08,4.1-.13,6.8-2.38,8.91-1.91,1.79-4.92,2.57-7.58,2.57ZM284.26,158.65c-1.53,1.16-5.52,12.38-15.15,73.23-6.38,40.29-14.54,97.99-24.27,171.52-17.74,134.08-37.59,297.36-50.73,405.4-11.8,97.07-15.99,131.16-16.67,132.5-.09.17-.09.24-.09.24.04.06.54.47,1.93.68,2.48.38,5.96-.16,7.82-1.91,1.63-1.53,1.67-3.77,1.74-7.49.02-.81.03-1.68.07-2.62.13-3.57.76-7.12,1.37-10.55.43-2.42.87-4.92,1.13-7.38,2.64-25.08,5.96-50.5,9.18-75.09,2.71-20.72,5.52-42.15,7.89-63.27,3.16-28.1,9.94-77.47,23.44-175.83,5.86-42.7,8.48-60.99,10.79-77.12,2.33-16.23,4.34-30.25,9.02-64.79,12.66-93.33,19.01-140.17,24.02-178.77.97-7.46,1.82-14.09,2.59-20.04,3.26-25.38,4.89-38.11,7.43-51.45l.22-1.17c.88-4.58,2.35-12.26,3.43-22.5.95-9.04,1.61-20.05,1.83-23.96-2.85.14-6.34.32-7,.35ZM284.16,158.65h0s0,0,0,0c0,0,0,0,0,0Z"/>
  </g>
  <g>
    <path class="cls-1" d="M224.76,965.31c-14.09-11.35-8.65-40.16-7.01-72.02,1.7-33.05-3.26-19.41-6.02-111.46-.7-23.23-.89-40.97-.98-51.59-1.25-136.83,1-274.08,1-274.08.44-26.81,1.63-81.56,4-191.05,1.08-49.59,3-137.03,3-137.04,0,0,9.08-7.78,13.01-6,3.23,1.46,2.46,9.12,2,17-.65,11.32.87,22.71,0,34.01-2.88,37.6-2.88,75.38-5,113.03-2.14,37.91-2.76,72.96-4,143.04-.27,15.51-.78,46.96-1,87.02-.1,18.23-.03,17.23,0,87.02.03,78.81.05,118.21,0,122.03-.11,9.49-.31,22.66,0,41.01.31,18.38.82,24.11,2,55.02,1.11,29.07,1.88,55.79,2,60.02,1.32,46.32.74,45.53,2,53.01,2.79,16.55,7.53,31.61,3,34.01-2.59,1.37-6.88-2.09-8.01-3Z"/>
    <path d="M231.42,969.63c-1.92,0-4.36-1.18-7.28-3.54h0c-11.95-9.63-10.35-31.1-8.5-55.95.41-5.48.83-11.14,1.12-16.9.77-15.01.18-20.15-.99-30.4-1.41-12.31-3.54-30.9-5.03-80.98-.65-21.55-.86-38.18-.98-51.61-1.24-135.28.98-272.73,1-274.1.44-26.63,1.61-80.84,3.96-188.83l.05-2.22c.98-45.03,2.66-121.25,2.96-134.91l.07-3.36.72.17c2.66-2.18,9.82-7.57,13.68-5.83,3.59,1.62,3.18,8.29,2.71,16.02l-.12,1.96c-.31,5.35-.12,10.83.05,16.13.2,5.87.4,11.93-.06,17.9-1.66,21.61-2.37,43.65-3.06,64.96-.51,15.75-1.04,32.04-1.94,48.05-2.14,37.87-2.76,72.96-4,142.86v.14c-.5,28.23-.84,57.5-1,87.01-.06,11.25-.06,14.99-.04,32.93.01,11.02.03,27.36.04,54.09.03,81.92.04,118.29,0,122.05l-.02,1.62c-.11,9.3-.27,22.04.02,39.36.2,11.88.48,18.32.98,30.01.27,6.3.6,14.07,1.02,24.99,1.09,28.44,1.86,54.99,2,60.03.45,15.75.68,26.18.83,33.08.3,13.51.33,14.92,1.15,19.79.7,4.13,1.51,8.12,2.29,11.97,2.47,12.16,4.25,20.95.2,23.09-.54.29-1.15.43-1.82.43ZM219.75,128.56c0,.36-.02.92-.04,1.67-.3,13.66-1.98,89.88-2.96,134.91l-.05,2.22c-2.34,107.99-3.52,162.2-3.95,188.82-.02,1.37-2.24,138.79-1,274.05.12,13.41.34,30.03.98,51.56,1.5,49.99,3.62,68.54,5.02,80.81,1.15,10.03,1.78,15.56,1,30.73-.3,5.78-.72,11.45-1.13,16.94-1.81,24.3-3.37,45.28,7.76,54.25h0c4.27,3.44,6.16,3.29,6.91,2.9,2.73-1.44.81-10.91-1.22-20.93-.78-3.87-1.6-7.86-2.3-12.03-.85-5.01-.88-6.44-1.18-20.08-.15-6.9-.39-17.33-.83-33.07-.14-5.03-.91-31.58-2-60.01-.42-10.91-.75-18.68-1.02-24.98-.5-11.71-.78-18.16-.98-30.06-.29-17.34-.13-30.1-.02-39.42l.02-1.62c.05-3.9.03-45.85,0-122.02-.01-26.72-.03-43.06-.04-54.08-.02-17.95-.02-21.69.04-32.95.16-29.52.5-58.8,1-87.04v-.14c1.24-69.93,1.86-105.03,4.01-142.94.9-15.98,1.43-32.26,1.94-48,.69-21.34,1.41-43.4,3.07-65.05.45-5.86.25-11.87.05-17.68-.18-5.34-.37-10.87-.05-16.31l.12-1.96c.39-6.4.8-13.02-1.53-14.07-2.16-.98-7.46,2.16-11.61,5.57Z"/>
  </g>
  <g>
    <path class="cls-3" d="M154.68,987.14h0s11.11,3.91,16.03.67c4.54-2.99,2.61-11.28,2.49-23.88-.08-8.69.8-7.65,3.12-29.85,5.3-50.83,10.05-115.61,10.05-115.61,4.07-55.46,17.26-180.3,32.93-296.27,15.18-112.35,21.53-225.71,32.32-338.57,0,0,.27-2.85-.06-9.06-.41-7.68-1.45-9.85-2.84-11.36-1.5-1.63-4.34-3.48-5.76-2.61-2.1,1.27.73,7.23,1.32,16.23.41,6.3-.63,8.56-1.87,17.91-1.32,9.99-1.19,15.45-1.6,24.98-.66,15.34-2.23,29.59-4.92,56.81-6.69,67.66-5.54,65.86-10.22,107.55-2.92,26.04-5.66,47.15-7.02,57.6-4.18,32.12-5.41,38.14-8.22,59.49-6.27,47.6-4.51,50.77-10.38,99.49-1.69,14-1,6.8-11.6,82.26-9.12,64.85-10.03,73.03-10.92,85.35-2.23,30.89-.42,33.61-3.29,70.06-3.13,39.7-5.06,33.56-6.44,61.68-1.08,21.93-1,48.03-7.06,67.65-.43,1.38-6.06,19.48-6.06,19.48Z"/>
    <path d="M151.03,992.21l2.72-5.44c.39-1.26,5.62-18.07,6.03-19.4,4.99-16.15,5.81-37.25,6.53-55.86.15-3.93.3-7.8.49-11.54.69-14.11,1.52-19.63,2.57-26.6,1.03-6.82,2.3-15.3,3.87-35.11,1.53-19.47,1.73-29.38,1.92-38.96.17-8.59.33-16.7,1.37-31.09.87-12.03,1.59-19,10.93-85.42,5.36-38.09,7.85-55.24,9.19-64.45,1.34-9.21,1.58-10.87,2.41-17.79,2.75-22.86,3.81-35.53,4.84-47.78,1.14-13.6,2.22-26.45,5.55-51.72,1.22-9.3,2.16-15.76,3.15-22.59,1.27-8.79,2.71-18.76,5.07-36.89,1.21-9.29,4.04-31.05,7.02-57.58,2.46-21.9,3.32-32.04,4.53-46.07,1.12-13.08,2.52-29.37,5.69-61.47l1.09-10.95c2.03-20.39,3.26-32.69,3.83-45.8.1-2.27.17-4.31.23-6.24.21-6.24.37-11.17,1.38-18.82.39-2.97.77-5.27,1.08-7.12.68-4.12,1.06-6.4.78-10.59-.24-3.67-.86-6.84-1.36-9.39-.79-4.01-1.31-6.66.52-7.76,2.08-1.26,5.41,1.04,7.02,2.79,1.65,1.79,2.69,4.33,3.1,11.98.33,6.21.07,9.09.06,9.21-3.61,37.75-6.77,76.19-9.83,113.36-6.09,73.97-12.38,150.46-22.49,225.25-15.32,113.37-28.77,239.63-32.93,296.2-.05.65-4.82,65.38-10.06,115.64-1.02,9.81-1.77,15.14-2.27,18.67-.64,4.57-.88,6.28-.84,11.06.03,3.07.17,5.91.29,8.43.4,8.26.67,13.72-3.23,16.3-4.62,3.04-13.72.47-16.31-.36l-3.92,3.92ZM155.93,986.5c3.97,1.23,10.99,2.61,14.23.48,2.95-1.94,2.7-6.95,2.34-14.53-.12-2.53-.26-5.4-.29-8.5-.05-4.93.22-6.81.86-11.36.5-3.52,1.24-8.83,2.26-18.6,5.24-50.23,10-114.93,10.05-115.58,4.16-56.6,17.62-182.92,32.94-296.33,10.1-74.74,16.39-151.2,22.48-225.14,3.06-37.18,6.22-75.63,9.84-113.39,0-.03.26-2.87-.07-8.91-.42-7.78-1.5-9.57-2.58-10.73-1.62-1.76-3.87-2.82-4.51-2.44-.63.38-.1,3.07.41,5.67.51,2.6,1.15,5.84,1.4,9.64.29,4.42-.12,6.92-.81,11.05-.32,1.93-.68,4.12-1.07,7.06-1,7.56-1.16,12.44-1.36,18.63-.06,1.93-.13,3.98-.23,6.26-.57,13.17-1.8,25.49-3.84,45.92l-1.09,10.95c-3.18,32.09-4.57,48.37-5.69,61.44-1.2,14.05-2.07,24.2-4.53,46.12-2.98,26.55-5.81,48.32-7.02,57.62-2.36,18.14-3.8,28.12-5.08,36.92-.99,6.83-1.92,13.28-3.14,22.57-3.32,25.23-4.4,38.05-5.53,51.63-1.03,12.27-2.09,24.96-4.85,47.85-.84,6.95-1.08,8.61-2.42,17.84-1.34,9.21-3.83,26.35-9.19,64.44-9.33,66.35-10.05,73.31-10.91,85.29-1.04,14.33-1.2,22.42-1.36,30.99-.19,9.61-.38,19.55-1.92,39.08-1.57,19.88-2.85,28.4-3.88,35.25-1.04,6.92-1.87,12.39-2.55,26.4-.18,3.74-.33,7.59-.49,11.52-.73,18.74-1.55,39.98-6.62,56.38-3.69,11.97-5.15,16.66-5.77,18.54Z"/>
  </g>
  <g>
    <path class="cls-2" d="M187.21,162.45c-15.58,4.21,42.49,784.05,40.92,789.47-.02.06-.2.59.05,1.02,1,1.69,8.3.82,11.03-2.93,1.88-2.58.9-5.58.07-11-.9-5.94-.38-12.02-.89-18.01-3.88-46.3-5.58-92.77-9.12-139.1-2.15-28.19-4.73-77.83-9.87-177.12-4.48-86.47-3.38-73.82-7.09-143.09-5.04-94.17-7.56-141.26-9.85-180.12-2.31-39.03-3.53-55.27-3.54-72.04,0-4.66.09-12.81-.85-24.01-.92-11.06-2.84-25.02-2.84-25.03,0,0-7.76,1.88-8.02,1.95Z"/>
    <path d="M230.79,954.77c-.15,0-.3,0-.44,0-1.51-.07-2.55-.52-3.02-1.3-.3-.51-.36-1.15-.16-1.81.28-2.37-3.4-57.01-8.49-132.63-7.39-109.68-18.55-275.44-26.22-411.16-13.8-244.12-8.2-245.65-5.5-246.38h0c.26-.07,7.25-1.76,8.05-1.96l1.08-.26.15,1.1c.2,1.46,1.96,14.5,2.85,25.08.86,10.35.86,18.22.85,22.92v1.18c0,13.51.78,26.32,2.33,51.83.36,5.99.77,12.65,1.21,20.16,2.31,38.95,4.83,86.13,9.86,180.12,1.86,34.83,2.51,48.98,3.27,65.36.75,16.28,1.59,34.73,3.82,77.72v.2c5.15,99.03,7.72,148.74,9.87,176.89,1.62,21.2,2.87,42.78,4.09,63.66,1.44,24.74,2.93,50.33,5.03,75.44.21,2.54.24,5.11.28,7.61.04,3.42.09,6.95.6,10.34.14.92.28,1.76.42,2.55.69,4.04,1.14,6.71-.67,9.19-2.01,2.76-6.15,4.17-9.24,4.17ZM187.57,163.39c-1.29,1.43-3.1,13.19-1.18,74.77,1.27,40.77,4.05,98.98,8.25,173.01,7.66,135.02,18.72,299.13,26.03,407.72,6.57,97.59,8.84,131.87,8.42,133.31-.05.18-.04.25-.04.25.05.05.62.35,2.03.31,2.5-.1,5.82-1.27,7.32-3.34,1.31-1.8.94-4.01.31-7.68-.14-.8-.28-1.66-.42-2.58-.54-3.53-.58-7.13-.63-10.61-.03-2.46-.06-5-.27-7.46-2.1-25.13-3.59-50.73-5.03-75.49-1.21-20.86-2.47-42.43-4.08-63.62-2.15-28.18-4.73-77.89-9.87-176.94v-.2c-2.24-43-3.09-61.46-3.84-77.74-.75-16.38-1.4-30.53-3.27-65.35-5.03-93.99-7.55-141.17-9.85-180.11-.44-7.51-.85-14.17-1.21-20.15-1.55-25.55-2.33-38.37-2.33-51.95v-1.18c0-4.67.01-12.48-.84-22.75-.77-9.19-2.2-20.25-2.69-23.87-2.77.67-6.17,1.5-6.81,1.66ZM187.47,163.42h0s0,0,0,0c0,0,0,0,0,0Z"/>
  </g>
  <g>
    <path class="cls-1" d="M285.14,966.08c-16.07-8.32-16.48-37.64-21.22-69.18-4.92-32.73-7.07-18.37-28.11-108.03-5.31-22.63-9.03-39.97-11.24-50.36-28.49-133.84-53.63-268.78-53.63-268.78-4.91-26.36-14.66-80.25-34.15-188.02-8.83-48.82-24.36-134.88-24.36-134.89,0,0,7.35-9.43,11.55-8.47,3.46.79,4.23,8.45,5.35,16.27,1.61,11.22,5.37,22.08,6.78,33.33,4.67,37.42,12.2,74.44,17.62,111.76,5.46,37.58,11.83,72.04,24.58,140.97,2.82,15.25,8.59,46.17,16.36,85.48,3.53,17.89,3.41,16.89,17.34,85.28,15.73,77.22,23.6,115.83,24.32,119.59,1.78,9.33,4.21,22.26,8.17,40.19,3.96,17.95,5.61,23.46,12.92,53.51,6.88,28.27,12.96,54.29,13.92,58.42,10.52,45.13,9.8,44.47,12.53,51.55,6.03,15.66,13.68,29.48,9.72,32.73-2.26,1.85-7.16-.68-8.44-1.35Z"/>
    <path d="M291.43,969.08c-1.76,0-4.02-.71-6.74-2.12h0c-13.63-7.06-16.34-28.42-19.48-53.15-.69-5.45-1.41-11.08-2.26-16.78-2.23-14.86-3.84-19.78-7.03-29.6-3.83-11.78-9.62-29.58-21.07-78.35-5.62-23.95-9.56-42.47-11.25-50.38-27.91-131.13-52.62-263.27-53.62-268.81h-.01c-4.93-26.46-14.69-80.45-34.15-188.02-8.07-44.6-21.73-120.29-24.03-133.04l-.56-3.1.76.04c2.18-2.68,8.11-9.36,12.23-8.42,3.84.87,4.77,7.49,5.84,15.15l.28,1.95c.76,5.3,2.04,10.64,3.27,15.79,1.36,5.71,2.77,11.61,3.51,17.55,2.68,21.51,6.37,43.25,9.95,64.27,2.64,15.54,5.37,31.61,7.67,47.47,5.45,37.55,11.84,72.09,24.56,140.89,5.16,27.89,10.66,56.65,16.37,85.51,2.18,11.03,2.93,14.69,6.52,32.25,2.21,10.8,5.48,26.81,10.82,53.03l.28,1.38c15.53,76.22,23.32,114.48,24.04,118.22l.31,1.64c1.74,9.13,4.12,21.64,7.85,38.52,2.56,11.6,4.12,17.85,6.94,29.21,1.52,6.12,3.4,13.67,5.98,24.29,6.53,26.79,12.31,51.49,13.92,58.43,3.57,15.33,5.88,25.5,7.41,32.24,2.99,13.2,3.3,14.58,5.08,19.19,1.51,3.91,3.09,7.66,4.63,11.27,4.84,11.43,8.34,19.68,4.79,22.59-.72.59-1.66.89-2.79.89ZM285.6,965.19h0c4.87,2.52,6.69,2,7.35,1.46,2.39-1.96-1.38-10.85-5.37-20.26-1.54-3.63-3.13-7.39-4.65-11.34-1.83-4.75-2.14-6.14-5.16-19.46-1.53-6.73-3.83-16.9-7.4-32.22-1.62-6.93-7.39-31.62-13.92-58.41-2.58-10.61-4.46-18.16-5.98-24.28-2.83-11.37-4.38-17.63-6.95-29.26-3.73-16.91-6.12-29.43-7.86-38.58l-.31-1.64c-.71-3.73-8.51-41.98-24.03-118.2l-.28-1.38c-5.34-26.21-8.62-42.23-10.82-53.02-3.59-17.57-4.34-21.23-6.52-32.26-5.7-28.87-11.21-57.64-16.36-85.49-12.74-68.87-19.13-103.42-24.59-141.01-2.3-15.84-5.03-31.9-7.66-47.43-3.57-21.05-7.27-42.81-9.96-64.36-.73-5.83-2.12-11.68-3.47-17.34-1.24-5.2-2.52-10.58-3.3-15.97l-.28-1.95c-.89-6.35-1.81-12.91-4.3-13.48-2.32-.53-6.88,3.6-10.27,7.77.06.32.14.79.25,1.4,2.3,12.75,15.97,88.44,24.03,133.04,19.45,107.57,29.22,161.56,34.15,188.02.25,1.33,25.45,136.41,53.63,268.76,1.68,7.9,5.62,26.41,11.24,50.34,11.43,48.69,17.2,66.44,21.02,78.19,3.12,9.61,4.85,14.9,7.1,29.92.86,5.72,1.58,11.36,2.27,16.82,3.07,24.17,5.72,45.05,18.42,51.62h0Z"/>
  </g>
  <g>
    <path class="cls-3" d="M220.81,1001.42h0s11.67,1.62,15.84-2.54c3.85-3.83.31-11.57-2.32-23.89-1.81-8.5-.74-7.66-2.89-29.87-4.94-50.87-13.18-115.3-13.18-115.3-7.06-55.16-19.01-180.12-26.76-296.89-7.51-113.12-23.88-225.48-35.79-338.22,0,0-.3-2.84-1.86-8.86-1.93-7.44-3.39-9.37-5.05-10.57-1.8-1.3-4.94-2.54-6.17-1.41-1.8,1.66,2.16,6.93,4.53,15.64,1.66,6.09,1.09,8.51,1.74,17.92.7,10.06,1.91,15.38,3.41,24.79,2.41,15.16,3.71,29.45,6.5,56.65,6.92,67.63,7.69,65.64,11.42,107.43,2.33,26.1,3.85,47.33,4.6,57.84,2.3,32.31,2.3,38.45,3.8,59.93,3.34,47.89,5.69,50.65,9.65,99.56,1.14,14.06.38,6.86,5.02,82.93,3.99,65.36,4.72,73.56,6.31,85.82,3.97,30.72,6.29,33.02,10.74,69.31,4.85,39.53,1.73,33.9,5.98,61.73,3.31,21.7,8.59,47.27,6.56,67.7-.14,1.44-2.05,20.3-2.05,20.3Z"/>
    <path d="M219.81,1003.63v-2.21q0-.05.21-2.1c.5-4.89,1.74-17.15,1.85-18.3,1.67-16.82-1.73-37.66-4.73-56.05-.63-3.88-1.26-7.7-1.82-11.4-2.13-13.97-2.42-19.54-2.78-26.58-.35-6.88-.79-15.45-3.21-35.17-2.38-19.39-4.16-29.13-5.88-38.56-1.55-8.45-3.01-16.43-4.85-30.74-1.54-11.96-2.23-18.94-6.31-85.88-2.34-38.4-3.32-55.7-3.84-64.99-.52-9.29-.62-10.97-1.18-17.92-1.86-22.95-3.34-35.58-4.78-47.79-1.59-13.55-3.1-26.36-4.87-51.78-.65-9.35-1.02-15.87-1.42-22.76-.51-8.87-1.08-18.93-2.38-37.16-.67-9.33-2.22-31.18-4.6-57.82-1.96-21.95-3.13-32.06-4.74-46.05-1.51-13.04-3.39-29.28-6.67-61.37l-1.11-10.89c-2.07-20.42-3.32-32.74-5.38-45.71-.36-2.25-.7-4.26-1.02-6.16-1.04-6.16-1.87-11.02-2.4-18.72-.21-2.99-.29-5.32-.36-7.19-.15-4.18-.24-6.48-1.34-10.53-.97-3.55-2.21-6.53-3.2-8.93-1.57-3.77-2.61-6.27-1.04-7.71,1.78-1.65,5.51-.05,7.44,1.34,1.98,1.43,3.5,3.71,5.43,11.13,1.4,5.39,1.83,8.4,1.89,9.01h0c3.98,37.71,8.54,76,12.95,113.04,8.77,73.7,17.85,149.91,22.84,225.22,7.58,114.15,19.55,240.56,26.76,296.83.08.64,8.3,65.03,13.19,115.33.95,9.82,1.28,15.19,1.5,18.75.28,4.6.38,6.33,1.38,11,.64,3,1.34,5.76,1.96,8.2,2.04,8.02,3.39,13.31.08,16.61-3.99,3.98-13.79,3.15-16.22,2.88l-1.33,1.17ZM221.91,1000.53c2.8.26,10.93.73,14.04-2.36,2.5-2.49,1.27-7.35-.61-14.7-.63-2.46-1.33-5.24-1.98-8.28-1.03-4.82-1.14-6.72-1.42-11.3-.21-3.54-.54-8.9-1.49-18.68-4.88-50.27-13.1-114.62-13.18-115.27-7.21-56.29-19.19-182.75-26.77-296.95-4.99-75.26-14.06-151.44-22.83-225.12-4.41-37.04-8.97-75.34-12.96-113.06,0-.03-.32-2.86-1.84-8.72-1.96-7.54-3.38-9.08-4.66-10.01-1.93-1.4-4.35-2-4.9-1.49-.54.5.51,3.03,1.53,5.47,1.02,2.45,2.29,5.5,3.29,9.17,1.17,4.28,1.26,6.8,1.41,10.99.07,1.96.15,4.17.36,7.13.53,7.6,1.34,12.42,2.38,18.52.32,1.91.67,3.93,1.02,6.18,2.07,13.03,3.32,25.37,5.4,45.82l1.11,10.89c3.28,32.08,5.16,48.3,6.67,61.34,1.62,14.01,2.79,24.13,4.75,46.1,2.38,26.66,3.94,48.52,4.6,57.86,1.3,18.25,1.88,28.32,2.38,37.19.39,6.89.76,13.4,1.42,22.74,1.77,25.38,3.27,38.16,4.86,51.69,1.44,12.23,2.92,24.87,4.78,47.86.56,6.97.66,8.65,1.18,17.97.52,9.29,1.5,26.59,3.84,64.98,4.08,66.88,4.76,73.84,6.3,85.75,1.84,14.25,3.3,22.21,4.84,30.64,1.73,9.45,3.52,19.23,5.9,38.68,2.43,19.79,2.87,28.4,3.22,35.32.36,6.99.64,12.51,2.76,26.38.56,3.7,1.19,7.5,1.82,11.38,3.02,18.51,6.44,39.49,4.75,56.57-.11,1.15-1.36,13.41-1.85,18.3l-.1,1.01Z"/>
  </g>
  <g>
    <path class="cls-1" d="M181.37,982.76c-12.05-13.5-1.99-41.03,4.82-72.2,7.06-32.33-.06-19.68,12.22-110.95,3.1-23.03,5.8-40.56,7.44-51.06,21.06-135.21,45.65-270.25,45.65-270.25,4.8-26.38,14.9-80.2,35.08-187.85,9.14-48.76,25.29-134.71,25.29-134.72,0,0,10.22-6.2,13.81-3.8,2.95,1.97.94,9.4-.8,17.1-2.49,11.06-2.84,22.54-5.54,33.56-8.97,36.63-15.12,73.9-23.36,110.71-8.29,37.06-14.61,71.53-27.26,140.48-2.8,15.26-8.42,46.2-15.17,85.7-3.07,17.97-2.83,16.99-14.18,85.86-12.81,77.76-19.22,116.64-19.89,120.4-1.66,9.35-4,22.3-6.68,40.46-2.69,18.18-3.12,23.92-6.99,54.61-3.64,28.87-7.23,55.35-7.81,59.54-6.25,45.92-6.69,45.04-6.66,52.63.06,16.78,2.28,32.42-2.58,34.04-2.77.93-6.45-3.19-7.41-4.26Z"/>
    <path d="M187.93,988.16c-2.04,0-4.49-1.58-7.31-4.73h0c-10.22-11.45-5.14-32.37.73-56.6,1.29-5.34,2.63-10.85,3.86-16.48,3.21-14.68,3.47-19.85,3.98-30.16.62-12.37,1.55-31.06,8.23-80.71,2.88-21.43,5.38-37.85,7.44-51.08,20.82-133.68,45.41-268.93,45.65-270.28,4.81-26.4,14.93-80.36,35.08-187.85,8.03-42.82,21.46-114.32,24.62-131.11l.91-4.84.69.3c2.99-1.73,10.92-5.86,14.44-3.52,3.28,2.18,1.79,8.7.06,16.24l-.44,1.92c-1.18,5.23-1.89,10.66-2.58,15.92-.76,5.82-1.55,11.84-2.97,17.65-5.16,21.05-9.45,42.68-13.61,63.6-3.07,15.46-6.25,31.45-9.75,47.09-8.29,37.05-14.63,71.61-27.25,140.44-5.1,27.82-10.2,56.65-15.17,85.69-1.89,11.09-2.5,14.77-5.4,32.47-1.78,10.87-4.43,27.01-8.78,53.39l-.06.39c-12.75,77.41-19.16,116.26-19.82,120.03l-.28,1.55c-1.63,9.17-3.86,21.72-6.4,38.89-1.74,11.75-2.52,18.15-3.92,29.76-.76,6.26-1.7,13.99-3.06,24.82-3.41,27.03-6.84,52.41-7.81,59.55-2.12,15.6-3.59,25.93-4.57,32.76-1.91,13.39-2.11,14.79-2.09,19.73.02,4.2.16,8.26.31,12.18.45,12.4.78,21.36-3.57,22.81-.37.13-.76.19-1.17.19ZM182.12,982.09h0c3.65,4.09,5.54,4.25,6.34,3.98,2.93-.98,2.58-10.63,2.2-20.84-.14-3.94-.29-8.02-.31-12.25-.02-5.08.18-6.5,2.11-20.02.97-6.83,2.44-17.16,4.56-32.75.97-7.13,4.4-32.51,7.8-59.53,1.37-10.83,2.3-18.56,3.06-24.82,1.41-11.63,2.19-18.04,3.93-29.81,2.54-17.19,4.78-29.76,6.41-38.94l.28-1.55c.67-3.75,7.07-42.6,19.82-120l.06-.39c4.35-26.38,6.99-42.51,8.78-53.39,2.9-17.7,3.51-21.39,5.4-32.48,4.96-29.05,10.07-57.88,15.17-85.71,12.63-68.86,18.97-103.42,27.27-140.52,3.5-15.62,6.67-31.6,9.74-47.04,4.16-20.94,8.46-42.59,13.62-63.68,1.4-5.71,2.18-11.67,2.93-17.44.69-5.3,1.41-10.78,2.61-16.1l.44-1.93c1.43-6.25,2.91-12.71.78-14.13-1.98-1.32-7.72.91-12.36,3.6-.09.46-.26,1.37-.59,3.16-3.15,16.79-16.59,88.29-24.62,131.11-20.16,107.5-30.28,161.45-35.08,187.85-.25,1.35-24.83,136.58-45.65,270.23-2.06,13.22-4.55,29.62-7.43,51.03-6.67,49.57-7.6,68.21-8.21,80.55-.5,10.09-.78,15.64-4.02,30.49-1.23,5.65-2.58,11.18-3.87,16.53-5.74,23.68-10.7,44.13-1.18,54.79h0Z"/>
  </g>
  <g>
    <path class="cls-1" d="M214.95,1005.13c-15.34-12.78-9.41-45.22-7.63-81.08,1.85-37.21-3.55-21.85-6.56-125.49-.76-26.15-.96-46.12-1.07-58.08-1.36-154.05,1.09-308.57,1.09-308.57.48-30.18,1.77-91.82,4.36-215.1,1.17-55.84,3.27-154.28,3.27-154.28,0,0,9.88-8.76,14.17-6.76,3.52,1.64,2.68,10.27,2.18,19.14-.71,12.74.94,25.56,0,38.29-3.14,42.34-3.13,84.86-5.45,127.26-2.33,42.69-3.01,82.14-4.36,161.04-.3,17.46-.85,52.87-1.09,97.98-.11,20.53-.03,19.4,0,97.98.03,88.72.05,133.09,0,137.39-.12,10.69-.33,25.51,0,46.17.33,20.69.89,27.14,2.18,61.94,1.21,32.73,2.05,62.81,2.18,67.57,1.44,52.15.8,51.26,2.18,59.69,3.04,18.63,8.2,35.59,3.27,38.29-2.82,1.54-7.49-2.36-8.72-3.38Z"/>
    <path d="M222.2,1009.86c-2.08,0-4.72-1.33-7.88-3.96h0c-12.96-10.8-11.22-34.93-9.21-62.88.44-6.17.9-12.54,1.22-19.02.84-16.91.2-22.71-1.08-34.26-1.53-13.85-3.85-34.78-5.48-91.15-.7-24.25-.94-42.98-1.07-58.1-1.35-152.3,1.07-307.05,1.09-308.59.48-30.18,1.78-91.98,4.36-215.09,1.07-50.8,2.9-136.85,3.22-151.99l.07-3.56.71.17c2.87-2.44,10.67-8.52,14.85-6.57,3.84,1.79,3.4,9.25,2.88,17.9l-.13,2.21c-.34,6.03-.14,12.2.06,18.17.22,6.6.44,13.43-.06,20.14-1.8,24.33-2.58,49.14-3.33,73.14-.56,17.74-1.13,36.08-2.11,54.1-2.33,42.65-3.01,82.18-4.36,160.93-.55,32.02-.91,64.98-1.09,98.04-.07,12.64-.06,16.83-.04,36.96.01,12.41.03,30.83.04,61.01.03,88.59.05,133.05,0,137.4l-.02,1.87c-.12,10.47-.29,24.8.02,44.27.22,13.36.52,20.61,1.06,33.75.29,7.1.66,15.86,1.11,28.16,1.15,31.1,1.96,59.59,2.18,67.58.49,17.72.74,29.46.91,37.23.33,15.23.36,16.82,1.26,22.32.76,4.66,1.64,9.14,2.49,13.48,2.68,13.63,4.61,23.48.27,25.85-.58.32-1.23.48-1.95.48ZM215.59,1004.36h0c4.68,3.9,6.77,3.72,7.6,3.27,3.05-1.67.95-12.37-1.27-23.71-.85-4.35-1.74-8.85-2.5-13.54-.92-5.63-.95-7.24-1.28-22.6-.17-7.77-.42-19.51-.91-37.22-.22-7.99-1.03-36.47-2.18-67.56-.46-12.3-.82-21.06-1.12-28.15-.55-13.16-.85-20.42-1.07-33.81-.32-19.5-.15-33.85-.02-44.33l.02-1.87c.05-4.34.03-51.59,0-137.38-.01-30.18-.03-48.6-.04-61.01-.02-20.13-.02-24.32.04-36.97.18-33.06.54-66.03,1.09-97.99,1.35-78.85,2.03-118.39,4.36-161.08.98-18,1.56-36.33,2.11-54.05.75-24.02,1.53-48.85,3.34-73.22.49-6.61.27-13.38.06-19.92-.2-6.01-.4-12.23-.06-18.35l.13-2.22c.43-7.25.87-14.75-1.73-15.96-2.4-1.12-8.22,2.45-12.75,6.32,0,.39-.02,1.02-.04,1.86-.32,15.14-2.16,101.18-3.22,151.98-2.58,123.12-3.88,184.91-4.36,215.09-.02,1.54-2.44,156.26-1.09,308.54.13,15.11.37,33.82,1.07,58.06,1.63,56.28,3.94,77.17,5.47,90.99,1.25,11.29,1.94,17.51,1.09,34.58-.32,6.5-.78,12.89-1.23,19.07-1.97,27.39-3.67,51.06,8.5,61.2h0Z"/>
  </g>
  <g>
    <path class="cls-1" d="M117.3,982.55c-11.29-15.04.4-44.92,9.04-78.84,8.97-35.2,1.09-21.52,18.72-121.05,4.45-25.12,8.18-44.23,10.43-55.66,29-147.37,61.51-294.48,61.51-294.48,6.35-28.74,19.61-87.36,46.12-204.61,12.01-53.11,33.21-146.73,33.21-146.74,0,0,10.61-6.54,14.07-3.84,2.84,2.22.39,10.3-1.8,18.69-3.14,12.04-4.17,24.59-7.51,36.57-11.13,39.85-19.47,80.47-29.87,120.52-10.47,40.33-18.82,77.89-35.51,152.99-3.69,16.62-11.13,50.33-20.2,93.36-4.13,19.59-3.83,18.52-19.22,93.57-17.38,84.74-26.06,127.1-26.95,131.21-2.21,10.18-5.3,24.3-9.06,44.09-3.76,19.82-4.52,26.09-10.19,59.55-5.33,31.48-10.48,60.36-11.29,64.93-8.94,50.07-9.33,49.1-9.75,57.4-.92,18.35.39,35.51-4.57,37.17-2.84.95-6.28-3.63-7.18-4.84Z"/>
    <path d="M123.68,988.52c-2.09,0-4.5-1.8-7.18-5.36h0c-9.54-12.71-3.25-35.44,4.04-61.75,1.61-5.81,3.27-11.81,4.83-17.94,4.08-15.99,4.64-21.65,5.75-32.92,1.34-13.51,3.36-33.93,12.95-88.06,4.14-23.35,7.6-41.25,10.43-55.68,28.67-145.7,61.19-293.03,61.52-294.5,6.38-28.85,19.66-87.59,46.12-204.62,11.32-50.06,33.19-146.68,33.21-146.76l.32-1.28.64.36c3.14-1.84,11.28-6.14,14.7-3.47,3.12,2.44,1.26,9.48-.89,17.64l-.55,2.09c-1.49,5.7-2.52,11.63-3.51,17.37-1.1,6.34-2.24,12.9-4,19.22-6.4,22.9-11.96,46.46-17.35,69.24-3.98,16.83-8.09,34.24-12.51,51.26-10.46,40.31-18.83,77.93-35.49,152.89-6.75,30.39-13.55,61.8-20.21,93.42-2.55,12.1-3.37,16.13-7.33,35.49-2.42,11.85-6.01,29.41-11.89,58.07l-.26,1.27c-17.18,83.8-25.81,125.86-26.7,129.95l-.37,1.71c-2.17,9.99-5.14,23.66-8.68,42.36-2.43,12.81-3.58,19.79-5.67,32.46-1.13,6.83-2.52,15.26-4.52,27.07-5.04,29.8-9.92,57.24-11.3,64.94-3.04,17.01-5.11,28.27-6.49,35.72-2.69,14.61-2.98,16.14-3.25,21.55-.23,4.59-.32,9.04-.4,13.33-.27,13.5-.46,23.26-4.85,24.73-.36.12-.74.18-1.12.18ZM118.11,981.95c3.53,4.7,5.41,4.7,6.06,4.49,3.05-1.02,3.26-11.64,3.48-22.88.09-4.31.17-8.77.41-13.39.28-5.55.56-7.09,3.28-21.82,1.37-7.45,3.45-18.71,6.48-35.71,1.37-7.7,6.25-35.13,11.29-64.92,2-11.81,3.39-20.24,4.52-27.07,2.09-12.68,3.24-19.67,5.68-32.51,3.55-18.72,6.52-32.41,8.69-42.41l.37-1.71c.88-4.08,9.51-46.14,26.69-129.93l.26-1.27c5.88-28.66,9.47-46.22,11.89-58.07,3.96-19.36,4.78-23.39,7.33-35.5,6.66-31.63,13.46-63.04,20.2-93.38,16.68-75.05,25.05-112.68,35.52-153.02,4.41-17,8.53-34.4,12.5-51.22,5.39-22.8,10.96-46.37,17.37-69.32,1.74-6.22,2.87-12.73,3.96-19.02,1-5.78,2.04-11.75,3.55-17.53l.55-2.1c1.73-6.53,3.68-13.92,1.6-15.55-1.81-1.41-7.63.77-12.57,3.69-1.55,6.83-21.67,95.73-33.11,146.32-26.46,117.02-39.74,175.76-46.12,204.61-.33,1.47-32.85,148.78-61.51,294.46-2.84,14.42-6.29,32.31-10.43,55.64-9.57,54.05-11.59,74.43-12.93,87.91-1.09,11.01-1.69,17.07-5.8,33.22-1.57,6.15-3.23,12.16-4.84,17.98-7.15,25.81-13.32,48.09-4.37,60.02l-.8.6.8-.6Z"/>
  </g>
  <g>
    <path class="cls-1" d="M95.9,936.45c-10.22-15.79,3.52-44.78,14.5-78.02,11.39-34.49,2.58-21.39,27.08-119.46,6.18-24.75,11.23-43.55,14.27-54.8,39.16-145,81.82-289.5,81.82-289.5,8.33-28.23,25.63-85.79,60.22-200.92,15.67-52.15,43.32-144.07,43.32-144.08,0,0,11.04-5.79,14.3-2.85,2.68,2.41-.32,10.31-3.09,18.52-3.97,11.79-5.86,24.24-10.03,35.96-13.87,38.98-25.01,78.92-38.16,118.16-13.25,39.51-24.18,76.39-46.05,150.16-4.84,16.32-14.6,49.44-26.64,91.74-5.48,19.25-5.11,18.21-25.67,92.01-23.22,83.33-34.83,124.99-36,129.02-2.91,10.01-6.98,23.87-12.1,43.36-5.13,19.51-6.33,25.71-14.3,58.7-7.5,31.04-14.64,59.49-15.78,63.99-12.39,49.33-12.72,48.34-13.71,56.59-2.19,18.24-2.07,35.45-7.14,36.76-2.89.75-6.01-4.06-6.83-5.32Z"/>
    <path d="M102.1,942.86c-2.15,0-4.52-1.97-7.04-5.86-8.64-13.34-.78-35.57,8.32-61.32,2.01-5.68,4.08-11.55,6.07-17.56,5.18-15.67,6.13-21.28,8.02-32.44,2.27-13.39,5.71-33.61,19.03-86.95,5.75-23,10.44-40.62,14.28-54.82,38.72-143.36,81.4-288.08,81.82-289.52,8.35-28.29,25.68-85.99,60.22-200.92,13.59-45.24,36.2-120.41,41.95-139.54l1.74-5.78.63.39c3.24-1.61,11.7-5.35,14.92-2.45,2.95,2.65.6,9.55-2.12,17.54l-.69,2.04c-1.88,5.58-3.32,11.43-4.71,17.08-1.54,6.25-3.13,12.71-5.33,18.89-7.97,22.41-15.16,45.52-22.11,67.87-5.14,16.52-10.45,33.6-16.04,50.28-13.24,39.5-24.2,76.47-46.04,150.12-8.81,29.71-17.77,60.57-26.63,91.73-3.38,11.89-4.48,15.86-9.77,34.89-3.24,11.65-8.04,28.92-15.9,57.11l-.64,2.28c-22.77,81.73-34.2,122.75-35.37,126.75l-.51,1.74c-2.85,9.8-6.76,23.22-11.58,41.59-3.31,12.61-4.94,19.48-7.91,31.97-1.6,6.74-3.57,15.05-6.39,26.71-7.05,29.16-13.86,56.36-15.78,64-4.21,16.76-7.06,27.85-8.95,35.19-3.7,14.39-4.09,15.89-4.74,21.28-.55,4.56-.94,8.99-1.33,13.27-1.21,13.45-2.08,23.17-6.55,24.34-.29.08-.58.11-.88.11ZM337.93,50.37c-.16.52-.5,1.65-1.24,4.13-5.75,19.13-28.36,94.3-41.95,139.54-34.53,114.93-51.86,172.62-60.21,200.91-.43,1.45-43.1,146.15-81.81,289.48-3.83,14.19-8.52,31.8-14.27,54.79-13.31,53.26-16.73,73.44-19,86.8-1.85,10.91-2.87,16.92-8.1,32.73-1.99,6.03-4.07,11.91-6.08,17.6-8.92,25.25-16.63,47.05-8.53,59.57,3.19,4.93,5.08,5.07,5.74,4.9,3.11-.81,4.06-11.38,5.06-22.58.39-4.3.78-8.74,1.33-13.33.66-5.51,1.05-7.03,4.79-21.54,1.89-7.34,4.74-18.42,8.95-35.17,1.92-7.64,8.73-34.83,15.77-63.98,2.82-11.66,4.79-19.97,6.39-26.71,2.97-12.5,4.6-19.39,7.92-32.02,4.83-18.39,8.74-31.83,11.6-41.64l.51-1.74c1.16-3.99,12.59-45.01,35.36-126.73l.64-2.28c7.85-28.19,12.65-45.46,15.89-57.11,5.29-19.04,6.39-23,9.78-34.9,8.87-31.16,17.83-62.03,26.64-91.75,21.84-73.68,32.81-110.66,46.06-150.19,5.59-16.66,10.89-33.73,16.03-50.23,6.96-22.37,14.16-45.5,22.14-67.94,2.16-6.08,3.74-12.5,5.27-18.7,1.4-5.69,2.85-11.58,4.76-17.24l.69-2.05c2.18-6.39,4.64-13.64,2.67-15.41-1.78-1.6-7.81.31-12.8,2.81Z"/>
  </g>
  <g>
    <path class="cls-2" d="M215.92,129.06c-15.9,3.03-29.07,855.8-31.12,861.54-.02.06-.26.62-.04,1.12.85,1.93,8.19,1.71,11.25-2.09,2.11-2.62,1.4-5.98,1.07-11.94-.36-6.54.71-13.09.76-19.65.36-50.68,2.89-101.31,3.58-151.99.42-30.83,2.38-85,6.29-193.35,3.41-94.37,3.35-80.51,5.97-156.12,3.56-102.78,5.34-154.18,6.58-196.61,1.25-42.62,1.51-60.39,3.03-78.6.42-5.06,1.25-13.9,1.34-26.16.09-12.1-.55-27.46-.55-27.46,0,0-7.9,1.27-8.16,1.32Z"/>
    <path d="M188.17,993.9c-.45,0-.89-.03-1.3-.08-1.58-.21-2.63-.8-3.03-1.71-.24-.54-.23-1.2.02-1.86.5-2.43,1.81-62.19,3.62-144.91,2.63-119.87,6.6-301.01,11.32-449.19,8.48-266.47,14.19-267.56,16.94-268.08h0c.27-.05,7.38-1.2,8.19-1.33l2.26-.36-1.09,1.64c.13,3.33.62,16.5.54,27.19-.08,11.32-.81,19.86-1.24,24.96l-.11,1.28c-1.23,14.69-1.62,28.69-2.4,56.57-.18,6.53-.39,13.79-.63,21.97-1.25,42.34-3.02,93.66-6.56,195.91l-.02.7c-1.31,38.01-1.96,53.44-2.7,71.31-.74,17.75-1.57,37.88-3.27,84.81v.24c-3.91,108.06-5.87,162.3-6.29,193.09-.32,23.19-1.03,46.75-1.73,69.54-.82,27.02-1.67,54.96-1.86,82.44-.02,2.77-.22,5.57-.42,8.28-.27,3.72-.55,7.56-.34,11.31.06,1.01.12,1.94.18,2.81.31,4.42.52,7.33-1.48,9.81-2,2.49-5.67,3.66-8.62,3.66ZM216.23,130.02c-1.42,1.44-4.32,14.07-8.01,81.11-2.44,44.4-4.98,107.91-7.54,188.75-4.66,147.44-8.6,326.81-11.2,445.5-2.19,99.79-3.18,143.97-3.74,145.54-.09.23-.07.36-.07.38.04.08.44.42,1.59.55,2.51.28,6.16-.63,7.96-2.86,1.51-1.87,1.33-4.33,1.04-8.42-.06-.88-.13-1.82-.19-2.85-.21-3.87.07-7.79.34-11.57.19-2.67.39-5.44.41-8.14.19-27.51,1.04-55.46,1.86-82.49.69-22.78,1.41-46.33,1.72-69.51.42-30.82,2.38-85.06,6.28-193.14v-.24c1.7-46.93,2.54-67.06,3.28-84.82.74-17.87,1.38-33.3,2.7-71.3l.02-.7c3.54-102.24,5.31-153.57,6.56-195.9.24-8.18.44-15.44.63-21.97.78-27.92,1.18-41.94,2.41-56.68l.11-1.29c.43-5.07,1.15-13.56,1.23-24.8.07-9.97-.35-22.11-.51-26.29-2.8.45-6.21,1-6.91,1.12Z"/>
  </g>
  <g>
    <path class="cls-1" d="M235.17,1012.06c-15.12-10.84-12.5-42.69-13.95-77.44-1.51-36.06-5.13-20.72-16.8-120.36-2.94-25.14-4.85-44.38-5.98-55.89-14.51-148.4-25.57-297.62-25.57-297.62-2.16-29.15-6.28-88.7-14.53-207.82-3.74-53.95-10.29-149.07-10.29-149.08,0,0,8.28-9.4,12.37-7.89,3.36,1.24,3.33,9.64,3.64,18.25.45,12.35,3.06,24.56,3.3,36.92.77,41.12,4.44,82.13,5.97,123.23,1.54,41.38,4.32,79.49,9.88,155.7,1.23,16.86,3.78,51.06,7.44,94.57,1.67,19.81,1.64,18.7,8.43,94.47,7.67,85.54,11.5,128.31,11.83,132.47.81,10.32,1.89,24.63,3.97,44.52,2.09,19.92,3.15,26.09,7.32,59.51,3.93,31.44,7.28,60.36,7.81,64.94,5.8,50.14,5.15,49.35,7.13,57.34,4.38,17.67,10.56,33.52,6.28,36.6-2.44,1.76-7.05-1.55-8.26-2.41Z"/>
    <path d="M241.72,1015.98c-1.86,0-4.25-1.04-7.14-3.11h0c-12.79-9.17-13.28-32.61-13.85-59.75-.13-5.99-.26-12.18-.52-18.46-.69-16.38-1.77-21.91-3.93-32.93-2.59-13.21-6.51-33.16-12.86-87.36-2.74-23.4-4.56-41.4-5.98-55.91-14.34-146.72-25.46-296.16-25.57-297.65-2.16-29.2-6.3-88.9-14.53-207.82-3.74-54.02-10.29-149.04-10.29-149.08l-.08-1.31.73.15c2.47-2.68,9.03-9.22,13.07-7.73,3.71,1.37,3.95,8.62,4.22,17.01l.07,2.14c.21,5.85.93,11.78,1.62,17.52.77,6.34,1.56,12.9,1.68,19.42.44,23.63,1.87,47.64,3.25,70.85,1.02,17.15,2.07,34.89,2.72,52.36,1.54,41.38,4.33,79.57,9.88,155.66,2.24,30.78,4.75,62.6,7.44,94.56,1.03,12.21,1.39,16.25,3.15,35.7,1.08,11.96,2.68,29.71,5.29,58.77l.45,5.01c7.37,82.16,11.06,123.39,11.38,127.47l.14,1.77c.79,10.11,1.87,23.96,3.83,42.72,1.35,12.87,2.25,19.84,3.88,32.47.88,6.81,1.97,15.22,3.44,27.02,3.55,28.4,6.64,54.88,7.81,64.95,1.97,17.04,3.21,28.34,4.04,35.81,1.61,14.66,1.78,16.19,3.07,21.4,1.1,4.42,2.29,8.66,3.44,12.76,3.62,12.88,6.23,22.18,2.46,24.9-.64.46-1.41.69-2.29.69ZM149.07,104.21c.48,6.92,6.67,96.8,10.26,148.65,8.24,118.92,12.37,178.61,14.53,207.81.11,1.49,11.23,150.9,25.57,297.6,1.42,14.51,3.24,32.49,5.98,55.87,6.34,54.12,10.25,74.03,12.83,87.2,2.11,10.76,3.28,16.69,3.97,33.23.26,6.3.39,12.5.52,18.5.56,26.61,1.04,49.59,13.02,58.17h0c4.72,3.39,6.53,2.81,7.09,2.41,2.63-1.9-.21-12.02-3.22-22.73-1.16-4.11-2.35-8.37-3.45-12.81-1.33-5.34-1.5-6.89-3.12-21.66-.82-7.48-2.06-18.77-4.03-35.8-1.17-10.06-4.26-36.54-7.81-64.93-1.47-11.8-2.56-20.2-3.44-27.01-1.64-12.65-2.54-19.62-3.89-32.52-1.97-18.79-3.05-32.65-3.84-42.77l-.14-1.77c-.32-4.07-4.01-45.3-11.38-127.45l-.45-5.01c-2.6-29.05-4.21-46.8-5.29-58.77-1.76-19.45-2.12-23.49-3.15-35.71-2.69-31.97-5.19-63.8-7.44-94.58-5.55-76.11-8.34-114.32-9.88-155.73-.65-17.45-1.7-35.17-2.72-52.32-1.38-23.23-2.81-47.25-3.25-70.93-.12-6.42-.91-12.92-1.66-19.22-.7-5.78-1.42-11.75-1.63-17.68l-.07-2.15c-.22-6.7-.47-14.29-2.91-15.2-2.14-.79-7.09,3.04-10.99,7.31Z"/>
  </g>
  <g>
    <path class="cls-3" d="M167.52,1043.16h0s11.44,3.07,16.02-.97c4.22-3.73,1.51-12.52.17-26.18-.93-9.43.06-8.39.21-32.73.35-55.74-1.2-126.56-1.2-126.56-1.32-60.63-.29-197.54,4.07-325.08,4.22-123.56-.45-247.29-.65-370.94,0,0,0-3.12-.94-9.83-1.15-8.29-2.4-10.54-3.93-12.03-1.65-1.61-4.65-3.32-5.99-2.23-1.96,1.6,1.43,7.77,2.89,17.48,1.02,6.79.2,9.36-.12,19.64-.35,10.99.31,16.9.83,27.28.83,16.72.65,32.36.61,62.19-.11,74.15.87,72.08.25,117.83-.38,28.58-1.06,51.78-1.4,63.27-1.05,35.31-1.69,41.97-2.42,65.44-1.63,52.33.43,55.58-.69,109.09-.32,15.38-.33,7.49-3.58,90.53-2.79,71.36-2.9,80.33-2.6,93.81.77,33.77,2.84,36.53,3.52,76.4.73,43.43-1.78,36.97-.43,67.64,1.05,23.92,3.66,52.24-.47,74.18-.29,1.55-4.14,21.79-4.14,21.79Z"/>
    <path d="M175.95,1045.26c-3.58,0-7.01-.74-8.27-1.04l-1.56.93.42-2.19c.04-.2,3.85-20.24,4.14-21.78,3.4-18.08,2.17-41.08,1.09-61.37-.23-4.29-.45-8.5-.63-12.58-.68-15.39-.39-21.45-.02-29.13.36-7.51.81-16.86.44-38.53-.36-21.3-1.13-32.08-1.87-42.5-.66-9.34-1.29-18.16-1.65-33.89-.3-13.15-.26-20.79,2.6-93.87,1.64-41.91,2.46-60.79,2.9-70.93.44-10.15.52-11.97.68-19.58.53-25.11.35-38.97.19-52.38-.18-14.88-.36-28.94.51-56.72.32-10.22.62-17.32.94-24.84.41-9.68.88-20.66,1.47-40.6.3-10.2,1.01-34.09,1.4-63.25.32-24.04.2-35.13.04-50.49-.15-14.32-.34-32.14-.29-67.32l.02-11.98c.05-22.36.08-35.86-.63-50.16-.12-2.48-.25-4.7-.38-6.8-.4-6.79-.72-12.16-.45-20.57.1-3.26.26-5.8.38-7.84.28-4.56.43-7.07-.25-11.62-.6-3.97-1.52-7.35-2.27-10.06-1.2-4.36-1.92-6.99-.26-8.34,1.97-1.61,5.54.55,7.32,2.29,1.81,1.76,3.08,4.39,4.22,12.61.93,6.7.95,9.83.95,9.96.07,41.35.64,83.41,1.2,124.08,1.11,80.94,2.26,164.64-.55,246.89-4.26,124.69-5.41,263.18-4.07,325.03.02.71,1.54,71.48,1.2,126.59-.07,10.75-.3,16.62-.45,20.5-.2,5.04-.27,6.92.24,12.12.33,3.33.74,6.41,1.11,9.12,1.2,8.88,1.98,14.74-1.61,17.91-2.04,1.79-5.2,2.33-8.26,2.33ZM168.68,1042.4c2.71.59,10.79,2.05,14.21-.97,2.79-2.46,2.06-7.9.95-16.14-.37-2.73-.78-5.83-1.12-9.19-.52-5.34-.44-7.4-.25-12.4.15-3.87.38-9.72.45-20.44.34-55.09-1.18-125.83-1.2-126.54-1.35-61.88-.2-200.42,4.07-325.14,2.81-82.21,1.66-165.88.55-246.8-.56-40.68-1.13-82.74-1.2-124.11,0-.03-.02-3.15-.93-9.69-1.18-8.45-2.44-10.29-3.63-11.45-1.76-1.72-4.07-2.65-4.66-2.17-.64.52.16,3.44.93,6.26.76,2.77,1.7,6.21,2.32,10.3.71,4.75.55,7.49.27,12.04-.13,2.13-.28,4.55-.38,7.78-.26,8.32.05,13.64.45,20.39.12,2.1.26,4.33.38,6.81.71,14.35.68,27.87.63,50.27l-.02,11.97c-.05,35.17.14,52.98.29,67.3.16,15.37.28,26.48-.04,50.54-.39,29.17-1.1,53.08-1.4,63.28-.59,19.95-1.06,30.94-1.48,40.62-.32,7.52-.62,14.61-.94,24.82-.86,27.74-.69,41.77-.5,56.63.17,13.43.34,27.31-.19,52.45-.16,7.63-.24,9.46-.68,19.62-.44,10.14-1.26,29.01-2.9,70.92-2.85,73.01-2.89,80.64-2.6,93.74.36,15.68.98,24.47,1.65,33.79.74,10.45,1.51,21.25,1.87,42.61.37,21.74-.08,31.12-.45,38.66-.37,7.63-.66,13.66.02,28.95.18,4.08.4,8.28.63,12.56,1.09,20.41,2.33,43.54-1.12,61.85-1.03,5.49-3.22,17.09-3.97,20.85Z"/>
  </g>
  <g>
    <path class="cls-2" d="M119.97,144.49c-15.1,6.22,118.28,846.63,117.25,852.68-.01.06-.14.67.15,1.1,1.16,1.72,8.34.01,10.69-4.35,1.62-3,.35-6.16-1-11.95-1.48-6.36-1.55-13.01-2.63-19.46-8.35-49.86-14.55-100.11-22.56-150.03-4.87-30.37-12.25-83.99-26.99-191.22-12.85-93.4-10.52-79.78-20.93-154.58-14.14-101.7-21.21-152.54-27.27-194.48-6.08-42.12-8.88-59.63-10.51-77.83-.45-5.06-1.15-13.91-3.17-25.98-1.99-11.9-5.25-26.86-5.25-26.87,0,0-7.54,2.86-7.79,2.96Z"/>
    <path d="M239.29,999.94c-1.31,0-2.26-.38-2.75-1.1-.33-.49-.44-1.14-.31-1.83.08-2.49-8.89-61.47-21.3-143.1-17.98-118.29-45.16-297.04-65.95-443.57-37.39-263.47-31.78-265.78-29.38-266.76h0c.26-.11,7.05-2.68,7.82-2.97l1.09-.41.25,1.14c.34,1.58,3.37,15.58,5.26,26.91,1.86,11.14,2.62,19.68,3.07,24.78l.11,1.28c1.32,14.68,3.33,28.5,7.34,56.03.94,6.46,1.99,13.65,3.16,21.75,6.06,41.97,13.15,92.94,27.27,194.49,5.23,37.6,7.25,52.89,9.58,70.6,2.32,17.59,4.95,37.53,11.34,83.98,14.73,107.09,22.12,160.84,26.99,191.2,3.67,22.85,7.01,46.15,10.24,68.68,3.83,26.7,7.79,54.32,12.32,81.35.46,2.73.74,5.52,1.01,8.22.37,3.71.76,7.54,1.6,11.18.23.98.45,1.88.66,2.72,1.07,4.27,1.77,7.09.24,9.93-1.76,3.26-6.11,5.37-9.3,5.52-.12,0-.24,0-.36,0ZM120.45,145.38c-1.16,1.63-1.86,14.5,6.02,81.16,5.21,44.09,13.62,106.99,24.98,186.95,20.72,145.82,47.65,322.92,65.46,440.1,14.97,98.48,21.58,142.09,21.3,143.74-.04.24-.01.36,0,.38.06.06.52.31,1.7.18,2.51-.26,5.91-1.91,7.28-4.45,1.16-2.15.57-4.54-.42-8.49-.21-.85-.44-1.76-.67-2.75-.87-3.76-1.27-7.66-1.65-11.43-.27-2.67-.55-5.43-.99-8.09-4.53-27.06-8.49-54.68-12.32-81.4-3.23-22.52-6.57-45.81-10.23-68.64-4.87-30.38-12.27-84.14-27-191.24-6.39-46.46-9.02-66.4-11.34-83.99-2.34-17.7-4.35-32.99-9.58-70.58-14.12-101.54-21.21-152.51-27.27-194.48-1.17-8.1-2.22-15.29-3.16-21.74-4.02-27.57-6.04-41.41-7.36-56.14l-.11-1.28c-.45-5.07-1.2-13.56-3.05-24.62-1.65-9.89-4.18-21.84-5-25.68-2.68,1.02-5.95,2.26-6.58,2.5ZM120.35,145.42h0s0,0,0,0c0,0,0,0,0,0ZM120.49,145.33h0,0Z"/>
  </g>
  <g>
    <path class="cls-1" d="M295.33,1006.51c-16.8-7.34-20.05-39.12-27.82-72.86-8.07-35.01-8.81-19.19-38.45-114.3-7.48-24-12.86-42.44-16.07-53.48-41.33-142.28-79.43-286.11-79.43-286.11-7.44-28.1-22.37-85.56-52.21-200.5-13.52-52.06-37.32-143.85-37.32-143.85,0,0,6.4-11.01,10.68-10.42,3.52.49,5.03,8.73,6.9,17.09,2.69,12.01,7.49,23.4,9.98,35.46,8.27,40.13,19.36,79.52,28.37,119.46,9.07,40.22,18.76,76.96,38.13,150.43,4.29,16.26,13.03,49.21,24.57,91.06,5.25,19.05,5.03,17.97,25.53,90.74,23.14,82.16,34.72,123.25,35.79,127.25,2.68,9.94,6.35,23.72,12.03,42.76,5.68,19.07,7.85,24.88,18.05,56.73,9.59,29.96,18.16,57.57,19.52,61.94,14.85,47.88,14.06,47.24,17.46,54.64,7.52,16.36,16.47,30.56,12.85,34.5-2.07,2.25-7.19.02-8.54-.57Z"/>
    <path d="M301.18,1009.06c-1.66,0-3.75-.54-6.24-1.63h0c-14.23-6.22-19-29.09-24.52-55.58-1.22-5.84-2.47-11.88-3.88-17.97-3.67-15.91-5.74-21.09-9.87-31.41-4.95-12.38-12.44-31.09-28.56-82.82-7.93-25.44-13.64-45.1-16.07-53.5-40.86-140.67-79.06-284.69-79.44-286.13-7.45-28.11-22.41-85.72-52.21-200.5-12.79-49.26-34.79-134.08-37.12-143.08l-.52-2.02h.72c1.92-3.15,7.15-11.02,11.39-10.42,3.91.54,5.47,7.6,7.28,15.78l.46,2.08c1.27,5.68,3.06,11.34,4.79,16.81,1.91,6.05,3.88,12.3,5.19,18.67,4.75,23.07,10.54,46.28,16.13,68.72,4.13,16.59,8.41,33.74,12.24,50.72,9.07,40.2,18.78,77.03,38.12,150.4,7.82,29.67,16.09,60.3,24.57,91.05,3.23,11.72,4.45,16.03,9.58,34.19,3.24,11.49,8.06,28.55,15.95,56.55,23.11,82.04,34.71,123.22,35.8,127.26l.45,1.67c2.62,9.74,6.21,23.08,11.57,41.07,3.67,12.32,5.83,18.95,9.74,30.97,2.11,6.48,4.71,14.49,8.31,25.73,8.71,27.2,16.55,52.39,19.52,61.95,5.05,16.27,8.33,27.07,10.5,34.22,4.26,14.01,4.7,15.47,6.92,20.3,1.88,4.09,3.82,7.99,5.7,11.76,5.9,11.83,10.16,20.38,6.97,23.84-.8.87-1.95,1.3-3.43,1.3ZM295.73,1005.6h0c5.05,2.21,6.8,1.45,7.39.81,2.25-2.45-2.38-11.75-7.29-21.6-1.88-3.78-3.83-7.69-5.73-11.81-2.28-4.95-2.72-6.42-7.02-20.55-2.17-7.15-5.45-17.95-10.49-34.21-2.97-9.56-10.81-34.74-19.51-61.93-3.6-11.24-6.2-19.24-8.31-25.72-3.91-12.04-6.07-18.68-9.75-31.02-5.37-18.01-8.96-31.36-11.59-41.12l-.45-1.67c-1.08-4.03-12.68-45.2-35.79-127.24-7.89-28-12.71-45.06-15.95-56.55-5.13-18.16-6.35-22.48-9.58-34.2-8.48-30.76-16.75-61.4-24.57-91.07-19.35-73.39-29.06-110.23-38.14-150.47-3.82-16.96-8.1-34.1-12.23-50.68-5.6-22.47-11.39-45.7-16.15-68.8-1.29-6.26-3.25-12.47-5.14-18.47-1.74-5.51-3.54-11.21-4.83-16.98l-.46-2.09c-1.44-6.51-3.06-13.88-5.6-14.23-2.24-.3-6.41,4.53-9.47,9.58l.1.37c2.33,9,24.33,93.82,37.12,143.08,29.8,114.78,44.76,172.39,52.21,200.49.38,1.44,38.57,145.45,79.43,286.09,2.44,8.39,8.14,28.04,16.06,53.46,16.1,51.65,23.57,70.32,28.51,82.67,4.04,10.09,6.26,15.65,9.96,31.7,1.41,6.12,2.67,12.17,3.89,18.01,5.41,25.94,10.08,48.35,23.36,54.15h0Z"/>
  </g>
  <g>
    <path class="cls-3" d="M234.73,1051.67h0s11.77.53,15.52-4.43c3.46-4.57-.81-12.59-4.62-25.69-2.63-9.04-1.48-8.23-5.78-32.12-9.84-54.7-24.3-123.77-24.3-123.77-12.37-59.13-36.38-193.52-55.41-319.45-18.44-122-45.62-242.24-68.41-363.37,0,0-.57-3.05-2.71-9.43-2.65-7.88-4.28-9.81-6.05-10.94-1.92-1.22-5.17-2.24-6.28-.88-1.63,1.99,2.82,7.3,6.03,16.5,2.24,6.44,1.91,9.13,3.47,19.27,1.67,10.84,3.39,16.49,5.8,26.55,3.87,16.21,6.55,31.57,11.96,60.81,13.44,72.69,14.02,70.45,21.78,115.41,4.85,28.09,8.42,50.98,10.18,62.3,5.42,34.83,6.01,41.5,9.59,64.65,7.97,51.64,10.57,54.38,19.25,107.06,2.49,15.14,1.04,7.41,13.03,89.49,10.3,70.53,11.83,79.35,14.59,92.49,6.92,32.92,9.46,35.18,17.41,74.1,8.65,42.4,5.01,36.61,11.94,66.38,5.4,23.21,13.13,50.4,13.09,72.8,0,1.58-.08,22.25-.08,22.25Z"/>
    <path d="M235.79,1052.69c-.53,0-.91-.01-1.09-.02l-.96-.04v-1.11c0-1.81.07-20.61.07-22.11.03-18.45-5.37-40.72-10.14-60.37-1.01-4.15-2-8.23-2.92-12.2-3.48-14.93-4.3-20.94-5.34-28.55-1.02-7.44-2.29-16.7-6.6-37.86-4.25-20.8-6.97-31.19-9.6-41.25-2.36-9.01-4.58-17.52-7.81-32.85-2.7-12.82-4.05-20.32-14.6-92.55-6.05-41.43-8.7-60.11-10.12-70.14-1.42-10.04-1.68-11.84-2.91-19.33-4.07-24.72-6.77-38.27-9.39-51.38-2.9-14.54-5.64-28.28-9.87-55.69-1.56-10.09-2.56-17.12-3.62-24.56-1.36-9.58-2.91-20.43-5.97-40.09-1.57-10.07-5.24-33.65-10.18-62.29-4.08-23.63-6.22-34.48-9.19-49.5-2.77-14-6.21-31.42-12.59-65.91l-2.16-11.71c-4.04-21.94-6.48-35.18-9.79-49.05-.57-2.4-1.11-4.55-1.61-6.58-1.63-6.57-2.92-11.76-4.2-20.05-.5-3.22-.81-5.74-1.06-7.77-.56-4.53-.87-7.02-2.37-11.33-1.31-3.76-2.84-6.87-4.06-9.37-1.97-4.01-3.16-6.43-1.8-8.1,1.63-1.99,5.52-.65,7.59.67,2.1,1.34,3.83,3.64,6.46,11.46,2.14,6.36,2.73,9.43,2.75,9.56,7.62,40.51,15.87,81.6,23.85,121.33,15.88,79.08,32.29,160.85,44.57,242.07,18.6,123.09,42.78,259.06,55.4,319.4.14.69,14.57,69.71,24.3,123.8,1.9,10.55,2.75,16.35,3.3,20.19.73,4.98,1,6.84,2.45,11.82.93,3.19,1.9,6.12,2.75,8.7,2.79,8.44,4.64,14.01,1.71,17.88-3.35,4.42-12.05,4.84-15.26,4.84ZM235.73,1050.69s.08,0,.13,0c4.16,0,11.14-.82,13.59-4.05,2.29-3.03.58-8.21-2.01-16.04-.86-2.6-1.83-5.54-2.77-8.77-1.49-5.12-1.79-7.16-2.51-12.09-.56-3.83-1.4-9.61-3.29-20.13-9.73-54.06-24.15-123.05-24.29-123.74-12.63-60.36-36.81-196.38-55.42-319.51-12.27-81.17-28.68-162.92-44.55-241.98-7.98-39.74-16.23-80.84-23.85-121.36,0-.03-.59-3.08-2.68-9.29-2.69-8.01-4.26-9.53-5.64-10.41-1.87-1.19-4.42-1.75-4.97-1.09-.55.67.71,3.23,2.04,5.95,1.25,2.55,2.81,5.72,4.15,9.59,1.57,4.5,1.9,7.23,2.46,11.74.26,2.12.56,4.52,1.05,7.71,1.26,8.21,2.54,13.35,4.16,19.87.51,2.04,1.04,4.19,1.62,6.6,3.32,13.92,5.76,27.18,9.81,49.15l2.16,11.71c6.38,34.47,9.82,51.89,12.58,65.88,2.97,15.03,5.12,25.89,9.2,49.54,4.94,28.66,8.62,52.25,10.19,62.32,3.06,19.67,4.61,30.54,5.97,40.12,1.06,7.44,2.06,14.46,3.61,24.54,4.22,27.37,6.96,41.09,9.85,55.61,2.62,13.12,5.32,26.69,9.4,51.44,1.24,7.51,1.49,9.32,2.92,19.37,1.42,10.03,4.07,28.7,10.12,70.13,10.54,72.18,11.9,79.66,14.58,92.43,3.21,15.28,5.44,23.77,7.79,32.76,2.64,10.08,5.36,20.5,9.62,41.35,4.33,21.23,5.6,30.52,6.63,37.99,1.03,7.56,1.85,13.53,5.31,28.37.92,3.96,1.91,8.03,2.92,12.18,4.8,19.76,10.23,42.16,10.2,60.85,0,1.37-.06,17.14-.07,21.27Z"/>
  </g>
  <g>
    <path class="cls-1" d="M193.67,1035.58c-13.3-13.38-5.95-44.33-2.2-78.88,3.9-35.85-1.97-21.35,1.41-121.73.85-25.33,1.84-44.65,2.45-56.21,7.86-149,19.24-298.19,19.24-298.19,2.22-29.14,7.05-88.64,16.71-207.62,4.37-53.89,12.12-148.91,12.12-148.91,0,0,9.58-7.81,13.38-5.59,3.13,1.82,1.84,10.11.87,18.65-1.41,12.27-.65,24.77-2.26,37.01-5.38,40.71-7.89,81.82-12.52,122.64-4.66,41.11-7.61,79.19-13.52,155.37-1.31,16.86-3.9,51.04-6.79,94.63-1.31,19.84-1.17,18.75-5.79,94.7-5.21,85.76-7.82,128.64-8.12,132.8-.75,10.32-1.81,24.63-2.73,44.63-.92,20.02-.79,26.3-1.66,60.02-.82,31.72-1.84,60.85-2,65.46-1.77,50.5-2.29,49.6-1.53,57.84,1.69,18.21,5.41,34.95.73,37.23-2.67,1.3-6.73-2.78-7.79-3.85Z"/>
    <path d="M200.32,1040.68c-1.99,0-4.46-1.47-7.36-4.39h0c-11.24-11.3-8.22-34.52-4.73-61.39.77-5.93,1.57-12.06,2.25-18.31,1.77-16.29,1.53-21.93,1.04-33.19-.58-13.49-1.47-33.88.37-88.47.9-26.77,1.99-47.41,2.45-56.23,7.75-146.84,18.78-292.1,19.24-298.21,2.23-29.25,7.07-88.86,16.71-207.63,3.62-44.56,9.54-117.21,11.48-141.06.4-4.95.63-7.79.64-7.85l.1-1.31.71.26c2.83-2.21,10.31-7.51,14.07-5.32,3.43,2,2.58,9.18,1.6,17.5l-.25,2.13c-.67,5.81-.85,11.79-1.02,17.57-.19,6.39-.39,13-1.25,19.46-3.09,23.4-5.27,47.33-7.38,70.48-1.56,17.11-3.17,34.79-5.14,52.14-4.66,41.09-7.62,79.27-13.51,155.33-2.39,30.85-4.67,62.68-6.79,94.63-.81,12.22-1.05,16.27-2.23,35.75-.72,11.99-1.79,29.8-3.57,58.95-5.21,85.65-7.82,128.65-8.12,132.81l-.12,1.71c-.73,10.12-1.74,23.99-2.6,42.89-.59,12.94-.74,19.96-1.02,32.72-.15,6.88-.33,15.36-.64,27.28-.78,29.96-1.73,57.68-2,65.47-.6,17.15-1.06,28.52-1.37,36.04-.6,14.75-.66,16.3-.17,21.67.42,4.55.96,8.95,1.49,13.19,1.65,13.36,2.84,23.01-1.31,25.03-.48.24-1.01.35-1.57.35ZM194.38,1034.87c4.16,4.19,6.03,3.95,6.64,3.65,2.86-1.39,1.57-11.88.2-22.98-.53-4.26-1.07-8.67-1.49-13.25-.51-5.51-.45-7.06.16-21.93.31-7.52.77-18.89,1.37-36.03.27-7.78,1.22-35.5,2-65.45.31-11.91.49-20.39.64-27.27.28-12.77.43-19.81,1.02-32.77.87-18.93,1.87-32.81,2.61-42.94l.12-1.71c.3-4.16,2.91-47.14,8.12-132.79,1.77-29.15,2.84-46.96,3.57-58.95,1.17-19.48,1.42-23.53,2.23-35.76,2.12-31.95,4.4-63.79,6.79-94.64,5.9-76.09,8.86-114.29,13.52-155.41,1.96-17.33,3.57-35.01,5.13-52.1,2.11-23.17,4.29-47.12,7.39-70.56.84-6.35,1.04-12.91,1.23-19.26.18-5.82.36-11.85,1.03-17.74l.25-2.14c.78-6.65,1.67-14.2-.62-15.54-2.07-1.21-7.56,1.83-11.92,5.24-.06.75-.21,2.64-.6,7.42-1.94,23.85-7.86,96.5-11.48,141.06-9.64,118.76-14.48,178.38-16.71,207.62-.47,6.12-11.5,151.35-19.24,298.17-.47,8.81-1.55,29.44-2.45,56.19-1.83,54.52-.95,74.86-.37,88.32.48,10.99.74,17.05-1.05,33.49-.68,6.26-1.48,12.41-2.25,18.35-3.43,26.35-6.38,49.12,4.16,59.72l-.71.71.71-.7Z"/>
  </g>
  <g>
    <path class="cls-1" d="M229.26,1056.32c-16.51-12.26-13.75-48.09-15.45-87.21-1.76-40.59-5.66-23.34-18.69-135.53-3.29-28.31-5.43-49.97-6.69-62.93-16.29-167.09-28.82-335.07-28.82-335.07-2.45-32.81-7.14-99.86-16.51-233.95-4.25-60.74-11.7-167.82-11.7-167.83,0,0,8.99-10.55,13.45-8.83,3.66,1.41,3.66,10.87,4.02,20.55.53,13.91,3.42,27.65,3.71,41.56.98,46.29,5.11,92.45,6.91,138.72,1.82,46.58,4.97,89.48,11.27,175.28,1.39,18.99,4.28,57.48,8.41,106.47,1.88,22.3,1.85,21.06,9.5,106.36,8.63,96.31,12.95,144.46,13.32,149.14.91,11.62,2.14,27.73,4.48,50.12,2.34,22.42,3.52,29.37,8.17,67.01,4.38,35.4,8.13,67.96,8.72,73.12,6.48,56.46,5.77,55.56,7.95,64.56,4.83,19.9,11.61,37.77,6.97,41.22-2.65,1.97-7.68-1.77-9-2.75Z"/>
    <path d="M236.42,1060.63c-2.02,0-4.61-1.17-7.76-3.51h0c-13.91-10.33-14.52-36.68-15.23-67.2-.16-6.74-.32-13.71-.62-20.78-.8-18.46-2-24.68-4.4-37.1-2.87-14.87-7.2-37.35-14.29-98.36-3.06-26.31-5.1-46.59-6.7-62.95-16.1-165.19-28.7-333.42-28.82-335.1-2.45-32.81-7.15-100.02-16.51-233.91-3.7-52.97-9.84-141.08-11.36-162.88l-.44-6.28.71.13c2.64-2.97,9.81-10.36,14.18-8.68,3.97,1.53,4.25,9.64,4.58,19.04l.09,2.41c.25,6.59,1.05,13.27,1.82,19.74.85,7.14,1.74,14.52,1.89,21.85.56,26.61,2.19,53.63,3.77,79.76,1.17,19.31,2.37,39.28,3.14,58.94,1.81,46.55,4.97,89.53,11.26,175.16,2.55,34.7,5.38,70.52,8.42,106.54,1.16,13.75,1.57,18.31,3.55,40.21,1.21,13.47,3.02,33.45,5.95,66.14,8.35,93.12,12.95,144.42,13.32,149.15l.16,1.99c.89,11.38,2.11,26.98,4.32,48.11,1.51,14.49,2.51,22.33,4.33,36.56.98,7.67,2.19,17.13,3.84,30.43,4.33,34.99,8.02,67.05,8.72,73.13,2.2,19.17,3.59,31.89,4.51,40.31,1.81,16.52,1.99,18.25,3.42,24.13,1.21,4.98,2.52,9.76,3.79,14.38,3.97,14.45,6.83,24.89,2.8,27.88-.68.51-1.5.76-2.43.76ZM229.85,1055.51h0c5.01,3.72,7.04,3.32,7.81,2.75,2.93-2.17-.21-13.62-3.54-25.75-1.27-4.63-2.59-9.43-3.8-14.43-1.46-6.01-1.65-7.75-3.47-24.39-.92-8.42-2.31-21.13-4.51-40.3-.7-6.07-4.39-38.13-8.72-73.11-1.64-13.29-2.85-22.75-3.84-30.42-1.82-14.24-2.83-22.09-4.34-36.61-2.21-21.16-3.43-36.76-4.32-48.16l-.16-1.99c-.37-4.72-4.97-56.01-13.32-149.13-2.93-32.69-4.73-52.67-5.95-66.14-1.98-21.91-2.39-26.47-3.55-40.22-3.04-36.03-5.87-71.85-8.41-106.48-6.3-85.73-9.46-128.72-11.27-175.31-.77-19.64-1.97-39.6-3.14-58.9-1.58-26.15-3.21-53.19-3.78-79.84-.15-7.23-1.03-14.56-1.88-21.65-.78-6.5-1.58-13.23-1.83-19.9l-.09-2.42c-.26-7.59-.56-16.18-3.3-17.24-2.47-.95-7.92,3.56-12.06,8.24.04.55.12,1.79.32,4.58,1.52,21.8,7.65,109.91,11.35,162.83,9.36,133.94,14.06,201.14,16.51,233.95.13,1.68,12.72,169.89,28.82,335.05,1.59,16.35,3.64,36.62,6.69,62.91,7.08,60.94,11.4,83.37,14.27,98.21,2.34,12.11,3.62,18.79,4.43,37.39.31,7.09.47,14.07.63,20.82.69,29.99,1.29,55.89,14.42,65.63h0Z"/>
  </g>
  <g>
    <path class="cls-1" d="M129.88,1042.12c-12.7-15.13-3.95-48.8,1.36-86.54,5.51-39.15-1-23.48,6.9-133.38,1.99-27.73,3.86-48.87,4.99-61.52,14.58-163.04,32.68-326.16,32.68-326.16,3.54-31.86,11.05-96.9,26.07-226.98,6.8-58.92,18.83-162.78,18.83-162.79,0,0,9.93-8.22,13.63-5.65,3.04,2.11,1.39,11.14.02,20.47-1.96,13.4-1.76,27.13-3.93,40.49-7.22,44.43-11.58,89.4-18.05,133.98-6.51,44.89-11.18,86.53-20.52,169.82-2.07,18.43-6.2,55.81-11.06,103.48-2.21,21.7-2.02,20.51-10.06,103.6-9.08,93.82-13.62,140.73-14.11,145.28-1.21,11.29-2.93,26.94-4.74,48.82-1.82,21.91-1.97,28.8-4.37,65.72-2.25,34.74-4.58,66.63-4.95,71.68-4.04,55.29-4.53,54.29-4.14,63.34.87,20.02,3.83,38.5-.95,40.83-2.73,1.33-6.6-3.28-7.62-4.49Z"/>
    <path d="M136.44,1047.85c-2.03,0-4.49-1.7-7.33-5.09h0c-10.69-12.74-6.64-38.04-1.94-67.34,1.04-6.47,2.11-13.17,3.07-19.99,2.51-17.8,2.52-24.01,2.54-36.37.02-14.8.06-37.18,4.35-96.94,2.11-29.33,4.13-51.9,4.99-61.54,14.41-161.18,32.51-324.55,32.69-326.18,3.52-31.76,11.01-96.56,25.92-225.66l.15-1.33c6.48-56.13,17.7-153.07,18.75-162.11l.23-1.95.67.25c2.93-2.32,10.69-7.9,14.38-5.34,3.3,2.29,2.14,10.08.79,19.11l-.35,2.33c-.93,6.35-1.38,12.9-1.81,19.24-.48,7-.98,14.23-2.12,21.27-4.15,25.54-7.41,51.71-10.56,77.01-2.33,18.69-4.74,38.02-7.48,56.96-6.51,44.88-11.19,86.63-20.52,169.79-3.77,33.62-7.49,68.43-11.06,103.47-1.36,13.38-1.79,17.81-3.84,39.15-1.26,13.12-3.14,32.59-6.22,64.45-9.07,93.68-13.62,140.71-14.11,145.29l-.21,1.93c-1.19,11.06-2.82,26.22-4.53,46.86-1.18,14.16-1.64,21.86-2.5,35.83-.46,7.53-1.03,16.83-1.87,29.88-2.14,33.05-4.33,63.22-4.95,71.69-1.37,18.78-2.35,31.23-2.99,39.46-1.27,16.15-1.4,17.84-1.14,23.76.22,5.01.56,9.84.89,14.52,1.04,14.64,1.79,25.21-2.4,27.25-.47.23-.97.34-1.49.34ZM130.65,1041.48c3.96,4.71,5.8,4.53,6.41,4.23,2.97-1.45,2.15-13.04,1.28-25.31-.33-4.69-.68-9.54-.89-14.58-.26-6.04-.13-7.74,1.15-24,.65-8.23,1.62-20.67,2.99-39.46.62-8.46,2.81-38.63,4.95-71.67.85-13.04,1.41-22.34,1.87-29.87.85-13.98,1.32-21.69,2.5-35.87,1.72-20.67,3.35-35.84,4.54-46.91l.21-1.93c.49-4.57,5.04-51.59,14.11-145.27,3.08-31.86,4.96-51.33,6.22-64.45,2.05-21.34,2.48-25.78,3.84-39.16,3.57-35.05,7.29-69.87,11.06-103.49,9.33-83.19,14.01-124.94,20.52-169.86,2.75-18.92,5.15-38.24,7.48-56.92,3.15-25.32,6.41-51.5,10.57-77.08,1.13-6.94,1.62-14.13,2.1-21.08.44-6.37.89-12.96,1.83-19.39l.35-2.33c1.09-7.31,2.33-15.6.05-17.17-1.91-1.32-7.48,1.66-12.12,5.35l-.03.27c-1.05,9.04-12.27,105.98-18.75,162.11l-.15,1.33c-14.91,129.1-22.39,193.9-25.92,225.65-.18,1.63-18.27,164.98-32.68,326.14-.86,9.63-2.88,32.19-4.99,61.51-4.29,59.7-4.33,82.03-4.35,96.8-.02,12.06-.03,18.7-2.56,36.64-.96,6.84-2.04,13.54-3.08,20.03-4.62,28.81-8.61,53.69,1.49,65.73l-.77.64.77-.64Z"/>
  </g>
  <g>
    <path class="cls-1" d="M104.11,994.34c-11.7-16.06-.84-48.99,6.87-86.23,7.99-38.64.49-23.5,15.37-132.54,3.75-27.52,6.96-48.46,8.89-61,24.92-161.54,53.37-322.9,53.37-322.9,5.56-31.52,17.19-95.83,40.46-224.46,10.54-58.26,29.15-160.97,29.15-160.98,0,0,10.43-7.45,13.96-4.61,2.9,2.33.68,11.22-1.28,20.43-2.81,13.22-3.49,26.93-6.5,40.09-10.03,43.78-17.24,88.31-26.53,132.3-9.36,44.29-16.67,85.48-31.28,167.86-3.23,18.23-9.74,55.21-17.62,102.4-3.59,21.48-3.32,20.3-16.63,102.59-15.03,92.91-22.55,139.36-23.33,143.86-1.93,11.17-4.63,26.65-7.84,48.35-3.21,21.72-3.8,28.58-8.54,65.23-4.46,34.48-8.81,66.12-9.5,71.13-7.55,54.85-7.98,53.81-8.16,62.88-.41,20.03,1.37,38.7-3.54,40.66-2.81,1.12-6.38-3.77-7.31-5.06Z"/>
    <path d="M110.53,1000.57c-3.12,0-6.15-4.15-7.23-5.64h0c-9.85-13.52-4.19-38.45,2.36-67.31,1.45-6.38,2.95-12.98,4.34-19.71,3.63-17.57,4.04-23.76,4.85-36.09.97-14.77,2.43-37.08,10.52-96.38,3.49-25.58,6.45-45.2,8.89-61.02,24.64-159.71,53.09-321.31,53.38-322.92,5.56-31.53,17.22-96.01,40.46-224.47,8.88-49.07,23.48-129.65,27.86-153.88.81-4.49,1.28-7.05,1.29-7.1l.22-1.22.65.27c3.06-2.08,11.18-7.09,14.71-4.25,3.14,2.52,1.48,10.21-.44,19.12l-.49,2.29c-1.33,6.26-2.2,12.77-3.04,19.05-.92,6.94-1.88,14.12-3.47,21.05-5.76,25.17-10.68,51.02-15.43,76.01-3.51,18.47-7.15,37.57-11.09,56.27-9.35,44.27-16.68,85.56-31.27,167.82-5.9,33.23-11.82,67.68-17.62,102.4-2.21,13.23-2.91,17.61-6.31,38.7-2.09,12.99-5.21,32.28-10.32,63.88l-.07.45c-14.97,92.49-22.48,138.92-23.25,143.42l-.33,1.89c-1.89,10.95-4.48,25.95-7.51,46.43-2.07,14.04-3.03,21.68-4.77,35.55-.94,7.48-2.1,16.72-3.77,29.67-4.19,32.42-8.33,62.65-9.5,71.14-2.57,18.63-4.33,30.97-5.5,39.13-2.29,16.03-2.53,17.7-2.65,23.62-.1,5.01-.07,9.86-.04,14.55.11,15.23.18,25.29-4.14,27.01-.42.17-.84.24-1.26.24ZM104.92,993.75c3.65,5.01,5.5,4.96,6.13,4.72,3.05-1.22,2.97-12.84,2.88-25.14-.03-4.7-.07-9.57.04-14.61.12-6.05.37-7.73,2.67-23.87,1.17-8.16,2.93-20.5,5.5-39.13,1.17-8.49,5.31-38.71,9.5-71.12,1.68-12.95,2.83-22.18,3.77-29.66,1.74-13.88,2.7-21.53,4.78-35.59,3.03-20.51,5.62-35.52,7.52-46.47l.33-1.89c.77-4.49,8.29-50.91,23.25-143.39l.07-.45c5.11-31.6,8.22-50.89,10.32-63.88,3.4-21.09,4.11-25.48,6.32-38.71,5.8-34.73,11.73-69.19,17.62-102.41,14.6-82.29,21.93-123.59,31.29-167.89,3.95-18.67,7.58-37.76,11.09-56.23,4.76-25.02,9.68-50.88,15.45-76.09,1.57-6.84,2.52-13.97,3.44-20.87.84-6.33,1.71-12.87,3.06-19.21l.49-2.3c1.55-7.21,3.32-15.39,1.14-17.14-1.82-1.46-7.57,1.09-12.42,4.41-.12.68-.43,2.39-1.21,6.69-4.39,24.22-18.99,104.81-27.86,153.88-23.24,128.45-34.9,192.93-40.46,224.46-.28,1.61-28.73,163.2-53.37,322.88-2.44,15.81-5.4,35.42-8.89,60.98-8.08,59.23-9.54,81.5-10.5,96.24-.79,12.03-1.22,18.65-4.88,36.36-1.4,6.75-2.9,13.36-4.35,19.75-6.44,28.39-12.01,52.91-2.69,65.69l-.81.59.81-.59Z"/>
  </g>
  <g>
    <path class="cls-2" d="M302.54,127.12c-18.03-.48-206.38,827.85-209.8,833-.04.05-.41.55-.27,1.08.53,2.06,8.62,3.43,12.75.39,2.85-2.1,2.75-5.52,3.61-11.41.94-6.46,3.45-12.61,4.84-18.99,10.73-49.32,23.82-98.12,34.92-147.36,6.75-29.96,19.94-82.34,46.32-187.1,22.98-91.24,20.09-77.75,38.37-150.87,24.86-99.41,37.29-149.12,47.31-190.21,10.07-41.27,13.97-58.53,19.35-75.96,1.49-4.84,4.21-13.28,6.81-25.21,2.56-11.78,5-26.88,5-26.89,0,0-8.91-.46-9.21-.47Z"/>
    <path d="M98.82,964.36c-1.8,0-3.49-.29-4.69-.72-1.51-.54-2.39-1.27-2.63-2.19-.16-.61-.01-1.28.41-1.89,1.05-2.32,14.66-60.25,33.51-140.42,27.33-116.26,68.62-291.96,104.01-435.37,63.63-257.86,70.27-257.73,73.14-257.65.31,0,8.33.42,9.24.47l1.12.06-.18,1.11c-.26,1.63-2.59,15.84-5.01,26.93-2.4,11.03-4.94,19.2-6.45,24.09l-.38,1.21c-4.33,14.04-7.61,27.57-14.15,54.53-1.54,6.34-3.25,13.41-5.19,21.36-10.04,41.18-22.5,90.99-47.31,190.21-9.19,36.74-13.04,51.64-17.49,68.9-4.43,17.15-9.45,36.58-20.88,81.98-26.35,104.64-39.57,157.13-46.32,187.07-5.08,22.53-10.67,45.34-16.07,67.4-6.41,26.16-13.03,53.21-18.85,79.96-.59,2.7-1.38,5.39-2.15,7.98-1.05,3.56-2.14,7.25-2.68,10.94-.15.99-.26,1.92-.37,2.78-.56,4.39-.93,7.29-3.63,9.29-1.95,1.44-4.58,1.96-6.99,1.96ZM302.58,128.13c-1.79.88-7.44,12.15-25.22,76.87-11.72,42.69-27.46,104.04-46.76,182.34-35.21,142.79-76.15,316.99-103.24,432.26-24.3,103.41-32.89,139.72-33.79,141.08-.12.17-.13.27-.13.29.04.08.45.54,1.79.93,2.74.8,6.96.69,9.39-1.11,2.02-1.49,2.33-3.91,2.84-7.93.11-.87.23-1.81.38-2.82.56-3.83,1.67-7.58,2.74-11.21.76-2.56,1.54-5.21,2.11-7.84,5.82-26.77,12.45-53.84,18.86-80.01,5.4-22.05,10.99-44.85,16.06-67.36,6.75-29.96,19.98-82.47,46.32-187.07,11.45-45.45,16.47-64.89,20.9-82.04,4.46-17.25,8.3-32.15,17.49-68.89,24.81-99.22,37.27-149.03,47.31-190.2,1.94-7.95,3.65-15.02,5.19-21.36,6.54-27,9.83-40.56,14.18-54.65l.38-1.21c1.51-4.85,4.03-12.97,6.41-23.92,2.12-9.75,4.18-21.92,4.81-25.73-3.28-.17-7.37-.38-8-.41ZM302.62,128.11h0Z"/>
  </g>
  <g>
    <path class="cls-1" d="M143.53,991.9c-14.36-13.82-4.98-44.3.51-78.49,5.7-35.47-1.39-21.3,6.15-120.93,1.9-25.14,3.74-44.3,4.85-55.77,14.37-147.77,32.69-295.6,32.69-295.6,3.58-28.88,11.21-87.81,26.46-205.68,6.91-53.39,19.13-147.51,19.13-147.52,0,0,10.99-7.38,15.16-5.02,3.42,1.93,1.68,10.12.27,18.57-2.03,12.14-1.65,24.6-3.92,36.69-7.54,40.25-11.88,81.01-18.59,121.39-6.75,40.67-11.48,78.41-20.93,153.88-2.09,16.7-6.28,50.58-11.14,93.78-2.21,19.66-2.02,18.58-10.03,93.89-9.05,85.03-13.57,127.54-14.06,131.67-1.22,10.23-2.95,24.41-4.73,44.25-1.78,19.86-1.87,26.1-4.11,59.58-2.11,31.49-4.34,60.4-4.69,64.98-3.87,50.12-4.43,49.21-3.88,57.42,1.2,18.16,4.73,34.95-.58,37.03-3.03,1.19-7.41-3.03-8.56-4.13Z"/>
    <path d="M150.94,997.24c-2.19,0-4.91-1.55-8.1-4.62h0c-12.14-11.7-7.9-34.67-2.98-61.27,1.08-5.86,2.2-11.92,3.2-18.1,2.59-16.11,2.53-21.73,2.4-32.92-.15-13.43-.37-33.73,3.73-87.92,1.77-23.37,3.45-41.32,4.85-55.79,14.21-146.09,32.51-294.14,32.69-295.62,3.56-28.71,11.12-87.16,26.2-203.62l.27-2.07c6.61-51.08,18.08-139.44,19.06-147l.24-1.82.72.3c3.18-2.04,11.71-7.05,15.75-4.77,3.75,2.12,2.53,9.25,1.12,17.5l-.36,2.11c-.96,5.74-1.39,11.67-1.8,17.41-.46,6.35-.93,12.92-2.12,19.3-4.33,23.13-7.66,46.83-10.89,69.75-2.38,16.94-4.85,34.46-7.7,51.63-6.75,40.64-11.48,78.45-20.92,153.78-3.82,30.5-7.57,62.05-11.15,93.83-1.36,12.11-1.79,16.13-3.83,35.44-1.26,11.89-3.12,29.54-6.2,58.44l-.1.91c-8.97,84.33-13.47,126.66-13.97,130.77l-.21,1.76c-1.2,10.02-2.84,23.75-4.51,42.46-1.15,12.83-1.58,19.8-2.37,32.46-.43,6.83-.95,15.26-1.74,27.1-2,29.86-4.1,57.29-4.69,64.99-1.31,17.02-2.26,28.3-2.88,35.76-1.23,14.63-1.35,16.16-1,21.52.3,4.54.74,8.93,1.16,13.17,1.34,13.37,2.31,23.02-2.38,24.86-.47.18-.98.28-1.51.28ZM144.23,991.18h0c4.4,4.24,6.59,4.28,7.5,3.92,3.27-1.28,2.22-11.73,1.12-22.79-.43-4.26-.87-8.66-1.17-13.24-.36-5.5-.23-7.04,1-21.81.62-7.46,1.57-18.74,2.88-35.75.59-7.69,2.69-35.12,4.69-64.97.79-11.83,1.32-20.26,1.74-27.09.79-12.68,1.22-19.66,2.37-32.52,1.68-18.74,3.32-32.48,4.52-42.52l.21-1.76c.49-4.1,4.99-46.42,13.96-130.75l.1-.91c3.07-28.9,4.94-46.55,6.2-58.44,2.04-19.32,2.47-23.34,3.83-35.46,3.58-31.79,7.33-63.35,11.14-93.79,9.45-75.42,14.18-113.25,20.94-153.92,2.85-17.14,5.31-34.65,7.69-51.58,3.23-22.94,6.56-46.66,10.9-69.84,1.17-6.27,1.64-12.78,2.09-19.08.42-5.78.84-11.76,1.82-17.6l.36-2.11c1.18-6.88,2.4-14-.13-15.42-2.35-1.33-8.69,1.49-13.73,4.74v.06c-.99,7.56-12.46,95.92-19.07,147l-.27,2.07c-15.07,116.45-22.64,174.9-26.19,203.61-.18,1.48-18.48,149.5-32.69,295.57-1.41,14.46-3.08,32.39-4.85,55.75-4.09,54.11-3.87,74.35-3.73,87.75.12,10.95.19,16.98-2.43,33.26-1,6.2-2.12,12.27-3.2,18.15-4.81,26.03-8.97,48.51,2.4,59.46h0Z"/>
  </g>
  <g>
    <path class="cls-3" d="M63.1,1007.63h0s11.9,5.46,17.75,2.51c5.39-2.72,4.21-11.88,5.52-25.48.91-9.39,1.77-8.17,6.9-31.85,11.75-54.25,24.5-123.62,24.5-123.62,10.92-59.38,39.97-192.6,70.75-315.97,29.83-119.52,49.94-241.12,74.94-361.68,0,0,.63-3.04.98-9.78.43-8.33-.48-10.79-1.85-12.57-1.48-1.93-4.42-4.24-6.11-3.46-2.48,1.14-.02,7.88-.4,17.66-.27,6.84-1.69,9.16-4.14,19.11-2.62,10.63-3.1,16.53-4.66,26.77-2.5,16.47-5.89,31.68-12.02,60.75-15.24,72.25-13.75,70.44-23.75,114.9-6.25,27.77-11.72,50.24-14.44,61.36-8.35,34.19-10.41,40.54-15.99,63.26-12.45,50.66-10.87,54.27-23.01,106.18-3.49,14.92-1.89,7.23-22.38,87.46-17.61,68.95-19.56,77.67-21.98,90.87-6.04,33.08-4.33,36.22-11.73,75.22-8.05,42.49-9.49,35.65-14.26,65.83-3.72,23.54-6.65,51.71-15.65,72.2-.63,1.44-8.98,20.34-8.98,20.34Z"/>
    <path d="M76.45,1012.01c-5.88,0-12.78-3.02-13.76-3.47l.4-.89-.91-.43c.05-.1,8.35-18.9,8.98-20.34,7.41-16.87,10.75-39.55,13.7-59.56.62-4.23,1.24-8.38,1.87-12.4,2.4-15.15,3.95-21,5.93-28.41,1.93-7.24,4.33-16.25,8.34-37.45,3.95-20.84,5.31-31.51,6.62-41.82,1.18-9.25,2.29-17.98,5.1-33.39,2.35-12.88,3.96-20.32,21.99-90.94,10.35-40.51,15.09-58.73,17.64-68.52,2.55-9.79,3.01-11.55,4.73-18.92,5.7-24.36,8.33-37.91,10.89-51.01,2.83-14.55,5.51-28.28,12.12-55.18,2.43-9.89,4.21-16.75,6.1-24.02,2.43-9.35,5.18-19.94,9.89-39.24,2.41-9.87,8.06-33,14.44-61.34,5.25-23.35,7.39-34.2,10.34-49.2,2.75-13.99,6.18-31.4,13.41-65.68.88-4.16,1.7-8.05,2.47-11.69,4.61-21.78,7.4-34.92,9.54-49,.37-2.44.68-4.63.97-6.7.95-6.71,1.7-12.01,3.7-20.15.78-3.16,1.47-5.6,2.02-7.56,1.24-4.38,1.92-6.79,2.09-11.35.16-3.99-.17-7.48-.43-10.28-.41-4.39-.68-7.28,1.41-8.24,2.38-1.09,5.75,1.73,7.32,3.76,1.62,2.11,2.48,4.95,2.05,13.23-.35,6.74-.97,9.8-1,9.93-8.36,40.32-16.31,81.44-23.99,121.2-15.29,79.13-31.1,160.95-50.96,240.52-30.1,120.6-59.6,255.33-70.74,315.91-.13.69-12.89,70-24.51,123.65-2.27,10.47-3.72,16.14-4.68,19.89-1.24,4.86-1.71,6.68-2.21,11.85-.32,3.31-.49,6.4-.65,9.12-.5,8.94-.84,14.84-5.42,17.16-1.39.7-3.07.98-4.84.98ZM64.42,1007.11c4.28,1.79,12.05,4.11,15.97,2.13,3.55-1.79,3.86-7.24,4.32-15.48.15-2.74.33-5.85.65-9.2.51-5.32,1.03-7.32,2.26-12.15.96-3.74,2.4-9.39,4.66-19.82,11.61-53.61,24.37-122.89,24.49-123.58,11.14-60.61,40.66-195.39,70.77-316.03,19.84-79.51,35.65-161.31,50.94-240.42,7.69-39.77,15.63-80.89,24-121.23,0-.03.62-3.07.96-9.63.43-8.46-.57-10.52-1.64-11.91-1.52-1.98-3.99-3.57-4.9-3.16-.8.37-.54,3.22-.26,6.24.27,2.86.6,6.43.44,10.55-.19,4.8-.93,7.44-2.17,11.81-.58,2.05-1.23,4.37-2,7.5-1.98,8.04-2.72,13.3-3.66,19.95-.29,2.08-.6,4.28-.98,6.73-2.15,14.14-4.94,27.31-9.56,49.12-.77,3.64-1.59,7.52-2.47,11.68-7.23,34.27-10.65,51.67-13.41,65.66-2.96,15.02-5.09,25.87-10.35,49.25-6.38,28.36-12.03,51.5-14.44,61.38-4.72,19.32-7.47,29.92-9.9,39.27-1.89,7.26-3.67,14.11-6.09,23.99-6.6,26.85-9.27,40.56-12.1,55.08-2.56,13.12-5.2,26.69-10.9,51.08-1.73,7.4-2.19,9.17-4.75,18.97-2.55,9.79-7.3,28-17.64,68.51-18.02,70.55-19.62,77.97-21.96,90.8-2.81,15.35-3.91,24.06-5.09,33.28-1.32,10.35-2.68,21.05-6.64,41.94-4.03,21.27-6.44,30.32-8.38,37.59-1.96,7.35-3.5,13.16-5.88,28.21-.63,4.01-1.25,8.16-1.87,12.38-2.97,20.13-6.33,42.95-13.85,60.07-.07.17-6.8,15.4-8.57,19.42Z"/>
  </g>
  <g>
    <path class="cls-2" d="M194.29,121.48c-17.8,2.8-43.1,850.68-45.47,856.36-.02.06-.29.62-.06,1.11.92,1.93,9.13,1.81,12.6-1.93,2.39-2.58,1.64-5.92,1.35-11.86-.32-6.51.96-13.01,1.09-19.53,1.03-50.39,4.48-100.71,5.89-151.1.86-30.65,3.71-84.5,9.43-192.2,4.98-93.8,4.74-80.02,8.6-155.17,5.25-102.17,7.88-153.25,9.8-195.43,1.93-42.37,2.44-60.03,4.36-78.13.53-5.03,1.57-13.81,1.83-26,.25-12.03-.28-27.32-.28-27.32,0,0-8.85,1.16-9.14,1.21Z"/>
    <path d="M152.64,981.17c-.63,0-1.21-.04-1.72-.12-1.59-.24-2.65-.82-3.06-1.68-.27-.57-.26-1.25.04-1.92.59-2.49,2.79-61.85,5.84-144.02,4.42-119.17,11.11-299.26,18.22-446.56,12.78-264.91,19.37-265.94,22.18-266.38h0c.3-.05,8.26-1.09,9.17-1.21l1.09-.14.04,1.1c.02.63.52,15.55.28,27.37-.23,11.28-1.15,19.77-1.7,24.84l-.13,1.25c-1.55,14.58-2.16,28.49-3.38,56.18-.29,6.5-.6,13.73-.98,21.88-1.92,42.18-4.55,93.4-9.8,195.44-1.94,37.76-2.85,53.1-3.9,70.86-1.04,17.65-2.23,37.65-4.7,84.32-5.71,107.54-8.57,161.52-9.43,192.17-.64,23.05-1.73,46.47-2.79,69.12-1.25,26.86-2.54,54.64-3.1,81.97-.06,2.76-.32,5.54-.57,8.23-.35,3.69-.71,7.51-.52,11.23.05,1,.11,1.93.17,2.8.3,4.42.5,7.34-1.78,9.79-2.34,2.53-6.45,3.48-9.46,3.48ZM194.52,122.46c-1.59,1.2-4.97,13.34-9.94,80.14-3.28,44.07-6.91,107.19-10.77,187.6-7.05,146.65-13.68,325.17-18.06,443.3-3.93,105.99-5.37,143.21-5.99,144.71-.09.21-.08.3-.08.3.05.08.55.46,1.95.6,2.84.28,6.97-.59,9.01-2.79,1.69-1.82,1.53-4.26,1.25-8.3-.06-.88-.12-1.82-.17-2.83-.19-3.86.17-7.75.53-11.51.25-2.66.51-5.4.56-8.09.56-27.36,1.85-55.15,3.1-82.02,1.05-22.64,2.14-46.05,2.79-69.08.86-30.67,3.72-84.66,9.43-192.22,2.48-46.68,3.66-66.68,4.71-84.33,1.05-17.75,1.96-33.09,3.9-70.84,5.24-102.03,7.88-153.25,9.8-195.43.37-8.15.69-15.38.98-21.88,1.22-27.74,1.83-41.66,3.39-56.31l.13-1.25c.54-5.04,1.46-13.47,1.68-24.66.21-10.08-.13-22.43-.24-26.16-3.25.43-7.32.96-7.95,1.05ZM194.44,122.47h0s0,0,0,0c0,0,0,0,0,0Z"/>
  </g>
  <g>
    <path class="cls-1" d="M210.57,999.47c-16.91-10.77-13.98-42.45-15.62-77.01-1.7-35.86-5.74-20.61-18.81-119.69-3.3-25.01-5.44-44.13-6.7-55.59-16.26-147.59-28.66-295.99-28.66-295.99-2.42-28.99-7.05-88.22-16.3-206.68-4.19-53.65-11.55-148.25-11.55-148.26,0,0,9.25-9.35,13.82-7.85,3.75,1.23,3.73,9.59,4.07,18.15.5,12.29,3.43,24.42,3.69,36.72.88,40.9,4.99,81.68,6.71,122.55,1.74,41.16,4.85,79.05,11.09,154.84,1.38,16.77,4.23,50.78,8.34,94.05,1.87,19.7,1.84,18.6,9.45,93.95,8.6,85.07,12.89,127.61,13.26,131.74.9,10.26,2.12,24.49,4.46,44.27,2.34,19.81,3.53,25.94,8.2,59.18,4.4,31.27,8.15,60.03,8.75,64.58,6.5,49.87,5.77,49.08,7.99,57.02,4.91,17.57,11.81,33.34,7.03,36.4-2.73,1.75-7.88-1.54-9.23-2.4Z"/>
    <path d="M217.9,1003.37c-2.04,0-4.67-1.02-7.86-3.05h0c-14.29-9.11-14.85-32.44-15.49-59.45-.14-5.95-.29-12.11-.58-18.36-.77-16.28-1.99-21.78-4.4-32.73-2.9-13.14-7.29-32.99-14.4-86.88-3.07-23.26-5.11-41.16-6.7-55.61-16.07-145.91-28.54-294.53-28.66-296.01-2.42-28.95-7.05-88.18-16.26-206.18l-.04-.5c-4.26-54.59-11.55-148.25-11.55-148.27l-.08-1.29.75.14c2.69-2.61,10.04-9.17,14.46-7.72,4.1,1.35,4.37,8.57,4.68,16.93l.08,2.13c.24,5.81,1.04,11.71,1.81,17.41.86,6.31,1.74,12.83,1.88,19.32.5,23.51,2.1,47.38,3.65,70.46,1.14,17.06,2.33,34.7,3.06,52.07,1.73,41.13,4.86,79.11,11.08,154.77,2.52,30.64,5.33,62.28,8.34,94.08,1.15,12.12,1.56,16.14,3.52,35.43,1.21,11.89,3.01,29.56,5.93,58.51,8.58,84.96,12.89,127.61,13.26,131.76l.15,1.76c.88,10.06,2.09,23.83,4.3,42.49,1.51,12.8,2.52,19.72,4.35,32.28.99,6.78,2.2,15.14,3.85,26.88,4,28.43,7.45,54.64,8.75,64.59,2.21,16.92,3.6,28.16,4.52,35.59,1.81,14.59,1.99,16.11,3.44,21.29,1.23,4.39,2.56,8.61,3.85,12.68,4.06,12.84,6.99,22.12,2.76,24.83-.69.44-1.5.66-2.45.66ZM211.11,998.63h0c5.19,3.31,7.33,2.92,8.15,2.4,2.93-1.88-.24-11.92-3.59-22.54-1.29-4.09-2.63-8.32-3.86-12.75-1.49-5.32-1.68-6.86-3.5-21.58-.92-7.43-2.31-18.66-4.52-35.58-1.3-9.95-4.75-36.16-8.75-64.57-1.65-11.74-2.87-20.09-3.85-26.87-1.83-12.58-2.84-19.51-4.35-32.34-2.21-18.69-3.42-32.48-4.3-42.55l-.15-1.76c-.36-4.14-4.67-46.78-13.26-131.73-2.92-28.95-4.72-46.62-5.93-58.51-1.92-18.84-2.37-23.31-3.52-35.44-3.02-31.8-5.82-63.45-8.34-94.07-6.23-75.72-9.35-113.71-11.09-154.88-.73-17.35-1.91-34.98-3.06-52.02-1.55-23.11-3.15-47-3.66-70.55-.14-6.38-1.02-12.84-1.86-19.1-.78-5.75-1.59-11.69-1.83-17.6l-.08-2.14c-.26-6.97-.53-14.19-3.3-15.1-2.58-.85-8.2,3.13-12.47,7.29.56,7.2,7.5,96.48,11.51,147.79l.04.5c9.22,118,13.84,177.22,16.26,206.17.12,1.48,12.59,150.08,28.66,295.96,1.59,14.44,3.63,32.33,6.69,55.57,7.1,53.81,11.47,73.61,14.37,86.71,2.37,10.71,3.67,16.61,4.45,33.06.3,6.27.44,12.44.59,18.4.63,26.44,1.18,49.27,14.57,57.81h0Z"/>
  </g>
  <g>
    <path class="cls-3" d="M134.98,1030.42h0s12.79,3.05,17.91-.97c4.72-3.71,1.68-12.45.18-26.04-1.04-9.37.06-8.34.22-32.55.37-55.43-1.37-125.87-1.37-125.87-1.49-60.3-.38-196.46,4.46-323.31,4.69-122.89-.57-245.94-.83-368.91,0,0,0-3.1-1.05-9.77-1.29-8.25-2.69-10.48-4.39-11.96-1.85-1.6-5.2-3.3-6.7-2.21-2.19,1.59,1.6,7.72,3.24,17.38,1.14,6.76.23,9.31-.13,19.53-.38,10.93.36,16.8.93,27.13.93,16.63.73,32.18.69,61.85-.1,73.75.99,71.68.31,117.18-.42,28.42-1.17,51.5-1.55,62.92-1.16,35.11-1.88,41.74-2.68,65.08-1.8,52.05.49,55.28-.74,108.5-.36,15.29-.37,7.45-3.97,90.03-3.1,70.97-3.22,79.89-2.88,93.29.87,33.58,3.19,36.33,3.95,75.98.83,43.19-1.98,36.77-.46,67.27,1.18,23.78,4.1,51.96-.51,73.78-.32,1.54-4.62,21.67-4.62,21.67Z"/>
    <path d="M132.32,1037.97l1.68-7.76c.04-.19,4.3-20.13,4.62-21.66,3.8-17.96,2.42-40.83,1.2-61.01-.26-4.26-.51-8.45-.71-12.52-.76-15.31-.44-21.34-.03-28.99.4-7.47.9-16.76.49-38.31-.41-21.18-1.27-31.9-2.1-42.26-.75-9.29-1.45-18.07-1.85-33.71-.34-13.07-.3-20.68,2.88-93.36,1.82-41.7,2.73-60.47,3.22-70.55.49-10.08.58-11.9.75-19.46.58-24.97.38-38.76.2-52.1-.21-14.8-.41-28.78.55-56.41.35-10.16.69-17.23,1.05-24.71.46-9.63.98-20.54,1.64-40.37.34-10.14,1.12-33.9,1.55-62.9.35-23.9.22-34.94.03-50.21-.17-14.24-.39-31.97-.35-66.96,0-4.24.01-8.19.02-11.89.05-22.25.08-35.68-.72-49.9-.14-2.46-.28-4.68-.42-6.76-.45-6.76-.8-12.09-.51-20.46.11-3.25.29-5.77.43-7.8.31-4.53.48-7.02-.28-11.53-.67-3.94-1.7-7.3-2.54-10-1.3-4.22-2.16-7.01-.3-8.36,2.11-1.53,5.99.58,7.94,2.27,2.02,1.75,3.44,4.37,4.73,12.56,1.04,6.67,1.06,9.8,1.06,9.92.09,41.12.74,82.95,1.38,123.4,1.26,80.5,2.57,163.74-.55,245.55-4.73,124-5.98,261.73-4.46,323.25.02.7,1.74,71.09,1.37,125.9-.07,10.69-.33,16.53-.5,20.39-.22,5-.3,6.87.27,12.04.37,3.31.83,6.37,1.24,9.07,1.34,8.86,2.23,14.71-1.79,17.87-4.72,3.7-14.91,1.96-17.98,1.33l-3.2,6.41ZM136.15,1029.65c4.56.93,12.67,1.71,16.11-.99,3.11-2.44,2.29-7.83,1.05-16-.41-2.72-.88-5.8-1.25-9.15-.59-5.32-.5-7.38-.28-12.35.17-3.85.43-9.66.5-20.32.37-54.78-1.36-125.14-1.37-125.84-1.53-61.55-.28-199.33,4.46-323.37,3.12-81.76,1.81-164.97.55-245.45-.63-40.46-1.29-82.29-1.38-123.43,0-.03-.02-3.13-1.04-9.62-1.31-8.38-2.73-10.21-4.06-11.36-1.9-1.65-4.66-2.74-5.45-2.16-.7.51.14,3.25,1.04,6.15.85,2.75,1.91,6.18,2.6,10.25.8,4.74.61,7.47.3,12-.15,2.12-.31,4.52-.42,7.73-.29,8.27.06,13.56.51,20.26.14,2.09.29,4.31.42,6.78.8,14.28.77,27.73.72,50.02,0,3.71-.02,7.65-.02,11.89-.05,34.98.17,52.69.35,66.93.19,15.29.32,26.34-.03,50.27-.43,29.02-1.22,52.79-1.55,62.94-.66,19.84-1.18,30.77-1.64,40.4-.36,7.48-.69,14.54-1.05,24.68-.96,27.58-.76,41.54-.55,56.32.19,13.35.39,27.16-.2,52.17-.18,7.58-.26,9.4-.76,19.51-.49,10.08-1.4,28.85-3.22,70.54-3.17,72.62-3.21,80.2-2.88,93.22.4,15.59,1.11,24.34,1.85,33.6.83,10.39,1.7,21.14,2.11,42.39.42,21.63-.09,30.96-.49,38.46-.41,7.59-.73,13.58.03,28.78.2,4.05.45,8.24.71,12.49,1.23,20.3,2.61,43.31-1.24,61.54-.04.19-3.41,16.12-4.42,20.7Z"/>
  </g>
  <g>
    <path class="cls-1" d="M93.28,1005.88c-11.84-15.91,2.52-44.49,13.68-77.36,11.58-34.1,2.2-21.24,26.37-118.34,6.1-24.51,11.12-43.12,14.15-54.26,39-143.53,81.89-286.48,81.89-286.48,8.38-27.92,25.8-84.87,60.65-198.76,15.78-51.58,43.64-142.52,43.64-142.53,0,0,12.08-5.54,15.8-2.56,3.05,2.45-.04,10.25-2.86,18.36-4.04,11.65-5.76,24.01-10.03,35.58-14.2,38.52-25.33,78.05-38.72,116.84-13.49,39.06-24.49,75.55-46.49,148.52-4.87,16.15-14.69,48.91-26.74,90.77-5.49,19.05-5.11,18.02-25.66,91.06-23.2,82.47-34.81,123.7-35.98,127.69-2.92,9.9-7.01,23.62-12.09,42.91-5.09,19.32-6.23,25.46-14.06,58.14-7.37,30.74-14.42,58.91-15.54,63.37-12.23,48.84-12.63,47.85-13.47,56.04-1.87,18.11-1.2,35.23-6.79,36.44-3.19.69-6.8-4.16-7.75-5.43Z"/>
    <path d="M100.39,1012.37c-2.34,0-4.99-1.98-7.91-5.9-10.02-13.46-1.97-35.46,7.34-60.92,2.05-5.61,4.18-11.42,6.19-17.35,5.26-15.48,6.14-21.04,7.9-32.1,2.11-13.28,5.3-33.34,18.45-86.16,6.45-25.92,11.85-45.79,14.16-54.28,38.55-141.9,81.47-285.08,81.9-286.51,8.33-27.76,25.61-84.24,60.04-196.77l.61-2c11.64-38.03,43.62-142.47,43.66-142.59l.44-1.17.59.39c3.49-1.51,12.73-5.09,16.33-2.21,3.35,2.69.95,9.53-1.83,17.45l-.71,2.02c-1.91,5.51-3.33,11.3-4.7,16.9-1.52,6.19-3.08,12.6-5.34,18.71-8.16,22.14-15.43,44.99-22.46,67.1-5.19,16.34-10.57,33.23-16.26,49.72-13.48,39.04-24.51,75.62-46.48,148.48-8.87,29.42-17.86,59.95-26.73,90.76-3.37,11.72-4.59,16.05-9.7,34.27-3.24,11.53-8.05,28.67-15.95,56.78l-.17.62c-23.06,81.96-34.64,123.1-35.81,127.08l-.49,1.67c-2.87,9.71-6.79,23-11.59,41.22-3.29,12.48-4.89,19.3-7.79,31.67-1.57,6.67-3.5,14.9-6.27,26.45-6.96,29.01-13.65,55.85-15.54,63.38-4.16,16.59-6.98,27.57-8.85,34.84-3.66,14.24-4.05,15.73-4.6,21.06-.47,4.53-.77,8.93-1.06,13.18-.92,13.4-1.59,23.07-6.51,24.14-.28.06-.56.09-.85.09ZM334.49,128.88c-2.1,6.85-28.48,92.96-43.51,142.09l-.61,2c-34.43,112.52-51.71,169-60.04,196.76-.43,1.43-43.34,144.59-81.88,286.46-2.3,8.48-7.7,28.33-14.15,54.24-13.12,52.74-16.31,72.75-18.41,85.99-1.72,10.82-2.67,16.79-7.98,32.43-2.02,5.96-4.15,11.77-6.21,17.4-9.12,24.92-16.99,46.45-7.62,59.04h0c3.63,4.88,5.78,5.26,6.73,5.05,3.45-.75,4.17-11.23,4.94-22.32.29-4.27.6-8.68,1.07-13.25.56-5.48.95-6.99,4.65-21.35,1.87-7.26,4.69-18.24,8.85-34.83,1.89-7.53,8.58-34.36,15.54-63.36,2.77-11.54,4.7-19.77,6.26-26.44,2.91-12.39,4.51-19.21,7.8-31.72,4.81-18.25,8.74-31.55,11.61-41.27l.49-1.67c1.17-3.97,12.75-45.11,35.81-127.06l.17-.61c7.91-28.11,12.72-45.24,15.95-56.78,5.12-18.23,6.33-22.56,9.71-34.28,8.87-30.81,17.87-61.36,26.74-90.78,21.98-72.89,33.01-109.48,46.5-148.56,5.69-16.47,11.05-33.35,16.25-49.67,7.04-22.13,14.31-45,22.48-67.18,2.21-6.01,3.77-12.35,5.27-18.49,1.38-5.64,2.81-11.47,4.75-17.08l.71-2.03c2.32-6.6,4.71-13.43,2.46-15.23-2.09-1.68-8.82.1-14.35,2.51Z"/>
  </g>
  <g>
    <path class="cls-1" d="M128.04,1033.76c-15.58-15.5-5.26-49.84.86-88.34,6.35-39.94-1.43-23.97,7.17-136.12,2.17-28.3,4.24-49.87,5.5-62.78,16.23-166.36,36.76-332.8,36.76-332.8,4.01-32.51,12.55-98.87,29.63-231.59,7.74-60.11,21.41-166.09,21.41-166.1,0,0,12-8.34,16.53-5.71,3.72,2.17,1.79,11.38.22,20.9-2.26,13.67-1.9,27.69-4.41,41.31-8.37,45.33-13.26,91.21-20.72,136.69-7.51,45.8-12.81,88.28-23.4,173.26-2.34,18.81-7.03,56.94-12.5,105.59-2.49,22.14-2.27,20.92-11.29,105.71-10.19,95.73-15.28,143.6-15.83,148.24-1.37,11.52-3.31,27.48-5.32,49.82-2.01,22.36-2.14,29.39-4.71,67.07-2.42,35.45-4.96,67.99-5.36,73.15-4.41,56.42-5.01,55.4-4.45,64.64,1.24,20.44,5.02,39.32-.78,41.68-3.31,1.35-8.06-3.38-9.3-4.62Z"/>
    <path d="M136.07,1039.62c-2.37,0-5.3-1.72-8.74-5.15h0c-13.13-13.07-8.43-38.9-2.97-68.81,1.2-6.6,2.45-13.43,3.55-20.39,2.88-18.15,2.84-24.48,2.75-37.09-.11-15.12-.27-37.96,4.41-98.95,2.29-29.92,4.54-52.96,5.5-62.8,16.05-164.48,36.56-331.16,36.77-332.83,4.01-32.51,12.57-99.02,29.62-231.52,7.1-55.14,19.17-148.7,21.14-164.02l.45-3.47.72.31c3.44-2.29,12.77-7.97,17.14-5.44,4.01,2.33,2.66,10.31,1.1,19.55l-.4,2.38c-1.07,6.47-1.56,13.16-2.03,19.62-.52,7.14-1.06,14.53-2.38,21.71-4.81,26.06-8.54,52.75-12.14,78.56-2.66,19.07-5.41,38.79-8.58,58.11-7.51,45.78-12.82,88.37-23.39,173.23-4.27,34.27-8.48,69.79-12.5,105.58-1.53,13.63-2.01,18.15-4.3,39.86-1.42,13.39-3.52,33.27-6.98,65.85-10.17,95.59-15.28,143.58-15.83,148.25l-.23,1.94c-1.35,11.29-3.19,26.76-5.09,47.85-1.3,14.45-1.8,22.3-2.71,36.55-.49,7.65-1.09,17.18-2,30.5-2.29,33.46-4.68,64.45-5.36,73.16-1.5,19.16-2.57,31.86-3.28,40.26-1.39,16.48-1.54,18.2-1.17,24.24.31,5.11.77,10.05,1.22,14.82,1.4,14.97,2.41,25.79-2.62,27.84-.51.21-1.06.31-1.65.31ZM128.74,1033.06c4.81,4.78,7.21,4.81,8.22,4.4,3.65-1.49,2.55-13.3,1.38-25.8-.45-4.79-.91-9.74-1.22-14.89-.37-6.18-.23-7.91,1.18-24.53.71-8.4,1.78-21.09,3.28-40.25.68-8.7,3.08-39.69,5.36-73.14.91-13.31,1.52-22.84,2-30.49.91-14.27,1.41-22.13,2.71-36.6,1.9-21.12,3.75-36.6,5.09-47.91l.23-1.94c.55-4.66,5.66-52.64,15.83-148.22,3.47-32.58,5.57-52.46,6.98-65.85,2.24-21.2,2.77-26.23,4.31-39.87,4.02-35.8,8.23-71.32,12.5-105.6,10.58-84.88,15.89-127.49,23.41-173.3,3.17-19.3,5.91-39.01,8.57-58.07,3.6-25.83,7.33-52.55,12.15-78.64,1.31-7.07,1.84-14.4,2.36-21.49.47-6.51.97-13.24,2.05-19.8l.4-2.38c1.32-7.79,2.68-15.85-.13-17.49-2.58-1.5-9.56,1.72-15.09,5.42-.05.36-.12.94-.22,1.7-1.98,15.32-14.05,108.88-21.13,163.94-17.06,132.57-25.62,199.08-29.63,231.58-.21,1.66-20.71,168.33-36.76,332.77-.96,9.83-3.21,32.86-5.5,62.76-4.67,60.91-4.51,83.71-4.4,98.79.09,12.32.14,19.1-2.77,37.42-1.11,6.98-2.36,13.82-3.56,20.43-5.35,29.36-9.97,54.71,2.42,67.04l-.71.71.71-.71Z"/>
  </g>
  <g>
    <path class="cls-1" d="M22.07,998.5c-10.82-17.49,5.62-48.42,19.14-84.05,14.02-36.97,3.69-23.1,34.76-128.51,7.84-26.6,14.19-46.8,18.01-58.89,49.22-155.76,102.32-310.85,102.32-310.85,10.37-30.29,31.87-92.07,74.85-215.61,19.47-55.96,53.83-154.6,53.83-154.61,0,0,12.55-5.87,16.09-2.57,2.9,2.71-.75,11.16-4.15,19.96-4.88,12.64-7.46,26.06-12.56,38.61-16.97,41.75-30.91,84.64-47.09,126.7-16.29,42.35-29.9,81.93-57.11,161.1-6.02,17.52-18.18,53.06-33.22,98.48-6.84,20.67-6.39,19.55-32.15,98.8-29.08,89.48-43.62,134.23-45.08,138.55-3.63,10.74-8.7,25.62-15.15,46.56-6.46,20.97-8.04,27.64-18.19,63.12-9.55,33.37-18.6,63.95-20.04,68.79-15.71,53.02-16.03,51.94-17.45,60.84-3.13,19.7-3.65,38.35-9.36,39.59-3.26.71-6.56-4.62-7.43-6.02Z"/>
    <path d="M28.89,1005.59c-2.39,0-4.97-2.2-7.66-6.56h0c-9.13-14.75.48-38.56,11.61-66.12,2.46-6.08,5-12.38,7.44-18.82,6.37-16.81,7.65-22.85,10.19-34.88,3.04-14.43,7.65-36.23,24.54-93.56,8.29-28.12,15.11-49.7,18.02-58.91,48.35-153.03,100.14-304.48,102.32-310.85,10.33-30.17,31.69-91.56,74.24-213.86l.62-1.77c19.25-55.34,53.81-154.55,53.83-154.61l.42-1.2.61.39c3.61-1.6,13.22-5.39,16.68-2.16,3.16,2.95.28,10.32-3.05,18.86l-.85,2.19c-2.31,5.99-4.14,12.27-5.91,18.35-1.95,6.72-3.97,13.66-6.66,20.28-9.75,24-18.66,48.8-27.27,72.78-6.36,17.71-12.94,36.03-19.82,53.91-16.28,42.32-29.91,81.98-57.08,161-11,32-22.18,65.13-33.24,98.53-4.21,12.73-5.58,16.95-12.17,37.25-4.06,12.52-10.09,31.1-19.98,61.55l-.13.41c-28.96,89.1-43.49,133.83-44.95,138.15l-.62,1.82c-3.56,10.53-8.44,24.95-14.53,44.71-4.17,13.55-6.26,20.95-10.04,34.37-2.04,7.25-4.56,16.19-8.15,28.72-9.08,31.73-17.64,60.68-20.04,68.8-5.33,18.01-8.94,29.92-11.33,37.81-4.68,15.47-5.17,17.09-6.1,22.91-.78,4.93-1.39,9.72-1.99,14.34-1.85,14.51-3.19,24.99-8.16,26.07-.27.06-.55.09-.82.09ZM197.25,416.52v.02c-2.19,6.37-53.97,157.81-102.31,310.81-2.91,9.21-9.72,30.77-18,58.87-16.87,57.25-21.47,79.01-24.5,93.41-2.48,11.75-3.85,18.23-10.28,35.18-2.45,6.46-5,12.76-7.46,18.86-10.93,27.06-20.36,50.42-11.77,64.32h0c3.3,5.33,5.4,5.78,6.36,5.57,3.59-.78,5.05-12.24,6.59-24.37.59-4.64,1.2-9.45,1.99-14.41.95-5.95,1.44-7.58,6.16-23.17,2.39-7.88,5.99-19.8,11.32-37.8,2.4-8.12,10.96-37.06,20.04-68.78,3.59-12.53,6.1-21.47,8.14-28.71,3.79-13.45,5.87-20.85,10.05-34.42,6.1-19.79,10.98-34.23,14.54-44.77l.62-1.82c1.46-4.31,15.99-49.04,44.95-138.13l.13-.41c9.9-30.45,15.92-49.03,19.98-61.55,6.43-19.82,7.95-24.53,12.17-37.26,11.06-33.41,22.24-66.55,33.22-98.49,27.19-79.1,40.83-118.78,57.12-161.13,6.87-17.85,13.44-36.16,19.8-53.86,8.62-24,17.53-48.81,27.3-72.85,2.65-6.52,4.66-13.41,6.6-20.08,1.78-6.12,3.62-12.45,5.96-18.51l.85-2.2c2.81-7.2,5.71-14.65,3.54-16.67-1.97-1.84-8.88.02-14.6,2.57-2.41,6.91-34.94,100.33-53.69,154.2l-.62,1.77c-42.55,122.3-63.91,183.69-74.23,213.83h0Z"/>
  </g>
  <g>
    <path class="cls-1" d="M3.59,946.37c-9.55-18.17,9.07-47.93,25.11-82.56,16.64-35.94,5.33-22.79,43.87-125.86,9.72-26.01,17.51-45.73,22.18-57.53,60.25-152.08,124.32-303.21,124.32-303.21,12.52-29.52,38.38-89.7,90.1-210.05,23.43-54.51,64.76-150.6,64.76-150.61,0,0,12.94-5.01,16.23-1.48,2.7,2.9-1.55,11.08-5.57,19.63-5.77,12.28-9.31,25.5-15.3,37.67-19.91,40.51-36.9,82.36-56.05,123.22-19.28,41.15-35.69,79.72-68.5,156.86-7.26,17.07-21.93,51.71-40.18,96-8.31,20.16-7.78,19.07-39.14,96.4-35.41,87.31-53.12,130.97-54.89,135.18-4.39,10.47-10.51,24.98-18.45,45.43-7.95,20.48-9.99,27.03-22.66,61.74-11.92,32.65-23.14,62.55-24.91,67.28-19.46,51.83-19.71,50.73-21.76,59.52-4.54,19.44-6.39,38.01-12.17,38.87-3.3.49-6.21-5.05-6.98-6.5Z"/>
    <path d="M10.14,953.91c-2.47,0-4.97-2.37-7.44-7.07-8.05-15.33,3.24-38.43,16.32-65.18,2.89-5.9,5.87-12.01,8.77-18.27,7.56-16.34,9.27-22.28,12.66-34.11,4.07-14.19,10.22-35.63,31.18-91.68,10.28-27.49,18.62-48.56,22.19-57.55,59.56-150.35,123.69-301.72,124.33-303.23,12.52-29.53,38.45-89.86,90.1-210.05,20.64-48.04,64.73-150.55,64.78-150.64l.55-1.17.55.45c3.74-1.36,13.56-4.47,16.77-1.02,2.94,3.15-.45,10.32-4.39,18.61l-1.01,2.13c-2.73,5.82-5.01,11.97-7.21,17.91-2.43,6.57-4.94,13.36-8.1,19.78-11.45,23.29-22.1,47.42-32.41,70.76-7.61,17.24-15.49,35.08-23.63,52.44-19.28,41.14-35.72,79.81-68.49,156.83-13.25,31.15-26.77,63.45-40.18,95.99-5.11,12.41-6.78,16.54-14.81,36.35-4.94,12.21-12.29,30.35-24.34,60.05-35.37,87.19-53.12,130.96-54.9,135.2l-.76,1.81c-4.3,10.26-10.19,24.31-17.68,43.6-5.13,13.23-7.74,20.47-12.47,33.61-2.55,7.09-5.7,15.84-10.18,28.11-11.66,31.94-22.8,61.66-24.92,67.29-6.61,17.6-11.06,29.25-14,36.95-5.78,15.12-6.38,16.7-7.72,22.45-1.13,4.86-2.09,9.6-3.01,14.17-2.88,14.35-4.97,24.71-10,25.45-.19.03-.38.04-.57.04ZM374.68,17.32c-2.89,6.71-42.11,97.89-64.59,150.22-51.65,120.19-77.58,180.53-90.1,210.05-.64,1.51-64.76,152.87-124.31,303.19-3.56,8.99-11.9,30.04-22.17,57.52-20.93,55.98-27.07,77.37-31.13,91.53-3.32,11.56-5.14,17.93-12.77,34.4-2.91,6.28-5.9,12.4-8.79,18.31-12.84,26.26-23.92,48.93-16.34,63.37h0c2.91,5.54,4.97,6.13,5.94,5.98,3.64-.54,5.92-11.87,8.33-23.87.92-4.59,1.88-9.34,3.02-14.24,1.37-5.87,1.98-7.47,7.8-22.7,2.94-7.7,7.39-19.35,14-36.94,2.11-5.63,13.25-35.33,24.91-67.27,4.48-12.26,7.63-21.01,10.18-28.1,4.74-13.16,7.35-20.4,12.49-33.66,7.49-19.31,13.39-33.38,17.7-43.65l.76-1.81c1.77-4.22,19.52-47.99,54.89-135.17,12.05-29.7,19.39-47.84,24.33-60.05,8.02-19.82,9.69-23.94,14.81-36.36,13.41-32.55,26.93-64.85,40.19-96.01,32.77-77.05,49.22-115.72,68.52-156.9,8.13-17.35,16-35.17,23.61-52.4,10.32-23.36,20.98-47.52,32.45-70.84,3.11-6.32,5.6-13.07,8.01-19.59,2.21-5.99,4.5-12.18,7.28-18.07l1.01-2.14c3.32-6.99,6.74-14.23,4.73-16.39-1.84-1.97-8.86-.58-14.75,1.59Z"/>
  </g>
  <g>
    <path class="cls-2" d="M100.8,39.45c-15.26,5.74,88.36,958.4,87.12,965.1-.01.07-.17.73.11,1.25,1.1,2.03,8.31.69,10.81-4,1.72-3.24.56-6.87-.58-13.47-1.25-7.24-1.09-14.7-1.94-22.02-6.58-56.55-11.01-113.38-17.25-169.97-3.8-34.43-9.28-95.12-20.24-216.49-9.54-105.71-7.71-90.26-15.46-174.93-10.55-115.12-15.82-172.67-20.39-220.17-4.59-47.7-6.77-67.55-7.76-88.08-.28-5.71-.66-15.69-2.25-29.37-1.57-13.5-4.3-30.53-4.3-30.53,0,0-7.62,2.59-7.87,2.69Z"/>
    <path d="M190.39,1007.71c-1.59,0-2.74-.51-3.24-1.44-.38-.71-.3-1.5-.22-1.91.19-2.61-6.7-69.53-16.24-162.16-13.8-134.02-34.65-336.56-50.27-502.45C92.37,41.55,98.03,39.42,100.45,38.51l.35.94-.35-.94c.15-.06,2.3-.79,7.19-2.46l1.84-.63.19,1.18c.29,1.8,2.81,17.73,4.31,30.57,1.47,12.63,1.92,22.25,2.19,28l.07,1.44c.8,16.56,2.33,32.21,5.36,63.4.71,7.32,1.51,15.46,2.39,24.63,4.58,47.54,9.86,105.23,20.39,220.17,3.9,42.55,5.38,59.85,7.09,79.88,1.7,19.9,3.63,42.46,8.38,95.05,10.94,121.21,16.44,182.05,20.23,216.47,2.85,25.89,5.37,52.26,7.81,77.76,2.89,30.25,5.87,61.53,9.44,92.21.36,3.08.54,6.23.72,9.27.24,4.2.5,8.53,1.21,12.7.19,1.12.39,2.15.57,3.12.9,4.82,1.5,8-.09,11-1.88,3.52-6.19,5.44-9.3,5.45h-.03ZM101.27,40.34c-2.85,3.98-1.39,60.07,21.51,303.03,15.57,165.13,36.23,365.82,49.9,498.62,11.48,111.54,16.55,160.93,16.21,162.73-.06.3-.04.51,0,.59.08.15.58.38,1.5.39,2.17,0,5.94-1.38,7.55-4.39,1.26-2.37.75-5.13-.11-9.69-.18-.97-.38-2.01-.57-3.14-.74-4.28-.99-8.67-1.24-12.92-.17-3.01-.35-6.13-.71-9.15-3.57-30.7-6.56-61.99-9.45-92.25-2.43-25.49-4.95-51.85-7.8-77.73-3.8-34.44-9.29-95.29-20.24-216.51-4.75-52.59-6.68-75.15-8.38-95.06-1.71-20.03-3.19-37.32-7.09-79.87-10.53-114.93-15.82-172.62-20.39-220.16-.88-9.17-1.68-17.32-2.39-24.63-3.04-31.22-4.57-46.89-5.37-63.49l-.07-1.44c-.27-5.72-.72-15.3-2.18-27.86-1.32-11.33-3.44-25.08-4.11-29.32-1.85.63-5.83,1.99-6.6,2.25Z"/>
  </g>
  <g>
    <path class="cls-1" d="M240.53,1020.98c-16.4-9.83-18.16-45.73-24.35-84.26-6.42-39.98-7.89-22.34-33.03-131.68-6.34-27.59-10.85-48.75-13.54-61.42-34.6-163.29-65.92-327.99-65.92-327.99-6.12-32.17-18.33-97.95-42.75-229.52C49.88,126.52,30.4,21.46,30.4,21.45c0,0,6.88-11.71,11.12-10.64,3.48.89,4.6,10.26,6.09,19.8,2.13,13.71,6.38,26.92,8.3,40.67,6.39,45.73,15.61,90.9,22.74,136.49,7.18,45.91,15.13,87.97,31.04,172.1,3.52,18.62,10.71,56.36,20.27,104.33,4.35,21.83,4.18,20.61,21.24,104.06,19.26,94.22,28.89,141.34,29.78,145.92,2.21,11.38,5.23,27.17,10.01,49.04,4.78,21.89,6.67,28.61,15.36,65.25,8.17,34.47,15.43,66.21,16.58,71.23,12.58,55.04,11.83,54.25,14.87,62.86,6.74,19.04,15,35.8,11.2,39.87-2.17,2.32-7.17-.67-8.48-1.46Z"/>
    <path d="M246.79,1024.31c-1.77,0-4.03-.82-6.78-2.47-13.84-8.3-17.52-34.32-21.79-64.45-.94-6.66-1.92-13.54-3.04-20.51-2.92-18.18-4.75-24.19-8.39-36.15-4.36-14.33-10.96-36-24.62-95.46-5.9-25.68-10.16-45.47-13.54-61.44-33.35-157.38-64.75-321.77-65.91-328.02h-.02c-6.12-32.18-18.36-98.13-42.75-229.52C49.53,130.15,29.43,21.71,29.41,21.62l-.2-1.21.64.03c2.41-3.92,7.75-11.64,11.92-10.58,3.83.97,4.99,8.59,6.46,18.23l.37,2.38c1.01,6.5,2.53,13.01,3.99,19.31,1.62,6.95,3.3,14.14,4.31,21.38,3.67,26.29,8.36,52.83,12.9,78.51,3.35,18.97,6.82,38.59,9.85,57.96,7.18,45.89,15.15,88.06,31.03,172.07,6.42,33.97,13.24,69.06,20.27,104.32,2.68,13.46,3.6,17.93,7.99,39.36,2.7,13.17,6.71,32.72,13.24,64.69,19.23,94.08,28.89,141.31,29.78,145.93l.37,1.93c2.16,11.16,5.12,26.44,9.63,47.09,3.09,14.16,4.93,21.79,8.27,35.65,1.8,7.46,4.02,16.66,7.08,29.59,7.43,31.33,14.07,60.26,16.58,71.24,4.27,18.7,7.04,31.11,8.88,39.33,3.59,16.11,3.97,17.79,5.96,23.42,1.69,4.76,3.44,9.31,5.14,13.71,5.3,13.74,9.13,23.67,5.86,27.17-.74.79-1.72,1.19-2.95,1.19ZM31.45,21.64c1.27,6.87,19.81,106.89,30.47,164.29,24.39,131.38,36.63,197.33,42.75,229.51.31,1.62,31.6,166.07,65.91,327.97,3.38,15.96,7.64,35.74,13.54,61.41,13.65,59.39,20.23,81.01,24.59,95.32,3.55,11.67,5.51,18.1,8.45,36.42,1.12,6.98,2.1,13.88,3.04,20.54,4.19,29.62,7.82,55.21,20.84,63.01h0c4.88,2.93,6.62,2.28,7.23,1.64,2.42-2.59-1.8-13.52-6.26-25.09-1.7-4.41-3.46-8.97-5.16-13.76-2.03-5.74-2.41-7.44-6.03-23.65-1.83-8.21-4.6-20.62-8.88-39.32-2.51-10.98-9.16-39.91-16.58-71.23-3.06-12.92-5.28-22.12-7.08-29.58-3.34-13.87-5.19-21.51-8.28-35.69-4.51-20.67-7.48-35.97-9.64-47.14l-.37-1.93c-.89-4.61-10.55-51.83-29.78-145.91-6.54-31.97-10.54-51.52-13.24-64.69-4.4-21.44-5.31-25.91-8-39.38-7.03-35.26-13.85-70.36-20.27-104.34-15.88-84.03-23.86-126.21-31.04-172.14-3.03-19.36-6.49-38.96-9.84-57.93-4.54-25.69-9.23-52.26-12.91-78.58-1-7.15-2.66-14.29-4.27-21.2-1.48-6.33-3-12.88-4.02-19.45l-.37-2.39c-1.14-7.48-2.43-15.95-4.98-16.6-2.18-.55-6.55,4.49-9.82,9.86Z"/>
  </g>
  <g>
    <path class="cls-3" d="M178.07,1065.72h0s11.7,1.72,15.67-3.47c3.66-4.78-.22-14.18-3.42-29.21-2.2-10.37-1.09-9.36-4.27-36.52-7.28-62.19-18.49-140.92-18.49-140.92-9.6-67.4-27.3-220.18-40.44-363.02-12.73-138.38-34.26-275.62-51.36-413.44,0,0-.43-3.48-2.27-10.81-2.27-9.07-3.81-11.4-5.52-12.83-1.85-1.55-5.04-3.01-6.21-1.59-1.72,2.07,2.47,8.44,5.24,19.05,1.94,7.42,1.48,10.4,2.56,21.91,1.16,12.3,2.62,18.79,4.55,30.29,3.1,18.52,5.07,35.98,9.1,69.24,10.04,82.68,10.71,80.23,16.36,131.32,3.53,31.92,6.03,57.89,7.27,70.74,3.8,39.52,4.07,47.04,6.56,73.32,5.55,58.58,8.02,61.9,14.24,121.72,1.79,17.19.7,8.4,8.85,101.45,7.01,79.97,8.12,89.99,10.27,104.96,5.38,37.53,7.8,40.3,13.92,84.64,6.66,48.3,3.3,41.48,8.83,75.47,4.31,26.5,10.75,57.7,9.68,82.77-.08,1.77-1.11,24.9-1.11,24.91Z"/>
    <path d="M182.44,1067c-2.27,0-4.05-.23-4.51-.29l-.9-.13.04-.91c0-.18,1.03-23.14,1.11-24.9.89-20.69-3.47-46.17-7.32-68.64-.81-4.74-1.61-9.4-2.35-13.93-2.77-17.04-3.31-23.84-4-32.46-.67-8.43-1.51-18.92-4.83-43.04-3.27-23.7-5.5-35.61-7.66-47.12-1.93-10.31-3.76-20.05-6.26-37.52-2.09-14.61-3.1-23.13-10.27-105.02-4.12-46.98-5.89-68.14-6.84-79.51-.95-11.37-1.12-13.42-2.01-21.93-2.92-28.07-4.98-43.51-6.98-58.44-2.22-16.56-4.31-32.2-7.26-63.3-1.08-11.44-1.76-19.41-2.47-27.85-.92-10.85-1.95-23.16-4.1-45.47-1.1-11.43-3.67-38.2-7.27-70.73-2.97-26.85-4.6-39.21-6.87-56.31-2.11-15.94-4.73-35.78-9.49-75l-1.61-13.31c-3.01-24.96-4.83-40.03-7.49-55.89-.46-2.74-.89-5.2-1.3-7.52-1.32-7.51-2.37-13.44-3.26-22.84-.34-3.65-.54-6.5-.69-8.79-.34-4.97-.54-7.98-1.84-12.96-1.13-4.35-2.51-7.98-3.62-10.9-1.75-4.6-2.8-7.38-1.42-9.04.44-.53,1.08-.85,1.85-.92,1.82-.17,4.22,1.08,5.78,2.38,2.01,1.68,3.61,4.4,5.85,13.35,1.65,6.58,2.21,10.22,2.29,10.94h0c5.72,46.09,12.04,92.9,18.15,138.16,12.16,90.07,24.74,183.2,33.21,275.31,12.85,139.64,30.65,294.21,40.44,362.97.11.79,11.29,79.45,18.49,140.94,1.4,11.99,1.98,18.57,2.36,22.92.49,5.66.68,7.77,1.9,13.51.78,3.67,1.61,7.04,2.34,10.01,2.38,9.65,3.95,16.02.89,20.02-2.64,3.45-8.12,4.14-12.09,4.14ZM179.1,1064.83c4.1.42,11.22.23,13.84-3.19,2.47-3.23.99-9.23-1.25-18.32-.74-2.99-1.57-6.38-2.35-10.07-1.24-5.86-1.45-8.17-1.93-13.75-.38-4.34-.95-10.9-2.35-22.86-7.2-61.47-18.37-140.11-18.49-140.89-9.79-68.78-27.6-223.39-40.45-363.07-8.47-92.07-21.04-185.18-33.2-275.23-6.11-45.27-12.43-92.08-18.16-138.18,0-.03-.45-3.51-2.25-10.7-2.33-9.29-3.84-11.17-5.19-12.3-1.4-1.17-3.29-2.02-4.31-1.92-.35.03-.45.16-.49.2-.63.77.52,3.82,1.75,7.05,1.13,2.97,2.53,6.66,3.69,11.11,1.35,5.17,1.56,8.24,1.9,13.33.16,2.4.35,5.11.69,8.74.88,9.32,1.92,15.22,3.23,22.68.41,2.32.84,4.79,1.3,7.54,2.66,15.9,4.48,30.99,7.5,55.98l1.61,13.31c4.76,39.21,7.38,59.04,9.49,74.98,2.26,17.12,3.9,29.48,6.87,56.35,3.6,32.54,6.17,59.32,7.27,70.75,2.14,22.32,3.18,34.63,4.1,45.49.71,8.43,1.38,16.4,2.47,27.83,2.94,31.06,5.03,46.68,7.25,63.22,2,14.94,4.07,30.39,6.99,58.49.88,8.52,1.06,10.58,2.01,21.97.95,11.37,2.72,32.53,6.84,79.5,7.17,81.83,8.17,90.34,10.26,104.91,2.5,17.43,4.32,27.15,6.25,37.44,2.16,11.54,4.4,23.46,7.67,47.22,3.33,24.17,4.17,34.7,4.84,43.15.68,8.57,1.22,15.33,3.98,32.29.73,4.52,1.53,9.17,2.34,13.91,3.86,22.58,8.24,48.16,7.35,69.07,0,.22-.83,19.13-1.07,23.98Z"/>
  </g>
</svg>