<?xml version="1.0" encoding="UTF-8"?>
<svg id="Layer_1" data-name="Layer 1" xmlns="http://www.w3.org/2000/svg" viewBox="0 0 1057.84 526.03">
  <path d="M474.82,109.75c.98,7.76,13.3,103.83,14.07,111.44,1.71,17.04.13,26.61,7.5,41.52,2.6,5.26,13.98,19.65,18.11,21.65,9.7,4.7,21.97,1.99,32.59,1.1-.54,1.26-1.63,1.84-2.56,2.17-6.67,2.36-13.87,1.83-20.45,2.9-.72.12-1.59-.21-1.72,1.11l21.73,16.99c-.26,1.75-1.82.59-2.52.28-2.45-1.11-5.98-3.95-8.43-5.66-11.11-7.73-24.46-18.17-33.14-29.97-4.92-6.69-9.94-15.16-11.97-24.67-9.51,14.72-21.72,2.71-30.94-.63-18.16-6.59-36.21,1.49-54.76,3.36-2.16.22-4.3-.62-6.52-.17.51-1.2,1.65-1.87,2.54-2.23,3.85-1.54,11.05-2.86,15.22-3.71,9.85-2.01,19.81-2.97,29.61-3.89l-36.02-32.02c5.93.68,9.83,7.68,14.46,11.47,15,12.25,32.24,23.01,49.01,30.69,6.4,2.93,14.16.36,16.14-10.91.59-3.39-.46-16.64-.83-20.65-3.35-36.3-16.12-88.17-11.12-124.17,1.19-8.6,3-25.57,4.58-34.03"/>
  <path d="M17.41,4.05c13.31,17.21,29.48,37.02,39.98,56.76,6.18,11.62,14.23,35.01,4.77,48.81-3.86,5.63-19.28,12.39-25.16,14.46-3.7,1.3-8.11,3.14-12.35,4.54l-10.81,2.62c10.42.62,21.52-5.69,31.85-8.83,14.05-4.26,31.52-8.57,44.91-3.62,12.35,4.57,27.43,24.09,36.76,35.18,5.5,6.54,10.5,13.81,16.13,20.21l1.25-.93c-7.47-9.67-15.82-18.86-21.7-30.26l25.08,5.69,6.19-.49s.02-.07.02-.11c-16.63-1.42-34.57-8.94-47.42-20.57-7.27-6.58-7.36-10.57-17.93-12.62-4.51-.88-8.34.28-12.16.15-4.62-.16-9.45-1.02-14.11-1.12,3.43-6.06,7.79-10.23,8.65-17.76l-.72-2.19c-1.15-3.52-1.45-4.32-1.51-4.45-.02-.08-.06-.27-.18-.71-8.12-29.92-27.28-55.53-43.95-77.77-2.81-3.74-4.54-8.6-8.92-11.04-1.52.78.84,3.42,1.33,4.05Z"/>
  <path d="M605.61,471.69c17.64-8.94,41.38-21.36,59.48-27.63,10.21-3.54,19.72-3.16,29.16-6.44,10.23-3.55,17.66-14.5,11.7-24.18-7.49-12.16-31.94-21.36-45.41-23.16-1.47-.2-1.4-.2-2.13-.41l-1.57-.4-14.92-3.39,3.5-.74,34.95,7.54c-7.53-11.36-19.55-19.47-28.23-29.49-.44-.51-3.43-5.04-.98-3.74,2.77,1.47,5.78,4.47,8.14,6.66,10.22,9.46,20.27,21.09,30.29,30.23,9.28,8.47,24.59,14.77,20.67,31.06-1.18,4.91-5.93,8.43-8.85,12.24,3.9-.42,8.02-.55,11.92-.49,19.28.3,22.8,6.31,39.14,12.79,14.87,5.91,31.33,8.56,47.23,4.5,6.28-1.6,11.85-5.21,17.98-7.23.89,1.12-.79,1.55-1.45,1.98-3.36,2.16-7.52,3.64-10.95,5.77l-12.47,4.41,46.44,15.64c-14.01-3.69-28.14-7.16-42.15-10.87-4.28-1.13-8.38-3.21-12.68-4.29-9.93-2.49-18.97-.47-28.82-4.89-5-2.25-9.52-6.65-14.37-8.84-14.61-6.58-37.32-7.12-53.45-6.52-24.74.93-51.27,17.29-73.39,28.35"/>
  <path d="M927.54,450.43c2.71,3.65,7.25,5.77,11.33,7.88,12.46,6.43,30.63,11.5,48.2,7.33,3.81-.9,10.81-3.94,13.97-3.32,6.17,1.21,8.82,6.25,11.43,11.5,1.01-5.71.32-9.68,5.96-15.19,5.98-5.83,18.04-5.91,23.9-6.64,5.19-.65,10.81-2.24,15.51-1.45-.64.96-1.29.97-2.02,1.12-6.38,1.31-14.02.89-20.83,2.13-6.31,1.15-13.74,1.75-18.11,10.15s-.96,26.85-.51,34.57-.75,15.64-.63,23.14c.02,1.41,1.63,2.96-.71,4.39-.05-4-.74-7.58-.84-11.56-.41-16.68,1.13-32.71-6.49-45.24-7.26-11.94-19.48.5-31.7.59-5.43.04-11.34-1.69-16.78-2.18-14.18-1.26-29.06,1.51-44.77,4.79-.33.07-7.65,2.54-5.9,1.16l5.07-2.3,33.45-6.5c-7.43-3.4-14.68-7.09-20.76-12.25l1.24-2.12Z"/>
  <path d="M368.8,300.25c-12.79,7.37-24.16,13.25-33.26,21.99-5.08,4.88-7.12,9.97-12.01,14.64-10.06,9.61-49.89,29.8-67.82,37.79-1.21.54-9.33,4.04-10.25,3.67-.54-1.01,1.18-1.46,2.46-2.16,11.34-6.18,25.12-11.91,36.26-18.26,37.94-21.64,53.89-48.32,93.59-69.23,25.39-13.38,59.6-21.18,88.86-32.42l18.73-4.06c-5.13,2.35-12.04,3.64-17.84,5.55-37.99,12.47-69.95,25.91-98.73,42.5Z"/>
  <path d="M75.84,387.55c.37.86,1.76,6.6,2.07,8,1.92,8.69.91,14.32,8.04,21.03,6.77,6.38,10.66,3.93,18.85,4.77-1.58,1.39-4.6,1.18-6.17,2.45-5.91,4.73-6.38,14.07-6.08,20.97.57,13.11,6.36,24.66,8.95,37.2-1.34-.23-1.54-1.66-1.99-2.78-7.17-18.06-11.15-50.33-35.8-46.98l6.75-3.46c12.65-10.57,5.95-29.52,3.17-42.71.77-.81,1.95.91,2.21,1.52ZM79.83,413.55c-1.22,5.89-3.09,11.92-7.6,16.09,13.39.8,14.83,12.41,19.24,22.96.65-3.11-.81-6.06-.97-9.13-.39-7.22,1.48-12.77,5.52-18.84-2.68-1.48-5.69-.45-8.37-1.85-3.64-1.91-5.17-6.24-7.81-9.22Z"/>
  <path d="M967.89,202.4c-2.77-4.5-1.32-12.04-1.85-17.67-1.43-15.18-2.82-28.71-19.11-30.59,5.59-2.29,8.88-5.08,11.49-11.5,4.07-10.05,3.05-20.83,3.77-31.24,2.74,4.5.92,10.95,1.69,16.23,1.6,10.88,8.93,16.11,17.7,18.63,4.1,1.18-1.8,2.64-2.72,3.38-13.99,11.23-10.4,36.95-10.97,52.75ZM976.8,147.53c-6.74-3.72-10.76-9.17-14.08-16.46-.65,6.1,1.34,10.9-3.62,15.61-1.84,1.75-3.61,4.84-6.14,7.19,7.45,1.26,10.12,10.38,13.58,16.31.15-9.78,2.83-16.59,10.26-22.64Z"/>
  <g>
    <path d="M168.49,157.77h-3.82l-7.73,31.26h3.62v.86h-18.24v-.86h4.3l7.73-31.26h-4.1v-.86h18.24v.86ZM154.88,174.06v-.86h17.28v.86h-17.28ZM189.11,156.91v.86h-4.27l-7.73,31.26h4.08v.86h-18.22v-.86h3.82l7.73-31.26h-3.62v-.86h18.22Z"/>
    <path d="M181.52,195.3l30-30.87h1.22l-29.98,30.87h-1.25ZM194.55,190.33c-2.78,0-4.99-.53-6.61-1.58-1.62-1.06-2.44-2.79-2.44-5.21,0-1.76.42-3.49,1.26-5.19.84-1.7,1.99-3.24,3.44-4.61,1.46-1.37,3.13-2.47,5.03-3.29s3.9-1.23,6.01-1.23c2.78,0,5.03.57,6.73,1.7,1.7,1.14,2.56,2.91,2.56,5.33,0,1.7-.4,3.38-1.2,5.05-.8,1.66-1.92,3.18-3.36,4.54-1.44,1.36-3.13,2.45-5.08,3.27s-4.06,1.22-6.35,1.22ZM194.55,189.47c.43,0,.91-.32,1.44-.96.53-.64,1.07-1.49,1.62-2.56.55-1.07,1.09-2.26,1.61-3.56.52-1.3.98-2.63,1.39-3.99.41-1.36.73-2.65.97-3.87.24-1.22.36-2.27.36-3.13,0-.42-.05-.75-.14-.98-.1-.23-.28-.34-.55-.34-.43,0-.91.32-1.44.96-.53.64-1.07,1.49-1.62,2.56-.55,1.07-1.09,2.26-1.61,3.56-.52,1.3-.98,2.63-1.39,3.99-.41,1.36-.73,2.64-.97,3.86-.24,1.22-.36,2.26-.36,3.14,0,.41.05.73.16.97.1.23.28.35.54.35Z"/>
    <path d="M206.6,201.32c-1.7,0-3.09-.29-4.18-.87-1.09-.58-1.89-1.28-2.4-2.11s-.77-1.62-.77-2.36c0-.89.23-1.69.7-2.37.46-.69,1.08-1.23,1.85-1.63.77-.4,1.59-.59,2.47-.59,1.33,0,2.46.4,3.38,1.19.93.79,1.39,1.85,1.39,3.17,0,1-.45,1.9-1.34,2.71-.9.81-2.05,1.22-3.46,1.22-1.3,0-2.44-.34-3.44-1.02-1-.68-1.5-1.57-1.5-2.67h.91c0,.81.29,1.55.88,2.24.58.69,1.36,1.24,2.33,1.66.97.42,2.02.63,3.16.63s2.04-.36,2.76-1.07c.72-.71,1.33-1.72,1.84-3.02s.99-2.84,1.45-4.62l5.71-21.28h-2.95v-.86h11.9l-5.81,20.73c-.53,1.89-1.34,3.52-2.45,4.9-1.1,1.38-2.37,2.51-3.8,3.41-1.43.89-2.9,1.55-4.39,1.98-1.5.43-2.91.64-4.24.64ZM224.84,166.17c-1.5,0-2.76-.47-3.77-1.4s-1.51-2.08-1.51-3.46.5-2.55,1.51-3.46,2.26-1.37,3.77-1.37,2.78.46,3.77,1.37c.99.92,1.49,2.07,1.49,3.46s-.5,2.53-1.49,3.46c-.99.93-2.25,1.4-3.77,1.4Z"/>
    <path d="M236.75,190.33c-1.94,0-3.54-.33-4.8-.98-1.26-.65-2.21-1.51-2.83-2.58-.62-1.07-.94-2.23-.94-3.47,0-1.92.4-3.73,1.2-5.43.8-1.7,1.9-3.2,3.3-4.5,1.4-1.3,3.01-2.31,4.84-3.04s3.76-1.1,5.81-1.1c2.82,0,5.01.52,6.58,1.55,1.57,1.03,2.35,2.29,2.35,3.77,0,.94-.28,1.81-.84,2.62-.56.81-1.44,1.52-2.65,2.14-1.21.62-2.78,1.13-4.73,1.53-1.94.4-4.31.65-7.09.77v-.62c.9-.04,1.76-.37,2.59-.99.83-.62,1.59-1.38,2.28-2.29.69-.91,1.29-1.84,1.81-2.8.52-.96.92-1.82,1.2-2.59.28-.77.42-1.3.42-1.59,0-.21-.04-.37-.12-.49-.08-.12-.26-.19-.53-.19-.51,0-1.06.32-1.64.95-.58.63-1.17,1.47-1.76,2.51-.59,1.04-1.16,2.2-1.69,3.46-.54,1.27-1.02,2.55-1.44,3.86s-.76,2.53-1.01,3.68c-.25,1.15-.37,2.11-.37,2.89,0,.67.18,1.14.55,1.41.37.26.87.4,1.51.4.9,0,1.9-.22,3.01-.66,1.11-.44,2.23-1.07,3.36-1.9s2.16-1.81,3.11-2.96l.82.53c-.86.95-1.86,1.9-3,2.85-1.14.95-2.46,1.73-3.97,2.35-1.51.62-3.28.93-5.32.93Z"/>
    <path d="M252.73,189.89l5.5-19.37h-3.82v-.86h12.43l-5.52,20.23h-8.59ZM262.35,184.04c.3-1.19.67-2.45,1.1-3.8.43-1.35.95-2.67,1.55-3.97.6-1.3,1.28-2.48,2.04-3.54.76-1.06,1.61-1.91,2.56-2.54.94-.63,1.98-.95,3.12-.95,1.46,0,2.68.4,3.67,1.2.99.8,1.49,1.88,1.49,3.24,0,1.29-.46,2.37-1.39,3.24s-2.09,1.31-3.48,1.31c-1.31,0-2.42-.38-3.34-1.15s-1.37-1.75-1.37-2.96.46-2.25,1.38-3,2.05-1.13,3.4-1.13,2.47.31,3.38.93,1.37,1.54,1.37,2.76l-.94-.02c0-1.16-.39-2.04-1.18-2.66-.78-.62-1.82-.92-3.1-.92-.99,0-1.92.31-2.77.93-.86.62-1.64,1.45-2.36,2.47-.72,1.03-1.37,2.16-1.96,3.4s-1.1,2.48-1.54,3.73c-.44,1.25-.8,2.39-1.09,3.43h-.55Z"/>
    <path d="M0,242.65v-.86h17.52c1.47,0,2.81-.42,4.01-1.25,1.2-.84,2.28-1.96,3.23-3.36.95-1.41,1.77-2.98,2.46-4.71.69-1.73,1.26-3.5,1.72-5.3.46-1.8.8-3.52,1.02-5.14.22-1.63.34-3.03.34-4.22,0-1.01-.06-1.96-.17-2.84-.11-.88-.34-1.65-.67-2.32-.34-.67-.84-1.19-1.51-1.56-.67-.37-1.58-.56-2.71-.56H7.68v-.86h18.94c2.61,0,5.03.42,7.26,1.25s4.03,2.14,5.39,3.91c1.36,1.77,2.04,4.08,2.04,6.93,0,2.67-.52,5.25-1.56,7.74-1.04,2.49-2.52,4.73-4.45,6.71-1.93,1.98-4.23,3.55-6.91,4.7-2.68,1.16-5.66,1.74-8.94,1.74H0ZM4.32,242.65l8.14-32.98h10.34l-8.18,32.98H4.32Z"/>
    <path d="M50.78,243.09c-1.94,0-3.54-.33-4.8-.98-1.26-.65-2.21-1.51-2.83-2.58-.62-1.07-.94-2.23-.94-3.47,0-1.92.4-3.73,1.2-5.43.8-1.7,1.9-3.2,3.3-4.5,1.4-1.3,3.01-2.31,4.84-3.04,1.82-.73,3.76-1.1,5.81-1.1,2.82,0,5.01.52,6.58,1.55,1.57,1.03,2.35,2.29,2.35,3.77,0,.94-.28,1.81-.84,2.62-.56.81-1.44,1.52-2.65,2.14-1.21.62-2.78,1.13-4.73,1.53-1.94.4-4.31.65-7.09.77v-.62c.9-.04,1.76-.37,2.59-.99.83-.62,1.59-1.38,2.28-2.29.69-.91,1.29-1.84,1.81-2.8.52-.96.92-1.82,1.2-2.59.28-.77.42-1.3.42-1.59,0-.21-.04-.37-.12-.49s-.26-.19-.53-.19c-.51,0-1.06.32-1.64.95-.58.63-1.17,1.47-1.76,2.51-.59,1.04-1.16,2.2-1.69,3.46s-1.02,2.55-1.44,3.86-.76,2.53-1.01,3.68c-.25,1.15-.37,2.11-.37,2.89,0,.67.18,1.14.55,1.41.37.26.87.4,1.51.4.9,0,1.9-.22,3.01-.66,1.11-.44,2.23-1.07,3.36-1.9s2.16-1.81,3.11-2.96l.82.53c-.86.95-1.86,1.9-3,2.85-1.14.95-2.46,1.73-3.97,2.35-1.51.62-3.28.93-5.32.93Z"/>
    <path d="M76.63,243.09c-2.06,0-3.83-.24-5.3-.71-1.47-.48-2.6-1.14-3.38-1.99-.78-.85-1.18-1.82-1.18-2.9s.42-2.07,1.26-2.86c.84-.79,1.94-1.19,3.3-1.19,1.26,0,2.31.34,3.14,1.03.83.69,1.25,1.63,1.25,2.84s-.44,2.14-1.32,2.77c-.88.63-1.92.95-3.12.95-.82,0-1.56-.17-2.24-.52-.68-.34-1.22-.79-1.62-1.33-.4-.54-.6-1.11-.6-1.69h1.3c0,.94.34,1.76,1.03,2.46s1.6,1.25,2.75,1.64c1.14.39,2.4.58,3.76.58.82,0,1.54-.16,2.17-.47.63-.31,1.13-.73,1.5-1.24.37-.51.55-1.07.55-1.67,0-.75-.23-1.41-.7-1.99-.46-.58-1.06-1.11-1.8-1.59-.74-.48-1.52-.96-2.35-1.44-.83-.48-1.62-.97-2.35-1.49s-1.34-1.1-1.8-1.75c-.46-.64-.7-1.39-.7-2.24,0-1.16.41-2.23,1.22-3.21.82-.98,1.99-1.77,3.52-2.36,1.53-.59,3.36-.89,5.48-.89s3.95.26,5.23.77c1.28.51,2.19,1.15,2.74,1.92.54.77.82,1.54.82,2.3,0,1.11-.42,1.99-1.26,2.64-.84.65-1.78.97-2.82.97-1.18,0-2.26-.35-3.22-1.07-.96-.71-1.44-1.65-1.44-2.8,0-.95.38-1.76,1.14-2.41.76-.65,1.77-.98,3.04-.98s2.25.33,3.16,1c.9.67,1.36,1.55,1.36,2.65h-1.13c0-.66-.25-1.3-.76-1.92-.5-.62-1.24-1.13-2.2-1.53s-2.11-.59-3.46-.59c-.9,0-1.64.15-2.24.45-.6.3-1.05.68-1.36,1.14-.3.46-.46.94-.46,1.44,0,.76.25,1.44.76,2.03.5.59,1.15,1.14,1.94,1.64.79.5,1.63.99,2.52,1.47.89.48,1.73,1,2.52,1.56.79.56,1.44,1.19,1.94,1.89.5.7.76,1.52.76,2.46,0,1.23-.46,2.32-1.37,3.25-.91.94-2.22,1.67-3.91,2.2-1.7.53-3.72.79-6.07.79Z"/>
    <path d="M96.79,243.09c-1.84,0-3.16-.3-3.97-.91s-1.21-1.4-1.21-2.39c0-.56.06-1.06.17-1.51.11-.45.2-.79.26-1.02l4.01-13.98h-3.24v-.86h12.07l-5.11,17.61c-.03.12-.06.25-.1.38-.03.14-.05.27-.05.41,0,.15.04.26.11.34.07.08.19.12.35.12.27,0,.66-.14,1.16-.43.5-.29,1.11-.85,1.81-1.7.7-.85,1.47-2.1,2.3-3.76l.94.29c-.85,1.69-1.73,3.07-2.65,4.17-.92,1.09-1.94,1.91-3.05,2.44-1.11.53-2.38.8-3.8.8ZM102.5,218.93c-1.01,0-1.91-.23-2.7-.68-.79-.45-1.42-1.05-1.87-1.79s-.68-1.54-.68-2.39.23-1.64.68-2.37,1.08-1.33,1.87-1.78,1.69-.68,2.7-.68,1.91.23,2.71.68c.8.45,1.43,1.05,1.9,1.78s.7,1.52.7,2.37-.23,1.65-.7,2.39-1.1,1.34-1.9,1.79c-.8.45-1.7.68-2.71.68Z"/>
    <path d="M113.78,254.08c-1.97,0-3.77-.16-5.41-.47-1.64-.32-2.95-.82-3.92-1.53-.98-.7-1.46-1.64-1.46-2.81,0-.56.18-1.1.54-1.63.36-.53.9-1,1.61-1.41.71-.41,1.6-.74,2.65-.98,1.06-.24,2.28-.36,3.67-.36h.5c-.3.19-.65.48-1.03.88-.38.4-.71.88-.98,1.44-.27.56-.41,1.19-.41,1.88,0,1.33.54,2.32,1.62,2.97,1.08.64,2.68.97,4.81.97,1.12,0,2.27-.14,3.44-.41,1.18-.27,2.27-.65,3.28-1.12,1.01-.48,1.82-1.04,2.45-1.7.62-.66.94-1.37.94-2.13,0-.81-.24-1.41-.71-1.81-.47-.4-1.19-.6-2.15-.6h-9.12c-1.44,0-2.8-.19-4.07-.58-1.27-.39-2.3-.95-3.08-1.69-.78-.74-1.18-1.64-1.18-2.69,0-.95.33-1.77.98-2.45s1.51-1.24,2.57-1.68c1.06-.44,2.21-.77,3.47-.98,1.26-.21,2.48-.32,3.68-.32l-.05.48c-1.57,0-2.76.19-3.59.58-.82.39-1.24.79-1.24,1.22,0,.32.16.57.47.74s.76.28,1.36.33c.59.05,1.3.08,2.14.08.56,0,1.24,0,2.05-.01.81,0,1.6-.01,2.39-.02.78,0,1.4-.01,1.85-.01,2.16,0,3.92.52,5.28,1.55s2.04,2.61,2.04,4.72c0,1.6-.45,3-1.34,4.2-.9,1.2-2.09,2.2-3.58,3-1.49.8-3.14,1.4-4.96,1.79-1.82.4-3.65.59-5.51.59ZM119.01,235.62c-1.86,0-3.51-.24-4.97-.73-1.46-.48-2.6-1.17-3.44-2.07s-1.26-1.96-1.26-3.21c0-1.41.55-2.69,1.66-3.84,1.1-1.15,2.57-2.07,4.4-2.75s3.84-1.02,6.01-1.02c1.86,0,3.51.26,4.97.77,1.46.51,2.6,1.23,3.44,2.17.84.93,1.26,2.02,1.26,3.27,0,1.39-.55,2.65-1.66,3.77-1.1,1.12-2.57,2.01-4.39,2.66-1.82.65-3.83.98-6.02.98ZM118.41,234.74c.27,0,.59-.3.95-.91.36-.61.72-1.38,1.09-2.32.37-.94.7-1.92,1.01-2.95.3-1.03.55-1.97.74-2.84s.29-1.51.29-1.94c0-.25-.04-.46-.11-.65-.07-.18-.2-.27-.37-.27-.27,0-.59.3-.95.9-.36.6-.72,1.37-1.09,2.31-.37.94-.7,1.92-1.01,2.95-.3,1.03-.55,1.97-.74,2.84-.19.86-.29,1.51-.29,1.93,0,.25.04.47.12.66.08.19.2.29.36.29ZM134.37,222.21c1.42,0,2.61.41,3.55,1.22.94.81,1.42,1.81,1.42,2.98,0,1.04-.33,1.92-.98,2.65-.66.73-1.58,1.09-2.78,1.09-1.02,0-1.88-.31-2.57-.95s-1.03-1.44-1.03-2.44c0-.91.36-1.64,1.09-2.19.73-.55,1.56-.84,2.51-.87.35.02.68.11,1,.3.31.18.52.44.61.76-.18-.48-.54-.89-1.09-1.22-.55-.33-1.18-.49-1.88-.49-.83,0-1.62.15-2.36.46-.74.31-1.44.78-2.08,1.43-.64.65-1.23,1.47-1.78,2.46l-.67-.33c.85-1.63,1.85-2.84,3-3.65,1.15-.81,2.5-1.21,4.06-1.21Z"/>
    <path d="M137.54,242.65l5.66-19.37h-3.19v-.86h12.17l-6.02,20.23h-8.62ZM156.67,243.09c-1.68,0-2.92-.38-3.72-1.15-.8-.77-1.2-1.73-1.2-2.89,0-.34.05-.73.14-1.19.1-.45.2-.86.31-1.23l2.45-7.96c.35-1.14.58-2.01.68-2.6.1-.59.12-1,.06-1.21-.06-.21-.18-.32-.36-.32-.3,0-.74.3-1.32.89-.58.59-1.21,1.43-1.91,2.52-.7,1.08-1.39,2.38-2.08,3.88-.69,1.5-1.3,3.16-1.85,4.98h-.6c.38-1.33.85-2.7,1.39-4.09.54-1.39,1.16-2.73,1.85-4,.69-1.27,1.45-2.42,2.29-3.43.84-1.01,1.75-1.81,2.74-2.4.98-.59,2.04-.88,3.16-.88,1.31,0,2.39.27,3.23.82s1.4,1.32,1.67,2.31c.27.99.2,2.14-.22,3.46l-3.41,10.84c-.03.1-.07.25-.11.43-.04.18-.06.33-.06.45,0,.25.04.42.12.52.08.1.2.14.36.14.61,0,1.38-.46,2.3-1.37.93-.92,1.86-2.32,2.81-4.21l.91.29c-.88,1.85-1.82,3.31-2.82,4.4-1,1.08-2.06,1.86-3.19,2.32-1.13.46-2.34.69-3.64.69Z"/>
    <path d="M175.92,242.65v-.86h17.52c2.19,0,4.18-.37,5.98-1.1,1.79-.73,3.38-1.77,4.75-3.12,1.38-1.35,2.54-2.95,3.48-4.81h.94l-2.5,9.89h-30.17ZM180,242.65l8.35-32.98h10.32l-8.35,32.98h-10.32ZM210.72,218.69c-.08-1.57-.47-2.97-1.16-4.2-.7-1.23-1.69-2.2-2.99-2.9-1.3-.7-2.88-1.06-4.75-1.06h-17.78v-.86h29.93l-2.3,9.01h-.94ZM200.69,231.75c-.24-.98-.59-1.91-1.06-2.78-.46-.87-1.04-1.58-1.73-2.12-.69-.54-1.49-.81-2.4-.81h-2.93v-.86h2.93c.91,0,1.87-.26,2.87-.77,1-.51,1.97-1.19,2.9-2.02s1.76-1.74,2.48-2.73h.94l-3.07,12.09h-.94Z"/>
    <path d="M208.29,254.08c-1.73,0-3.21-.25-4.45-.75-1.24-.5-2.2-1.15-2.87-1.97-.67-.81-1.01-1.69-1.01-2.63,0-1.35.5-2.45,1.5-3.31,1-.86,2.13-1.29,3.4-1.29,1.44,0,2.62.42,3.53,1.26.91.84,1.37,1.88,1.37,3.11,0,.82-.24,1.56-.73,2.23-.49.67-1.11,1.2-1.87,1.59-.76.4-1.56.59-2.39.59s-1.56-.23-2.29-.68c-.73-.45-1.32-1.01-1.78-1.66-.46-.65-.68-1.27-.68-1.86h.91c0,.76.26,1.48.78,2.14.52.67,1.24,1.2,2.16,1.6.92.4,1.96.6,3.13.6s2.15-.34,2.84-1.02,1.24-1.62,1.63-2.8c.39-1.19.74-2.54,1.06-4.07.31-1.52.68-3.13,1.12-4.81l5.04-20.23c.48-1.88,1.08-3.5,1.81-4.87.73-1.37,1.61-2.5,2.64-3.4,1.03-.89,2.25-1.56,3.66-2,1.41-.44,3.04-.66,4.9-.66,1.74,0,3.24.25,4.48.75,1.24.5,2.19,1.15,2.86,1.96.66.81,1,1.69,1,2.64,0,1.29-.48,2.38-1.45,3.26-.97.89-2.12,1.33-3.44,1.33s-2.46-.42-3.43-1.25c-.98-.84-1.46-1.88-1.46-3.12,0-.85.24-1.6.72-2.26.48-.66,1.11-1.18,1.88-1.57.78-.39,1.6-.58,2.46-.58.56,0,1.11.13,1.66.4.54.26,1.05.61,1.51,1.03.46.43.83.88,1.1,1.37.27.49.41.96.41,1.4h-.91c0-.78-.26-1.5-.78-2.15-.52-.66-1.24-1.19-2.15-1.59-.91-.4-1.96-.6-3.14-.6s-2.14.34-2.81,1.02c-.67.68-1.2,1.62-1.57,2.8-.38,1.19-.71,2.54-1,4.07s-.65,3.13-1.08,4.81l-5.04,20.23c-.46,1.86-1.06,3.48-1.8,4.86-.74,1.38-1.63,2.51-2.69,3.41s-2.3,1.56-3.74,2c-1.44.44-3.1.66-4.97.66ZM213.53,223.28v-.86h19.46v.86h-19.46Z"/>
    <path d="M239.52,243.09c-1.47,0-2.62-.17-3.46-.51s-1.42-.77-1.76-1.3c-.34-.53-.52-1.08-.52-1.65,0-.45.08-.95.25-1.47.17-.53.31-1.01.42-1.45l5.3-18.69h8.64l-6.26,21.59c-.05.16-.1.34-.14.53-.05.19-.07.39-.07.59,0,.45.19.68.58.68.19,0,.47-.08.84-.23s.79-.44,1.27-.87c.48-.42,1-1.05,1.57-1.87.57-.82,1.16-1.9,1.79-3.23l.94.26c-.85,1.76-1.69,3.2-2.53,4.32-.84,1.12-1.8,1.95-2.88,2.48-1.08.53-2.4.8-3.97.8ZM233.88,223.31v-.88h17.76v.88h-17.76Z"/>
    <path d="M259.72,243.09c-1.94,0-3.54-.33-4.8-.98-1.26-.65-2.21-1.51-2.83-2.58-.62-1.07-.94-2.23-.94-3.47,0-1.92.4-3.73,1.2-5.43.8-1.7,1.9-3.2,3.3-4.5,1.4-1.3,3.01-2.31,4.84-3.04s3.76-1.1,5.81-1.1c2.82,0,5.01.52,6.58,1.55,1.57,1.03,2.35,2.29,2.35,3.77,0,.94-.28,1.81-.84,2.62-.56.81-1.44,1.52-2.65,2.14-1.21.62-2.78,1.13-4.73,1.53-1.94.4-4.31.65-7.09.77v-.62c.9-.04,1.76-.37,2.59-.99.83-.62,1.59-1.38,2.28-2.29.69-.91,1.29-1.84,1.81-2.8.52-.96.92-1.82,1.2-2.59.28-.77.42-1.3.42-1.59,0-.21-.04-.37-.12-.49-.08-.12-.26-.19-.53-.19-.51,0-1.06.32-1.64.95-.58.63-1.17,1.47-1.76,2.51-.59,1.04-1.16,2.2-1.69,3.46-.54,1.27-1.02,2.55-1.44,3.86s-.76,2.53-1.01,3.68c-.25,1.15-.37,2.11-.37,2.89,0,.67.18,1.14.55,1.41.37.26.87.4,1.51.4.9,0,1.9-.22,3.01-.66,1.11-.44,2.23-1.07,3.36-1.9s2.16-1.81,3.11-2.96l.82.53c-.86.95-1.86,1.9-3,2.85-1.14.95-2.46,1.73-3.97,2.35-1.51.62-3.28.93-5.32.93Z"/>
    <path d="M275.71,242.65l5.5-19.37h-3.82v-.86h12.43l-5.52,20.23h-8.59ZM285.33,236.8c.3-1.19.67-2.45,1.1-3.8.43-1.35.95-2.67,1.55-3.97.6-1.3,1.28-2.48,2.04-3.54.76-1.06,1.61-1.91,2.56-2.54.94-.63,1.98-.95,3.12-.95,1.46,0,2.68.4,3.67,1.2.99.8,1.49,1.88,1.49,3.24,0,1.29-.46,2.37-1.39,3.24s-2.09,1.31-3.48,1.31c-1.31,0-2.42-.38-3.34-1.15s-1.37-1.75-1.37-2.96.46-2.25,1.38-3,2.05-1.13,3.4-1.13,2.47.31,3.38.93,1.37,1.54,1.37,2.76l-.94-.02c0-1.16-.39-2.04-1.18-2.66-.78-.62-1.82-.92-3.1-.92-.99,0-1.92.31-2.77.93-.86.62-1.64,1.45-2.36,2.47-.72,1.03-1.37,2.16-1.96,3.4s-1.1,2.48-1.54,3.73c-.44,1.25-.8,2.39-1.09,3.43h-.55Z"/>
    <path d="M309.52,243.09c-2.06,0-3.83-.24-5.3-.71-1.47-.48-2.6-1.14-3.38-1.99-.78-.85-1.18-1.82-1.18-2.9s.42-2.07,1.26-2.86,1.94-1.19,3.3-1.19c1.26,0,2.31.34,3.14,1.03s1.25,1.63,1.25,2.84-.44,2.14-1.32,2.77c-.88.63-1.92.95-3.12.95-.82,0-1.56-.17-2.24-.52-.68-.34-1.22-.79-1.62-1.33-.4-.54-.6-1.11-.6-1.69h1.3c0,.94.34,1.76,1.03,2.46.69.7,1.6,1.25,2.75,1.64,1.14.39,2.4.58,3.76.58.82,0,1.54-.16,2.17-.47.63-.31,1.13-.73,1.5-1.24.37-.51.55-1.07.55-1.67,0-.75-.23-1.41-.7-1.99-.46-.58-1.06-1.11-1.8-1.59-.74-.48-1.52-.96-2.35-1.44-.83-.48-1.62-.97-2.35-1.49-.74-.52-1.34-1.1-1.8-1.75-.46-.64-.7-1.39-.7-2.24,0-1.16.41-2.23,1.22-3.21.82-.98,1.99-1.77,3.52-2.36,1.53-.59,3.36-.89,5.48-.89s3.95.26,5.23.77c1.28.51,2.19,1.15,2.74,1.92s.82,1.54.82,2.3c0,1.11-.42,1.99-1.26,2.64s-1.78.97-2.82.97c-1.18,0-2.26-.35-3.22-1.07-.96-.71-1.44-1.65-1.44-2.8,0-.95.38-1.76,1.14-2.41.76-.65,1.77-.98,3.04-.98,1.2,0,2.25.33,3.16,1,.9.67,1.36,1.55,1.36,2.65h-1.13c0-.66-.25-1.3-.76-1.92-.5-.62-1.24-1.13-2.2-1.53s-2.11-.59-3.46-.59c-.9,0-1.64.15-2.24.45-.6.3-1.05.68-1.36,1.14-.3.46-.46.94-.46,1.44,0,.76.25,1.44.76,2.03.5.59,1.15,1.14,1.94,1.64.79.5,1.63.99,2.52,1.47.89.48,1.73,1,2.52,1.56.79.56,1.44,1.19,1.94,1.89.5.7.76,1.52.76,2.46,0,1.23-.46,2.32-1.37,3.25s-2.22,1.67-3.91,2.2c-1.7.53-3.72.79-6.07.79Z"/>
    <path d="M323.04,242.65l9.41-32.12h-4.37v-.86h13.32l-9.89,32.98h-8.47ZM340.22,243.09c-1.12,0-2.11-.22-2.96-.66-.86-.44-1.28-1.15-1.28-2.13,0-.38.06-.8.18-1.25.12-.45.24-.86.37-1.23l.7-1.96c.27-.67.52-1.34.73-2s.36-1.26.43-1.8c.07-.54.02-.97-.16-1.3-.18-.32-.53-.48-1.06-.48-.46,0-.89.18-1.28.54-.39.36-.74.84-1.06,1.45-.31.61-.59,1.29-.83,2.03h-.55c.34-1.17.72-2.11,1.15-2.82.43-.71.94-1.22,1.52-1.54.58-.31,1.25-.47,2-.47.96,0,1.92.18,2.88.55s1.8.88,2.53,1.54c.73.66,1.24,1.44,1.55,2.35.3.91.27,1.91-.1,2.99l-.94,2.79c-.02.07-.03.16-.05.26-.02.1-.02.18-.02.22,0,.23.14.35.41.35.16,0,.41-.12.74-.35.34-.23.76-.72,1.26-1.45s1.08-1.84,1.74-3.32l.91.29c-1.09,2.52-2.33,4.39-3.73,5.6-1.4,1.21-3.1,1.81-5.1,1.81ZM335.42,232.89c-.22,0-.41-.03-.56-.08-.15-.05-.32-.14-.49-.27l.34-.83c.13.15.24.24.35.29.1.04.23.07.37.07.42,0,.79-.25,1.12-.74s.66-1.13,1-1.91c.34-.78.71-1.61,1.13-2.47.72-1.5,1.59-2.69,2.6-3.58,1.02-.89,2.4-1.34,4.14-1.34,1.04,0,1.94.21,2.71.63.77.42,1.36.95,1.79,1.59s.64,1.31.64,2c0,1.2-.44,2.2-1.32,2.98-.88.78-1.98,1.18-3.31,1.18s-2.48-.38-3.3-1.13c-.82-.75-1.24-1.77-1.24-3.04,0-1.13.41-2.08,1.22-2.87.82-.78,1.86-1.18,3.12-1.18.7,0,1.42.17,2.16.52s1.36.82,1.86,1.43c.5.61.76,1.32.76,2.12h-.91c0-.56-.18-1.1-.53-1.62-.35-.52-.84-.95-1.48-1.29-.63-.34-1.37-.51-2.22-.51-1.39,0-2.54.36-3.43,1.09-.9.73-1.67,1.78-2.33,3.18-.45.92-.87,1.83-1.26,2.73-.39.89-.82,1.63-1.27,2.21-.46.58-1,.87-1.64.87Z"/>
    <path d="M361.03,243.09c-2.78,0-4.99-.53-6.61-1.58-1.62-1.06-2.44-2.79-2.44-5.21,0-1.76.42-3.49,1.26-5.19s1.99-3.24,3.44-4.61c1.46-1.37,3.13-2.47,5.03-3.29,1.9-.82,3.9-1.23,6.01-1.23,2.78,0,5.03.57,6.73,1.7,1.7,1.14,2.56,2.91,2.56,5.33,0,1.7-.4,3.38-1.2,5.05s-1.92,3.18-3.36,4.54c-1.44,1.36-3.13,2.45-5.08,3.27-1.94.81-4.06,1.22-6.35,1.22ZM361.03,242.24c.43,0,.91-.32,1.44-.96.53-.64,1.07-1.49,1.62-2.56.55-1.07,1.09-2.26,1.61-3.56.52-1.3.98-2.63,1.39-3.99.41-1.36.73-2.65.97-3.87.24-1.22.36-2.27.36-3.13,0-.42-.05-.75-.14-.98-.1-.23-.28-.34-.55-.34-.43,0-.91.32-1.44.96-.53.64-1.07,1.49-1.62,2.56-.55,1.07-1.09,2.26-1.61,3.56-.52,1.3-.98,2.63-1.39,3.99-.41,1.36-.73,2.64-.97,3.86-.24,1.22-.36,2.26-.36,3.14,0,.41.05.73.16.97.1.23.28.35.54.35Z"/>
    <path d="M384.21,243.09c-1.84,0-3.16-.3-3.96-.91-.8-.61-1.2-1.4-1.2-2.39,0-.53.05-1.01.16-1.45.1-.44.2-.79.28-1.06l7.85-26.76h-3.77v-.86h12.62l-8.98,30.36c-.03.12-.06.24-.1.36-.03.12-.05.24-.05.34,0,.37.15.55.46.55.27,0,.66-.14,1.16-.43.5-.29,1.11-.85,1.81-1.7.7-.85,1.48-2.1,2.33-3.76l.91.29c-.85,1.69-1.73,3.07-2.65,4.17-.92,1.09-1.94,1.91-3.05,2.44-1.11.53-2.39.8-3.83.8Z"/>
    <path d="M403.27,243.09c-1.94,0-3.54-.33-4.8-.98-1.26-.65-2.21-1.51-2.83-2.58-.62-1.07-.94-2.23-.94-3.47,0-1.92.4-3.73,1.2-5.43.8-1.7,1.9-3.2,3.3-4.5,1.4-1.3,3.01-2.31,4.84-3.04s3.76-1.1,5.81-1.1c2.82,0,5.01.52,6.58,1.55,1.57,1.03,2.35,2.29,2.35,3.77,0,.94-.28,1.81-.84,2.62-.56.81-1.44,1.52-2.65,2.14-1.21.62-2.78,1.13-4.73,1.53-1.94.4-4.31.65-7.09.77v-.62c.9-.04,1.76-.37,2.59-.99.83-.62,1.59-1.38,2.28-2.29.69-.91,1.29-1.84,1.81-2.8.52-.96.92-1.82,1.2-2.59.28-.77.42-1.3.42-1.59,0-.21-.04-.37-.12-.49-.08-.12-.26-.19-.53-.19-.51,0-1.06.32-1.64.95-.58.63-1.17,1.47-1.76,2.51-.59,1.04-1.16,2.2-1.69,3.46-.54,1.27-1.02,2.55-1.44,3.86s-.76,2.53-1.01,3.68c-.25,1.15-.37,2.11-.37,2.89,0,.67.18,1.14.55,1.41.37.26.87.4,1.51.4.9,0,1.9-.22,3.01-.66,1.11-.44,2.23-1.07,3.36-1.9s2.16-1.81,3.11-2.96l.82.53c-.86.95-1.86,1.9-3,2.85-1.14.95-2.46,1.73-3.97,2.35-1.51.62-3.28.93-5.32.93Z"/>
  </g>
  <g>
    <path d="M544.05,317.91l2.78-11.65h.94l.86,3.45c.48,1.14.98,2.17,1.5,3.09.52.92,1.11,1.76,1.76,2.52l-7.03,2.59h-.82ZM559.02,318.11c-1.87,0-3.49-.36-4.86-1.09-1.37-.73-2.53-1.68-3.49-2.86s-1.75-2.46-2.36-3.85c-.62-1.38-1.11-2.74-1.48-4.06h.94c.34,1.11.78,2.3,1.32,3.56.54,1.26,1.23,2.44,2.06,3.55.83,1.11,1.85,2.01,3.06,2.7,1.21.7,2.64,1.04,4.31,1.04,1.54,0,2.84-.24,3.91-.71,1.07-.48,1.89-1.14,2.45-1.98.56-.84.84-1.81.84-2.89s-.27-2.06-.82-2.8-1.27-1.37-2.17-1.88c-.9-.51-1.89-.98-2.96-1.41-1.07-.42-2.14-.88-3.22-1.37-1.07-.49-2.06-1.09-2.96-1.79-.9-.7-1.63-1.58-2.17-2.64-.54-1.06-.82-2.37-.82-3.94,0-1.88.42-3.54,1.25-4.98.83-1.44,1.92-2.66,3.28-3.65s2.84-1.74,4.45-2.25c1.62-.51,3.21-.77,4.78-.77,2.05,0,3.8.5,5.24,1.5,1.45,1,2.64,2.32,3.58,3.96.94,1.64,1.64,3.42,2.12,5.34h-.94c-.5-1.76-1.15-3.38-1.96-4.87-.81-1.49-1.83-2.68-3.06-3.58-1.23-.9-2.73-1.35-4.49-1.35-1.06,0-2.05.18-2.98.55-.93.37-1.68.88-2.26,1.55-.58.67-.86,1.47-.86,2.41,0,.88.28,1.63.83,2.26.55.63,1.28,1.19,2.2,1.68.91.49,1.92.98,3.01,1.45,1.1.48,2.19,1,3.29,1.56,1.1.56,2.1,1.23,3.01,1.99.91.76,1.64,1.68,2.2,2.76.55,1.08.83,2.37.83,3.88s-.38,3.07-1.13,4.61-1.81,2.93-3.17,4.19c-1.36,1.26-2.96,2.27-4.8,3.03-1.84.76-3.84,1.14-6,1.14ZM574.36,294.85l-.6-2.75c-.43-.98-.88-1.91-1.34-2.78-.46-.87-1.1-1.83-1.92-2.87l6.72-2.4h.82l-2.74,10.79h-.94Z"/>
    <path d="M585.92,317.91c-2.78,0-4.99-.53-6.61-1.58-1.62-1.06-2.44-2.79-2.44-5.21,0-1.76.42-3.49,1.26-5.19.84-1.7,1.99-3.24,3.44-4.61,1.46-1.37,3.13-2.47,5.03-3.29s3.9-1.23,6.01-1.23c2.78,0,5.03.57,6.73,1.7,1.7,1.14,2.56,2.91,2.56,5.33,0,1.7-.4,3.38-1.2,5.05s-1.92,3.18-3.36,4.54c-1.44,1.36-3.13,2.45-5.08,3.27-1.94.81-4.06,1.22-6.35,1.22ZM585.92,317.05c.43,0,.91-.32,1.44-.96.53-.64,1.07-1.49,1.62-2.56.55-1.07,1.09-2.26,1.61-3.56.52-1.3.98-2.63,1.39-3.99.41-1.36.73-2.65.97-3.87.24-1.22.36-2.27.36-3.13,0-.42-.05-.75-.14-.98-.1-.23-.28-.34-.55-.34-.43,0-.91.32-1.44.96-.53.64-1.07,1.49-1.62,2.56-.55,1.07-1.09,2.26-1.61,3.56-.52,1.3-.98,2.63-1.39,3.99-.41,1.36-.73,2.64-.97,3.86-.24,1.22-.36,2.26-.36,3.14,0,.41.05.73.16.97.1.23.28.35.54.35Z"/>
    <path d="M602.99,317.47l5.5-19.37h-3.82v-.86h12.43l-5.52,20.23h-8.59ZM612.61,311.62c.3-1.19.67-2.45,1.1-3.8.43-1.35.95-2.67,1.55-3.97.6-1.3,1.28-2.48,2.04-3.54.76-1.06,1.61-1.91,2.56-2.54.94-.63,1.98-.95,3.12-.95,1.46,0,2.68.4,3.67,1.2.99.8,1.49,1.88,1.49,3.24,0,1.29-.46,2.37-1.39,3.24s-2.09,1.31-3.48,1.31c-1.31,0-2.42-.38-3.34-1.15s-1.37-1.75-1.37-2.96.46-2.25,1.38-3,2.05-1.13,3.4-1.13,2.47.31,3.38.93,1.37,1.54,1.37,2.76l-.94-.02c0-1.16-.39-2.04-1.18-2.66-.78-.62-1.82-.92-3.1-.92-.99,0-1.92.31-2.77.93-.86.62-1.64,1.45-2.36,2.47-.72,1.03-1.37,2.16-1.96,3.4s-1.1,2.48-1.54,3.73c-.44,1.25-.8,2.39-1.09,3.43h-.55Z"/>
    <path d="M623.92,322.88l30-30.87h1.22l-29.98,30.87h-1.25ZM636.95,317.91c-2.78,0-4.99-.53-6.61-1.58-1.62-1.06-2.44-2.79-2.44-5.21,0-1.76.42-3.49,1.26-5.19s1.99-3.24,3.44-4.61c1.46-1.37,3.13-2.47,5.03-3.29,1.9-.82,3.9-1.23,6.01-1.23,2.78,0,5.03.57,6.73,1.7,1.7,1.14,2.56,2.91,2.56,5.33,0,1.7-.4,3.38-1.2,5.05s-1.92,3.18-3.36,4.54c-1.44,1.36-3.13,2.45-5.08,3.27-1.94.81-4.06,1.22-6.35,1.22ZM636.95,317.05c.43,0,.91-.32,1.44-.96.53-.64,1.07-1.49,1.62-2.56.55-1.07,1.09-2.26,1.61-3.56.52-1.3.98-2.63,1.39-3.99.41-1.36.73-2.65.97-3.87.24-1.22.36-2.27.36-3.13,0-.42-.05-.75-.14-.98-.1-.23-.28-.34-.55-.34-.43,0-.91.32-1.44.96-.53.64-1.07,1.49-1.62,2.56-.55,1.07-1.09,2.26-1.61,3.56-.52,1.3-.98,2.63-1.39,3.99-.41,1.36-.73,2.64-.97,3.86-.24,1.22-.36,2.26-.36,3.14,0,.41.05.73.16.97.1.23.28.35.54.35Z"/>
    <path d="M415.69,370.23v-.86h10.56v.86h-10.56ZM419.29,370.23l21.17-33.61h5.71l4.54,33.61h-10.78l-2.95-26.38-16.61,26.38h-1.08ZM426.88,359.9v-.86h15.7v.86h-15.7ZM434.41,370.23v-.86h19.68v.86h-19.68Z"/>
    <path d="M457.43,370.23l9.41-32.12h-4.37v-.86h13.32l-9.89,32.98h-8.47ZM474.61,370.67c-1.12,0-2.11-.22-2.96-.66-.86-.44-1.28-1.15-1.28-2.13,0-.38.06-.8.18-1.25.12-.45.24-.86.37-1.23l.7-1.96c.27-.67.52-1.34.73-2s.36-1.26.43-1.8c.07-.54.02-.97-.16-1.3-.18-.32-.53-.48-1.06-.48-.46,0-.89.18-1.28.54-.39.36-.74.84-1.06,1.45s-.59,1.29-.83,2.03h-.55c.34-1.17.72-2.11,1.15-2.82.43-.71.94-1.22,1.52-1.54.58-.31,1.25-.47,2-.47.96,0,1.92.18,2.88.55s1.8.88,2.53,1.54c.73.66,1.24,1.44,1.55,2.35.3.91.27,1.91-.1,2.99l-.94,2.79c-.02.07-.03.16-.05.26-.02.1-.02.18-.02.22,0,.23.14.35.41.35.16,0,.41-.12.74-.35.34-.23.76-.72,1.26-1.45.5-.73,1.08-1.84,1.74-3.32l.91.29c-1.09,2.52-2.33,4.39-3.73,5.6-1.4,1.21-3.1,1.81-5.1,1.81ZM469.81,360.47c-.22,0-.41-.03-.56-.08-.15-.05-.32-.14-.49-.27l.34-.83c.13.15.24.24.35.29.1.04.23.07.37.07.42,0,.79-.25,1.12-.74.33-.49.66-1.13,1-1.91.34-.78.71-1.61,1.13-2.47.72-1.5,1.59-2.69,2.6-3.58,1.02-.89,2.4-1.34,4.14-1.34,1.04,0,1.94.21,2.71.63.77.42,1.36.95,1.79,1.59.42.65.64,1.31.64,2,0,1.2-.44,2.2-1.32,2.98-.88.78-1.98,1.18-3.31,1.18s-2.48-.38-3.3-1.13c-.82-.75-1.24-1.77-1.24-3.04,0-1.13.41-2.08,1.22-2.87.82-.78,1.86-1.18,3.12-1.18.7,0,1.42.17,2.16.52s1.36.82,1.86,1.43c.5.61.76,1.32.76,2.12h-.91c0-.56-.18-1.1-.53-1.62-.35-.52-.84-.95-1.48-1.29-.63-.34-1.37-.51-2.22-.51-1.39,0-2.54.36-3.43,1.09-.9.73-1.67,1.78-2.33,3.18-.45.92-.87,1.83-1.26,2.73-.39.89-.82,1.63-1.27,2.21-.46.58-1,.87-1.64.87Z"/>
    <path d="M492.71,370.67c-2.32,0-3.98-.66-4.97-1.97-.99-1.31-1.49-3.04-1.49-5.18,0-1.69.34-3.35,1.02-5s1.6-3.15,2.76-4.5c1.16-1.35,2.46-2.43,3.91-3.24,1.45-.81,2.94-1.22,4.48-1.22.82,0,1.54.17,2.18.51.64.34,1.14.85,1.51,1.54.37.69.55,1.57.55,2.64,0,.45-.08,1.17-.24,2.15-.16.98-.41,2.09-.76,3.33-.34,1.24-.78,2.5-1.31,3.77-.53,1.28-1.16,2.46-1.9,3.54-.74,1.08-1.58,1.96-2.54,2.63-.96.67-2.03,1-3.22,1ZM496.14,368.1c.4,0,.86-.33,1.37-.99.51-.66,1.02-1.53,1.54-2.6s.99-2.25,1.43-3.52c.44-1.27.79-2.52,1.06-3.76.26-1.24.4-2.34.4-3.31,0-.37-.04-.68-.12-.95-.08-.26-.19-.46-.32-.6-.14-.14-.31-.21-.52-.21-.43,0-.91.34-1.43,1.01-.52.67-1.04,1.56-1.56,2.65-.52,1.09-1,2.28-1.43,3.55-.43,1.27-.78,2.52-1.04,3.75-.26,1.22-.4,2.3-.4,3.22,0,.5.08.92.25,1.25.17.34.43.51.78.51ZM504.71,370.67c-1.84,0-3.18-.34-4.01-1.02-.83-.68-1.25-1.65-1.25-2.91,0-.31.01-.57.04-.79.02-.22.05-.4.08-.55l.77-3.25,1.25-3.58.65-3.56,1.32-4.99h8.86l-5.16,17.79c-.06.22-.1.43-.1.64,0,.12.04.22.12.31s.2.13.36.13c.27,0,.66-.14,1.16-.43.5-.29,1.1-.85,1.8-1.7.7-.85,1.47-2.1,2.32-3.76l.94.29c-.85,1.69-1.73,3.07-2.65,4.17-.92,1.09-1.91,1.91-2.96,2.44-1.06.53-2.23.8-3.53.8Z"/>
    <path d="M521.17,370.67c-2.32,0-3.98-.66-4.98-1.97s-1.5-3.04-1.5-5.18c0-1.69.34-3.35,1.02-5s1.6-3.15,2.76-4.5c1.16-1.35,2.46-2.43,3.91-3.24,1.45-.81,2.94-1.22,4.48-1.22.82,0,1.54.17,2.18.51.64.34,1.14.85,1.51,1.54.37.69.55,1.57.55,2.64,0,.44-.08,1.14-.24,2.11-.16.97-.41,2.07-.76,3.31-.34,1.24-.78,2.5-1.31,3.78-.53,1.28-1.16,2.47-1.9,3.56-.74,1.09-1.58,1.98-2.53,2.65-.95.67-2.02,1.01-3.2,1.01ZM524.58,368.1c.4,0,.86-.33,1.37-.99.51-.66,1.02-1.53,1.54-2.62.51-1.08.99-2.26,1.43-3.53.44-1.27.79-2.52,1.06-3.76.26-1.24.4-2.34.4-3.31,0-.37-.04-.68-.12-.93-.08-.26-.19-.45-.32-.59-.14-.14-.31-.21-.52-.21-.43,0-.91.34-1.43,1.01-.52.67-1.04,1.56-1.56,2.65-.52,1.09-1,2.28-1.43,3.55-.43,1.27-.78,2.52-1.04,3.75-.26,1.22-.4,2.3-.4,3.22,0,.5.08.92.25,1.25.17.34.43.51.78.51ZM533.15,370.67c-1.81,0-3.14-.34-3.98-1.02-.85-.68-1.27-1.65-1.27-2.91,0-.22,0-.45.02-.68.02-.23.05-.45.1-.66l.77-3.25,1.51-3.58.14-2.66,5.23-17.79h-3.62v-.86h12.5l-8.86,30.54c-.06.23-.1.45-.1.64,0,.12.04.22.12.31s.2.13.36.13c.29,0,.68-.14,1.18-.43.5-.29,1.09-.85,1.79-1.7.7-.85,1.47-2.1,2.32-3.76l.94.29c-.85,1.69-1.73,3.07-2.64,4.17-.91,1.09-1.9,1.91-2.95,2.44-1.06.53-2.24.8-3.55.8Z"/>
    <path d="M552.83,370.67c-1.94,0-3.54-.33-4.8-.98-1.26-.65-2.21-1.51-2.83-2.58-.62-1.07-.94-2.23-.94-3.47,0-1.92.4-3.73,1.2-5.43.8-1.7,1.9-3.2,3.3-4.5,1.4-1.3,3.01-2.31,4.84-3.04,1.82-.73,3.76-1.1,5.81-1.1,2.82,0,5.01.52,6.58,1.55,1.57,1.03,2.35,2.29,2.35,3.77,0,.94-.28,1.81-.84,2.62-.56.81-1.44,1.52-2.65,2.14-1.21.62-2.78,1.13-4.73,1.53-1.94.4-4.31.65-7.09.77v-.62c.9-.04,1.76-.37,2.59-.99.83-.62,1.59-1.38,2.28-2.29.69-.91,1.29-1.84,1.81-2.8.52-.96.92-1.82,1.2-2.59.28-.77.42-1.3.42-1.59,0-.21-.04-.37-.12-.49s-.26-.19-.53-.19c-.51,0-1.06.32-1.64.95-.58.63-1.17,1.47-1.76,2.51-.59,1.04-1.16,2.2-1.69,3.46s-1.02,2.55-1.44,3.86-.76,2.53-1.01,3.68c-.25,1.15-.37,2.11-.37,2.89,0,.67.18,1.14.55,1.41.37.26.87.4,1.51.4.9,0,1.9-.22,3.01-.66,1.11-.44,2.23-1.07,3.36-1.9s2.16-1.81,3.11-2.96l.82.53c-.86.95-1.86,1.9-3,2.85-1.14.95-2.46,1.73-3.97,2.35-1.51.62-3.28.93-5.32.93Z"/>
    <path d="M568.81,370.23l5.66-19.37h-3.14v-.86h12l-5.88,20.23h-8.64ZM581.53,370.23l3.96-13.54c.46-1.74.79-2.95.97-3.63.18-.67.12-1.01-.18-1.01-.27,0-.7.32-1.28.97-.58.65-1.24,1.54-1.96,2.67-.72,1.14-1.43,2.45-2.12,3.94-.7,1.49-1.29,3.07-1.79,4.76h-.46c.5-1.66,1.1-3.35,1.82-5.08s1.55-3.33,2.5-4.79c.94-1.47,2-2.65,3.18-3.56,1.18-.91,2.46-1.36,3.85-1.36,1.31,0,2.34.3,3.07.91.74.61,1.2,1.41,1.39,2.41.19,1,.12,2.09-.22,3.28l-4.13,14.05h-8.62ZM600.42,370.67c-1.84,0-3.18-.38-4.01-1.15s-1.25-1.73-1.25-2.89c0-.32.05-.71.14-1.18.1-.46.2-.88.31-1.24l2.4-7.52c.54-1.71.88-2.89,1.02-3.54s.06-.97-.23-.97c-.27,0-.69.32-1.26.95-.57.63-1.2,1.51-1.88,2.63-.69,1.12-1.37,2.42-2.04,3.89-.67,1.47-1.26,3.05-1.78,4.74h-.46c.51-1.69,1.11-3.4,1.79-5.13.68-1.74,1.48-3.33,2.4-4.79.92-1.46,1.98-2.63,3.18-3.53s2.57-1.34,4.1-1.34c1.44,0,2.5.3,3.19.91.69.61,1.08,1.41,1.18,2.41.1,1-.05,2.09-.43,3.28l-3.55,11.26c-.06.18-.12.38-.17.6-.05.23-.07.42-.07.58,0,.1.03.19.08.26.06.07.15.11.28.11.27,0,.68-.15,1.22-.45s1.18-.88,1.9-1.75c.72-.86,1.48-2.14,2.28-3.83l.91.29c-.86,1.85-1.75,3.31-2.66,4.4-.91,1.08-1.9,1.86-2.98,2.32-1.07.46-2.28.69-3.62.69Z"/>
    <path d="M616.33,370.67c-1.84,0-3.17-.3-3.97-.91s-1.21-1.4-1.21-2.39c0-.56.06-1.06.17-1.51.11-.45.2-.79.26-1.02l4.01-13.98h-3.24v-.86h12.07l-5.11,17.61c-.03.12-.06.25-.1.38-.03.14-.05.27-.05.41,0,.15.04.26.11.34s.19.12.35.12c.27,0,.66-.14,1.16-.43.5-.29,1.11-.85,1.81-1.7.7-.85,1.47-2.1,2.3-3.76l.94.29c-.85,1.69-1.73,3.07-2.65,4.17-.92,1.09-1.94,1.91-3.05,2.44-1.11.53-2.38.8-3.8.8ZM622.04,346.51c-1.01,0-1.91-.23-2.7-.68-.79-.45-1.42-1.05-1.87-1.79s-.68-1.54-.68-2.39.23-1.64.68-2.37,1.08-1.33,1.87-1.78,1.69-.68,2.7-.68,1.91.23,2.71.68c.8.45,1.43,1.05,1.9,1.78s.7,1.52.7,2.37-.23,1.65-.7,2.39-1.1,1.34-1.9,1.79c-.8.45-1.7.68-2.71.68Z"/>
    <path d="M636.47,370.67c-2.06,0-3.83-.24-5.3-.71-1.47-.48-2.6-1.14-3.38-1.99-.78-.85-1.18-1.82-1.18-2.9s.42-2.07,1.26-2.86,1.94-1.19,3.3-1.19c1.26,0,2.31.34,3.14,1.03s1.25,1.63,1.25,2.84-.44,2.14-1.32,2.77c-.88.63-1.92.95-3.12.95-.82,0-1.56-.17-2.24-.52-.68-.34-1.22-.79-1.62-1.33-.4-.54-.6-1.11-.6-1.69h1.3c0,.94.34,1.76,1.03,2.46.69.7,1.6,1.25,2.75,1.64,1.14.39,2.4.58,3.76.58.82,0,1.54-.16,2.17-.47.63-.31,1.13-.73,1.5-1.24.37-.51.55-1.07.55-1.67,0-.75-.23-1.41-.7-1.99-.46-.58-1.06-1.11-1.8-1.59-.74-.48-1.52-.96-2.35-1.44-.83-.48-1.62-.97-2.35-1.49-.74-.52-1.34-1.1-1.8-1.75-.46-.64-.7-1.39-.7-2.24,0-1.16.41-2.23,1.22-3.21.82-.98,1.99-1.77,3.52-2.36,1.53-.59,3.36-.89,5.48-.89s3.95.26,5.23.77c1.28.51,2.19,1.15,2.74,1.92s.82,1.54.82,2.3c0,1.11-.42,1.99-1.26,2.64s-1.78.97-2.82.97c-1.18,0-2.26-.35-3.22-1.07-.96-.71-1.44-1.65-1.44-2.8,0-.95.38-1.76,1.14-2.41.76-.65,1.77-.98,3.04-.98,1.2,0,2.25.33,3.16,1,.9.67,1.36,1.55,1.36,2.65h-1.13c0-.66-.25-1.3-.76-1.92-.5-.62-1.24-1.13-2.2-1.53s-2.11-.59-3.46-.59c-.9,0-1.64.15-2.24.45-.6.3-1.05.68-1.36,1.14-.3.46-.46.94-.46,1.44,0,.76.25,1.44.76,2.03.5.59,1.15,1.14,1.94,1.64.79.5,1.63.99,2.52,1.47.89.48,1.73,1,2.52,1.56.79.56,1.44,1.19,1.94,1.89.5.7.76,1.52.76,2.46,0,1.23-.46,2.32-1.37,3.25s-2.22,1.67-3.91,2.2c-1.7.53-3.72.79-6.07.79Z"/>
    <path d="M671.84,370.67c-2.06,0-3.83-.24-5.3-.71-1.47-.48-2.6-1.14-3.38-1.99-.78-.85-1.18-1.82-1.18-2.9s.42-2.07,1.26-2.86,1.94-1.19,3.3-1.19c1.26,0,2.31.34,3.14,1.03s1.25,1.63,1.25,2.84-.44,2.14-1.32,2.77c-.88.63-1.92.95-3.12.95-.82,0-1.56-.17-2.24-.52-.68-.34-1.22-.79-1.62-1.33-.4-.54-.6-1.11-.6-1.69h1.3c0,.94.34,1.76,1.03,2.46.69.7,1.6,1.25,2.75,1.64,1.14.39,2.4.58,3.76.58.82,0,1.54-.16,2.17-.47.63-.31,1.13-.73,1.5-1.24.37-.51.55-1.07.55-1.67,0-.75-.23-1.41-.7-1.99-.46-.58-1.06-1.11-1.8-1.59-.74-.48-1.52-.96-2.35-1.44-.83-.48-1.62-.97-2.35-1.49-.74-.52-1.34-1.1-1.8-1.75-.46-.64-.7-1.39-.7-2.24,0-1.16.41-2.23,1.22-3.21.82-.98,1.99-1.77,3.52-2.36,1.53-.59,3.36-.89,5.48-.89s3.95.26,5.23.77c1.28.51,2.19,1.15,2.74,1.92s.82,1.54.82,2.3c0,1.11-.42,1.99-1.26,2.64s-1.78.97-2.82.97c-1.18,0-2.26-.35-3.22-1.07-.96-.71-1.44-1.65-1.44-2.8,0-.95.38-1.76,1.14-2.41.76-.65,1.77-.98,3.04-.98,1.2,0,2.25.33,3.16,1,.9.67,1.36,1.55,1.36,2.65h-1.13c0-.66-.25-1.3-.76-1.92-.5-.62-1.24-1.13-2.2-1.53s-2.11-.59-3.46-.59c-.9,0-1.64.15-2.24.45-.6.3-1.05.68-1.36,1.14-.3.46-.46.94-.46,1.44,0,.76.25,1.44.76,2.03.5.59,1.15,1.14,1.94,1.64.79.5,1.63.99,2.52,1.47.89.48,1.73,1,2.52,1.56.79.56,1.44,1.19,1.94,1.89.5.7.76,1.52.76,2.46,0,1.23-.46,2.32-1.37,3.25s-2.22,1.67-3.91,2.2c-1.7.53-3.72.79-6.07.79Z"/>
    <path d="M685.36,370.23l9.41-32.12h-4.37v-.86h13.32l-9.89,32.98h-8.47ZM702.54,370.67c-1.12,0-2.11-.22-2.96-.66-.86-.44-1.28-1.15-1.28-2.13,0-.38.06-.8.18-1.25.12-.45.24-.86.37-1.23l.7-1.96c.27-.67.52-1.34.73-2s.36-1.26.43-1.8c.07-.54.02-.97-.16-1.3-.18-.32-.53-.48-1.06-.48-.46,0-.89.18-1.28.54-.39.36-.74.84-1.06,1.45-.31.61-.59,1.29-.83,2.03h-.55c.34-1.17.72-2.11,1.15-2.82.43-.71.94-1.22,1.52-1.54.58-.31,1.25-.47,2-.47.96,0,1.92.18,2.88.55s1.8.88,2.53,1.54c.73.66,1.24,1.44,1.55,2.35.3.91.27,1.91-.1,2.99l-.94,2.79c-.02.07-.03.16-.05.26-.02.1-.02.18-.02.22,0,.23.14.35.41.35.16,0,.41-.12.74-.35.34-.23.76-.72,1.26-1.45s1.08-1.84,1.74-3.32l.91.29c-1.09,2.52-2.33,4.39-3.73,5.6-1.4,1.21-3.1,1.81-5.1,1.81ZM697.74,360.47c-.22,0-.41-.03-.56-.08-.15-.05-.32-.14-.49-.27l.34-.83c.13.15.24.24.35.29.1.04.23.07.37.07.42,0,.79-.25,1.12-.74s.66-1.13,1-1.91c.34-.78.71-1.61,1.13-2.47.72-1.5,1.59-2.69,2.6-3.58,1.02-.89,2.4-1.34,4.14-1.34,1.04,0,1.94.21,2.71.63.77.42,1.36.95,1.79,1.59s.64,1.31.64,2c0,1.2-.44,2.2-1.32,2.98-.88.78-1.98,1.18-3.31,1.18s-2.48-.38-3.3-1.13c-.82-.75-1.24-1.77-1.24-3.04,0-1.13.41-2.08,1.22-2.87.82-.78,1.86-1.18,3.12-1.18.7,0,1.42.17,2.16.52s1.36.82,1.86,1.43c.5.61.76,1.32.76,2.12h-.91c0-.56-.18-1.1-.53-1.62-.35-.52-.84-.95-1.48-1.29-.63-.34-1.37-.51-2.22-.51-1.39,0-2.54.36-3.43,1.09-.9.73-1.67,1.78-2.33,3.18-.45.92-.87,1.83-1.26,2.73-.39.89-.82,1.63-1.27,2.21-.46.58-1,.87-1.64.87Z"/>
    <path d="M723.35,370.67c-2.78,0-4.99-.53-6.61-1.58-1.62-1.06-2.44-2.79-2.44-5.21,0-1.76.42-3.49,1.26-5.19s1.99-3.24,3.44-4.61c1.46-1.37,3.13-2.47,5.03-3.29,1.9-.82,3.9-1.23,6.01-1.23,2.78,0,5.03.57,6.73,1.7,1.7,1.14,2.56,2.91,2.56,5.33,0,1.7-.4,3.38-1.2,5.05s-1.92,3.18-3.36,4.54c-1.44,1.36-3.13,2.45-5.08,3.27-1.94.81-4.06,1.22-6.35,1.22ZM723.35,369.82c.43,0,.91-.32,1.44-.96.53-.64,1.07-1.49,1.62-2.56.55-1.07,1.09-2.26,1.61-3.56.52-1.3.98-2.63,1.39-3.99.41-1.36.73-2.65.97-3.87.24-1.22.36-2.27.36-3.13,0-.42-.05-.75-.14-.98-.1-.23-.28-.34-.55-.34-.43,0-.91.32-1.44.96-.53.64-1.07,1.49-1.62,2.56-.55,1.07-1.09,2.26-1.61,3.56-.52,1.3-.98,2.63-1.39,3.99-.41,1.36-.73,2.64-.97,3.86-.24,1.22-.36,2.26-.36,3.14,0,.41.05.73.16.97.1.23.28.35.54.35Z"/>
    <path d="M746.53,370.67c-1.84,0-3.16-.3-3.96-.91-.8-.61-1.2-1.4-1.2-2.39,0-.53.05-1.01.16-1.45.1-.44.2-.79.28-1.06l7.85-26.76h-3.77v-.86h12.62l-8.98,30.36c-.03.12-.06.24-.1.36-.03.12-.05.24-.05.34,0,.37.15.55.46.55.27,0,.66-.14,1.16-.43.5-.29,1.11-.85,1.81-1.7.7-.85,1.48-2.1,2.33-3.76l.91.29c-.85,1.69-1.73,3.07-2.65,4.17-.92,1.09-1.94,1.91-3.05,2.44-1.11.53-2.39.8-3.83.8Z"/>
    <path d="M765.59,370.67c-1.94,0-3.54-.33-4.8-.98-1.26-.65-2.21-1.51-2.83-2.58-.62-1.07-.94-2.23-.94-3.47,0-1.92.4-3.73,1.2-5.43.8-1.7,1.9-3.2,3.3-4.5,1.4-1.3,3.01-2.31,4.84-3.04s3.76-1.1,5.81-1.1c2.82,0,5.01.52,6.58,1.55,1.57,1.03,2.35,2.29,2.35,3.77,0,.94-.28,1.81-.84,2.62-.56.81-1.44,1.52-2.65,2.14-1.21.62-2.78,1.13-4.73,1.53-1.94.4-4.31.65-7.09.77v-.62c.9-.04,1.76-.37,2.59-.99.83-.62,1.59-1.38,2.28-2.29.69-.91,1.29-1.84,1.81-2.8.52-.96.92-1.82,1.2-2.59.28-.77.42-1.3.42-1.59,0-.21-.04-.37-.12-.49-.08-.12-.26-.19-.53-.19-.51,0-1.06.32-1.64.95-.58.63-1.17,1.47-1.76,2.51-.59,1.04-1.16,2.2-1.69,3.46-.54,1.27-1.02,2.55-1.44,3.86s-.76,2.53-1.01,3.68c-.25,1.15-.37,2.11-.37,2.89,0,.67.18,1.14.55,1.41.37.26.87.4,1.51.4.9,0,1.9-.22,3.01-.66,1.11-.44,2.23-1.07,3.36-1.9s2.16-1.81,3.11-2.96l.82.53c-.86.95-1.86,1.9-3,2.85-1.14.95-2.46,1.73-3.97,2.35-1.51.62-3.28.93-5.32.93Z"/>
  </g>
  <g>
    <path d="M816.55,462.18v-.86h18.24v.86h-18.24ZM820.63,462.18l8.16-32.98h10.32l-8.16,32.98h-10.32ZM824.47,430.06v-.86h19.2v.86h-19.2ZM826.12,452.64l30.65-23.35h1.39l-30.55,23.35h-1.49ZM841.29,462.18l-6.12-16.33,8.76-6.46,8.86,22.8h-11.5ZM837.04,462.18v-.86h19.49v.86h-19.49ZM850.72,430.06v-.86h11.52v.86h-11.52Z"/>
    <path d="M856.94,462.18v-.86h17.52c2.19,0,4.18-.37,5.98-1.1,1.79-.73,3.38-1.77,4.75-3.12,1.38-1.35,2.54-2.95,3.48-4.82h.94l-2.5,9.89h-30.17ZM861.02,462.18l8.35-32.98h10.32l-8.35,32.98h-10.32ZM891.74,438.22c-.08-1.57-.47-2.97-1.16-4.2-.7-1.23-1.69-2.2-2.99-2.9-1.3-.7-2.88-1.06-4.75-1.06h-17.78v-.86h29.93l-2.3,9.01h-.94ZM881.71,451.28c-.24-.98-.59-1.91-1.06-2.78-.46-.87-1.04-1.58-1.73-2.12-.69-.54-1.49-.81-2.4-.81h-2.93v-.86h2.93c.91,0,1.87-.26,2.87-.77,1-.51,1.97-1.19,2.9-2.02.94-.83,1.76-1.74,2.48-2.73h.94l-3.07,12.09h-.94Z"/>
    <path d="M888.96,462.18v-.86h10.56v.86h-10.56ZM892.56,462.18l21.17-33.62h5.71l4.54,33.62h-10.78l-2.95-26.38-16.61,26.38h-1.08ZM900.14,451.85v-.86h15.7v.86h-15.7ZM907.68,462.18v-.86h19.68v.86h-19.68Z"/>
  </g>
  <g>
    <path d="M168.53,148.84l.34-1.55,4.71-3.61c.44-.32.87-.7,1.28-1.13s.79-.89,1.12-1.39c.33-.49.59-1,.79-1.53.2-.53.3-1.06.3-1.58,0-.47-.07-.88-.22-1.23-.15-.35-.37-.63-.68-.82-.3-.2-.69-.3-1.16-.3s-.9.09-1.34.27c-.44.18-.84.44-1.2.76s-.65.7-.86,1.12c-.21.43-.32.88-.32,1.37h-.32c0-.19.07-.38.22-.55.14-.17.33-.31.55-.42.22-.11.46-.16.7-.16.36,0,.67.11.94.33.27.22.4.53.4.92,0,.43-.14.77-.41,1.04-.27.27-.62.41-1.03.41-.38,0-.7-.14-.98-.41s-.41-.66-.41-1.16.12-1.04.37-1.52c.25-.49.59-.92,1.03-1.3.44-.38.96-.68,1.56-.91.6-.23,1.25-.34,1.96-.34s1.36.12,1.9.35.97.56,1.27.98c.3.42.45.92.45,1.49,0,.4-.09.78-.28,1.15s-.44.73-.75,1.06-.64.65-1,.95c-.36.3-.71.57-1.05.81-.34.24-.64.46-.9.64l-5.07,3.97h7.06l.29-1.35h.36l-.8,3.62h-8.83Z"/>
    <path d="M184.48,149.02c-.8,0-1.49-.19-2.06-.58-.57-.39-1.01-.89-1.31-1.52-.3-.63-.45-1.31-.45-2.04,0-1.04.12-2.04.37-3,.25-.96.59-1.85,1.03-2.66s.95-1.52,1.53-2.13,1.2-1.08,1.88-1.42c.67-.34,1.37-.51,2.08-.51.8,0,1.49.19,2.07.58.57.38,1.01.89,1.31,1.52.3.63.45,1.31.45,2.04,0,1.04-.12,2.04-.37,3s-.59,1.85-1.03,2.66-.95,1.52-1.53,2.13-1.21,1.08-1.88,1.42-1.36.51-2.07.51ZM184.48,148.69c.38,0,.74-.13,1.08-.4.35-.27.67-.64.98-1.11.31-.47.59-1.01.85-1.61.26-.6.5-1.24.7-1.9s.38-1.33.53-1.99.25-1.29.33-1.89c.08-.59.12-1.12.12-1.57,0-.35-.02-.69-.06-1.02s-.11-.62-.22-.87c-.11-.25-.26-.46-.46-.61s-.47-.23-.79-.23c-.38,0-.74.13-1.08.4-.35.27-.67.63-.98,1.1-.31.46-.59,1-.85,1.59-.26.6-.5,1.23-.7,1.89s-.38,1.33-.53,1.99c-.14.67-.26,1.3-.33,1.9-.08.6-.12,1.14-.12,1.61,0,.35.02.69.06,1.02s.11.62.22.88c.1.26.26.46.46.61.2.15.47.23.79.23Z"/>
    <path d="M190.57,148.84v-.35h6.31v.35h-6.31ZM192.47,148.84l2.97-13.15h-2.03v-.35h4.48l-3.06,13.5h-2.36Z"/>
    <path d="M203.42,149.02c-.39,0-.73-.13-1.01-.4-.28-.27-.42-.66-.42-1.18,0-.39.11-.81.32-1.26.21-.45.49-.91.84-1.4.34-.48.72-.97,1.12-1.46.4-.49.79-.98,1.16-1.47.31-.4.64-.83.99-1.29.35-.46.72-.94,1.09-1.43.38-.49.75-.97,1.12-1.44h-6.52l-.31,1.36h-.35l.81-3.71h8.66c-.44.58-.84,1.1-1.2,1.57-.36.47-.75.99-1.18,1.55-.43.56-.86,1.12-1.29,1.68-.43.56-.81,1.07-1.16,1.52-.41.54-.8,1.04-1.15,1.5-.35.46-.64.88-.85,1.25-.21.37-.31.69-.31.96,0,.21.06.38.17.52.11.14.25.27.4.4.15.13.29.29.4.48.11.19.17.44.17.74,0,.41-.13.77-.4,1.06s-.63.44-1.11.44Z"/>
    <path d="M210.55,144.06v-.34h4.32v.34h-4.32Z"/>
    <path d="M215.18,148.84l.34-1.55,4.71-3.61c.44-.32.87-.7,1.28-1.13s.79-.89,1.12-1.39c.33-.49.59-1,.79-1.53.2-.53.3-1.06.3-1.58,0-.47-.07-.88-.22-1.23-.15-.35-.37-.63-.68-.82-.3-.2-.69-.3-1.16-.3s-.89.09-1.34.27c-.44.18-.84.44-1.2.76-.36.32-.65.7-.86,1.12-.21.43-.32.88-.32,1.37h-.32c0-.19.07-.38.22-.55.14-.17.33-.31.55-.42.22-.11.46-.16.7-.16.36,0,.67.11.94.33.27.22.4.53.4.92,0,.43-.14.77-.41,1.04s-.62.41-1.03.41c-.38,0-.7-.14-.98-.41s-.41-.66-.41-1.16.12-1.04.37-1.52c.25-.49.59-.92,1.03-1.3.44-.38.96-.68,1.56-.91.6-.23,1.25-.34,1.96-.34s1.36.12,1.9.35.97.56,1.27.98c.3.42.46.92.46,1.49,0,.4-.09.78-.28,1.15-.19.37-.44.73-.75,1.06-.31.34-.64.65-1,.95-.36.3-.71.57-1.05.81-.34.24-.64.46-.9.64l-5.07,3.97h7.06l.29-1.35h.36l-.8,3.62h-8.83Z"/>
    <path d="M231.13,149.02c-.8,0-1.49-.19-2.06-.58-.57-.39-1.01-.89-1.31-1.52-.3-.63-.45-1.31-.45-2.04,0-1.04.12-2.04.37-3,.25-.96.59-1.85,1.03-2.66s.95-1.52,1.53-2.13,1.2-1.08,1.88-1.42c.67-.34,1.37-.51,2.08-.51.8,0,1.49.19,2.06.58.57.38,1.01.89,1.31,1.52s.46,1.31.46,2.04c0,1.04-.12,2.04-.37,3s-.59,1.85-1.03,2.66c-.44.81-.95,1.52-1.54,2.13s-1.21,1.08-1.88,1.42c-.67.34-1.36.51-2.07.51ZM231.13,148.69c.38,0,.74-.13,1.08-.4.35-.27.67-.64.98-1.11.31-.47.59-1.01.85-1.61.26-.6.49-1.24.7-1.9s.38-1.33.53-1.99c.14-.66.25-1.29.33-1.89.08-.59.12-1.12.12-1.57,0-.35-.02-.69-.06-1.02s-.11-.62-.21-.87c-.11-.25-.26-.46-.46-.61-.2-.15-.47-.23-.79-.23-.38,0-.74.13-1.08.4-.34.27-.67.63-.98,1.1s-.59,1-.85,1.59c-.26.6-.49,1.23-.7,1.89s-.38,1.33-.53,1.99c-.14.67-.25,1.3-.33,1.9-.08.6-.12,1.14-.12,1.61,0,.35.02.69.06,1.02s.11.62.21.88c.11.26.26.46.46.61.2.15.47.23.79.23Z"/>
    <path d="M237.21,148.84v-.35h6.31v.35h-6.31ZM239.12,148.84l2.97-13.15h-2.04v-.35h4.48l-3.06,13.5h-2.36Z"/>
    <path d="M250.75,149.02c-1.35,0-2.38-.26-3.08-.77s-1.05-1.21-1.05-2.12c0-.72.18-1.41.54-2.06s.9-1.18,1.62-1.58c.72-.41,1.62-.61,2.7-.61,1.35,0,2.38.24,3.08.73.71.49,1.06,1.18,1.06,2.08,0,.72-.18,1.41-.54,2.07-.36.66-.9,1.2-1.62,1.62-.72.42-1.62.63-2.7.63ZM251.82,142c-.73,0-1.36-.12-1.89-.36-.54-.24-.96-.55-1.25-.95-.3-.39-.45-.83-.45-1.31,0-.54.12-1.06.37-1.57.24-.5.58-.96,1.02-1.36s.94-.72,1.52-.95c.58-.23,1.21-.35,1.89-.35.78,0,1.44.15,1.97.45.53.3.94.67,1.21,1.13.28.46.41.92.41,1.4,0,.55-.13,1.06-.39,1.53-.26.47-.61.88-1.06,1.23s-.96.62-1.53.81c-.58.19-1.18.29-1.82.29ZM250.59,148.67c.32,0,.62-.09.9-.26.27-.17.52-.4.73-.69s.39-.62.54-.99c.15-.37.26-.74.34-1.13.08-.39.12-.76.12-1.12,0-.43-.06-.82-.17-1.17-.11-.35-.29-.62-.53-.83-.24-.2-.55-.31-.94-.31-.32,0-.62.09-.89.26-.27.17-.52.4-.73.69s-.39.61-.54.98c-.15.36-.26.74-.34,1.13-.08.39-.12.77-.12,1.12,0,.43.05.82.17,1.17s.29.63.53.84c.24.21.56.31.94.31ZM251.8,141.71c.29,0,.56-.08.81-.23.25-.16.47-.37.67-.64.2-.27.37-.58.51-.92.14-.35.25-.71.32-1.08.08-.38.11-.75.11-1.11,0-.29-.03-.61-.09-.95-.06-.34-.18-.64-.35-.89s-.43-.37-.77-.37c-.26,0-.52.09-.76.26-.24.17-.46.4-.66.69-.2.29-.37.62-.51.99-.14.37-.26.74-.34,1.13-.08.39-.12.76-.12,1.12,0,.31.03.61.1.92.06.31.18.57.35.77s.42.31.74.31Z"/>
  </g>
  <g>
    <path d="M558.44,278.46l.34-1.55,4.71-3.61c.44-.32.87-.7,1.28-1.13s.79-.89,1.12-1.39c.33-.49.59-1,.79-1.53.2-.53.3-1.06.3-1.58,0-.47-.07-.88-.22-1.23-.15-.35-.37-.63-.68-.82-.3-.2-.69-.3-1.16-.3s-.9.09-1.34.27c-.44.18-.84.44-1.2.76s-.65.7-.86,1.12c-.21.43-.32.88-.32,1.37h-.32c0-.19.07-.38.22-.55.14-.17.33-.31.55-.42.22-.11.46-.16.7-.16.36,0,.67.11.94.33.27.22.4.53.4.92,0,.43-.14.77-.41,1.04-.27.27-.62.41-1.03.41-.38,0-.7-.14-.98-.41s-.41-.66-.41-1.16.12-1.04.37-1.52c.25-.49.59-.92,1.03-1.3.44-.38.96-.68,1.56-.91.6-.23,1.25-.34,1.96-.34s1.36.12,1.9.35.97.56,1.27.98c.3.42.45.92.45,1.49,0,.4-.09.78-.28,1.15s-.44.73-.75,1.06-.64.65-1,.95c-.36.3-.71.57-1.05.81-.34.24-.64.46-.9.64l-5.07,3.97h7.06l.29-1.35h.36l-.8,3.62h-8.83Z"/>
    <path d="M574.39,278.64c-.8,0-1.49-.19-2.06-.58-.57-.39-1.01-.89-1.31-1.52-.3-.63-.45-1.31-.45-2.04,0-1.04.12-2.04.37-3,.25-.96.59-1.85,1.03-2.66s.95-1.52,1.53-2.13,1.2-1.08,1.88-1.42c.67-.34,1.37-.51,2.08-.51.8,0,1.49.19,2.07.58.57.38,1.01.89,1.31,1.52.3.63.45,1.31.45,2.04,0,1.04-.12,2.04-.37,3s-.59,1.85-1.03,2.66-.95,1.52-1.53,2.13-1.21,1.08-1.88,1.42-1.36.51-2.07.51ZM574.39,278.32c.38,0,.74-.13,1.08-.4.35-.27.67-.64.98-1.11.31-.47.59-1.01.85-1.61.26-.6.5-1.24.7-1.9s.38-1.33.53-1.99.25-1.29.33-1.89c.08-.59.12-1.12.12-1.57,0-.35-.02-.69-.06-1.02s-.11-.62-.22-.87c-.11-.25-.26-.46-.46-.61s-.47-.23-.79-.23c-.38,0-.74.13-1.08.4-.35.27-.67.63-.98,1.1-.31.46-.59,1-.85,1.59-.26.6-.5,1.23-.7,1.89s-.38,1.33-.53,1.99c-.14.67-.26,1.3-.33,1.9-.08.6-.12,1.14-.12,1.61,0,.35.02.69.06,1.02s.11.62.22.88c.1.26.26.46.46.61.2.15.47.23.79.23Z"/>
    <path d="M580.47,278.46v-.35h6.31v.35h-6.31ZM582.38,278.46l2.97-13.15h-2.03v-.35h4.48l-3.06,13.5h-2.36Z"/>
    <path d="M594.01,278.64c-1.35,0-2.38-.26-3.08-.77s-1.05-1.21-1.05-2.12c0-.72.18-1.41.54-2.06s.9-1.18,1.62-1.58c.72-.41,1.62-.61,2.7-.61,1.35,0,2.38.24,3.08.73.71.49,1.06,1.18,1.06,2.08,0,.72-.18,1.41-.54,2.07-.36.66-.9,1.2-1.62,1.62-.72.42-1.62.63-2.7.63ZM595.08,271.62c-.73,0-1.36-.12-1.89-.36-.54-.24-.95-.55-1.25-.95-.3-.39-.45-.83-.45-1.31,0-.54.12-1.06.36-1.57.24-.5.58-.96,1.02-1.36s.94-.72,1.52-.95,1.21-.35,1.89-.35c.78,0,1.44.15,1.97.45.53.3.94.67,1.21,1.13.28.46.41.92.41,1.4,0,.55-.13,1.06-.39,1.53-.26.47-.61.88-1.06,1.23s-.96.62-1.53.81-1.18.29-1.82.29ZM593.84,278.29c.32,0,.62-.09.9-.26.27-.17.52-.4.73-.69s.39-.62.54-.99c.15-.37.26-.74.34-1.13.08-.39.12-.76.12-1.12,0-.43-.06-.82-.17-1.17-.11-.35-.29-.62-.53-.83-.24-.2-.55-.31-.94-.31-.32,0-.62.09-.9.26s-.52.4-.73.69-.39.61-.54.98c-.15.36-.26.74-.34,1.13-.08.39-.12.77-.12,1.12,0,.43.06.82.17,1.17s.29.63.53.84c.24.21.56.31.94.31ZM595.06,271.33c.29,0,.56-.08.81-.23.25-.16.47-.37.67-.64.2-.27.37-.58.51-.92.14-.35.25-.71.32-1.08.07-.38.11-.75.11-1.11,0-.29-.03-.61-.09-.95-.06-.34-.18-.64-.35-.89s-.43-.37-.77-.37c-.26,0-.52.09-.76.26-.24.17-.46.4-.66.69-.2.29-.37.62-.51.99-.14.37-.26.74-.34,1.13-.08.39-.12.76-.12,1.12,0,.31.03.61.09.92s.18.57.35.77c.17.21.42.31.74.31Z"/>
    <path d="M601.36,273.68v-.34h4.32v.34h-4.32Z"/>
    <path d="M605.98,278.46l.34-1.55,4.71-3.61c.44-.32.87-.7,1.28-1.13s.79-.89,1.12-1.39c.33-.49.59-1,.79-1.53.2-.53.3-1.06.3-1.58,0-.47-.07-.88-.22-1.23-.15-.35-.37-.63-.68-.82-.3-.2-.69-.3-1.16-.3s-.9.09-1.34.27c-.44.18-.84.44-1.2.76-.36.32-.65.7-.86,1.12-.21.43-.32.88-.32,1.37h-.32c0-.19.07-.38.22-.55.14-.17.33-.31.55-.42.22-.11.46-.16.7-.16.36,0,.67.11.94.33.27.22.4.53.4.92,0,.43-.14.77-.41,1.04s-.62.41-1.03.41c-.38,0-.7-.14-.98-.41-.27-.27-.41-.66-.41-1.16s.12-1.04.37-1.52c.25-.49.59-.92,1.03-1.3.44-.38.96-.68,1.56-.91.6-.23,1.25-.34,1.96-.34s1.36.12,1.9.35.97.56,1.27.98c.3.42.46.92.46,1.49,0,.4-.09.78-.28,1.15-.19.37-.44.73-.75,1.06-.31.34-.64.65-1,.95-.36.3-.71.57-1.05.81-.34.24-.64.46-.9.64l-5.07,3.97h7.06l.29-1.35h.36l-.8,3.62h-8.83Z"/>
    <path d="M621.93,278.64c-.8,0-1.49-.19-2.06-.58-.57-.39-1.01-.89-1.31-1.52-.3-.63-.46-1.31-.46-2.04,0-1.04.12-2.04.37-3,.25-.96.59-1.85,1.03-2.66.44-.81.95-1.52,1.53-2.13s1.2-1.08,1.88-1.42c.67-.34,1.37-.51,2.08-.51.8,0,1.49.19,2.07.58.57.38,1.01.89,1.31,1.52s.45,1.31.45,2.04c0,1.04-.12,2.04-.37,3s-.59,1.85-1.04,2.66c-.44.81-.95,1.52-1.53,2.13s-1.21,1.08-1.88,1.42-1.36.51-2.07.51ZM621.93,278.32c.38,0,.74-.13,1.08-.4.35-.27.67-.64.98-1.11.31-.47.59-1.01.85-1.61.26-.6.5-1.24.7-1.9s.38-1.33.53-1.99c.14-.66.25-1.29.33-1.89.08-.59.12-1.12.12-1.57,0-.35-.02-.69-.06-1.02s-.11-.62-.22-.87c-.11-.25-.26-.46-.46-.61s-.47-.23-.79-.23c-.38,0-.74.13-1.08.4-.35.27-.67.63-.98,1.1s-.59,1-.85,1.59c-.26.6-.5,1.23-.7,1.89s-.38,1.33-.53,1.99-.25,1.3-.33,1.9-.12,1.14-.12,1.61c0,.35.02.69.06,1.02s.11.62.22.88c.11.26.26.46.46.61.2.15.47.23.79.23Z"/>
    <path d="M628.05,278.46l.34-1.55,4.71-3.61c.44-.32.87-.7,1.28-1.13s.79-.89,1.12-1.39c.33-.49.59-1,.79-1.53.2-.53.3-1.06.3-1.58,0-.47-.07-.88-.22-1.23-.15-.35-.37-.63-.67-.82-.3-.2-.69-.3-1.16-.3s-.9.09-1.34.27c-.44.18-.84.44-1.2.76-.36.32-.65.7-.86,1.12-.21.43-.32.88-.32,1.37h-.32c0-.19.07-.38.22-.55.14-.17.33-.31.55-.42s.46-.16.7-.16c.36,0,.67.11.94.33.27.22.4.53.4.92,0,.43-.14.77-.41,1.04-.27.27-.62.41-1.03.41-.38,0-.7-.14-.98-.41-.27-.27-.41-.66-.41-1.16s.12-1.04.37-1.52c.25-.49.59-.92,1.03-1.3.44-.38.96-.68,1.56-.91.6-.23,1.25-.34,1.96-.34s1.36.12,1.9.35.97.56,1.27.98c.3.42.45.92.45,1.49,0,.4-.09.78-.28,1.15-.19.37-.44.73-.75,1.06-.31.34-.64.65-1,.95-.36.3-.71.57-1.05.81-.34.24-.64.46-.9.64l-5.07,3.97h7.06l.29-1.35h.36l-.8,3.62h-8.83Z"/>
    <path d="M638.5,278.46v-.35h6.31v.35h-6.31ZM640.41,278.46l2.97-13.15h-2.03v-.35h4.48l-3.06,13.5h-2.36Z"/>
  </g>
  <g>
    <path d="M826.62,423.48l.34-1.55,4.71-3.61c.44-.32.87-.7,1.28-1.13s.79-.89,1.12-1.39c.33-.49.59-1,.79-1.53.2-.53.3-1.06.3-1.58,0-.47-.07-.88-.22-1.23-.15-.35-.37-.62-.68-.82-.3-.2-.69-.3-1.16-.3s-.9.09-1.34.28c-.44.18-.84.44-1.2.76s-.65.7-.86,1.12-.32.88-.32,1.37h-.32c0-.19.07-.38.22-.55.14-.17.33-.32.55-.42.22-.11.46-.16.7-.16.36,0,.67.11.94.33.27.22.4.53.4.92,0,.43-.14.77-.41,1.04-.27.27-.62.41-1.03.41-.38,0-.7-.14-.98-.41s-.41-.66-.41-1.16c0-.53.12-1.04.37-1.52.25-.49.59-.92,1.03-1.3s.96-.68,1.56-.91c.6-.23,1.25-.34,1.96-.34s1.36.12,1.9.35.97.56,1.27.98c.3.42.45.91.45,1.48,0,.4-.09.78-.28,1.15s-.44.73-.75,1.06-.64.65-1,.95c-.36.3-.71.57-1.05.81-.34.24-.64.46-.9.64l-5.07,3.97h7.06l.29-1.35h.36l-.8,3.62h-8.83Z"/>
    <path d="M842.57,423.66c-.8,0-1.49-.19-2.06-.58-.57-.39-1.01-.89-1.31-1.52-.3-.63-.45-1.31-.45-2.04,0-1.04.12-2.04.37-3,.25-.96.59-1.85,1.03-2.66.44-.81.95-1.52,1.53-2.13s1.2-1.08,1.88-1.42c.67-.34,1.37-.51,2.08-.51.8,0,1.49.19,2.07.58.57.38,1.01.89,1.31,1.52.3.63.45,1.31.45,2.04,0,1.04-.12,2.04-.37,3s-.59,1.85-1.03,2.66c-.44.81-.95,1.52-1.53,2.13s-1.21,1.08-1.88,1.42c-.67.34-1.36.51-2.07.51ZM842.57,423.34c.38,0,.74-.13,1.08-.4.35-.27.67-.64.98-1.11.31-.47.59-1.01.85-1.61.26-.6.5-1.24.7-1.9s.38-1.33.53-1.99c.14-.66.25-1.29.33-1.89.08-.59.12-1.12.12-1.57,0-.35-.02-.69-.06-1.02s-.11-.62-.22-.87c-.11-.25-.26-.46-.46-.61s-.47-.22-.79-.22c-.38,0-.74.13-1.08.4-.35.27-.67.63-.98,1.1-.31.46-.59,1-.85,1.59-.26.6-.5,1.23-.7,1.89-.21.66-.38,1.33-.53,1.99-.14.67-.26,1.3-.33,1.9-.08.6-.12,1.14-.12,1.61,0,.35.02.69.06,1.02s.11.62.22.88c.1.26.26.46.46.61s.47.22.79.22Z"/>
    <path d="M848.69,423.48l.34-1.55,4.71-3.61c.44-.32.87-.7,1.28-1.13s.79-.89,1.12-1.39c.33-.49.59-1,.79-1.53.2-.53.3-1.06.3-1.58,0-.47-.07-.88-.22-1.23-.15-.35-.37-.62-.68-.82-.3-.2-.69-.3-1.16-.3s-.9.09-1.34.28c-.44.18-.84.44-1.2.76s-.65.7-.86,1.12-.32.88-.32,1.37h-.32c0-.19.07-.38.22-.55.14-.17.33-.32.55-.42.22-.11.46-.16.7-.16.36,0,.67.11.94.33.27.22.4.53.4.92,0,.43-.14.77-.41,1.04-.27.27-.62.41-1.03.41-.38,0-.7-.14-.98-.41s-.41-.66-.41-1.16c0-.53.12-1.04.37-1.52.25-.49.59-.92,1.03-1.3s.96-.68,1.56-.91c.6-.23,1.25-.34,1.96-.34s1.36.12,1.9.35.97.56,1.27.98c.3.42.45.91.45,1.48,0,.4-.09.78-.28,1.15s-.44.73-.75,1.06-.64.65-1,.95c-.36.3-.71.57-1.05.81-.34.24-.64.46-.9.64l-5.07,3.97h7.06l.29-1.35h.36l-.8,3.62h-8.83Z"/>
    <path d="M865.14,423.48l2.74-12.32-7.13,8.27h9.63v.35h-10.39l8.45-9.8h2.16l-3.1,13.5h-2.35ZM863.61,423.48v-.35h5.42v.35h-5.42Z"/>
    <path d="M872.43,418.7v-.34h4.32v.34h-4.32Z"/>
    <path d="M877.05,423.48l.34-1.55,4.71-3.61c.44-.32.87-.7,1.28-1.13s.79-.89,1.12-1.39c.33-.49.59-1,.79-1.53.2-.53.3-1.06.3-1.58,0-.47-.07-.88-.22-1.23-.15-.35-.37-.62-.67-.82-.3-.2-.69-.3-1.16-.3s-.9.09-1.34.28c-.44.18-.84.44-1.2.76-.36.32-.65.7-.86,1.12-.21.43-.32.88-.32,1.37h-.32c0-.19.07-.38.22-.55.14-.17.33-.32.55-.42s.46-.16.7-.16c.36,0,.67.11.94.33.27.22.4.53.4.92,0,.43-.14.77-.41,1.04-.27.27-.62.41-1.03.41-.38,0-.7-.14-.98-.41-.27-.27-.41-.66-.41-1.16,0-.53.12-1.04.37-1.52s.59-.92,1.03-1.3c.44-.38.96-.68,1.56-.91.6-.23,1.25-.34,1.96-.34s1.36.12,1.9.35.97.56,1.27.98c.3.42.45.91.45,1.48,0,.4-.09.78-.28,1.15-.19.37-.44.73-.75,1.06-.31.34-.64.65-1,.95-.36.3-.71.57-1.05.81-.34.24-.64.46-.9.64l-5.07,3.97h7.06l.29-1.35h.36l-.8,3.62h-8.83Z"/>
    <path d="M893,423.66c-.8,0-1.49-.19-2.06-.58s-1.01-.89-1.31-1.52-.45-1.31-.45-2.04c0-1.04.12-2.04.37-3s.59-1.85,1.03-2.66c.44-.81.95-1.52,1.53-2.13s1.21-1.08,1.88-1.42c.67-.34,1.37-.51,2.08-.51.8,0,1.49.19,2.07.58.57.38,1.01.89,1.31,1.52.3.63.46,1.31.46,2.04,0,1.04-.12,2.04-.37,3s-.59,1.85-1.03,2.66c-.44.81-.95,1.52-1.54,2.13s-1.21,1.08-1.88,1.42c-.67.34-1.36.51-2.08.51ZM893,423.34c.38,0,.74-.13,1.08-.4s.67-.64.98-1.11.59-1.01.85-1.61.5-1.24.7-1.9.38-1.33.53-1.99c.14-.66.25-1.29.33-1.89.08-.59.12-1.12.12-1.57,0-.35-.02-.69-.06-1.02s-.11-.62-.22-.87c-.11-.25-.26-.46-.46-.61s-.47-.22-.79-.22c-.38,0-.74.13-1.08.4-.34.27-.67.63-.98,1.1-.31.46-.59,1-.85,1.59-.26.6-.5,1.23-.7,1.89-.21.66-.38,1.33-.53,1.99-.14.67-.26,1.3-.33,1.9-.08.6-.12,1.14-.12,1.61,0,.35.02.69.06,1.02s.11.62.22.88c.1.26.26.46.46.61s.47.22.79.22Z"/>
    <path d="M899.12,423.48l.34-1.55,4.71-3.61c.44-.32.87-.7,1.28-1.13s.79-.89,1.12-1.39c.33-.49.59-1,.79-1.53.2-.53.3-1.06.3-1.58,0-.47-.07-.88-.22-1.23-.15-.35-.37-.62-.68-.82s-.69-.3-1.16-.3-.9.09-1.34.28c-.44.18-.84.44-1.2.76-.36.32-.65.7-.86,1.12-.21.43-.32.88-.32,1.37h-.32c0-.19.07-.38.22-.55.14-.17.33-.32.55-.42.22-.11.46-.16.7-.16.36,0,.67.11.94.33.27.22.4.53.4.92,0,.43-.14.77-.41,1.04s-.62.41-1.03.41c-.38,0-.7-.14-.98-.41-.27-.27-.41-.66-.41-1.16,0-.53.12-1.04.37-1.52.25-.49.59-.92,1.03-1.3.44-.38.96-.68,1.56-.91.6-.23,1.25-.34,1.96-.34s1.36.12,1.9.35.97.56,1.27.98.46.91.46,1.48c0,.4-.09.78-.28,1.15-.19.37-.44.73-.75,1.06-.31.34-.64.65-1,.95-.36.3-.71.57-1.05.81-.34.24-.64.46-.9.64l-5.07,3.97h7.06l.29-1.35h.36l-.8,3.62h-8.83Z"/>
    <path d="M914.44,423.66c-.7,0-1.33-.14-1.89-.43-.56-.29-1-.74-1.33-1.35-.32-.61-.49-1.39-.49-2.35,0-.81.17-1.66.5-2.56s.79-1.77,1.39-2.61c.6-.85,1.31-1.62,2.13-2.3.82-.69,1.72-1.23,2.7-1.64.98-.41,2.01-.61,3.1-.61v.32c-.72,0-1.4.15-2.05.44-.65.29-1.24.69-1.8,1.2-.55.51-1.05,1.08-1.49,1.73-.44.65-.81,1.32-1.12,2.03-.31.71-.55,1.42-.71,2.12-.16.71-.24,1.37-.24,1.99l-.04,1.27c0,.47.05.89.15,1.25s.26.64.47.85c.21.2.48.31.8.31.35,0,.68-.13.99-.38.31-.25.6-.59.86-1,.26-.42.49-.88.68-1.38.19-.5.34-1,.44-1.51.1-.51.15-.97.15-1.4,0-.8-.09-1.4-.28-1.81-.19-.41-.49-.62-.9-.62-.44,0-.83.13-1.19.4-.35.26-.67.61-.94,1.04-.27.43-.5.9-.68,1.41-.18.51-.32,1.02-.41,1.52s-.14.94-.14,1.33h-.33c0-.34.04-.73.1-1.17.07-.43.17-.89.32-1.36.14-.47.32-.93.54-1.37.22-.44.49-.84.8-1.2.31-.36.67-.64,1.07-.86.4-.21.85-.32,1.35-.32.39,0,.77.06,1.15.19s.71.32,1.02.59c.3.27.54.62.72,1.06s.27.97.27,1.6c0,.73-.16,1.42-.48,2.09-.32.67-.75,1.27-1.29,1.79-.54.53-1.15.94-1.82,1.24-.67.3-1.36.45-2.06.45Z"/>
  </g>
  <path d="M939.82,126.75c-2.16-3.6-.98-9.66-1.38-14.18-1.05-12.18-2.09-23.04-14.91-24.47,4.42-1.86,7.02-4.12,9.11-9.29,3.26-8.09,2.5-16.74,3.12-25.1,2.13,3.6.67,8.79,1.26,13.02,1.21,8.73,6.96,12.89,13.86,14.88,3.22.93-1.43,2.13-2.16,2.73-11.08,9.08-8.37,29.72-8.9,42.41ZM947.1,82.65c-5.3-2.95-8.44-7.31-11.01-13.15-.55,4.9,1,8.75-2.93,12.55-1.46,1.41-2.87,3.9-4.87,5.8,5.87.98,7.93,8.29,10.63,13.03.16-7.86,2.31-13.34,8.19-18.23Z"/>
</svg>