<?xml version="1.0" encoding="UTF-8"?>
<svg id="Layer_1" data-name="Layer 1" xmlns="http://www.w3.org/2000/svg" xmlns:xlink="http://www.w3.org/1999/xlink" viewBox="0 0 890.46 1352">
  <defs>
    <style>
      .cls-1 {
        fill: none;
      }

      .cls-2 {
        clip-path: url(#clippath);
      }
    </style>
    <clipPath id="clippath">
      <rect class="cls-1" x="15.78" y="0" width="874.68" height="1352"/>
    </clipPath>
  </defs>
  <g class="cls-2">
    <g>
      <path class="cls-1" d="M0,0v1352h874.68V0H0ZM643.91,309.61c4.02-.52,6.47,1.39,9.42,1.33,4.16-.1,7-3.57,12.35-.02,3,2,2.04,5.73,5.41,5.39l1.01-6.46,9.29.49c3.12,7.55-6.53,17.8,7.39,15.84l3.01-18.53c4.14-1.18,22.23-1.74,22.17,3.05-.83,3.28-2.12,5.81-6.23,5.64l.98,5.79-7.46,2.08,10.65,2.06.12,9.75-40.25.84-2.83-7.74c-1.21,6.65-10.13,10.18-16.16,5.9,2.05,5.45-9.65,3.96-11.66,2.78-1.02-.61-3.89-8.91-6.66-9.66l-1.24,9.23-1.62,1.47-8.03-.33-2.04-5.43c-.7,5.76-5.87,6.6-11.33,6.98-4.45.3-5.3.24-9.73.84-10.53,1.42-9.43-6.88-16.65-11.77,1.39,3.78.81,7.77-1.03,11.42l-9.75.4c-.86-.89.89-21.18,1.54-23.71,3.09-12.06,28.81-7,23.83,7.01-.77,2.16-4.68,3.62-1.14,5.86,1.29-2.71,3.27-3.53,6.49-3.82l8.04,3.82c.1-6.02-8.73-3.89-10.54-10.6-3.37-12.5,24.3-12.87,17.59-3.16-2.06,2.99-6.87-4.32-8.09,1.45.01,1.56,7.46,2.42,8.94,3.37,1.74,1.13,1.33,4.41,3.96,5v-14.29c.73-2.17,7.31-1.58,9.55-1.36,1.83,1.05-.99,6.08,1.74,4.8,2.89-1.36,3.64-5.03,8.92-5.71ZM566.16,323.18l-.76,5.83-7.42.62c-.85,2.55,2.3,1.06,3.25,1,3.39-.22,6.46-1.44,9.71.94,1.86,1.72,1.27,5.2.25,7.18-2.03,3.97-5.12,1.42-8.18,1.58-4.97.27-10.05,1.24-15.11.48-1.4-.33-1.53-1.21-1.77-2.32-.46-2.17,2.53-22.4,3.47-24.42.45-.98,2.76-2.68,3.53-2.68,3.9,0,15.74-.73,18.31,0,2.72.78,1.61,6.84.38,8.73l-11.69.15,6.01,2.91ZM486.39,97.53c-7.52-13.96-19.4-27.82-22.1-43.33l7.01,14.85c4.58,1.16,7.09,11.44,10.01,16.37,4.65,7.83,18.55,27.85,27.12,31.36,21,8.61,48.5-12.12,61.43-25.62,21.95-22.92,42.1-54.19,59.85-80.26.65-.96,3.26-5.42,4.78-3.5-1.68,7.36-7.37,11.75-11.26,17.29-23.11,32.92-47.55,73.92-85.65,94.1-3.03,1.61-7.8,7.62-8.7,5.76v.58c-10,1.62-16.84-3.18-25.82-5.9,1.44,6.87,1.95,14.28,3.3,21.12,1.11,5.65,3.89,10.82,4.28,17.77.9,16.27-4.21,17.92-10.27,31.09-10.73,23.34-13.11,52.2-9.27,77.16.67-.15,1.33-.35,1.98-.5.63-.14.89.74.27.88-.39.09-.78.19-1.18.3,3.81.05,13.48.6,14,2.53l-1.01,7.27-13.95.05c-.76,3.95,2.16,3.71,5.4,4.41,2.18,1.39.83,6.98-1.09,7.98-1.44.75-5.14-1.95-5.38,1.89l17.68,3.35c1.77,1.15-.18,8.41-2.14,8.85l-26.31-1.84c.64-8.09-.87-17.17,0-25.13.2-1.86,1.65-5.06,1.57-7.43l7.64-1.61c-.11-.08-.19-.19-.19-.35,0-.23.23-.49.5-.46.36.04.73.03,1.09,0l-3.07-8.87-1.08-38.93c-12.75,12.97-21.81,28.72-31.78,43.35l-1.62-1.48c6.37-10.7,14.07-20.79,20.67-31.36,11.18-17.9,31.32-47.45,33.07-67.3,1.9-21.52-9.53-45.47-19.76-64.45ZM529.5,342.93c-1.17-.19-3.82-1.76-3.82-2.47v-18.23l-5.43-1.64.18-6.62c1.51-4.11,20.19-2.23,24.62-1.59l-.99,8.43-6.54.42c-.85,6.21,3.79,23.56-8.02,21.69ZM512.76,331.6c-9.88,1.13-6.21,5.09-8.56,11.88-3.29.46-8.37,1.89-9.23-1.55-.98-.01,0,1.46-1.32,1.94-5.74,2.09-18.85.87-25.65.98-5.69.09-10.54,3.71-10.09-5.22.21-4.19,6.37-27.78,8.61-30.62,1.22-1.54,1.73-1.42,3.62-1.62,3.35-.35,24.84-.33,25.44,1.65l-1.33,10.07-19.2,1.16c1.09,3.73,10.96,1.12,11.85,1.96l-1.2,8.76-13.88.11c-.69,3.96,2.73.98,3.76.98,5.65,0,12.95-.57,18.31,0,.46.05,1.47,1.36,2.69.98.92-5.04-.54-18.53,5.34-20.28,2.63.09,15.7-.73,16.28,1.18.66,9-3.79,9.16-11.92,9.26,4.48,4.22,11.6-.59,6.47,8.37ZM499.72,364.95c-2.71,2.66-8.45,4.46-8.61-.83-.16-5.12.87-10.56,7.63-9.37l.98,10.21ZM484.75,367.57c-.78-4.6-1.57-8.22.02-12.81h3.2c.59.51-.78,9.7-1.11,11.31-.33,1.61.73,1.71-2.11,1.5ZM475.6,366.17c-7.43.34-6.47-9.72-.87-11.23,1.3-.35,2.61-.38,3.93-.08,3.53,1.08,2.24,11.07-3.06,11.31ZM454.59,357.23c7.99-8.19,11.94,2.06,4.3,7.37h5.39s-.01,2.95-.01,2.95c-18.91,2.19-6.89-2.32-5.36-8.35.85-3.36-5.01,1.77-4.32-1.97ZM511.07,303.56c-.95-1.27-.62-12.74-.52-15.37.13-3.75.6-11.24,1.19-14.68,1.78-10.53,21.1-9,24.95,2.68,1.91,5.8-1.73,7.5-1.14,10.84.39,2.17,7.8,11.95,7.36,13.98-1.71,2.16-7.34,2.06-9.7,1.01-4.37-1.93-4.4-14.15-11.84-12.32l-1.63,13.86h-8.67ZM445.35,288.66l9.08-.77,1.77,3.79,3.25-.96.52-10.87-12.46-.92.76-10.76c1.38-.79,21,1.15,22.48,2.31,2.83,2.22.11,8.06,0,10.86-.28,6.99,2.37,18.33-7.52,20.71-10.84,2.6-20.11-2.6-17.87-13.39ZM447.02,360.17c0,2.18-8.9,1.4-10.75,1.47l1.8-2.98c2.97.21,6.78-.96,8.95,1.52ZM405.89,286.07c2.25-7.13-.45-12.42,7.73-18.55,8.12-6.09,8.21-1.24,13.54-1.49,2.14-.1,2.94-2.58,5.38-2.95,2.77-.41,5.33.97,8.03,1.02,1.49,3.39-5.9,7.23-6.35,8.51-.91,2.62,2.3,5.86,1.84,9.45-.93,7.34-10.18,17.87-19.25,15.1-2.19-.67-3.76-3.64-6.42-2.07-3.49,2.05-2.36,7-11.79,3.45-2.55-2.8,6.71-10.64,7.28-12.47ZM426.57,364.58c-5.74-.76-2.35,5.12-7.54,3.96l3.23-9.84-5.36-1.49c.92-3.26,10.42-1.65,10.76.02-1.25,2.86-2.58,4.22-1.08,7.35ZM500.36,621.78l5.76-5.55c-6.54-11.43-2.4-29.07,12.83-31.69,5.86-1.01,13.39,5.85,14.65,5.66,5.1-5.66,7.24-7.59,15.77-4.85,1.97,2.56-9.93,11.55-10.57,13.51-.98,2.99.91,5.15.87,7.66-.11,8.42-7.03,19.87-17.64,19.18-2.8-.18-6.92-2.96-8.56-2.72-2.09.32-3.96,3.72-7.68,3.79-3.98.08-10.26-1.96-14.95-1.2l-15.26-18.57c-1.54.08,2.14,17.96-.69,19.58-3.3.06-10.57,1.28-12.26-1.83l.68-36.35c5.75-1.53,10.21-4.34,16.58-4.14,11.8.36,23.59,14.36,11.6,22.25l8.86,15.27ZM567.7,659.76c-11.81,3.55-27.8-.44-27.02-13.84.48-8.22,4.81-8.17,11.89-5.34,1.01,1.26-5.68,12.13,6.01,11.82,5.06-.14,6.18-5.43,4.27-8.93-1.54-2.82-13.43-3.67-14.46-10.38-.41-2.68-.26-5.57.61-8.17,3.37-10.05,13.44-6.1,20.38-1.14-.9,7.67-3.41,7.4-10.31,4.93l-.03,3.47c15.2-.19,25.58,22.5,8.67,27.58ZM492.27,684.87l-4.29-.48c2.23-3.06,2.83-4.4,7.4-3.35,1.15,3.12,1.2,5.03-.95,7.76l5.22.15,1.19,3.22c-.55,2.11-12.58,3.51-11.87-1.89.35-2.7,4.61-1.76,3.3-5.41ZM498.8,657.83c-8.51,1.65-18.19.51-17.12-9.27,8.67-5.42,7.71,1.68,11.33,2.67,4.05,1.11,6.71-2.69,3.32-4.05-4.89-1.97-9.55,1.23-9.53-7.14.01-8.56,12.32-11.72,18.41-6.89,2.29,1.81-1.65,6.68-4.61,6.29-2.33-.3-4.47-3.99-5.08,1.09,13.17-.43,17.19,14.62,3.29,17.31ZM478.01,692.6c-7.68-1.31-3.47-11.48,2.97-11.27,6.46.21,4.86,12.6-2.97,11.27ZM505.74,680.95c1.8.02,3.01,9.96,2.69,11.81h-3.22c.19-3.83-3.19-8.63.53-11.81ZM475.97,630.81l1.09,8.11-5.21,1.64-.05,9.82,7.08.92.47,7.95c-7.06.36-14.55-1.32-20.99,1.97-3.61-4.93-2.72-10.07,4.36-10.78l.47-8.94-7.08-.92-.43-8.89,20.27-.89ZM461.02,686.83c-5.23.1-.67-7,2.69-5.98,5.43.42,1.22,8.43,1.63,8.92,1.96.59,5.09.24,4.32,2.97h-9.69s3.21-8.86,3.21-8.86l-2.16,2.95ZM446.95,625.17c-21.77,10.85-35.82-33.95-9.06-39.3,21.01-4.2,26.1,30.81,9.06,39.3ZM439.49,661.22v-9.86s-5.95,2.94-5.95,2.94l-4.81-2.94-1.23,8.75c-4,.09-7.83,2.03-11.56-.03l1.9-28.03c8.49-5.1,11.87,2.54,15.2,8.47,5.55-5.37,5.44-12.18,15.99-9.71l4.47,29.42-14.01,1ZM440.57,687.82v-2.95s10.78.98,10.78.98c.65,3.96-8.17,1.18-10.78,1.96ZM433.86,693.49c-1.37,1.4-6.29,2.07-7.16-.4-.23-.66.22-9.11.56-9.92,1.24-2.97,7.11-2.74,7.67.33.1.53-.71,9.61-1.07,9.99ZM422.26,690.3c-.07,1.52,1.01,3.9-1.6,3.43-2.52-2.18-3.26-10.92,1.59-10.83-.07,2.45.12,4.94,0,7.39ZM389.25,622.44c-5.76-4.91-5.13-9.39-4.54-16.26,9.92-2.85,14.22-.14,12.87,9.61l4.54.2,1.55-2.7c.08-4.14-9.1-11.81-10.59-16.62-3.14-10.15,22.02-16.15,26.34-2.23,2.03,6.55-7.97,5.69-10.63.76l-2.72,2.48c0,2.28,5.46,3.56,7.59,5.88,16.06,17.51-9.49,31.59-24.41,18.88ZM408.54,693.02c-7.88-3.57,1.36-14.23,5.92-9.88,3.52,4.32.2,12.65-5.92,9.88ZM383.48,359.17c-1.7-8.33,16.18-3.43,5.38,7.4l6.48,1.49-.65,2.48c-20.01.63-8.06-3.78-5.85-10.38,1.32-3.92-4.73,2.16-5.37-.98ZM409.38,360.29c.03-.97.61-4.15,2.63-3.56,2.26,1.01,3.51,13.28-1.59,12.8.63-3.17-1.15-6.16-1.04-9.24ZM412.57,341.94c-3.51.89-6.75,1.83-10.12-.11l-7.1-9.74-.16,10.69-10.62,1.13c.33-4.64-.45-9.71,0-14.29.16-1.61,1.09-7.1,1.56-8.43,2.1-6.04,14.29-1.95,15.14,4.01l1.55-6.47h7.68c.41.26,2.08,8.19,2.08,8.93v14.29ZM405.83,368.29c-6.93,5.95-13.97-4.84-6.14-11.02,7-5.53,11.55,6.38,6.14,11.02ZM362.42,263.05c1.42-1.99,11.23.31,11.34,1.52l-2.13,9.38,8.47-.14c1.96-7.5.97-13.65,11.85-9.58,1.05,1.54-2.82,28.38-4.28,30.78-2.01,3.3-6,3.1-9.63,2.14-2.4-1.51.41-9.84,1.14-12.37l-8.99-1.06c-4.31,7.58.63,18.43-13.51,13.76l5.74-34.43ZM380.18,327.22c.06,5.81.95,12.24-6.15,14.45-25.47,7.92-18.29-31.85,3.91-24.22l.03,6.65-6.35,2.56,8.55.56ZM330.15,337.01c1.4-2.54,5.13-1.52,5.79-2.09.26-.22,1.17-5.41,1.22-6.35.05-1,.38-2.44-.16-3.23-1.63-.77-4.32-.76-5.05-2.77-3.91-10.73,14.12-4.5,20.14-5.12l1.16,5.16-.98,1.16c-6.43-.59-4.92,5.67-5.42,10.3l7.04.96,1.59,8.9-25.86.99.53-7.9ZM301,333.99c.93-1.2,3.91-1.17,5.42-.92,2.08.34,6.61,5.69,7.03,1.5-7.31-4.26-15.86-8.35-6.5-15.82,4.34-3.47,7.65-2.58,12.85-1.33l-.33,5.88-3.85,1.4c5.97,3.54,11.12,7.99,7.8,15.03-4.16,8.81-26.16,5.88-22.42-5.73ZM269.77,319.22c5.14-.87,23.33-3.75,23.33,3.51,0,6.25-8.36,4.17-13.02,4.44.14,1.86,2.62.5,4.24,2.51,1.12,1.39,1.21,3.67,1.14,5.36l-6.46.49,17.08,2.61-.85,8.3c-8.6.24-18.22,1.84-26.49-.53-3.85-3.39.64-21.36,1.05-26.69ZM226.99,318.53c-.13-.27-1.91-.29-2.47-2.1-2.9-9.27,15.39-9.87,22.23-8.54,14.12,2.75,19.85,18.79,16.95,30.4-3.22,12.92-32.22,14.02-41.73,6.07-5.82-4.86,1.28-8.55,3.15-12.79,1.14-2.58,3.01-10.67,1.88-13.04ZM158.36,389.24c4.85,3.54,4.95,10.25,7.72,15.1,5.73,10,16.34,12.94,27.7,12.9,5.32-.02-1.22,3.04-2.06,4.01-12.79,14.72.53,38.4,5.4,53.72-4.89-3.53-5.81-11.19-8.41-16.43-7.04-14.17-13.45-26.76-33.59-23.98,5.89-3.77,8.84-7.38,9.7-14.28,1.34-10.8-3.66-20.85-6.46-31.04ZM59.27,469.37c.64,0,.64,1,0,1s-.64-1,0-1ZM88.84,531.17c-22.57-19.71-34-45.9-52.27-68.47l-5.88-14.33c3.91,3.97,5.69,9.25,8.71,13.71,19.77,29.22,41.87,53.91,70.09,76.3,12.54,9.95,22.44,18.77,37.85,25.98,8.6,4.02,17.87,5.75,26.11,9.62,16.93,7.97,50.87,38.85,64.09,52.72.89.93,6.66,7.21,5.9,7.89-1.93.37-2.6-.95-3.79-1.94-10.46-8.81-19.86-19.45-30.66-28.12-36.77-29.52-84.87-42.56-120.15-73.37ZM268.23,653.08c-.68-1.26-2.2-1.37-3.55-1.37-13.43.04-11.02,4.78-16.13,14.18l-13.72,1.24c-2.18-2.04,19.06-44.89,22.52-50.61,1.6-1.33,14.35-.99,16.02.58l13.19,44.11c1.87.24,1.01-2.24,1.06-3.43.3-7.35.47-14.52.98-21.79.15-2.18-2.52-5.17.81-6.15,1.72-.51,9.61-.59,10.69.77l-.61,6.96c5.34-3.78,5.17-8.86,13.49-7.94,11.05,1.22-5.98,13.7-5.98,17.32l10.8,14.27c1.6-.14,1.68-1.45,2.1-2.5,1.66-4.15,5.56-28.21,9.38-29.07,2.58.19,5.81-.43,8.23.23,5.33,1.44,11.16,24.46,14.21,29.38-.85-4.02,4.73-6.73,4.94-8.35.23-1.77.27-7.13-.11-8.71-.1-.42-5.61-3.7-3.05-7.44,6.86-3.11,12.67-6.05,20.04-1.48,3.82,2.37,4.82,8.8,8.93,10.84l-1.12,9.23h3.22s1.55-20.76,1.55-20.76c.55-.73,1.36-.78,2.22-.93,2.71-.45,18.16-1.35,20.26-.78,3.87,1.04,3.11,6.17,2.75,9.03l-1.61,1.48-5.76.61,1.05,8.4c8.45-3.31,7.94,10.74,4.7,11.68l-21.26,1.89c-4.57-.74-1.37-9.75-5.51-9.71-3.83.04-9.13,8.16-18.46,8.86-5.47.41-7.55-1.15-12.24-2.86l.04,4.46-10.07.27c-3.05-.84-3.57-5.15-4.08-7.59l-5.7-.16-3.49,7.81c-4.71-.43-17.07,1.45-20.41-.79-1.14-.77-4.06-5.17-5.54-6.69-.64-.65.06-1.9-2.46-1.26.3,6.36,1.08,9.68-7.01,9.95-4.97.16-6.42.43-10.83.84-14.74,1.37-11.92-2.91-14.47-14ZM391.03,686.83c-.22-3.36,4.94-7.83,7.61-4.51,3.22,4-2.16,8.52-1.14,9.44l3.78-.95.54,2.45-9.71,1.46,4.3-9.85-5.38,1.96ZM397.5,984.43c-1.35-19.18-3.03-38.42-4.36-57.6-.41-5.87.51-11.89.03-17.76-1.12-13.54-7.76-24.06-6.31-38.32.74-7.24,4.52-14.78,5.24-21.82,2.17-21.15-7.13-49.94-15.05-69.98-12.13-30.71-45.27-57.15-69.52-80.28l-23.14-24.64c2.02-.43,2.56,1.03,3.77,1.96,4.4,3.39,9.38,8.42,13.49,12.29,19.5,18.4,46.24,42.99,62.45,63.09,9.14,11.34,12.85,26.21,21.3,36.69,9.17,11.36,26.79,13.32,36.84,1.72,12.62-14.56,13.28-50.24,9.7-67.95-.39-1.93-2.43-2.49-2.12-4.46l2.15.5-2.15-20.2,2.52,4.09,5.54,47.15c11.57-14.28,16.88-32.83,26.17-48,.47-.77,5.09-6.45,4.47-2.82-.7,4.11-3.31,9.16-5.13,13.05-7.89,16.86-18.68,34.43-26.24,50.89-7,15.27-8.49,37.17-31.57,39.15-6.96.6-13.66-3.89-19.94-5.95,2.27,4.73,4.27,9.85,5.91,14.79,8.12,24.38,1.8,31.34.51,54.64-1.18,21.21,2.61,43.02,14.94,61.3,4.87,7.22,12.06,12.69,17.41,19.55-1.08,1.6-2.38-.33-3.23-.98-4.31-3.31-8.09-7.91-12.39-11.33l-11.28-13.8v65.03ZM401.79,966.2c.38-10.77-3.29-18.61,13.56-14.34l-.09,15.82c10.17-8.9,14.75-19.21,31.18-16.69,16.23,2.49-8.49,17.61-8.05,22.04.45,4.59,14.33,17.93,15.13,24.21,2.83-.09-.01-3.85-.01-4.43v-42.37c1.64-1.75,3.48-2.22,5.9-2.48,5.24-.56,19.7-.64,24.85-.03,6.84.81,5.32,7.15,3.56,11.73l-21.39,1.12,1.22,7.75c10.2-1.3,14.44,2.04,10.7,11.53l-10.85.43,1.01,10.41,22,.56,2.3,4.8,12.33-45.63c2.25-2.54,11.7-2.02,13.78-.44,1.34,1.01,12.53,25.47,14.01,29.06,1.5,3.62,8.32,19.33,6.6,21.81l-13.77,1.01-4.94-14.69c-2.31-2.52-9.12.06-12.31.09-.38,2.74-1.75,13.87-4,14.57-4.15.89-8.95-.48-12.82-.37-11.47.32-23.72-.28-35.53.04-4.14.11-7.88,2.33-12.88,1.43-5.07-.91-14.53-16.86-17.57-21.37-.51-.76.36-1.68-1.83-1.26l-7.92,6.56-1.25,17.09-12.82-.11c-.49-2.07-1.08-4.11-1.24-6.26-.77-10.32.75-21.45,1.11-31.58ZM511.68,1042.58c-2.26-.25-11.33.97-11.86-1.5-.47-2.2,6.62-6.32,4.86-8.35l-3.77,1.96c-.97-5.7,5.27-8.41,8.47-3.24l-4.16,8.17c2.05.22,4.52-.29,6.46,0,1.42-6.08,3.4-9.53,10.77-10.84l-3.22,5.9c6.44-.29,7.93,7.37,1.37,8.67-7.73,1.53-6.81-3.41-8.91-3.73-.2.85.16,2.02,0,2.96ZM492.76,1042.61c-9.02.85-8.5-10.86-1.86-12.67,8.99-2.44,8.61,11.78,1.86,12.67ZM477.73,1028.14c7.27-.05,1.81,8.75-.53,11.47h6.47s-.01,2.94-.01,2.94l-10.76,1.02c-1.74-3.68,1.85-6.56,3.23-9.85-6.84.94-1.72-5.55,1.6-5.57ZM466.43,1036.66c-1.97-.09-10.65.74-10.75-1.47l2.61-3.17,8.13,1.7v2.93ZM442.72,1036.67h-5.38s2.68-7.9,2.68-7.9h2.17s-.54,3.94-.54,3.94l3.77-4.9c2.98,2.02-.1,5.65,3.8,6.38l-.07,1.95c-3.57,1.65-4.04,3.87-4.27,7.42-5.68.42-1.76-6.58-2.15-6.89ZM429.81,1033.71c-1.55-6.35,7.91-7.9,7.55-1.56-.16,2.74-3.29,3.89-3.25,6.48,2.51-.13,5.7-.11,5.38,2.96l-10.77.99c-.61-3.5,2.01-5.95,4.3-8.39l-3.21-.48ZM420.71,1041.63c-7.55-.98-3.65-12.89,2.34-13.7,7.89-1.07,6.77,14.88-2.34,13.7ZM406.65,1030.76l-3.77,1.96c-1.08-3.99,3.28-8.03,7.02-4.93,4,3.32-2.68,9.02-1.64,9.86h4.31s0,3.94,0,3.94h-10.77c-1.7-1.38,7.35-8.64,4.85-10.83ZM602.76,1291.83c-8.82-10.04-16.81-25.34-26.02-36.31-8.53-10.16-17.61-23.37-33.35-17.86-16.3,5.71-35.78,42.53-45.26,56.15-9.04,12.99-21.05,24.41-30.62,37.03-1.79,2.36-2.01,8.02-6.48,5.9,5.11-6.71,8.97-13.94,14-20.7,21.1-28.35,43.54-51.88,51.23-87.16,7.32-33.62-22.42-36.42-36.18-59.64-6.11-10.31-10.48-24.48-15.93-35.68-14.2-29.19-34.41-53.08-56.2-77.68-.46-.52-11.84-10.43-8.09-9.35l8.63,5.9,45.76,53.22c-3.9-19.82-7.23-39.77-7.36-59.95l4.13-1.14c-1.7,11.22.64,23.41,2.47,34.69,5.61,34.44,19.34,77.56,44.37,104.26,5.42,5.78,17.16,14.16,19.89,21.22,5.33,13.79,1.78,27.18-2.09,40.85,8.52-7.5,12.87-15.39,26.29-13.71,14.21,1.79,27.8,24.74,35.28,34.73,6.64,8.85,14.96,16.96,19.21,27.26-1.96.37-2.68-.86-3.7-2.02ZM590.83,634.6c2.97-1.33,1.55-4.62,1.78-4.79.36-.27,7.66-3.48,8.39-3.65,2.18-.49,4.44-.88,6.59.03,4.47,2.72-6.56,10.74-6.36,12.68l9.54,13.47c-2.47-7.46-4.5-18.97,3.32-24.07,5.66-3.69,9.67-3.17,13.3,2.47,1.48,2.29.64,6.45,3.85,5.84l1.16-10.77,9.65-.65c3.38,2.09-1.65,17.4-1.12,21.27h8.63c.47-7.31,1.37-16.09,4.84-22.66h18.85l-.15,10.21c-.82,2.29-4.21,1.57-6.31,1.62.3,2.28,1.89,4.92.96,7.26-.69,1.73-3.3.9-3.11,2.57,7.23-1.14,10.45,2.6,8.75,8.75l2.01,1.1c-2.35.36-4.55,1.35-6.97,1.46-6.41.29-14.47-1.41-20.54-1.48-3.6-.04-18.49,3.21-19.8-.6l.46-7.25c-3.99,4.83-3.24,6.99-10.79,6.99-2.03,0-4.09-1.12-5.29-1.1-.72.02-.56,1.83-1.95,2.31-.42.14-8.25.79-8.93.77-2.36-.07-7.2-8.84-9.13-7,1.08,2.37-1.95,3.02-2.13,3.68-.34,1.25.4,3.47-.14,4.11-.48.57-9.22,1.74-10.74.64-2.56-1.63.55-23.5-2.84-27.65,2.35-4.08,8.34-2.05,12.61-2.47.64.59-1.44,8.25,1.59,6.89ZM612.35,1305.72l-1.57-3.97c6.17,5.5,12.66,14.1,15.06,21.68l-13.49-17.71ZM699.83,764.38c-.94.9-7.75,5.56-9.42,6.65-10.4,6.79-18.25,8.26-23.49,20.89-4.98,11.99.13,15.85,3.08,26.97-2.59-1.37-3.81-5.42-6.24-6.85-9.09-5.38-21.52-1.38-30.37,2.42-16.83,7.22-29.05,20.48-44.15,30.06-.35-1.86,1.41-2.83,2.66-3.97,20.04-18.28,60.21-39.41,43.66-69.93l7.85,7.1c20.05,11.3,41.47-6.81,57.32-16.95,1.44.61-.22,2.99-.89,3.63ZM848.82,390.22c-6.46.63-10.7,5.81-15.14,8.32-45.47,25.75-96.48,14.32-146.96,18.3-65.49,5.17-106.48,25.42-161.8,53.99-7.78,4.02-15.76,10.37-23.43,14.04-17.19,8.22-27.51,9.38-41.02,24.56-4.76,5.35-16.67,25.82-17.65,32.14-2.31,14.83,3.72,30.59,7.43,44.75-1.44-.29-2.34-1.58-2.92-2.74-4.2-8.26-5.54-18.24-8.38-26.83-.31-.94-.2-2.24-1.6-1.95l-11.87,35.46c-1.88.25-1.09-2.27-.95-3.33.5-3.72,2.52-9.51,3.64-13.43,5.08-17.8,12.38-39.57,22.31-55.47,5.63-9.01,13.08-18.77,22.39-24.83-17.74-7.85-8.52-28.63-7.48-42.34,2.05-27-11.07-48.78-17.88-73.38-.79-2.87-.49-6.07-1.53-8.93,1.38.28,2.37,1.6,2.97,2.69,2.61,4.71,5.86,14.06,7.84,19.43,4.67,12.72,8.29,25.94,11.81,38.96l23.68-60.1c.85,8.31-5.37,16.03-8.07,23.65-8.74,24.65-15.35,51.84-18.88,77.33-1.35,9.72,3.35,19.4,15.54,18.2,3.67-.36,17.11-6.38,21.16-8.27,36.7-17.11,95.55-57.06,134.2-62.5,9.22-1.3,18.7-.33,27.87-1.11,10.7-.91,22.92-3.32,33.42-3.92,16.21-.91,32.32,1.45,48.5,1.01,26.72-.73,58.53-7.05,82.38-18.25,2.69-1.27,20.56-12.12,21.52-11.34l-3.22,3.45,2.14,2.44Z"/>
      <path d="M462.13,435.76l20.23-56.21c.73,7.77-4.59,15-6.89,22.12-7.47,23.06-13.11,48.49-16.13,72.32-1.15,9.09,2.86,18.15,13.27,17.02,3.13-.34,14.62-5.97,18.08-7.73,31.35-16,81.62-53.37,114.64-58.45,7.88-1.21,15.97-.31,23.81-1.04,9.14-.85,19.58-3.11,28.55-3.66,13.85-.85,27.61,1.36,41.43.94,22.83-.68,50-6.59,70.38-17.07,2.3-1.18,17.57-11.33,18.39-10.61l-2.75,3.23,1.83,2.28c-5.52.59-9.14,5.43-12.94,7.79-38.84,24.09-82.42,13.4-125.54,17.12-55.94,4.83-90.96,23.78-138.22,50.5-6.65,3.76-13.46,9.7-20.02,13.13-14.69,7.69-23.5,8.77-35.04,22.97-4.07,5.01-14.24,24.15-15.08,30.06-1.97,13.87,3.18,28.61,6.35,41.85-1.23-.27-2-1.48-2.5-2.56-3.58-7.73-4.74-17.06-7.16-25.1-.26-.88-.17-2.1-1.36-1.83l-10.14,33.17c-1.61.23-.93-2.12-.81-3.12.43-3.48,2.15-8.89,3.11-12.56,4.34-16.65,10.57-37.01,19.06-51.88,4.81-8.43,11.17-17.56,19.13-23.22-15.15-7.34-7.28-26.78-6.39-39.6,1.75-25.25-9.45-45.62-15.28-68.63-.68-2.68-.42-5.68-1.31-8.35,1.18.26,2.02,1.5,2.54,2.52,2.23,4.41,5.01,13.15,6.7,18.18,3.99,11.9,7.08,24.26,10.09,36.44Z"/>
      <path d="M585.29,88.63c-13.3,17.21-28.4,37.85-44.86,52.99-9.69,8.91-30.3,22.59-46.04,16.91-6.43-2.32-16.85-15.53-20.33-20.7-2.19-3.26-5.09-7.06-7.5-10.81l-5.26-9.8c2.03,10.24,10.93,19.39,16.57,28.6,7.66,12.53,16.23,28.34,14.81,42.55-1.31,13.11-16.4,32.62-24.79,44.43-4.95,6.97-10.72,13.63-15.49,20.7l1.21.98c7.48-9.66,14.27-20.06,23.82-28.62l.81,25.7,2.03,5.87s.07,0,.11,0c-2.82-16.45-.06-35.71,7.96-51.07,4.54-8.69,8.37-9.79,7.69-20.53-.29-4.58-2.38-8-3.21-11.73-1.01-4.51-1.39-9.4-2.47-13.94,6.73,1.8,11.86,4.96,19.36,3.9l1.94-1.25c3.11-2,3.81-2.49,3.93-2.58.07-.03.25-.13.64-.36,26.91-15.4,46.87-40.39,64.19-62.12,2.92-3.66,7.18-6.56,8.44-11.42-1.14-1.27-3.1,1.68-3.59,2.31Z"/>
      <path d="M302.02,688.29c19.5,16.13,46.24,37.7,62.45,55.33,9.14,9.95,12.85,20.58,21.3,29.76,9.17,9.97,26.79,14.09,36.84,3.92,12.62-12.77,13.89-43.16,10.3-58.69-.39-1.69-.36-1.62-.41-2.5l-.17-1.88-2.15-17.71,2.52,3.59,5.54,41.35c11.57-12.52,16.88-28.79,26.17-42.09.47-.68,5.09-5.66,4.47-2.47-.7,3.61-3.31,8.03-5.13,11.45-7.89,14.78-18.68,30.19-26.24,44.63-7,13.39-8.49,32.6-31.57,34.33-6.96.52-13.66-3.41-19.94-5.22,2.27,4.14,4.27,8.64,5.91,12.97,8.12,21.38,1.8,27.49.51,47.91-1.18,18.6,2.61,37.73,14.94,53.76,4.87,6.33,12.06,11.13,17.41,17.14-1.08,1.4-2.38-.29-3.23-.86-4.31-2.9-8.09-6.94-12.39-9.93l-11.28-12.11v57.03c-1.35-16.82-3.03-33.69-4.36-50.52-.41-5.14.51-10.43.03-15.58-1.12-11.87-7.76-21.1-6.31-33.61.74-6.35,4.52-12.96,5.24-19.13,2.17-18.55-7.13-43.8-15.05-61.37-12.13-26.93-45.27-50.12-69.52-70.4"/>
      <path d="M450.72,980.55c-1.43,7.8.54,16.27,2.08,24.12,4.71,23.94,16.25,53.92,37.27,72.48,4.55,4.02,14.42,9.84,16.71,14.75,4.48,9.59,1.5,18.9-1.76,28.4,7.15-5.21,10.81-10.7,22.08-9.53,11.94,1.24,23.35,17.2,29.64,24.14,5.57,6.16,12.57,11.79,16.13,18.95-1.64.26-2.25-.6-3.11-1.41-7.41-6.98-14.12-17.61-21.85-25.24-7.16-7.07-14.79-16.25-28.01-12.42s-30.05,29.56-38.01,39.03c-7.59,9.03-17.68,16.97-25.72,25.74-1.51,1.64-1.69,5.57-5.44,4.1,4.29-4.66,7.53-9.69,11.76-14.39,17.72-19.71,36.57-36.07,43.03-60.59,6.15-23.37-18.83-25.32-30.39-41.46-5.13-7.17-8.81-17.02-13.38-24.81-11.93-20.3-28.91-36.9-47.21-54-.39-.36-9.94-7.25-6.79-6.5l7.25,4.1,38.44,37c-3.27-13.78-6.08-27.65-6.18-41.68l3.47-.79Z"/>
      <path d="M161.35,568.62c11.05,9.95,19.78,18.77,33.37,25.98,7.58,4.02,15.76,5.75,23.02,9.62,14.93,7.97,44.85,38.85,56.51,52.72.79.93,5.88,7.21,5.21,7.89-1.7.37-2.3-.95-3.34-1.94-9.23-8.81-17.51-19.45-27.03-28.12-32.42-29.52-74.82-42.56-105.93-73.37-19.9-19.71-29.98-45.9-46.08-68.47l-5.18-14.33c3.45,3.97,5.02,9.25,7.68,13.71,17.43,29.22,36.92,53.91,61.8,76.3Z"/>
      <path d="M676.74,751.14c-.32.88-3.23,6.03-3.95,7.25-4.54,7.66-9.12,11.08-8.5,20.85.59,9.28,5.1,10.15,10.51,16.36-2.1-.06-4.16-2.28-6.18-2.43-7.54-.58-14.27,5.92-18.76,11.16-8.54,9.96-12.2,22.35-18.88,33.29-.82-1.08.01-2.26.45-3.39,7.1-18.09,26.24-44.37,5.95-58.76l7.29,2.08c16.46.92,24.51-17.49,31.49-29.02,1.12-.06.8,2,.58,2.62ZM661.9,772.85c-4.92,3.46-10.4,6.59-16.55,6.56,9.23,9.73,2.35,19.2-1.64,29.91,2.6-1.82,3.55-4.97,5.53-7.34,4.65-5.54,9.8-8.32,16.9-9.99-.95-2.91-3.85-4.22-4.85-7.07-1.35-3.88.49-8.09.6-12.07Z"/>
      <path d="M227,460.56c-2.97-3.83-1.94-9.92-2.77-14.56-2.22-12.5-4.31-23.65-20.44-26.05,5.38-1.57,8.47-3.68,10.69-8.8,3.47-8.01,1.89-16.88,2.04-25.36,2.93,3.82,1.49,9.01,2.53,13.37,2.15,8.99,9.65,13.66,18.42,16.19,4.1,1.18-1.63,2.07-2.49,2.62-13.17,8.44-8.27,29.69-7.98,42.58ZM232.84,416.14c-6.84-3.4-11.08-8.07-14.73-14.22-.32,4.95,1.9,8.99-2.74,12.58-1.72,1.33-3.29,3.77-5.66,5.56,7.4,1.43,10.52,9.03,14.24,14.07-.38-8,1.91-13.43,8.89-17.98Z"/>
    </g>
  </g>
  <g>
    <path d="M410.6,276.93h-3.82l-7.73,31.26h3.62v.86h-18.24v-.86h4.3l7.73-31.26h-4.1v-.86h18.24v.86ZM396.99,293.23v-.86h17.28v.86h-17.28ZM431.22,276.08v.86h-4.27l-7.73,31.26h4.08v.86h-18.22v-.86h3.82l7.73-31.26h-3.62v-.86h18.22Z"/>
    <path d="M423.63,314.46l30-30.87h1.22l-29.98,30.87h-1.25ZM436.66,309.49c-2.78,0-4.99-.53-6.61-1.58-1.62-1.06-2.44-2.79-2.44-5.21,0-1.76.42-3.49,1.26-5.19.84-1.7,1.99-3.24,3.44-4.61,1.46-1.37,3.13-2.47,5.03-3.29s3.9-1.23,6.01-1.23c2.78,0,5.03.57,6.73,1.7,1.7,1.14,2.56,2.91,2.56,5.33,0,1.7-.4,3.38-1.2,5.05-.8,1.66-1.92,3.18-3.36,4.54-1.44,1.36-3.13,2.45-5.08,3.27s-4.06,1.22-6.35,1.22ZM436.66,308.64c.43,0,.91-.32,1.44-.96.53-.64,1.07-1.49,1.62-2.56.55-1.07,1.09-2.26,1.61-3.56.52-1.3.98-2.63,1.39-3.99.41-1.36.73-2.65.97-3.87.24-1.22.36-2.27.36-3.13,0-.42-.05-.75-.14-.98-.1-.23-.28-.34-.55-.34-.43,0-.91.32-1.44.96-.53.64-1.07,1.49-1.62,2.56-.55,1.07-1.09,2.26-1.61,3.56-.52,1.3-.98,2.63-1.39,3.99-.41,1.36-.73,2.64-.97,3.86-.24,1.22-.36,2.26-.36,3.14,0,.41.05.73.16.97.1.23.28.35.54.35Z"/>
    <path d="M448.71,320.49c-1.7,0-3.09-.29-4.18-.87-1.09-.58-1.89-1.28-2.4-2.11s-.77-1.62-.77-2.36c0-.89.23-1.69.7-2.37.46-.69,1.08-1.23,1.85-1.63.77-.4,1.59-.59,2.47-.59,1.33,0,2.46.4,3.38,1.19.93.79,1.39,1.85,1.39,3.17,0,1-.45,1.9-1.34,2.71-.9.81-2.05,1.22-3.46,1.22-1.3,0-2.44-.34-3.44-1.02-1-.68-1.5-1.57-1.5-2.67h.91c0,.81.29,1.55.88,2.24.58.69,1.36,1.24,2.33,1.66.97.42,2.02.63,3.16.63s2.04-.36,2.76-1.07c.72-.71,1.33-1.72,1.84-3.02s.99-2.84,1.45-4.62l5.71-21.28h-2.95v-.86h11.9l-5.81,20.73c-.53,1.89-1.34,3.52-2.45,4.9-1.1,1.38-2.37,2.51-3.8,3.41-1.43.89-2.9,1.55-4.39,1.98-1.5.43-2.91.64-4.24.64ZM466.95,285.33c-1.5,0-2.76-.47-3.77-1.4s-1.51-2.08-1.51-3.46.5-2.55,1.51-3.46,2.26-1.37,3.77-1.37,2.78.46,3.77,1.37c.99.92,1.49,2.07,1.49,3.46s-.5,2.53-1.49,3.46c-.99.93-2.25,1.4-3.77,1.4Z"/>
    <path d="M478.86,309.49c-1.94,0-3.54-.33-4.8-.98-1.26-.65-2.21-1.51-2.83-2.58-.62-1.07-.94-2.23-.94-3.47,0-1.92.4-3.73,1.2-5.43.8-1.7,1.9-3.2,3.3-4.5,1.4-1.3,3.01-2.31,4.84-3.04s3.76-1.1,5.81-1.1c2.82,0,5.01.52,6.58,1.55,1.57,1.03,2.35,2.29,2.35,3.77,0,.94-.28,1.81-.84,2.62-.56.81-1.44,1.52-2.65,2.14-1.21.62-2.78,1.13-4.73,1.53-1.94.4-4.31.65-7.09.77v-.62c.9-.04,1.76-.37,2.59-.99.83-.62,1.59-1.38,2.28-2.29.69-.91,1.29-1.84,1.81-2.8.52-.96.92-1.82,1.2-2.59.28-.77.42-1.3.42-1.59,0-.21-.04-.37-.12-.49-.08-.12-.26-.19-.53-.19-.51,0-1.06.32-1.64.95-.58.63-1.17,1.47-1.76,2.51-.59,1.04-1.16,2.2-1.69,3.46-.54,1.27-1.02,2.55-1.44,3.86s-.76,2.53-1.01,3.68c-.25,1.15-.37,2.11-.37,2.89,0,.67.18,1.14.55,1.41.37.26.87.4,1.51.4.9,0,1.9-.22,3.01-.66,1.11-.44,2.23-1.07,3.36-1.9s2.16-1.81,3.11-2.96l.82.53c-.86.95-1.86,1.9-3,2.85-1.14.95-2.46,1.73-3.97,2.35-1.51.62-3.28.93-5.32.93Z"/>
    <path d="M494.84,309.05l5.5-19.37h-3.82v-.86h12.43l-5.52,20.23h-8.59ZM504.46,303.21c.3-1.19.67-2.45,1.1-3.8.43-1.35.95-2.67,1.55-3.97.6-1.3,1.28-2.48,2.04-3.54.76-1.06,1.61-1.91,2.56-2.54.94-.63,1.98-.95,3.12-.95,1.46,0,2.68.4,3.67,1.2.99.8,1.49,1.88,1.49,3.24,0,1.29-.46,2.37-1.39,3.24s-2.09,1.31-3.48,1.31c-1.31,0-2.42-.38-3.34-1.15s-1.37-1.75-1.37-2.96.46-2.25,1.38-3,2.05-1.13,3.4-1.13,2.47.31,3.38.93,1.37,1.54,1.37,2.76l-.94-.02c0-1.16-.39-2.04-1.18-2.66-.78-.62-1.82-.92-3.1-.92-.99,0-1.92.31-2.77.93-.86.62-1.64,1.45-2.36,2.47-.72,1.03-1.37,2.16-1.96,3.4s-1.1,2.48-1.54,3.73c-.44,1.25-.8,2.39-1.09,3.43h-.55Z"/>
    <path d="M242.11,361.82v-.86h17.52c1.47,0,2.81-.42,4.01-1.25,1.2-.84,2.28-1.96,3.23-3.36.95-1.41,1.77-2.98,2.46-4.71.69-1.73,1.26-3.5,1.72-5.3.46-1.8.8-3.52,1.02-5.14.22-1.63.34-3.03.34-4.22,0-1.01-.06-1.96-.17-2.84-.11-.88-.34-1.65-.67-2.32-.34-.67-.84-1.19-1.51-1.56-.67-.37-1.58-.56-2.71-.56h-17.54v-.86h18.94c2.61,0,5.03.42,7.26,1.25s4.03,2.14,5.39,3.91c1.36,1.77,2.04,4.08,2.04,6.93,0,2.67-.52,5.25-1.56,7.74-1.04,2.49-2.52,4.73-4.45,6.71-1.93,1.98-4.23,3.55-6.91,4.7-2.68,1.16-5.66,1.74-8.94,1.74h-19.44ZM246.43,361.82l8.14-32.98h10.34l-8.18,32.98h-10.3Z"/>
    <path d="M292.89,362.26c-1.94,0-3.54-.33-4.8-.98-1.26-.65-2.21-1.51-2.83-2.58-.62-1.07-.94-2.23-.94-3.47,0-1.92.4-3.73,1.2-5.43.8-1.7,1.9-3.2,3.3-4.5,1.4-1.3,3.01-2.31,4.84-3.04,1.82-.73,3.76-1.1,5.81-1.1,2.82,0,5.01.52,6.58,1.55,1.57,1.03,2.35,2.29,2.35,3.77,0,.94-.28,1.81-.84,2.62-.56.81-1.44,1.52-2.65,2.14-1.21.62-2.78,1.13-4.73,1.53-1.94.4-4.31.65-7.09.77v-.62c.9-.04,1.76-.37,2.59-.99.83-.62,1.59-1.38,2.28-2.29.69-.91,1.29-1.84,1.81-2.8.52-.96.92-1.82,1.2-2.59.28-.77.42-1.3.42-1.59,0-.21-.04-.37-.12-.49s-.26-.19-.53-.19c-.51,0-1.06.32-1.64.95-.58.63-1.17,1.47-1.76,2.51-.59,1.04-1.16,2.2-1.69,3.46s-1.02,2.55-1.44,3.86-.76,2.53-1.01,3.68c-.25,1.15-.37,2.11-.37,2.89,0,.67.18,1.14.55,1.41.37.26.87.4,1.51.4.9,0,1.9-.22,3.01-.66,1.11-.44,2.23-1.07,3.36-1.9s2.16-1.81,3.11-2.96l.82.53c-.86.95-1.86,1.9-3,2.85-1.14.95-2.46,1.73-3.97,2.35-1.51.62-3.28.93-5.32.93Z"/>
    <path d="M318.74,362.26c-2.06,0-3.83-.24-5.3-.71-1.47-.48-2.6-1.14-3.38-1.99-.78-.85-1.18-1.82-1.18-2.9s.42-2.07,1.26-2.86c.84-.79,1.94-1.19,3.3-1.19,1.26,0,2.31.34,3.14,1.03.83.69,1.25,1.63,1.25,2.84s-.44,2.14-1.32,2.77c-.88.63-1.92.95-3.12.95-.82,0-1.56-.17-2.24-.52-.68-.34-1.22-.79-1.62-1.33-.4-.54-.6-1.11-.6-1.69h1.3c0,.94.34,1.76,1.03,2.46s1.6,1.25,2.75,1.64c1.14.39,2.4.58,3.76.58.82,0,1.54-.16,2.17-.47.63-.31,1.13-.73,1.5-1.24.37-.51.55-1.07.55-1.67,0-.75-.23-1.41-.7-1.99-.46-.58-1.06-1.11-1.8-1.59-.74-.48-1.52-.96-2.35-1.44-.83-.48-1.62-.97-2.35-1.49s-1.34-1.1-1.8-1.75c-.46-.64-.7-1.39-.7-2.24,0-1.16.41-2.23,1.22-3.21.82-.98,1.99-1.77,3.52-2.36,1.53-.59,3.36-.89,5.48-.89s3.95.26,5.23.77c1.28.51,2.19,1.15,2.74,1.92.54.77.82,1.54.82,2.3,0,1.11-.42,1.99-1.26,2.64-.84.65-1.78.97-2.82.97-1.18,0-2.26-.35-3.22-1.07-.96-.71-1.44-1.65-1.44-2.8,0-.95.38-1.76,1.14-2.41.76-.65,1.77-.98,3.04-.98s2.25.33,3.16,1c.9.67,1.36,1.55,1.36,2.65h-1.13c0-.66-.25-1.3-.76-1.92-.5-.62-1.24-1.13-2.2-1.53s-2.11-.59-3.46-.59c-.9,0-1.64.15-2.24.45-.6.3-1.05.68-1.36,1.14-.3.46-.46.94-.46,1.44,0,.76.25,1.44.76,2.03.5.59,1.15,1.14,1.94,1.64.79.5,1.63.99,2.52,1.47.89.48,1.73,1,2.52,1.56.79.56,1.44,1.19,1.94,1.89.5.7.76,1.52.76,2.46,0,1.23-.46,2.32-1.37,3.25-.91.94-2.22,1.67-3.91,2.2-1.7.53-3.72.79-6.07.79Z"/>
    <path d="M338.9,362.26c-1.84,0-3.16-.3-3.97-.91s-1.21-1.4-1.21-2.39c0-.56.06-1.06.17-1.51.11-.45.2-.79.26-1.02l4.01-13.98h-3.24v-.86h12.07l-5.11,17.61c-.03.12-.06.25-.1.38-.03.14-.05.27-.05.41,0,.15.04.26.11.34.07.08.19.12.35.12.27,0,.66-.14,1.16-.43.5-.29,1.11-.85,1.81-1.7.7-.85,1.47-2.1,2.3-3.76l.94.29c-.85,1.69-1.73,3.07-2.65,4.17-.92,1.09-1.94,1.91-3.05,2.44-1.11.53-2.38.8-3.8.8ZM344.61,338.1c-1.01,0-1.91-.23-2.7-.68-.79-.45-1.42-1.05-1.87-1.79s-.68-1.54-.68-2.39.23-1.64.68-2.37,1.08-1.33,1.87-1.78,1.69-.68,2.7-.68,1.91.23,2.71.68c.8.45,1.43,1.05,1.9,1.78s.7,1.52.7,2.37-.23,1.65-.7,2.39-1.1,1.34-1.9,1.79c-.8.45-1.7.68-2.71.68Z"/>
    <path d="M355.89,373.25c-1.97,0-3.77-.16-5.41-.47-1.64-.32-2.95-.82-3.92-1.53-.98-.7-1.46-1.64-1.46-2.81,0-.56.18-1.1.54-1.63.36-.53.9-1,1.61-1.41.71-.41,1.6-.74,2.65-.98,1.06-.24,2.28-.36,3.67-.36h.5c-.3.19-.65.48-1.03.88-.38.4-.71.88-.98,1.44-.27.56-.41,1.19-.41,1.88,0,1.33.54,2.32,1.62,2.97,1.08.64,2.68.97,4.81.97,1.12,0,2.27-.14,3.44-.41,1.18-.27,2.27-.65,3.28-1.12,1.01-.48,1.82-1.04,2.45-1.7.62-.66.94-1.37.94-2.13,0-.81-.24-1.41-.71-1.81-.47-.4-1.19-.6-2.15-.6h-9.12c-1.44,0-2.8-.19-4.07-.58-1.27-.39-2.3-.95-3.08-1.69-.78-.74-1.18-1.64-1.18-2.69,0-.95.33-1.77.98-2.45s1.51-1.24,2.57-1.68c1.06-.44,2.21-.77,3.47-.98,1.26-.21,2.48-.32,3.68-.32l-.05.48c-1.57,0-2.76.19-3.59.58-.82.39-1.24.79-1.24,1.22,0,.32.16.57.47.74s.76.28,1.36.33c.59.05,1.3.08,2.14.08.56,0,1.24,0,2.05-.01.81,0,1.6-.01,2.39-.02.78,0,1.4-.01,1.85-.01,2.16,0,3.92.52,5.28,1.55s2.04,2.61,2.04,4.72c0,1.6-.45,3-1.34,4.2-.9,1.2-2.09,2.2-3.58,3-1.49.8-3.14,1.4-4.96,1.79-1.82.4-3.65.59-5.51.59ZM361.12,354.78c-1.86,0-3.51-.24-4.97-.73-1.46-.48-2.6-1.17-3.44-2.07s-1.26-1.96-1.26-3.21c0-1.41.55-2.69,1.66-3.84,1.1-1.15,2.57-2.07,4.4-2.75s3.84-1.02,6.01-1.02c1.86,0,3.51.26,4.97.77,1.46.51,2.6,1.23,3.44,2.17.84.93,1.26,2.02,1.26,3.27,0,1.39-.55,2.65-1.66,3.77-1.1,1.12-2.57,2.01-4.39,2.66-1.82.65-3.83.98-6.02.98ZM360.52,353.9c.27,0,.59-.3.95-.91.36-.61.72-1.38,1.09-2.32.37-.94.7-1.92,1.01-2.95.3-1.03.55-1.97.74-2.84s.29-1.51.29-1.94c0-.25-.04-.46-.11-.65-.07-.18-.2-.27-.37-.27-.27,0-.59.3-.95.9-.36.6-.72,1.37-1.09,2.31-.37.94-.7,1.92-1.01,2.95-.3,1.03-.55,1.97-.74,2.84-.19.86-.29,1.51-.29,1.93,0,.25.04.47.12.66.08.19.2.29.36.29ZM376.48,341.37c1.42,0,2.61.41,3.55,1.22.94.81,1.42,1.81,1.42,2.98,0,1.04-.33,1.92-.98,2.65-.66.73-1.58,1.09-2.78,1.09-1.02,0-1.88-.31-2.57-.95s-1.03-1.44-1.03-2.44c0-.91.36-1.64,1.09-2.19.73-.55,1.56-.84,2.51-.87.35.02.68.11,1,.3.31.18.52.44.61.76-.18-.48-.54-.89-1.09-1.22-.55-.33-1.18-.49-1.88-.49-.83,0-1.62.15-2.36.46-.74.31-1.44.78-2.08,1.43-.64.65-1.23,1.47-1.78,2.46l-.67-.33c.85-1.63,1.85-2.84,3-3.65,1.15-.81,2.5-1.21,4.06-1.21Z"/>
    <path d="M379.65,361.82l5.66-19.37h-3.19v-.86h12.17l-6.02,20.23h-8.62ZM398.78,362.26c-1.68,0-2.92-.38-3.72-1.15-.8-.77-1.2-1.73-1.2-2.89,0-.34.05-.73.14-1.19.1-.45.2-.86.31-1.23l2.45-7.96c.35-1.14.58-2.01.68-2.6.1-.59.12-1,.06-1.21-.06-.21-.18-.32-.36-.32-.3,0-.74.3-1.32.89-.58.59-1.21,1.43-1.91,2.52-.7,1.08-1.39,2.38-2.08,3.88-.69,1.5-1.3,3.16-1.85,4.98h-.6c.38-1.33.85-2.7,1.39-4.09.54-1.39,1.16-2.73,1.85-4,.69-1.27,1.45-2.42,2.29-3.43.84-1.01,1.75-1.81,2.74-2.4.98-.59,2.04-.88,3.16-.88,1.31,0,2.39.27,3.23.82s1.4,1.32,1.67,2.31c.27.99.2,2.14-.22,3.46l-3.41,10.84c-.03.1-.07.25-.11.43-.04.18-.06.33-.06.45,0,.25.04.42.12.52.08.1.2.14.36.14.61,0,1.38-.46,2.3-1.37.93-.92,1.86-2.32,2.81-4.21l.91.29c-.88,1.85-1.82,3.31-2.82,4.4-1,1.08-2.06,1.86-3.19,2.32-1.13.46-2.34.69-3.64.69Z"/>
    <path d="M418.03,361.82v-.86h17.52c2.19,0,4.18-.37,5.98-1.1,1.79-.73,3.38-1.77,4.75-3.12,1.38-1.35,2.54-2.95,3.48-4.81h.94l-2.5,9.89h-30.17ZM422.11,361.82l8.35-32.98h10.32l-8.35,32.98h-10.32ZM452.83,337.85c-.08-1.57-.47-2.97-1.16-4.2-.7-1.23-1.69-2.2-2.99-2.9-1.3-.7-2.88-1.06-4.75-1.06h-17.78v-.86h29.93l-2.3,9.01h-.94ZM442.8,350.91c-.24-.98-.59-1.91-1.06-2.78-.46-.87-1.04-1.58-1.73-2.12-.69-.54-1.49-.81-2.4-.81h-2.93v-.86h2.93c.91,0,1.87-.26,2.87-.77,1-.51,1.97-1.19,2.9-2.02s1.76-1.74,2.48-2.73h.94l-3.07,12.09h-.94Z"/>
    <path d="M450.4,373.25c-1.73,0-3.21-.25-4.45-.75-1.24-.5-2.2-1.15-2.87-1.97-.67-.81-1.01-1.69-1.01-2.63,0-1.35.5-2.45,1.5-3.31,1-.86,2.13-1.29,3.4-1.29,1.44,0,2.62.42,3.53,1.26.91.84,1.37,1.88,1.37,3.11,0,.82-.24,1.56-.73,2.23-.49.67-1.11,1.2-1.87,1.59-.76.4-1.56.59-2.39.59s-1.56-.23-2.29-.68c-.73-.45-1.32-1.01-1.78-1.66-.46-.65-.68-1.27-.68-1.86h.91c0,.76.26,1.48.78,2.14.52.67,1.24,1.2,2.16,1.6.92.4,1.96.6,3.13.6s2.15-.34,2.84-1.02,1.24-1.62,1.63-2.8c.39-1.19.74-2.54,1.06-4.07.31-1.52.68-3.13,1.12-4.81l5.04-20.23c.48-1.88,1.08-3.5,1.81-4.87.73-1.37,1.61-2.5,2.64-3.4,1.03-.89,2.25-1.56,3.66-2,1.41-.44,3.04-.66,4.9-.66,1.74,0,3.24.25,4.48.75,1.24.5,2.19,1.15,2.86,1.96.66.81,1,1.69,1,2.64,0,1.29-.48,2.38-1.45,3.26-.97.89-2.12,1.33-3.44,1.33s-2.46-.42-3.43-1.25c-.98-.84-1.46-1.88-1.46-3.12,0-.85.24-1.6.72-2.26.48-.66,1.11-1.18,1.88-1.57.78-.39,1.6-.58,2.46-.58.56,0,1.11.13,1.66.4.54.26,1.05.61,1.51,1.03.46.43.83.88,1.1,1.37.27.49.41.96.41,1.4h-.91c0-.78-.26-1.5-.78-2.15-.52-.66-1.24-1.19-2.15-1.59-.91-.4-1.96-.6-3.14-.6s-2.14.34-2.81,1.02c-.67.68-1.2,1.62-1.57,2.8-.38,1.19-.71,2.54-1,4.07s-.65,3.13-1.08,4.81l-5.04,20.23c-.46,1.86-1.06,3.48-1.8,4.86-.74,1.38-1.63,2.51-2.69,3.41s-2.3,1.56-3.74,2c-1.44.44-3.1.66-4.97.66ZM455.64,342.45v-.86h19.46v.86h-19.46Z"/>
    <path d="M481.63,362.26c-1.47,0-2.62-.17-3.46-.51s-1.42-.77-1.76-1.3c-.34-.53-.52-1.08-.52-1.65,0-.45.08-.95.25-1.47.17-.53.31-1.01.42-1.45l5.3-18.69h8.64l-6.26,21.59c-.05.16-.1.34-.14.53-.05.19-.07.39-.07.59,0,.45.19.68.58.68.19,0,.47-.08.84-.23s.79-.44,1.27-.87c.48-.42,1-1.05,1.57-1.87.57-.82,1.16-1.9,1.79-3.23l.94.26c-.85,1.76-1.69,3.2-2.53,4.32-.84,1.12-1.8,1.95-2.88,2.48-1.08.53-2.4.8-3.97.8ZM475.99,342.47v-.88h17.76v.88h-17.76Z"/>
    <path d="M501.83,362.26c-1.94,0-3.54-.33-4.8-.98-1.26-.65-2.21-1.51-2.83-2.58-.62-1.07-.94-2.23-.94-3.47,0-1.92.4-3.73,1.2-5.43.8-1.7,1.9-3.2,3.3-4.5,1.4-1.3,3.01-2.31,4.84-3.04s3.76-1.1,5.81-1.1c2.82,0,5.01.52,6.58,1.55,1.57,1.03,2.35,2.29,2.35,3.77,0,.94-.28,1.81-.84,2.62-.56.81-1.44,1.52-2.65,2.14-1.21.62-2.78,1.13-4.73,1.53-1.94.4-4.31.65-7.09.77v-.62c.9-.04,1.76-.37,2.59-.99.83-.62,1.59-1.38,2.28-2.29.69-.91,1.29-1.84,1.81-2.8.52-.96.92-1.82,1.2-2.59.28-.77.42-1.3.42-1.59,0-.21-.04-.37-.12-.49-.08-.12-.26-.19-.53-.19-.51,0-1.06.32-1.64.95-.58.63-1.17,1.47-1.76,2.51-.59,1.04-1.16,2.2-1.69,3.46-.54,1.27-1.02,2.55-1.44,3.86s-.76,2.53-1.01,3.68c-.25,1.15-.37,2.11-.37,2.89,0,.67.18,1.14.55,1.41.37.26.87.4,1.51.4.9,0,1.9-.22,3.01-.66,1.11-.44,2.23-1.07,3.36-1.9s2.16-1.81,3.11-2.96l.82.53c-.86.95-1.86,1.9-3,2.85-1.14.95-2.46,1.73-3.97,2.35-1.51.62-3.28.93-5.32.93Z"/>
    <path d="M517.82,361.82l5.5-19.37h-3.82v-.86h12.43l-5.52,20.23h-8.59ZM527.44,355.97c.3-1.19.67-2.45,1.1-3.8.43-1.35.95-2.67,1.55-3.97.6-1.3,1.28-2.48,2.04-3.54.76-1.06,1.61-1.91,2.56-2.54.94-.63,1.98-.95,3.12-.95,1.46,0,2.68.4,3.67,1.2.99.8,1.49,1.88,1.49,3.24,0,1.29-.46,2.37-1.39,3.24s-2.09,1.31-3.48,1.31c-1.31,0-2.42-.38-3.34-1.15s-1.37-1.75-1.37-2.96.46-2.25,1.38-3,2.05-1.13,3.4-1.13,2.47.31,3.38.93,1.37,1.54,1.37,2.76l-.94-.02c0-1.16-.39-2.04-1.18-2.66-.78-.62-1.82-.92-3.1-.92-.99,0-1.92.31-2.77.93-.86.62-1.64,1.45-2.36,2.47-.72,1.03-1.37,2.16-1.96,3.4s-1.1,2.48-1.54,3.73c-.44,1.25-.8,2.39-1.09,3.43h-.55Z"/>
    <path d="M551.63,362.26c-2.06,0-3.83-.24-5.3-.71-1.47-.48-2.6-1.14-3.38-1.99-.78-.85-1.18-1.82-1.18-2.9s.42-2.07,1.26-2.86,1.94-1.19,3.3-1.19c1.26,0,2.31.34,3.14,1.03s1.25,1.63,1.25,2.84-.44,2.14-1.32,2.77c-.88.63-1.92.95-3.12.95-.82,0-1.56-.17-2.24-.52-.68-.34-1.22-.79-1.62-1.33-.4-.54-.6-1.11-.6-1.69h1.3c0,.94.34,1.76,1.03,2.46.69.7,1.6,1.25,2.75,1.64,1.14.39,2.4.58,3.76.58.82,0,1.54-.16,2.17-.47.63-.31,1.13-.73,1.5-1.24.37-.51.55-1.07.55-1.67,0-.75-.23-1.41-.7-1.99-.46-.58-1.06-1.11-1.8-1.59-.74-.48-1.52-.96-2.35-1.44-.83-.48-1.62-.97-2.35-1.49-.74-.52-1.34-1.1-1.8-1.75-.46-.64-.7-1.39-.7-2.24,0-1.16.41-2.23,1.22-3.21.82-.98,1.99-1.77,3.52-2.36,1.53-.59,3.36-.89,5.48-.89s3.95.26,5.23.77c1.28.51,2.19,1.15,2.74,1.92s.82,1.54.82,2.3c0,1.11-.42,1.99-1.26,2.64s-1.78.97-2.82.97c-1.18,0-2.26-.35-3.22-1.07-.96-.71-1.44-1.65-1.44-2.8,0-.95.38-1.76,1.14-2.41.76-.65,1.77-.98,3.04-.98,1.2,0,2.25.33,3.16,1,.9.67,1.36,1.55,1.36,2.65h-1.13c0-.66-.25-1.3-.76-1.92-.5-.62-1.24-1.13-2.2-1.53s-2.11-.59-3.46-.59c-.9,0-1.64.15-2.24.45-.6.3-1.05.68-1.36,1.14-.3.46-.46.94-.46,1.44,0,.76.25,1.44.76,2.03.5.59,1.15,1.14,1.94,1.64.79.5,1.63.99,2.52,1.47.89.48,1.73,1,2.52,1.56.79.56,1.44,1.19,1.94,1.89.5.7.76,1.52.76,2.46,0,1.23-.46,2.32-1.37,3.25s-2.22,1.67-3.91,2.2c-1.7.53-3.72.79-6.07.79Z"/>
    <path d="M565.15,361.82l9.41-32.12h-4.37v-.86h13.32l-9.89,32.98h-8.47ZM582.33,362.26c-1.12,0-2.11-.22-2.96-.66-.86-.44-1.28-1.15-1.28-2.13,0-.38.06-.8.18-1.25.12-.45.24-.86.37-1.23l.7-1.96c.27-.67.52-1.34.73-2s.36-1.26.43-1.8c.07-.54.02-.97-.16-1.3-.18-.32-.53-.48-1.06-.48-.46,0-.89.18-1.28.54-.39.36-.74.84-1.06,1.45-.31.61-.59,1.29-.83,2.03h-.55c.34-1.17.72-2.11,1.15-2.82.43-.71.94-1.22,1.52-1.54.58-.31,1.25-.47,2-.47.96,0,1.92.18,2.88.55s1.8.88,2.53,1.54c.73.66,1.24,1.44,1.55,2.35.3.91.27,1.91-.1,2.99l-.94,2.79c-.02.07-.03.16-.05.26-.02.1-.02.18-.02.22,0,.23.14.35.41.35.16,0,.41-.12.74-.35.34-.23.76-.72,1.26-1.45s1.08-1.84,1.74-3.32l.91.29c-1.09,2.52-2.33,4.39-3.73,5.6-1.4,1.21-3.1,1.81-5.1,1.81ZM577.53,352.06c-.22,0-.41-.03-.56-.08-.15-.05-.32-.14-.49-.27l.34-.83c.13.15.24.24.35.29.1.04.23.07.37.07.42,0,.79-.25,1.12-.74s.66-1.13,1-1.91c.34-.78.71-1.61,1.13-2.47.72-1.5,1.59-2.69,2.6-3.58,1.02-.89,2.4-1.34,4.14-1.34,1.04,0,1.94.21,2.71.63.77.42,1.36.95,1.79,1.59s.64,1.31.64,2c0,1.2-.44,2.2-1.32,2.98-.88.78-1.98,1.18-3.31,1.18s-2.48-.38-3.3-1.13c-.82-.75-1.24-1.77-1.24-3.04,0-1.13.41-2.08,1.22-2.87.82-.78,1.86-1.18,3.12-1.18.7,0,1.42.17,2.16.52s1.36.82,1.86,1.43c.5.61.76,1.32.76,2.12h-.91c0-.56-.18-1.1-.53-1.62-.35-.52-.84-.95-1.48-1.29-.63-.34-1.37-.51-2.22-.51-1.39,0-2.54.36-3.43,1.09-.9.73-1.67,1.78-2.33,3.18-.45.92-.87,1.83-1.26,2.73-.39.89-.82,1.63-1.27,2.21-.46.58-1,.87-1.64.87Z"/>
    <path d="M603.14,362.26c-2.78,0-4.99-.53-6.61-1.58-1.62-1.06-2.44-2.79-2.44-5.21,0-1.76.42-3.49,1.26-5.19s1.99-3.24,3.44-4.61c1.46-1.37,3.13-2.47,5.03-3.29,1.9-.82,3.9-1.23,6.01-1.23,2.78,0,5.03.57,6.73,1.7,1.7,1.14,2.56,2.91,2.56,5.33,0,1.7-.4,3.38-1.2,5.05s-1.92,3.18-3.36,4.54c-1.44,1.36-3.13,2.45-5.08,3.27-1.94.81-4.06,1.22-6.35,1.22ZM603.14,361.4c.43,0,.91-.32,1.44-.96.53-.64,1.07-1.49,1.62-2.56.55-1.07,1.09-2.26,1.61-3.56.52-1.3.98-2.63,1.39-3.99.41-1.36.73-2.65.97-3.87.24-1.22.36-2.27.36-3.13,0-.42-.05-.75-.14-.98-.1-.23-.28-.34-.55-.34-.43,0-.91.32-1.44.96-.53.64-1.07,1.49-1.62,2.56-.55,1.07-1.09,2.26-1.61,3.56-.52,1.3-.98,2.63-1.39,3.99-.41,1.36-.73,2.64-.97,3.86-.24,1.22-.36,2.26-.36,3.14,0,.41.05.73.16.97.1.23.28.35.54.35Z"/>
    <path d="M626.32,362.26c-1.84,0-3.16-.3-3.96-.91-.8-.61-1.2-1.4-1.2-2.39,0-.53.05-1.01.16-1.45.1-.44.2-.79.28-1.06l7.85-26.76h-3.77v-.86h12.62l-8.98,30.36c-.03.12-.06.24-.1.36-.03.12-.05.24-.05.34,0,.37.15.55.46.55.27,0,.66-.14,1.16-.43.5-.29,1.11-.85,1.81-1.7.7-.85,1.48-2.1,2.33-3.76l.91.29c-.85,1.69-1.73,3.07-2.65,4.17-.92,1.09-1.94,1.91-3.05,2.44-1.11.53-2.39.8-3.83.8Z"/>
    <path d="M645.38,362.26c-1.94,0-3.54-.33-4.8-.98-1.26-.65-2.21-1.51-2.83-2.58-.62-1.07-.94-2.23-.94-3.47,0-1.92.4-3.73,1.2-5.43.8-1.7,1.9-3.2,3.3-4.5,1.4-1.3,3.01-2.31,4.84-3.04s3.76-1.1,5.81-1.1c2.82,0,5.01.52,6.58,1.55,1.57,1.03,2.35,2.29,2.35,3.77,0,.94-.28,1.81-.84,2.62-.56.81-1.44,1.52-2.65,2.14-1.21.62-2.78,1.13-4.73,1.53-1.94.4-4.31.65-7.09.77v-.62c.9-.04,1.76-.37,2.59-.99.83-.62,1.59-1.38,2.28-2.29.69-.91,1.29-1.84,1.81-2.8.52-.96.92-1.82,1.2-2.59.28-.77.42-1.3.42-1.59,0-.21-.04-.37-.12-.49-.08-.12-.26-.19-.53-.19-.51,0-1.06.32-1.64.95-.58.63-1.17,1.47-1.76,2.51-.59,1.04-1.16,2.2-1.69,3.46-.54,1.27-1.02,2.55-1.44,3.86s-.76,2.53-1.01,3.68c-.25,1.15-.37,2.11-.37,2.89,0,.67.18,1.14.55,1.41.37.26.87.4,1.51.4.9,0,1.9-.22,3.01-.66,1.11-.44,2.23-1.07,3.36-1.9s2.16-1.81,3.11-2.96l.82.53c-.86.95-1.86,1.9-3,2.85-1.14.95-2.46,1.73-3.97,2.35-1.51.62-3.28.93-5.32.93Z"/>
  </g>
  <g>
    <path d="M393.16,638.07l2.78-11.65h.94l.86,3.45c.48,1.14.98,2.17,1.5,3.09.52.92,1.11,1.76,1.76,2.52l-7.03,2.59h-.82ZM408.13,638.27c-1.87,0-3.49-.36-4.86-1.09-1.37-.73-2.53-1.68-3.49-2.86s-1.75-2.46-2.36-3.85c-.62-1.38-1.11-2.74-1.48-4.06h.94c.34,1.11.78,2.3,1.32,3.56.54,1.26,1.23,2.44,2.06,3.55.83,1.11,1.85,2.01,3.06,2.7,1.21.7,2.64,1.04,4.31,1.04,1.54,0,2.84-.24,3.91-.71,1.07-.48,1.89-1.14,2.45-1.98.56-.84.84-1.81.84-2.89s-.27-2.06-.82-2.8-1.27-1.37-2.17-1.88c-.9-.51-1.89-.98-2.96-1.41-1.07-.42-2.14-.88-3.22-1.37-1.07-.49-2.06-1.09-2.96-1.79-.9-.7-1.63-1.58-2.17-2.64-.54-1.06-.82-2.37-.82-3.94,0-1.88.42-3.54,1.25-4.98.83-1.44,1.92-2.66,3.28-3.65s2.84-1.74,4.45-2.25c1.62-.51,3.21-.77,4.78-.77,2.05,0,3.8.5,5.24,1.5,1.45,1,2.64,2.32,3.58,3.96.94,1.64,1.64,3.42,2.12,5.34h-.94c-.5-1.76-1.15-3.38-1.96-4.87-.81-1.49-1.83-2.68-3.06-3.58-1.23-.9-2.73-1.35-4.49-1.35-1.06,0-2.05.18-2.98.55-.93.37-1.68.88-2.26,1.55-.58.67-.86,1.47-.86,2.41,0,.88.28,1.63.83,2.26.55.63,1.28,1.19,2.2,1.68.91.49,1.92.98,3.01,1.45,1.1.48,2.19,1,3.29,1.56,1.1.56,2.1,1.23,3.01,1.99.91.76,1.64,1.68,2.2,2.76.55,1.08.83,2.37.83,3.88s-.38,3.07-1.13,4.61-1.81,2.93-3.17,4.19c-1.36,1.26-2.96,2.27-4.8,3.03-1.84.76-3.84,1.14-6,1.14ZM423.47,615.01l-.6-2.75c-.43-.98-.88-1.91-1.34-2.78-.46-.87-1.1-1.83-1.92-2.87l6.72-2.4h.82l-2.74,10.79h-.94Z"/>
    <path d="M435.04,638.07c-2.78,0-4.99-.53-6.61-1.58-1.62-1.06-2.44-2.79-2.44-5.21,0-1.76.42-3.49,1.26-5.19.84-1.7,1.99-3.24,3.44-4.61,1.46-1.37,3.13-2.47,5.03-3.29s3.9-1.23,6.01-1.23c2.78,0,5.03.57,6.73,1.7,1.7,1.14,2.56,2.91,2.56,5.33,0,1.7-.4,3.38-1.2,5.05s-1.92,3.18-3.36,4.54c-1.44,1.36-3.13,2.45-5.08,3.27-1.94.81-4.06,1.22-6.35,1.22ZM435.04,637.22c.43,0,.91-.32,1.44-.96.53-.64,1.07-1.49,1.62-2.56.55-1.07,1.09-2.26,1.61-3.56.52-1.3.98-2.63,1.39-3.99.41-1.36.73-2.65.97-3.87.24-1.22.36-2.27.36-3.13,0-.42-.05-.75-.14-.98-.1-.23-.28-.34-.55-.34-.43,0-.91.32-1.44.96-.53.64-1.07,1.49-1.62,2.56-.55,1.07-1.09,2.26-1.61,3.56-.52,1.3-.98,2.63-1.39,3.99-.41,1.36-.73,2.64-.97,3.86-.24,1.22-.36,2.26-.36,3.14,0,.41.05.73.16.97.1.23.28.35.54.35Z"/>
    <path d="M452.1,637.63l5.5-19.37h-3.82v-.86h12.43l-5.52,20.23h-8.59ZM461.72,631.79c.3-1.19.67-2.45,1.1-3.8.43-1.35.95-2.67,1.55-3.97.6-1.3,1.28-2.48,2.04-3.54.76-1.06,1.61-1.91,2.56-2.54.94-.63,1.98-.95,3.12-.95,1.46,0,2.68.4,3.67,1.2.99.8,1.49,1.88,1.49,3.24,0,1.29-.46,2.37-1.39,3.24s-2.09,1.31-3.48,1.31c-1.31,0-2.42-.38-3.34-1.15s-1.37-1.75-1.37-2.96.46-2.25,1.38-3,2.05-1.13,3.4-1.13,2.47.31,3.38.93,1.37,1.54,1.37,2.76l-.94-.02c0-1.16-.39-2.04-1.18-2.66-.78-.62-1.82-.92-3.1-.92-.99,0-1.92.31-2.77.93-.86.62-1.64,1.45-2.36,2.47-.72,1.03-1.37,2.16-1.96,3.4s-1.1,2.48-1.54,3.73c-.44,1.25-.8,2.39-1.09,3.43h-.55Z"/>
    <path d="M473.03,643.04l30-30.87h1.22l-29.98,30.87h-1.25ZM486.06,638.07c-2.78,0-4.99-.53-6.61-1.58-1.62-1.06-2.44-2.79-2.44-5.21,0-1.76.42-3.49,1.26-5.19s1.99-3.24,3.44-4.61c1.46-1.37,3.13-2.47,5.03-3.29,1.9-.82,3.9-1.23,6.01-1.23,2.78,0,5.03.57,6.73,1.7,1.7,1.14,2.56,2.91,2.56,5.33,0,1.7-.4,3.38-1.2,5.05s-1.92,3.18-3.36,4.54c-1.44,1.36-3.13,2.45-5.08,3.27-1.94.81-4.06,1.22-6.35,1.22ZM486.06,637.22c.43,0,.91-.32,1.44-.96.53-.64,1.07-1.49,1.62-2.56.55-1.07,1.09-2.26,1.61-3.56.52-1.3.98-2.63,1.39-3.99.41-1.36.73-2.65.97-3.87.24-1.22.36-2.27.36-3.13,0-.42-.05-.75-.14-.98-.1-.23-.28-.34-.55-.34-.43,0-.91.32-1.44.96-.53.64-1.07,1.49-1.62,2.56-.55,1.07-1.09,2.26-1.61,3.56-.52,1.3-.98,2.63-1.39,3.99-.41,1.36-.73,2.64-.97,3.86-.24,1.22-.36,2.26-.36,3.14,0,.41.05.73.16.97.1.23.28.35.54.35Z"/>
    <path d="M264.81,690.4v-.86h10.56v.86h-10.56ZM268.41,690.4l21.17-33.61h5.71l4.54,33.61h-10.78l-2.95-26.38-16.61,26.38h-1.08ZM275.99,680.07v-.86h15.7v.86h-15.7ZM283.52,690.4v-.86h19.68v.86h-19.68Z"/>
    <path d="M306.54,690.4l9.41-32.12h-4.37v-.86h13.32l-9.89,32.98h-8.47ZM323.72,690.84c-1.12,0-2.11-.22-2.96-.66-.86-.44-1.28-1.15-1.28-2.13,0-.38.06-.8.18-1.25.12-.45.24-.86.37-1.23l.7-1.96c.27-.67.52-1.34.73-2s.36-1.26.43-1.8c.07-.54.02-.97-.16-1.3-.18-.32-.53-.48-1.06-.48-.46,0-.89.18-1.28.54-.39.36-.74.84-1.06,1.45s-.59,1.29-.83,2.03h-.55c.34-1.17.72-2.11,1.15-2.82.43-.71.94-1.22,1.52-1.54.58-.31,1.25-.47,2-.47.96,0,1.92.18,2.88.55s1.8.88,2.53,1.54c.73.66,1.24,1.44,1.55,2.35.3.91.27,1.91-.1,2.99l-.94,2.79c-.02.07-.03.16-.05.26-.02.1-.02.18-.02.22,0,.23.14.35.41.35.16,0,.41-.12.74-.35.34-.23.76-.72,1.26-1.45.5-.73,1.08-1.84,1.74-3.32l.91.29c-1.09,2.52-2.33,4.39-3.73,5.6-1.4,1.21-3.1,1.81-5.1,1.81ZM318.92,680.64c-.22,0-.41-.03-.56-.08-.15-.05-.32-.14-.49-.27l.34-.83c.13.15.24.24.35.29.1.04.23.07.37.07.42,0,.79-.25,1.12-.74.33-.49.66-1.13,1-1.91.34-.78.71-1.61,1.13-2.47.72-1.5,1.59-2.69,2.6-3.58,1.02-.89,2.4-1.34,4.14-1.34,1.04,0,1.94.21,2.71.63.77.42,1.36.95,1.79,1.59.42.65.64,1.31.64,2,0,1.2-.44,2.2-1.32,2.98-.88.78-1.98,1.18-3.31,1.18s-2.48-.38-3.3-1.13c-.82-.75-1.24-1.77-1.24-3.04,0-1.13.41-2.08,1.22-2.87.82-.78,1.86-1.18,3.12-1.18.7,0,1.42.17,2.16.52s1.36.82,1.86,1.43c.5.61.76,1.32.76,2.12h-.91c0-.56-.18-1.1-.53-1.62-.35-.52-.84-.95-1.48-1.29-.63-.34-1.37-.51-2.22-.51-1.39,0-2.54.36-3.43,1.09-.9.73-1.67,1.78-2.33,3.18-.45.92-.87,1.83-1.26,2.73-.39.89-.82,1.63-1.27,2.21-.46.58-1,.87-1.64.87Z"/>
    <path d="M341.82,690.84c-2.32,0-3.98-.66-4.97-1.97-.99-1.31-1.49-3.04-1.49-5.18,0-1.69.34-3.35,1.02-5s1.6-3.15,2.76-4.5c1.16-1.35,2.46-2.43,3.91-3.24,1.45-.81,2.94-1.22,4.48-1.22.82,0,1.54.17,2.18.51.64.34,1.14.85,1.51,1.54.37.69.55,1.57.55,2.64,0,.45-.08,1.17-.24,2.15-.16.98-.41,2.09-.76,3.33-.34,1.24-.78,2.5-1.31,3.77-.53,1.28-1.16,2.46-1.9,3.54-.74,1.08-1.58,1.96-2.54,2.63-.96.67-2.03,1-3.22,1ZM345.25,688.27c.4,0,.86-.33,1.37-.99.51-.66,1.02-1.53,1.54-2.6s.99-2.25,1.43-3.52c.44-1.27.79-2.52,1.06-3.76.26-1.24.4-2.34.4-3.31,0-.37-.04-.68-.12-.95-.08-.26-.19-.46-.32-.6-.14-.14-.31-.21-.52-.21-.43,0-.91.34-1.43,1.01-.52.67-1.04,1.56-1.56,2.65-.52,1.09-1,2.28-1.43,3.55-.43,1.27-.78,2.52-1.04,3.75-.26,1.22-.4,2.3-.4,3.22,0,.5.08.92.25,1.25.17.34.43.51.78.51ZM353.82,690.84c-1.84,0-3.18-.34-4.01-1.02-.83-.68-1.25-1.65-1.25-2.91,0-.31.01-.57.04-.79.02-.22.05-.4.08-.55l.77-3.25,1.25-3.58.65-3.56,1.32-4.99h8.86l-5.16,17.79c-.06.22-.1.43-.1.64,0,.12.04.22.12.31s.2.13.36.13c.27,0,.66-.14,1.16-.43.5-.29,1.1-.85,1.8-1.7.7-.85,1.47-2.1,2.32-3.76l.94.29c-.85,1.69-1.73,3.07-2.65,4.17-.92,1.09-1.91,1.91-2.96,2.44-1.06.53-2.23.8-3.53.8Z"/>
    <path d="M370.28,690.84c-2.32,0-3.98-.66-4.98-1.97s-1.5-3.04-1.5-5.18c0-1.69.34-3.35,1.02-5s1.6-3.15,2.76-4.5c1.16-1.35,2.46-2.43,3.91-3.24,1.45-.81,2.94-1.22,4.48-1.22.82,0,1.54.17,2.18.51.64.34,1.14.85,1.51,1.54.37.69.55,1.57.55,2.64,0,.44-.08,1.14-.24,2.11-.16.97-.41,2.07-.76,3.31-.34,1.24-.78,2.5-1.31,3.78-.53,1.28-1.16,2.47-1.9,3.56-.74,1.09-1.58,1.98-2.53,2.65-.95.67-2.02,1.01-3.2,1.01ZM373.69,688.27c.4,0,.86-.33,1.37-.99.51-.66,1.02-1.53,1.54-2.62.51-1.08.99-2.26,1.43-3.53.44-1.27.79-2.52,1.06-3.76.26-1.24.4-2.34.4-3.31,0-.37-.04-.68-.12-.93-.08-.26-.19-.45-.32-.59-.14-.14-.31-.21-.52-.21-.43,0-.91.34-1.43,1.01-.52.67-1.04,1.56-1.56,2.65-.52,1.09-1,2.28-1.43,3.55-.43,1.27-.78,2.52-1.04,3.75-.26,1.22-.4,2.3-.4,3.22,0,.5.08.92.25,1.25.17.34.43.51.78.51ZM382.26,690.84c-1.81,0-3.14-.34-3.98-1.02-.85-.68-1.27-1.65-1.27-2.91,0-.22,0-.45.02-.68.02-.23.05-.45.1-.66l.77-3.25,1.51-3.58.14-2.66,5.23-17.79h-3.62v-.86h12.5l-8.86,30.54c-.06.23-.1.45-.1.64,0,.12.04.22.12.31s.2.13.36.13c.29,0,.68-.14,1.18-.43.5-.29,1.09-.85,1.79-1.7.7-.85,1.47-2.1,2.32-3.76l.94.29c-.85,1.69-1.73,3.07-2.64,4.17-.91,1.09-1.9,1.91-2.95,2.44-1.06.53-2.24.8-3.55.8Z"/>
    <path d="M401.94,690.84c-1.94,0-3.54-.33-4.8-.98-1.26-.65-2.21-1.51-2.83-2.58-.62-1.07-.94-2.23-.94-3.47,0-1.92.4-3.73,1.2-5.43.8-1.7,1.9-3.2,3.3-4.5,1.4-1.3,3.01-2.31,4.84-3.04,1.82-.73,3.76-1.1,5.81-1.1,2.82,0,5.01.52,6.58,1.55,1.57,1.03,2.35,2.29,2.35,3.77,0,.94-.28,1.81-.84,2.62-.56.81-1.44,1.52-2.65,2.14-1.21.62-2.78,1.13-4.73,1.53-1.94.4-4.31.65-7.09.77v-.62c.9-.04,1.76-.37,2.59-.99.83-.62,1.59-1.38,2.28-2.29.69-.91,1.29-1.84,1.81-2.8.52-.96.92-1.82,1.2-2.59.28-.77.42-1.3.42-1.59,0-.21-.04-.37-.12-.49s-.26-.19-.53-.19c-.51,0-1.06.32-1.64.95-.58.63-1.17,1.47-1.76,2.51-.59,1.04-1.16,2.2-1.69,3.46s-1.02,2.55-1.44,3.86-.76,2.53-1.01,3.68c-.25,1.15-.37,2.11-.37,2.89,0,.67.18,1.14.55,1.41.37.26.87.4,1.51.4.9,0,1.9-.22,3.01-.66,1.11-.44,2.23-1.07,3.36-1.9s2.16-1.81,3.11-2.96l.82.53c-.86.95-1.86,1.9-3,2.85-1.14.95-2.46,1.73-3.97,2.35-1.51.62-3.28.93-5.32.93Z"/>
    <path d="M417.92,690.4l5.66-19.37h-3.14v-.86h12l-5.88,20.23h-8.64ZM430.64,690.4l3.96-13.54c.46-1.74.79-2.95.97-3.63.18-.67.12-1.01-.18-1.01-.27,0-.7.32-1.28.97-.58.65-1.24,1.54-1.96,2.67-.72,1.14-1.43,2.45-2.12,3.94-.7,1.49-1.29,3.07-1.79,4.76h-.46c.5-1.66,1.1-3.35,1.82-5.08s1.55-3.33,2.5-4.79c.94-1.47,2-2.65,3.18-3.56,1.18-.91,2.46-1.36,3.85-1.36,1.31,0,2.34.3,3.07.91.74.61,1.2,1.41,1.39,2.41.19,1,.12,2.09-.22,3.28l-4.13,14.05h-8.62ZM449.53,690.84c-1.84,0-3.18-.38-4.01-1.15s-1.25-1.73-1.25-2.89c0-.32.05-.71.14-1.18.1-.46.2-.88.31-1.24l2.4-7.52c.54-1.71.88-2.89,1.02-3.54s.06-.97-.23-.97c-.27,0-.69.32-1.26.95-.57.63-1.2,1.51-1.88,2.63-.69,1.12-1.37,2.42-2.04,3.89-.67,1.47-1.26,3.05-1.78,4.74h-.46c.51-1.69,1.11-3.4,1.79-5.13.68-1.74,1.48-3.33,2.4-4.79.92-1.46,1.98-2.63,3.18-3.53s2.57-1.34,4.1-1.34c1.44,0,2.5.3,3.19.91.69.61,1.08,1.41,1.18,2.41.1,1-.05,2.09-.43,3.28l-3.55,11.26c-.06.18-.12.38-.17.6-.05.23-.07.42-.07.58,0,.1.03.19.08.26.06.07.15.11.28.11.27,0,.68-.15,1.22-.45s1.18-.88,1.9-1.75c.72-.86,1.48-2.14,2.28-3.83l.91.29c-.86,1.85-1.75,3.31-2.66,4.4-.91,1.08-1.9,1.86-2.98,2.32-1.07.46-2.28.69-3.62.69Z"/>
    <path d="M465.44,690.84c-1.84,0-3.17-.3-3.97-.91s-1.21-1.4-1.21-2.39c0-.56.06-1.06.17-1.51.11-.45.2-.79.26-1.02l4.01-13.98h-3.24v-.86h12.07l-5.11,17.61c-.03.12-.06.25-.1.38-.03.14-.05.27-.05.41,0,.15.04.26.11.34s.19.12.35.12c.27,0,.66-.14,1.16-.43.5-.29,1.11-.85,1.81-1.7.7-.85,1.47-2.1,2.3-3.76l.94.29c-.85,1.69-1.73,3.07-2.65,4.17-.92,1.09-1.94,1.91-3.05,2.44-1.11.53-2.38.8-3.8.8ZM471.16,666.68c-1.01,0-1.91-.23-2.7-.68-.79-.45-1.42-1.05-1.87-1.79s-.68-1.54-.68-2.39.23-1.64.68-2.37,1.08-1.33,1.87-1.78,1.69-.68,2.7-.68,1.91.23,2.71.68c.8.45,1.43,1.05,1.9,1.78s.7,1.52.7,2.37-.23,1.65-.7,2.39-1.1,1.34-1.9,1.79c-.8.45-1.7.68-2.71.68Z"/>
    <path d="M485.58,690.84c-2.06,0-3.83-.24-5.3-.71-1.47-.48-2.6-1.14-3.38-1.99-.78-.85-1.18-1.82-1.18-2.9s.42-2.07,1.26-2.86,1.94-1.19,3.3-1.19c1.26,0,2.31.34,3.14,1.03s1.25,1.63,1.25,2.84-.44,2.14-1.32,2.77c-.88.63-1.92.95-3.12.95-.82,0-1.56-.17-2.24-.52-.68-.34-1.22-.79-1.62-1.33-.4-.54-.6-1.11-.6-1.69h1.3c0,.94.34,1.76,1.03,2.46.69.7,1.6,1.25,2.75,1.64,1.14.39,2.4.58,3.76.58.82,0,1.54-.16,2.17-.47.63-.31,1.13-.73,1.5-1.24.37-.51.55-1.07.55-1.67,0-.75-.23-1.41-.7-1.99-.46-.58-1.06-1.11-1.8-1.59-.74-.48-1.52-.96-2.35-1.44-.83-.48-1.62-.97-2.35-1.49-.74-.52-1.34-1.1-1.8-1.75-.46-.64-.7-1.39-.7-2.24,0-1.16.41-2.23,1.22-3.21.82-.98,1.99-1.77,3.52-2.36,1.53-.59,3.36-.89,5.48-.89s3.95.26,5.23.77c1.28.51,2.19,1.15,2.74,1.92s.82,1.54.82,2.3c0,1.11-.42,1.99-1.26,2.64s-1.78.97-2.82.97c-1.18,0-2.26-.35-3.22-1.07-.96-.71-1.44-1.65-1.44-2.8,0-.95.38-1.76,1.14-2.41.76-.65,1.77-.98,3.04-.98,1.2,0,2.25.33,3.16,1,.9.67,1.36,1.55,1.36,2.65h-1.13c0-.66-.25-1.3-.76-1.92-.5-.62-1.24-1.13-2.2-1.53s-2.11-.59-3.46-.59c-.9,0-1.64.15-2.24.45-.6.3-1.05.68-1.36,1.14-.3.46-.46.94-.46,1.44,0,.76.25,1.44.76,2.03.5.59,1.15,1.14,1.94,1.64.79.5,1.63.99,2.52,1.47.89.48,1.73,1,2.52,1.56.79.56,1.44,1.19,1.94,1.89.5.7.76,1.52.76,2.46,0,1.23-.46,2.32-1.37,3.25s-2.22,1.67-3.91,2.2c-1.7.53-3.72.79-6.07.79Z"/>
    <path d="M520.96,690.84c-2.06,0-3.83-.24-5.3-.71-1.47-.48-2.6-1.14-3.38-1.99-.78-.85-1.18-1.82-1.18-2.9s.42-2.07,1.26-2.86,1.94-1.19,3.3-1.19c1.26,0,2.31.34,3.14,1.03s1.25,1.63,1.25,2.84-.44,2.14-1.32,2.77c-.88.63-1.92.95-3.12.95-.82,0-1.56-.17-2.24-.52-.68-.34-1.22-.79-1.62-1.33-.4-.54-.6-1.11-.6-1.69h1.3c0,.94.34,1.76,1.03,2.46.69.7,1.6,1.25,2.75,1.64,1.14.39,2.4.58,3.76.58.82,0,1.54-.16,2.17-.47.63-.31,1.13-.73,1.5-1.24.37-.51.55-1.07.55-1.67,0-.75-.23-1.41-.7-1.99-.46-.58-1.06-1.11-1.8-1.59-.74-.48-1.52-.96-2.35-1.44-.83-.48-1.62-.97-2.35-1.49-.74-.52-1.34-1.1-1.8-1.75-.46-.64-.7-1.39-.7-2.24,0-1.16.41-2.23,1.22-3.21.82-.98,1.99-1.77,3.52-2.36,1.53-.59,3.36-.89,5.48-.89s3.95.26,5.23.77c1.28.51,2.19,1.15,2.74,1.92s.82,1.54.82,2.3c0,1.11-.42,1.99-1.26,2.64s-1.78.97-2.82.97c-1.18,0-2.26-.35-3.22-1.07-.96-.71-1.44-1.65-1.44-2.8,0-.95.38-1.76,1.14-2.41.76-.65,1.77-.98,3.04-.98,1.2,0,2.25.33,3.16,1,.9.67,1.36,1.55,1.36,2.65h-1.13c0-.66-.25-1.3-.76-1.92-.5-.62-1.24-1.13-2.2-1.53s-2.11-.59-3.46-.59c-.9,0-1.64.15-2.24.45-.6.3-1.05.68-1.36,1.14-.3.46-.46.94-.46,1.44,0,.76.25,1.44.76,2.03.5.59,1.15,1.14,1.94,1.64.79.5,1.63.99,2.52,1.47.89.48,1.73,1,2.52,1.56.79.56,1.44,1.19,1.94,1.89.5.7.76,1.52.76,2.46,0,1.23-.46,2.32-1.37,3.25s-2.22,1.67-3.91,2.2c-1.7.53-3.72.79-6.07.79Z"/>
    <path d="M534.47,690.4l9.41-32.12h-4.37v-.86h13.32l-9.89,32.98h-8.47ZM551.65,690.84c-1.12,0-2.11-.22-2.96-.66-.86-.44-1.28-1.15-1.28-2.13,0-.38.06-.8.18-1.25.12-.45.24-.86.37-1.23l.7-1.96c.27-.67.52-1.34.73-2s.36-1.26.43-1.8c.07-.54.02-.97-.16-1.3-.18-.32-.53-.48-1.06-.48-.46,0-.89.18-1.28.54-.39.36-.74.84-1.06,1.45-.31.61-.59,1.29-.83,2.03h-.55c.34-1.17.72-2.11,1.15-2.82.43-.71.94-1.22,1.52-1.54.58-.31,1.25-.47,2-.47.96,0,1.92.18,2.88.55s1.8.88,2.53,1.54c.73.66,1.24,1.44,1.55,2.35.3.91.27,1.91-.1,2.99l-.94,2.79c-.02.07-.03.16-.05.26-.02.1-.02.18-.02.22,0,.23.14.35.41.35.16,0,.41-.12.74-.35.34-.23.76-.72,1.26-1.45s1.08-1.84,1.74-3.32l.91.29c-1.09,2.52-2.33,4.39-3.73,5.6-1.4,1.21-3.1,1.81-5.1,1.81ZM546.85,680.64c-.22,0-.41-.03-.56-.08-.15-.05-.32-.14-.49-.27l.34-.83c.13.15.24.24.35.29.1.04.23.07.37.07.42,0,.79-.25,1.12-.74s.66-1.13,1-1.91c.34-.78.71-1.61,1.13-2.47.72-1.5,1.59-2.69,2.6-3.58,1.02-.89,2.4-1.34,4.14-1.34,1.04,0,1.94.21,2.71.63.77.42,1.36.95,1.79,1.59s.64,1.31.64,2c0,1.2-.44,2.2-1.32,2.98-.88.78-1.98,1.18-3.31,1.18s-2.48-.38-3.3-1.13c-.82-.75-1.24-1.77-1.24-3.04,0-1.13.41-2.08,1.22-2.87.82-.78,1.86-1.18,3.12-1.18.7,0,1.42.17,2.16.52s1.36.82,1.86,1.43c.5.61.76,1.32.76,2.12h-.91c0-.56-.18-1.1-.53-1.62-.35-.52-.84-.95-1.48-1.29-.63-.34-1.37-.51-2.22-.51-1.39,0-2.54.36-3.43,1.09-.9.73-1.67,1.78-2.33,3.18-.45.92-.87,1.83-1.26,2.73-.39.89-.82,1.63-1.27,2.21-.46.58-1,.87-1.64.87Z"/>
    <path d="M572.46,690.84c-2.78,0-4.99-.53-6.61-1.58-1.62-1.06-2.44-2.79-2.44-5.21,0-1.76.42-3.49,1.26-5.19s1.99-3.24,3.44-4.61c1.46-1.37,3.13-2.47,5.03-3.29,1.9-.82,3.9-1.23,6.01-1.23,2.78,0,5.03.57,6.73,1.7,1.7,1.14,2.56,2.91,2.56,5.33,0,1.7-.4,3.38-1.2,5.05s-1.92,3.18-3.36,4.54c-1.44,1.36-3.13,2.45-5.08,3.27-1.94.81-4.06,1.22-6.35,1.22ZM572.46,689.98c.43,0,.91-.32,1.44-.96.53-.64,1.07-1.49,1.62-2.56.55-1.07,1.09-2.26,1.61-3.56.52-1.3.98-2.63,1.39-3.99.41-1.36.73-2.65.97-3.87.24-1.22.36-2.27.36-3.13,0-.42-.05-.75-.14-.98-.1-.23-.28-.34-.55-.34-.43,0-.91.32-1.44.96-.53.64-1.07,1.49-1.62,2.56-.55,1.07-1.09,2.26-1.61,3.56-.52,1.3-.98,2.63-1.39,3.99-.41,1.36-.73,2.64-.97,3.86-.24,1.22-.36,2.26-.36,3.14,0,.41.05.73.16.97.1.23.28.35.54.35Z"/>
    <path d="M595.64,690.84c-1.84,0-3.16-.3-3.96-.91-.8-.61-1.2-1.4-1.2-2.39,0-.53.05-1.01.16-1.45.1-.44.2-.79.28-1.06l7.85-26.76h-3.77v-.86h12.62l-8.98,30.36c-.03.12-.06.24-.1.36-.03.12-.05.24-.05.34,0,.37.15.55.46.55.27,0,.66-.14,1.16-.43.5-.29,1.11-.85,1.81-1.7.7-.85,1.48-2.1,2.33-3.76l.91.29c-.85,1.69-1.73,3.07-2.65,4.17-.92,1.09-1.94,1.91-3.05,2.44-1.11.53-2.39.8-3.83.8Z"/>
    <path d="M614.7,690.84c-1.94,0-3.54-.33-4.8-.98-1.26-.65-2.21-1.51-2.83-2.58-.62-1.07-.94-2.23-.94-3.47,0-1.92.4-3.73,1.2-5.43.8-1.7,1.9-3.2,3.3-4.5,1.4-1.3,3.01-2.31,4.84-3.04s3.76-1.1,5.81-1.1c2.82,0,5.01.52,6.58,1.55,1.57,1.03,2.35,2.29,2.35,3.77,0,.94-.28,1.81-.84,2.62-.56.81-1.44,1.52-2.65,2.14-1.21.62-2.78,1.13-4.73,1.53-1.94.4-4.31.65-7.09.77v-.62c.9-.04,1.76-.37,2.59-.99.83-.62,1.59-1.38,2.28-2.29.69-.91,1.29-1.84,1.81-2.8.52-.96.92-1.82,1.2-2.59.28-.77.42-1.3.42-1.59,0-.21-.04-.37-.12-.49-.08-.12-.26-.19-.53-.19-.51,0-1.06.32-1.64.95-.58.63-1.17,1.47-1.76,2.51-.59,1.04-1.16,2.2-1.69,3.46-.54,1.27-1.02,2.55-1.44,3.86s-.76,2.53-1.01,3.68c-.25,1.15-.37,2.11-.37,2.89,0,.67.18,1.14.55,1.41.37.26.87.4,1.51.4.9,0,1.9-.22,3.01-.66,1.11-.44,2.23-1.07,3.36-1.9s2.16-1.81,3.11-2.96l.82.53c-.86.95-1.86,1.9-3,2.85-1.14.95-2.46,1.73-3.97,2.35-1.51.62-3.28.93-5.32.93Z"/>
  </g>
  <g>
    <path d="M394.66,975.35v-.86h18.24v.86h-18.24ZM398.74,975.35l8.16-32.98h10.32l-8.16,32.98h-10.32ZM402.58,943.23v-.86h19.2v.86h-19.2ZM404.23,965.81l30.65-23.35h1.39l-30.55,23.35h-1.49ZM419.4,975.35l-6.12-16.33,8.76-6.46,8.86,22.8h-11.5ZM415.15,975.35v-.86h19.49v.86h-19.49ZM428.83,943.23v-.86h11.52v.86h-11.52Z"/>
    <path d="M435.05,975.35v-.86h17.52c2.19,0,4.18-.37,5.98-1.1,1.79-.73,3.38-1.77,4.75-3.12,1.38-1.35,2.54-2.95,3.48-4.82h.94l-2.5,9.89h-30.17ZM439.13,975.35l8.35-32.98h10.32l-8.35,32.98h-10.32ZM469.85,951.39c-.08-1.57-.47-2.97-1.16-4.2-.7-1.23-1.69-2.2-2.99-2.9-1.3-.7-2.88-1.06-4.75-1.06h-17.78v-.86h29.93l-2.3,9.01h-.94ZM459.82,964.45c-.24-.98-.59-1.91-1.06-2.78-.46-.87-1.04-1.58-1.73-2.12-.69-.54-1.49-.81-2.4-.81h-2.93v-.86h2.93c.91,0,1.87-.26,2.87-.77,1-.51,1.97-1.19,2.9-2.02.94-.83,1.76-1.74,2.48-2.73h.94l-3.07,12.09h-.94Z"/>
    <path d="M467.07,975.35v-.86h10.56v.86h-10.56ZM470.67,975.35l21.17-33.62h5.71l4.54,33.62h-10.78l-2.95-26.38-16.61,26.38h-1.08ZM478.25,965.02v-.86h15.7v.86h-15.7ZM485.79,975.35v-.86h19.68v.86h-19.68Z"/>
  </g>
  <g>
    <path d="M411.65,274l.34-1.55,4.71-3.61c.44-.32.87-.7,1.28-1.13s.79-.89,1.12-1.39c.33-.49.59-1,.79-1.53.2-.53.3-1.06.3-1.58,0-.47-.07-.88-.22-1.23-.15-.35-.37-.63-.68-.82-.3-.2-.69-.3-1.16-.3s-.9.09-1.34.27c-.44.18-.84.44-1.2.76s-.65.7-.86,1.12c-.21.43-.32.88-.32,1.37h-.32c0-.19.07-.38.22-.55.14-.17.33-.31.55-.42.22-.11.46-.16.7-.16.36,0,.67.11.94.33.27.22.4.53.4.92,0,.43-.14.77-.41,1.04-.27.27-.62.41-1.03.41-.38,0-.7-.14-.98-.41s-.41-.66-.41-1.16.12-1.04.37-1.52c.25-.49.59-.92,1.03-1.3.44-.38.96-.68,1.56-.91.6-.23,1.25-.34,1.96-.34s1.36.12,1.9.35.97.56,1.27.98c.3.42.45.92.45,1.49,0,.4-.09.78-.28,1.15s-.44.73-.75,1.06-.64.65-1,.95c-.36.3-.71.57-1.05.81-.34.24-.64.46-.9.64l-5.07,3.97h7.06l.29-1.35h.36l-.8,3.62h-8.83Z"/>
    <path d="M427.59,274.18c-.8,0-1.49-.19-2.06-.58-.57-.39-1.01-.89-1.31-1.52-.3-.63-.45-1.31-.45-2.04,0-1.04.12-2.04.37-3,.25-.96.59-1.85,1.03-2.66s.95-1.52,1.53-2.13,1.2-1.08,1.88-1.42c.67-.34,1.37-.51,2.08-.51.8,0,1.49.19,2.07.58.57.38,1.01.89,1.31,1.52.3.63.45,1.31.45,2.04,0,1.04-.12,2.04-.37,3s-.59,1.85-1.03,2.66-.95,1.52-1.53,2.13-1.21,1.08-1.88,1.42-1.36.51-2.07.51ZM427.59,273.86c.38,0,.74-.13,1.08-.4.35-.27.67-.64.98-1.11.31-.47.59-1.01.85-1.61.26-.6.5-1.24.7-1.9s.38-1.33.53-1.99.25-1.29.33-1.89c.08-.59.12-1.12.12-1.57,0-.35-.02-.69-.06-1.02s-.11-.62-.22-.87c-.11-.25-.26-.46-.46-.61s-.47-.23-.79-.23c-.38,0-.74.13-1.08.4-.35.27-.67.63-.98,1.1-.31.46-.59,1-.85,1.59-.26.6-.5,1.23-.7,1.89s-.38,1.33-.53,1.99c-.14.67-.26,1.3-.33,1.9-.08.6-.12,1.14-.12,1.61,0,.35.02.69.06,1.02s.11.62.22.88c.1.26.26.46.46.61.2.15.47.23.79.23Z"/>
    <path d="M433.68,274v-.35h6.31v.35h-6.31ZM435.58,274l2.97-13.15h-2.03v-.35h4.48l-3.06,13.5h-2.36Z"/>
    <path d="M446.53,274.18c-.39,0-.73-.13-1.01-.4-.28-.27-.42-.66-.42-1.18,0-.39.11-.81.32-1.26.21-.45.49-.91.84-1.4.34-.48.72-.97,1.12-1.46.4-.49.79-.98,1.16-1.47.31-.4.64-.83.99-1.29.35-.46.72-.94,1.09-1.43.38-.49.75-.97,1.12-1.44h-6.52l-.31,1.36h-.35l.81-3.71h8.66c-.44.58-.84,1.1-1.2,1.57-.36.47-.75.99-1.18,1.55-.43.56-.86,1.12-1.29,1.68-.43.56-.81,1.07-1.16,1.52-.41.54-.8,1.04-1.15,1.5-.35.46-.64.88-.85,1.25-.21.37-.31.69-.31.96,0,.21.06.38.17.52.11.14.25.27.4.4.15.13.29.29.4.48.11.19.17.44.17.74,0,.41-.13.77-.4,1.06s-.63.44-1.11.44Z"/>
    <path d="M453.67,269.22v-.34h4.32v.34h-4.32Z"/>
    <path d="M458.29,274l.34-1.55,4.71-3.61c.44-.32.87-.7,1.28-1.13s.79-.89,1.12-1.39c.33-.49.59-1,.79-1.53.2-.53.3-1.06.3-1.58,0-.47-.07-.88-.22-1.23-.15-.35-.37-.63-.68-.82-.3-.2-.69-.3-1.16-.3s-.89.09-1.34.27c-.44.18-.84.44-1.2.76-.36.32-.65.7-.86,1.12-.21.43-.32.88-.32,1.37h-.32c0-.19.07-.38.22-.55.14-.17.33-.31.55-.42.22-.11.46-.16.7-.16.36,0,.67.11.94.33.27.22.4.53.4.92,0,.43-.14.77-.41,1.04s-.62.41-1.03.41c-.38,0-.7-.14-.98-.41s-.41-.66-.41-1.16.12-1.04.37-1.52c.25-.49.59-.92,1.03-1.3.44-.38.96-.68,1.56-.91.6-.23,1.25-.34,1.96-.34s1.36.12,1.9.35.97.56,1.27.98c.3.42.46.92.46,1.49,0,.4-.09.78-.28,1.15-.19.37-.44.73-.75,1.06-.31.34-.64.65-1,.95-.36.3-.71.57-1.05.81-.34.24-.64.46-.9.64l-5.07,3.97h7.06l.29-1.35h.36l-.8,3.62h-8.83Z"/>
    <path d="M474.24,274.18c-.8,0-1.49-.19-2.06-.58-.57-.39-1.01-.89-1.31-1.52-.3-.63-.45-1.31-.45-2.04,0-1.04.12-2.04.37-3,.25-.96.59-1.85,1.03-2.66s.95-1.52,1.53-2.13,1.2-1.08,1.88-1.42c.67-.34,1.37-.51,2.08-.51.8,0,1.49.19,2.06.58.57.38,1.01.89,1.31,1.52s.46,1.31.46,2.04c0,1.04-.12,2.04-.37,3s-.59,1.85-1.03,2.66c-.44.81-.95,1.52-1.54,2.13s-1.21,1.08-1.88,1.42c-.67.34-1.36.51-2.07.51ZM474.24,273.86c.38,0,.74-.13,1.08-.4.35-.27.67-.64.98-1.11.31-.47.59-1.01.85-1.61.26-.6.49-1.24.7-1.9s.38-1.33.53-1.99c.14-.66.25-1.29.33-1.89.08-.59.12-1.12.12-1.57,0-.35-.02-.69-.06-1.02s-.11-.62-.21-.87c-.11-.25-.26-.46-.46-.61-.2-.15-.47-.23-.79-.23-.38,0-.74.13-1.08.4-.34.27-.67.63-.98,1.1s-.59,1-.85,1.59c-.26.6-.49,1.23-.7,1.89s-.38,1.33-.53,1.99c-.14.67-.25,1.3-.33,1.9-.08.6-.12,1.14-.12,1.61,0,.35.02.69.06,1.02s.11.62.21.88c.11.26.26.46.46.61.2.15.47.23.79.23Z"/>
    <path d="M480.32,274v-.35h6.31v.35h-6.31ZM482.23,274l2.97-13.15h-2.04v-.35h4.48l-3.06,13.5h-2.36Z"/>
    <path d="M493.86,274.18c-1.35,0-2.38-.26-3.08-.77s-1.05-1.21-1.05-2.12c0-.72.18-1.41.54-2.06s.9-1.18,1.62-1.58c.72-.41,1.62-.61,2.7-.61,1.35,0,2.38.24,3.08.73.71.49,1.06,1.18,1.06,2.08,0,.72-.18,1.41-.54,2.07-.36.66-.9,1.2-1.62,1.62-.72.42-1.62.63-2.7.63ZM494.93,267.16c-.73,0-1.36-.12-1.89-.36-.54-.24-.96-.55-1.25-.95-.3-.39-.45-.83-.45-1.31,0-.54.12-1.06.37-1.57.24-.5.58-.96,1.02-1.36s.94-.72,1.52-.95c.58-.23,1.21-.35,1.89-.35.78,0,1.44.15,1.97.45.53.3.94.67,1.21,1.13.28.46.41.92.41,1.4,0,.55-.13,1.06-.39,1.53-.26.47-.61.88-1.06,1.23s-.96.62-1.53.81c-.58.19-1.18.29-1.82.29ZM493.7,273.83c.32,0,.62-.09.9-.26.27-.17.52-.4.73-.69s.39-.62.54-.99c.15-.37.26-.74.34-1.13.08-.39.12-.76.12-1.12,0-.43-.06-.82-.17-1.17-.11-.35-.29-.62-.53-.83-.24-.2-.55-.31-.94-.31-.32,0-.62.09-.89.26-.27.17-.52.4-.73.69s-.39.61-.54.98c-.15.36-.26.74-.34,1.13-.08.39-.12.77-.12,1.12,0,.43.05.82.17,1.17s.29.63.53.84c.24.21.56.31.94.31ZM494.91,266.87c.29,0,.56-.08.81-.23.25-.16.47-.37.67-.64.2-.27.37-.58.51-.92.14-.35.25-.71.32-1.08.08-.38.11-.75.11-1.11,0-.29-.03-.61-.09-.95-.06-.34-.18-.64-.35-.89s-.43-.37-.77-.37c-.26,0-.52.09-.76.26-.24.17-.46.4-.66.69-.2.29-.37.62-.51.99-.14.37-.26.74-.34,1.13-.08.39-.12.76-.12,1.12,0,.31.03.61.1.92.06.31.18.57.35.77s.42.31.74.31Z"/>
  </g>
  <g>
    <path d="M411.55,602.63l.34-1.55,4.71-3.61c.44-.32.87-.7,1.28-1.13s.79-.89,1.12-1.39c.33-.49.59-1,.79-1.53.2-.53.3-1.06.3-1.58,0-.47-.07-.88-.22-1.23-.15-.35-.37-.63-.68-.82-.3-.2-.69-.3-1.16-.3s-.9.09-1.34.27c-.44.18-.84.44-1.2.76s-.65.7-.86,1.12c-.21.43-.32.88-.32,1.37h-.32c0-.19.07-.38.22-.55.14-.17.33-.31.55-.42.22-.11.46-.16.7-.16.36,0,.67.11.94.33.27.22.4.53.4.92,0,.43-.14.77-.41,1.04-.27.27-.62.41-1.03.41-.38,0-.7-.14-.98-.41s-.41-.66-.41-1.16.12-1.04.37-1.52c.25-.49.59-.92,1.03-1.3.44-.38.96-.68,1.56-.91.6-.23,1.25-.34,1.96-.34s1.36.12,1.9.35.97.56,1.27.98c.3.42.45.92.45,1.49,0,.4-.09.78-.28,1.15s-.44.73-.75,1.06-.64.65-1,.95c-.36.3-.71.57-1.05.81-.34.24-.64.46-.9.64l-5.07,3.97h7.06l.29-1.35h.36l-.8,3.62h-8.83Z"/>
    <path d="M427.5,602.81c-.8,0-1.49-.19-2.06-.58-.57-.39-1.01-.89-1.31-1.52-.3-.63-.45-1.31-.45-2.04,0-1.04.12-2.04.37-3,.25-.96.59-1.85,1.03-2.66s.95-1.52,1.53-2.13,1.2-1.08,1.88-1.42c.67-.34,1.37-.51,2.08-.51.8,0,1.49.19,2.07.58.57.38,1.01.89,1.31,1.52.3.63.45,1.31.45,2.04,0,1.04-.12,2.04-.37,3s-.59,1.85-1.03,2.66-.95,1.52-1.53,2.13-1.21,1.08-1.88,1.42-1.36.51-2.07.51ZM427.5,602.48c.38,0,.74-.13,1.08-.4.35-.27.67-.64.98-1.11.31-.47.59-1.01.85-1.61.26-.6.5-1.24.7-1.9s.38-1.33.53-1.99.25-1.29.33-1.89c.08-.59.12-1.12.12-1.57,0-.35-.02-.69-.06-1.02s-.11-.62-.22-.87c-.11-.25-.26-.46-.46-.61s-.47-.23-.79-.23c-.38,0-.74.13-1.08.4-.35.27-.67.63-.98,1.1-.31.46-.59,1-.85,1.59-.26.6-.5,1.23-.7,1.89s-.38,1.33-.53,1.99c-.14.67-.26,1.3-.33,1.9-.08.6-.12,1.14-.12,1.61,0,.35.02.69.06,1.02s.11.62.22.88c.1.26.26.46.46.61.2.15.47.23.79.23Z"/>
    <path d="M433.58,602.63v-.35h6.31v.35h-6.31ZM435.49,602.63l2.97-13.15h-2.03v-.35h4.48l-3.06,13.5h-2.36Z"/>
    <path d="M447.12,602.81c-1.35,0-2.38-.26-3.08-.77s-1.05-1.21-1.05-2.12c0-.72.18-1.41.54-2.06s.9-1.18,1.62-1.58c.72-.41,1.62-.61,2.7-.61,1.35,0,2.38.24,3.08.73.71.49,1.06,1.18,1.06,2.08,0,.72-.18,1.41-.54,2.07-.36.66-.9,1.2-1.62,1.62-.72.42-1.62.63-2.7.63ZM448.19,595.79c-.73,0-1.36-.12-1.89-.36-.54-.24-.95-.55-1.25-.95-.3-.39-.45-.83-.45-1.31,0-.54.12-1.06.36-1.57.24-.5.58-.96,1.02-1.36s.94-.72,1.52-.95,1.21-.35,1.89-.35c.78,0,1.44.15,1.97.45.53.3.94.67,1.21,1.13.28.46.41.92.41,1.4,0,.55-.13,1.06-.39,1.53-.26.47-.61.88-1.06,1.23s-.96.62-1.53.81-1.18.29-1.82.29ZM446.95,602.46c.32,0,.62-.09.9-.26.27-.17.52-.4.73-.69s.39-.62.54-.99c.15-.37.26-.74.34-1.13.08-.39.12-.76.12-1.12,0-.43-.06-.82-.17-1.17-.11-.35-.29-.62-.53-.83-.24-.2-.55-.31-.94-.31-.32,0-.62.09-.9.26s-.52.4-.73.69-.39.61-.54.98c-.15.36-.26.74-.34,1.13-.08.39-.12.77-.12,1.12,0,.43.06.82.17,1.17s.29.63.53.84c.24.21.56.31.94.31ZM448.17,595.5c.29,0,.56-.08.81-.23.25-.16.47-.37.67-.64.2-.27.37-.58.51-.92.14-.35.25-.71.32-1.08.07-.38.11-.75.11-1.11,0-.29-.03-.61-.09-.95-.06-.34-.18-.64-.35-.89s-.43-.37-.77-.37c-.26,0-.52.09-.76.26-.24.17-.46.4-.66.69-.2.29-.37.62-.51.99-.14.37-.26.74-.34,1.13-.08.39-.12.76-.12,1.12,0,.31.03.61.09.92s.18.57.35.77c.17.21.42.31.74.31Z"/>
    <path d="M454.47,597.85v-.34h4.32v.34h-4.32Z"/>
    <path d="M459.09,602.63l.34-1.55,4.71-3.61c.44-.32.87-.7,1.28-1.13s.79-.89,1.12-1.39c.33-.49.59-1,.79-1.53.2-.53.3-1.06.3-1.58,0-.47-.07-.88-.22-1.23-.15-.35-.37-.63-.68-.82-.3-.2-.69-.3-1.16-.3s-.9.09-1.34.27c-.44.18-.84.44-1.2.76-.36.32-.65.7-.86,1.12-.21.43-.32.88-.32,1.37h-.32c0-.19.07-.38.22-.55.14-.17.33-.31.55-.42.22-.11.46-.16.7-.16.36,0,.67.11.94.33.27.22.4.53.4.92,0,.43-.14.77-.41,1.04s-.62.41-1.03.41c-.38,0-.7-.14-.98-.41-.27-.27-.41-.66-.41-1.16s.12-1.04.37-1.52c.25-.49.59-.92,1.03-1.3.44-.38.96-.68,1.56-.91.6-.23,1.25-.34,1.96-.34s1.36.12,1.9.35.97.56,1.27.98c.3.42.46.92.46,1.49,0,.4-.09.78-.28,1.15-.19.37-.44.73-.75,1.06-.31.34-.64.65-1,.95-.36.3-.71.57-1.05.81-.34.24-.64.46-.9.64l-5.07,3.97h7.06l.29-1.35h.36l-.8,3.62h-8.83Z"/>
    <path d="M475.04,602.81c-.8,0-1.49-.19-2.06-.58-.57-.39-1.01-.89-1.31-1.52-.3-.63-.46-1.31-.46-2.04,0-1.04.12-2.04.37-3,.25-.96.59-1.85,1.03-2.66.44-.81.95-1.52,1.53-2.13s1.2-1.08,1.88-1.42c.67-.34,1.37-.51,2.08-.51.8,0,1.49.19,2.07.58.57.38,1.01.89,1.31,1.52s.45,1.31.45,2.04c0,1.04-.12,2.04-.37,3s-.59,1.85-1.04,2.66c-.44.81-.95,1.52-1.53,2.13s-1.21,1.08-1.88,1.42-1.36.51-2.07.51ZM475.04,602.48c.38,0,.74-.13,1.08-.4.35-.27.67-.64.98-1.11.31-.47.59-1.01.85-1.61.26-.6.5-1.24.7-1.9s.38-1.33.53-1.99c.14-.66.25-1.29.33-1.89.08-.59.12-1.12.12-1.57,0-.35-.02-.69-.06-1.02s-.11-.62-.22-.87c-.11-.25-.26-.46-.46-.61s-.47-.23-.79-.23c-.38,0-.74.13-1.08.4-.35.27-.67.63-.98,1.1s-.59,1-.85,1.59c-.26.6-.5,1.23-.7,1.89s-.38,1.33-.53,1.99-.25,1.3-.33,1.9-.12,1.14-.12,1.61c0,.35.02.69.06,1.02s.11.62.22.88c.11.26.26.46.46.61.2.15.47.23.79.23Z"/>
    <path d="M481.16,602.63l.34-1.55,4.71-3.61c.44-.32.87-.7,1.28-1.13s.79-.89,1.12-1.39c.33-.49.59-1,.79-1.53.2-.53.3-1.06.3-1.58,0-.47-.07-.88-.22-1.23-.15-.35-.37-.63-.67-.82-.3-.2-.69-.3-1.16-.3s-.9.09-1.34.27c-.44.18-.84.44-1.2.76-.36.32-.65.7-.86,1.12-.21.43-.32.88-.32,1.37h-.32c0-.19.07-.38.22-.55.14-.17.33-.31.55-.42s.46-.16.7-.16c.36,0,.67.11.94.33.27.22.4.53.4.92,0,.43-.14.77-.41,1.04-.27.27-.62.41-1.03.41-.38,0-.7-.14-.98-.41-.27-.27-.41-.66-.41-1.16s.12-1.04.37-1.52c.25-.49.59-.92,1.03-1.3.44-.38.96-.68,1.56-.91.6-.23,1.25-.34,1.96-.34s1.36.12,1.9.35.97.56,1.27.98c.3.42.45.92.45,1.49,0,.4-.09.78-.28,1.15-.19.37-.44.73-.75,1.06-.31.34-.64.65-1,.95-.36.3-.71.57-1.05.81-.34.24-.64.46-.9.64l-5.07,3.97h7.06l.29-1.35h.36l-.8,3.62h-8.83Z"/>
    <path d="M491.61,602.63v-.35h6.31v.35h-6.31ZM493.52,602.63l2.97-13.15h-2.03v-.35h4.48l-3.06,13.5h-2.36Z"/>
  </g>
  <g>
    <path d="M408.73,936.65l.34-1.55,4.71-3.61c.44-.32.87-.7,1.28-1.13s.79-.89,1.12-1.39c.33-.49.59-1,.79-1.53.2-.53.3-1.06.3-1.58,0-.47-.07-.88-.22-1.23-.15-.35-.37-.62-.68-.82-.3-.2-.69-.3-1.16-.3s-.9.09-1.34.28c-.44.18-.84.44-1.2.76s-.65.7-.86,1.12-.32.88-.32,1.37h-.32c0-.19.07-.38.22-.55.14-.17.33-.32.55-.42.22-.11.46-.16.7-.16.36,0,.67.11.94.33.27.22.4.53.4.92,0,.43-.14.77-.41,1.04-.27.27-.62.41-1.03.41-.38,0-.7-.14-.98-.41s-.41-.66-.41-1.16c0-.53.12-1.04.37-1.52.25-.49.59-.92,1.03-1.3s.96-.68,1.56-.91c.6-.23,1.25-.34,1.96-.34s1.36.12,1.9.35.97.56,1.27.98c.3.42.45.91.45,1.48,0,.4-.09.78-.28,1.15s-.44.73-.75,1.06-.64.65-1,.95c-.36.3-.71.57-1.05.81-.34.24-.64.46-.9.64l-5.07,3.97h7.06l.29-1.35h.36l-.8,3.62h-8.83Z"/>
    <path d="M424.68,936.83c-.8,0-1.49-.19-2.06-.58-.57-.39-1.01-.89-1.31-1.52-.3-.63-.45-1.31-.45-2.04,0-1.04.12-2.04.37-3,.25-.96.59-1.85,1.03-2.66.44-.81.95-1.52,1.53-2.13s1.2-1.08,1.88-1.42c.67-.34,1.37-.51,2.08-.51.8,0,1.49.19,2.07.58.57.38,1.01.89,1.31,1.52.3.63.45,1.31.45,2.04,0,1.04-.12,2.04-.37,3s-.59,1.85-1.03,2.66c-.44.81-.95,1.52-1.53,2.13s-1.21,1.08-1.88,1.42c-.67.34-1.36.51-2.07.51ZM424.68,936.5c.38,0,.74-.13,1.08-.4.35-.27.67-.64.98-1.11.31-.47.59-1.01.85-1.61.26-.6.5-1.24.7-1.9s.38-1.33.53-1.99c.14-.66.25-1.29.33-1.89.08-.59.12-1.12.12-1.57,0-.35-.02-.69-.06-1.02s-.11-.62-.22-.87c-.11-.25-.26-.46-.46-.61s-.47-.22-.79-.22c-.38,0-.74.13-1.08.4-.35.27-.67.63-.98,1.1-.31.46-.59,1-.85,1.59-.26.6-.5,1.23-.7,1.89-.21.66-.38,1.33-.53,1.99-.14.67-.26,1.3-.33,1.9-.08.6-.12,1.14-.12,1.61,0,.35.02.69.06,1.02s.11.62.22.88c.1.26.26.46.46.61s.47.22.79.22Z"/>
    <path d="M430.8,936.65l.34-1.55,4.71-3.61c.44-.32.87-.7,1.28-1.13s.79-.89,1.12-1.39c.33-.49.59-1,.79-1.53.2-.53.3-1.06.3-1.58,0-.47-.07-.88-.22-1.23-.15-.35-.37-.62-.68-.82-.3-.2-.69-.3-1.16-.3s-.9.09-1.34.28c-.44.18-.84.44-1.2.76s-.65.7-.86,1.12-.32.88-.32,1.37h-.32c0-.19.07-.38.22-.55.14-.17.33-.32.55-.42.22-.11.46-.16.7-.16.36,0,.67.11.94.33.27.22.4.53.4.92,0,.43-.14.77-.41,1.04-.27.27-.62.41-1.03.41-.38,0-.7-.14-.98-.41s-.41-.66-.41-1.16c0-.53.12-1.04.37-1.52.25-.49.59-.92,1.03-1.3s.96-.68,1.56-.91c.6-.23,1.25-.34,1.96-.34s1.36.12,1.9.35.97.56,1.27.98c.3.42.45.91.45,1.48,0,.4-.09.78-.28,1.15s-.44.73-.75,1.06-.64.65-1,.95c-.36.3-.71.57-1.05.81-.34.24-.64.46-.9.64l-5.07,3.97h7.06l.29-1.35h.36l-.8,3.62h-8.83Z"/>
    <path d="M447.25,936.65l2.74-12.32-7.13,8.27h9.63v.35h-10.39l8.45-9.8h2.16l-3.1,13.5h-2.35ZM445.72,936.65v-.35h5.42v.35h-5.42Z"/>
    <path d="M454.54,931.87v-.34h4.32v.34h-4.32Z"/>
    <path d="M459.16,936.65l.34-1.55,4.71-3.61c.44-.32.87-.7,1.28-1.13s.79-.89,1.12-1.39c.33-.49.59-1,.79-1.53.2-.53.3-1.06.3-1.58,0-.47-.07-.88-.22-1.23-.15-.35-.37-.62-.67-.82-.3-.2-.69-.3-1.16-.3s-.9.09-1.34.28c-.44.18-.84.44-1.2.76-.36.32-.65.7-.86,1.12-.21.43-.32.88-.32,1.37h-.32c0-.19.07-.38.22-.55.14-.17.33-.32.55-.42s.46-.16.7-.16c.36,0,.67.11.94.33.27.22.4.53.4.92,0,.43-.14.77-.41,1.04-.27.27-.62.41-1.03.41-.38,0-.7-.14-.98-.41-.27-.27-.41-.66-.41-1.16,0-.53.12-1.04.37-1.52s.59-.92,1.03-1.3c.44-.38.96-.68,1.56-.91.6-.23,1.25-.34,1.96-.34s1.36.12,1.9.35.97.56,1.27.98c.3.42.45.91.45,1.48,0,.4-.09.78-.28,1.15-.19.37-.44.73-.75,1.06-.31.34-.64.65-1,.95-.36.3-.71.57-1.05.81-.34.24-.64.46-.9.64l-5.07,3.97h7.06l.29-1.35h.36l-.8,3.62h-8.83Z"/>
    <path d="M475.11,936.83c-.8,0-1.49-.19-2.06-.58s-1.01-.89-1.31-1.52-.45-1.31-.45-2.04c0-1.04.12-2.04.37-3s.59-1.85,1.03-2.66c.44-.81.95-1.52,1.53-2.13s1.21-1.08,1.88-1.42c.67-.34,1.37-.51,2.08-.51.8,0,1.49.19,2.07.58.57.38,1.01.89,1.31,1.52.3.63.46,1.31.46,2.04,0,1.04-.12,2.04-.37,3s-.59,1.85-1.03,2.66c-.44.81-.95,1.52-1.54,2.13s-1.21,1.08-1.88,1.42c-.67.34-1.36.51-2.08.51ZM475.11,936.5c.38,0,.74-.13,1.08-.4s.67-.64.98-1.11.59-1.01.85-1.61.5-1.24.7-1.9.38-1.33.53-1.99c.14-.66.25-1.29.33-1.89.08-.59.12-1.12.12-1.57,0-.35-.02-.69-.06-1.02s-.11-.62-.22-.87c-.11-.25-.26-.46-.46-.61s-.47-.22-.79-.22c-.38,0-.74.13-1.08.4-.34.27-.67.63-.98,1.1-.31.46-.59,1-.85,1.59-.26.6-.5,1.23-.7,1.89-.21.66-.38,1.33-.53,1.99-.14.67-.26,1.3-.33,1.9-.08.6-.12,1.14-.12,1.61,0,.35.02.69.06,1.02s.11.62.22.88c.1.26.26.46.46.61s.47.22.79.22Z"/>
    <path d="M481.23,936.65l.34-1.55,4.71-3.61c.44-.32.87-.7,1.28-1.13s.79-.89,1.12-1.39c.33-.49.59-1,.79-1.53.2-.53.3-1.06.3-1.58,0-.47-.07-.88-.22-1.23-.15-.35-.37-.62-.68-.82s-.69-.3-1.16-.3-.9.09-1.34.28c-.44.18-.84.44-1.2.76-.36.32-.65.7-.86,1.12-.21.43-.32.88-.32,1.37h-.32c0-.19.07-.38.22-.55.14-.17.33-.32.55-.42.22-.11.46-.16.7-.16.36,0,.67.11.94.33.27.22.4.53.4.92,0,.43-.14.77-.41,1.04s-.62.41-1.03.41c-.38,0-.7-.14-.98-.41-.27-.27-.41-.66-.41-1.16,0-.53.12-1.04.37-1.52.25-.49.59-.92,1.03-1.3.44-.38.96-.68,1.56-.91.6-.23,1.25-.34,1.96-.34s1.36.12,1.9.35.97.56,1.27.98.46.91.46,1.48c0,.4-.09.78-.28,1.15-.19.37-.44.73-.75,1.06-.31.34-.64.65-1,.95-.36.3-.71.57-1.05.81-.34.24-.64.46-.9.64l-5.07,3.97h7.06l.29-1.35h.36l-.8,3.62h-8.83Z"/>
    <path d="M496.55,936.83c-.7,0-1.33-.14-1.89-.43-.56-.29-1-.74-1.33-1.35-.32-.61-.49-1.39-.49-2.35,0-.81.17-1.66.5-2.56s.79-1.77,1.39-2.61c.6-.85,1.31-1.62,2.13-2.3.82-.69,1.72-1.23,2.7-1.64.98-.41,2.01-.61,3.1-.61v.32c-.72,0-1.4.15-2.05.44-.65.29-1.24.69-1.8,1.2-.55.51-1.05,1.08-1.49,1.73-.44.65-.81,1.32-1.12,2.03-.31.71-.55,1.42-.71,2.12-.16.71-.24,1.37-.24,1.99l-.04,1.27c0,.47.05.89.15,1.25s.26.64.47.85c.21.2.48.31.8.31.35,0,.68-.13.99-.38.31-.25.6-.59.86-1,.26-.42.49-.88.68-1.38.19-.5.34-1,.44-1.51.1-.51.15-.97.15-1.4,0-.8-.09-1.4-.28-1.81-.19-.41-.49-.62-.9-.62-.44,0-.83.13-1.19.4-.35.26-.67.61-.94,1.04-.27.43-.5.9-.68,1.41-.18.51-.32,1.02-.41,1.52s-.14.94-.14,1.33h-.33c0-.34.04-.73.1-1.17.07-.43.17-.89.32-1.36.14-.47.32-.93.54-1.37.22-.44.49-.84.8-1.2.31-.36.67-.64,1.07-.86.4-.21.85-.32,1.35-.32.39,0,.77.06,1.15.19s.71.32,1.02.59c.3.27.54.62.72,1.06s.27.97.27,1.6c0,.73-.16,1.42-.48,2.09-.32.67-.75,1.27-1.29,1.79-.54.53-1.15.94-1.82,1.24-.67.3-1.36.45-2.06.45Z"/>
  </g>
</svg>